<svg width="41" height="34" viewBox="0 0 41 34" fill="none" xmlns="http://www.w3.org/2000/svg">
<path fill-rule="evenodd" clip-rule="evenodd" d="M3.28231 14.7435C13.8903 10.1218 20.9639 7.07484 24.5032 5.60273C34.6086 1.39953 36.7084 0.669386 38.0771 0.645277C38.3781 0.639974 39.0512 0.714575 39.4871 1.06834C39.8553 1.36705 39.9565 1.77057 40.005 2.05378C40.0535 2.33699 40.1138 2.98216 40.0659 3.48627C39.5182 9.24013 37.1487 23.2032 35.9432 29.6476C35.4331 32.3745 34.4288 33.2888 33.4564 33.3783C31.3433 33.5728 29.7387 31.9818 27.692 30.6402C24.4893 28.5408 22.68 27.2339 19.5713 25.1853C15.9786 22.8178 18.3076 21.5166 20.3551 19.39C20.8909 18.8335 30.2014 10.3648 30.3817 9.59658C30.4042 9.5005 30.4251 9.14235 30.2123 8.95324C29.9996 8.76412 29.6855 8.82879 29.4589 8.88023C29.1377 8.95313 24.0214 12.3348 14.1101 19.0252C12.6579 20.0224 11.3425 20.5083 10.1639 20.4829C8.86469 20.4548 6.36545 19.7482 4.50752 19.1443C2.2287 18.4035 0.417536 18.0119 0.575247 16.7539C0.657393 16.0986 1.55975 15.4285 3.28231 14.7435Z" fill="url(#paint0_linear_11_2102)"/>
<defs>
<linearGradient id="paint0_linear_11_2102" x1="39.4284" y1="0.863351" x2="17.8865" y2="24.2975" gradientUnits="userSpaceOnUse">
<stop stop-color="#2AABEE"/>
<stop offset="1" stop-color="#229ED9"/>
</linearGradient>
</defs>
</svg>
