<svg width="493" height="138" viewBox="0 0 493 138" fill="none" xmlns="http://www.w3.org/2000/svg">
<path d="M321.54 116.472C301.546 105.451 302.748 106.126 302.748 106.126L293.539 133.334L275.121 89.0199L289.943 56.6282L321.54 116.472ZM321.54 116.472L339 84.6038M321.54 116.472L331.857 134.162M79.8823 90.6622L32.7529 4.00952L1.87659 89.0199L18.6291 119.175L32.7529 89.0199L56.1762 134.162L68.3068 105.801L98.922 119.175M79.8823 90.6622L90.823 75.6184M79.8823 90.6622L98.922 119.175M90.823 75.6184L126.024 24.0706L155.619 67.0721L150.71 101.785L143.255 86.5632L140.141 119.175L121.566 81.282L107.449 105.801L90.823 75.6184ZM98.922 119.175L114.519 134.162M434.902 86.5632L410.845 48.7445M434.902 86.5632L473.8 14.2585L490.568 73.7341L486.524 111.476L473.8 84.6038L458.797 111.476L448.977 89.0199L422.983 111.476M434.902 86.5632L422.983 111.476M410.845 48.7445L386.243 4.00952L339 84.6038M410.845 48.7445L395.724 81.282L386.243 60.5469L368.65 90.6622C368.65 90.6622 362.168 78.7534 358.636 73.7341L339 84.6038M422.983 111.476L410.845 134.162" stroke="white" stroke-width="3.23671"/>
</svg>
