<svg width="350" height="264" viewBox="0 0 350 264" fill="none" xmlns="http://www.w3.org/2000/svg">
<path d="M24.5881 108.786C-4.10684 113.782 5.99821 173.943 12.109 184.004C13.4376 190.596 20.8773 206.694 40.0072 218.352C63.9196 232.923 126.092 147.575 160.366 147.575C194.641 147.575 313.405 221.474 333.332 184.004C353.259 146.534 308.623 156.942 341.303 102.819C373.983 48.6955 306.158 72.8945 276.494 53.4011C259.088 41.9626 267.837 20.8971 224.794 4.24368C181.752 -12.4097 165.441 24.7563 137.543 33.0829C109.645 41.4096 112.051 21.6337 78.5737 33.0829C45.0963 44.5321 60.4568 102.541 24.5881 108.786Z" fill="#D7EAF9"/>
<path fill-rule="evenodd" clip-rule="evenodd" d="M349.012 164.009V199.941H-0.000113338V145.15H5.71751V138.996H13.8175V122.916H20.0115V112.791H27.3967V94.9245H30.0173V112.791H35.7349V122.916H42.1672V138.996H51.6966V143.959H57.176V162.421H64.5612V108.225H67.42V132.445H73.6141V124.305H77.1876V102.667H81.4758V61.1763H83.6199V79.6386H90.7669V89.1675H101.011V110.409H120.784V71.1022L142.225 69.9112V52.8386H148.181V128.871H166.525V110.409H183.185V72.889H192.969V34.7732H195.828V54.0295H202.975V71.1022H215.125V122.916H224.654V145.15H229.419L230.372 127.878H236.566V122.916H242.248H245.381V116.96H302.318L304.701 145.15L309.475 145.087L308.989 84.7999H313.754V62.1686H315.898V71.1022L331.145 76.6608L332.574 85.5942H339.721V146.341H344.009V164.009H349.012ZM243.497 127.408V130.146H245.271V127.408H243.497ZM337.21 91.7404V89.0032H335.456V91.7404H337.21ZM333.771 91.7404V89.0032H332.017V91.7404H333.771ZM328.016 91.7404H329.771V89.0032H328.016V91.7404ZM324.296 91.7404H326.051V89.0032H324.296V91.7404ZM320.843 89.0032H322.616V91.7404H320.843V89.0032ZM317.679 89.0032H319.452V91.7404H317.679V89.0032ZM314.276 89.0032H316.05V91.7404H314.276V89.0032ZM311.112 89.0032H312.885V91.7404H311.112V89.0032ZM337.21 96.182V93.4447H335.456V96.182H337.21ZM333.771 96.182V93.4447H332.017V96.182H333.771ZM328.016 96.182H329.771V93.4447H328.016V96.182ZM324.296 96.182H326.051V93.4447H324.296V96.182ZM320.843 93.4447H322.616V96.182H320.843V93.4447ZM317.679 93.4447H319.452V96.182H317.679V93.4447ZM314.276 93.4447H316.05V96.182H314.276V93.4447ZM311.112 93.4447H312.885V96.182H311.112V93.4447ZM337.21 101.173V98.4361H335.456V101.173H337.21ZM333.771 101.173V98.4361H332.017V101.173H333.771ZM328.016 101.173H329.771V98.4361H328.016V101.173ZM324.296 101.173H326.051V98.4361H324.296V101.173ZM320.843 98.4361H322.616V101.173H320.843V98.4361ZM317.679 98.4361H319.452V101.173H317.679V98.4361ZM314.276 98.4361H316.05V101.173H314.276V98.4361ZM311.112 98.4361H312.885V101.173H311.112V98.4361ZM337.21 106.249V103.512H335.456V106.249H337.21ZM333.771 106.249V103.512H332.017V106.249H333.771ZM328.016 106.249H329.771V103.512H328.016V106.249ZM324.296 106.249H326.051V103.512H324.296V106.249ZM320.843 103.512H322.616V106.249H320.843V103.512ZM317.679 103.512H319.452V106.249H317.679V103.512ZM314.276 103.512H316.05V106.249H314.276V103.512ZM311.112 103.512H312.885V106.249H311.112V103.512ZM337.21 111.098V108.361H335.456V111.098H337.21ZM333.771 111.098V108.361H332.017V111.098H333.771ZM328.016 111.098H329.771V108.361H328.016V111.098ZM324.296 111.098H326.051V108.361H324.296V111.098ZM320.843 108.361H322.616V111.098H320.843V108.361ZM317.679 108.361H319.452V111.098H317.679V108.361ZM314.276 108.361H316.05V111.098H314.276V108.361ZM311.112 108.361H312.885V111.098H311.112V108.361ZM337.21 115.54V112.803H335.456V115.54H337.21ZM333.771 115.54V112.803H332.017V115.54H333.771ZM328.016 115.54H329.771V112.803H328.016V115.54ZM324.296 115.54H326.051V112.803H324.296V115.54ZM320.843 112.803H322.616V115.54H320.843V112.803ZM317.679 112.803H319.452V115.54H317.679V112.803ZM314.276 112.803H316.05V115.54H314.276V112.803ZM311.112 112.803H312.885V115.54H311.112V112.803ZM337.21 120.531V117.794H335.456V120.531H337.21ZM333.771 120.531V117.794H332.017V120.531H333.771ZM328.016 120.531H329.771V117.794H328.016V120.531ZM324.296 120.531H326.051V117.794H324.296V120.531ZM320.843 117.794H322.616V120.531H320.843V117.794ZM317.679 117.794H319.452V120.531H317.679V117.794ZM314.276 117.794H316.05V120.531H314.276V117.794ZM311.112 117.794H312.885V120.531H311.112V117.794ZM337.21 125.607V122.87H335.456V125.607H337.21ZM333.771 125.607V122.87H332.017V125.607H333.771ZM328.016 125.607H329.771V122.87H328.016V125.607ZM324.296 125.607H326.051V122.87H324.296V125.607ZM320.843 122.87H322.616V125.607H320.843V122.87ZM317.679 122.87H319.452V125.607H317.679V122.87ZM314.276 122.87H316.05V125.607H314.276V122.87ZM311.112 122.87H312.885V125.607H311.112V122.87ZM337.21 130.578V127.841H335.456V130.578H337.21ZM333.771 130.578V127.841H332.017V130.578H333.771ZM328.016 130.578H329.771V127.841H328.016V130.578ZM324.296 130.578H326.051V127.841H324.296V130.578ZM320.843 127.841H322.616V130.578H320.843V127.841ZM317.679 127.841H319.452V130.578H317.679V127.841ZM314.276 127.841H316.05V130.578H314.276V127.841ZM312.885 127.841V130.578H311.112V127.841H312.885ZM337.21 135.02V132.283H335.456V135.02H337.21ZM333.771 135.02V132.283H332.017V135.02H333.771ZM328.016 135.02H329.771V132.283H328.016V135.02ZM324.296 135.02H326.051V132.283H324.296V135.02ZM320.843 132.283H322.616V135.02H320.843V132.283ZM317.679 132.283H319.452V135.02H317.679V132.283ZM314.276 132.283H316.05V135.02H314.276V132.283ZM311.112 132.283H312.885V135.02H311.112V132.283ZM337.21 140.011V137.274H335.456V140.011H337.21ZM333.771 140.011V137.274H332.017V140.011H333.771ZM328.016 140.011H329.771V137.274H328.016V140.011ZM324.296 140.011H326.051V137.274H324.296V140.011ZM320.843 137.274H322.616V140.011H320.843V137.274ZM317.679 137.274H319.452V140.011H317.679V137.274ZM314.276 137.274H316.05V140.011H314.276V137.274ZM311.112 137.274H312.885V140.011H311.112V137.274ZM337.21 145.087V142.35H335.456V145.087H337.21ZM333.771 145.087V142.35H332.017V145.087H333.771ZM328.016 145.087H329.771V142.35H328.016V145.087ZM324.296 145.087H326.051V142.35H324.296V145.087ZM320.843 142.35H322.616V145.087H320.843V142.35ZM317.679 142.35H319.452V145.087H317.679V142.35ZM314.276 142.35H316.05V145.087H314.276V142.35ZM311.112 142.35H312.885V145.087H311.112V142.35ZM211.771 80.1865V77.4492H210.016V80.1865H211.771ZM208.332 80.1865V77.4492H206.577V80.1865H208.332ZM202.576 80.1865H204.331V77.4492H202.576V80.1865ZM198.856 80.1865H200.611V77.4492H198.856V80.1865ZM195.403 77.4492H197.177V80.1865H195.403V77.4492ZM192.239 77.4492H194.013V80.1865H192.239V77.4492ZM188.837 77.4492H190.61V80.1865H188.837V77.4492ZM185.672 77.4492H187.446V80.1865H185.672V77.4492ZM211.771 84.628V81.8907H210.016V84.628H211.771ZM208.332 84.628V81.8907H206.577V84.628H208.332ZM202.576 84.628H204.331V81.8907H202.576V84.628ZM198.856 84.628H200.611V81.8907H198.856V84.628ZM195.403 81.8907H197.177V84.628H195.403V81.8907ZM192.239 81.8907H194.013V84.628H192.239V81.8907ZM188.837 81.8907H190.61V84.628H188.837V81.8907ZM185.672 81.8907H187.446V84.628H185.672V81.8907ZM211.771 89.6194V86.8822H210.016V89.6194H211.771ZM208.332 89.6194V86.8822H206.577V89.6194H208.332ZM202.576 89.6194H204.331V86.8822H202.576V89.6194ZM198.856 89.6194H200.611V86.8822H198.856V89.6194ZM195.403 86.8822H197.177V89.6194H195.403V86.8822ZM192.239 86.8822H194.013V89.6194H192.239V86.8822ZM188.837 86.8822H190.61V89.6194H188.837V86.8822ZM185.672 86.8822H187.446V89.6194H185.672V86.8822ZM211.771 94.6955V91.9582H210.016V94.6955H211.771ZM208.332 94.6955V91.9582H206.577V94.6955H208.332ZM202.576 94.6955H204.331V91.9582H202.576V94.6955ZM198.856 94.6955H200.611V91.9582H198.856V94.6955ZM195.403 91.9582H197.177V94.6955H195.403V91.9582ZM192.239 91.9582H194.013V94.6955H192.239V91.9582ZM188.837 91.9582H190.61V94.6955H188.837V91.9582ZM185.672 91.9582H187.446V94.6955H185.672V91.9582ZM211.771 99.5445V96.8072H210.016V99.5445H211.771ZM208.332 99.5445V96.8072H206.577V99.5445H208.332ZM202.576 99.5445H204.331V96.8072H202.576V99.5445ZM198.856 99.5445H200.611V96.8072H198.856V99.5445ZM195.403 96.8072H197.177V99.5445H195.403V96.8072ZM192.239 96.8072H194.013V99.5445H192.239V96.8072ZM188.837 96.8072H190.61V99.5445H188.837V96.8072ZM185.672 96.8072H187.446V99.5445H185.672V96.8072ZM211.771 103.986V101.249H210.016V103.986H211.771ZM208.332 103.986V101.249H206.577V103.986H208.332ZM202.576 103.986H204.331V101.249H202.576V103.986ZM198.856 103.986H200.611V101.249H198.856V103.986ZM195.403 101.249H197.177V103.986H195.403V101.249ZM192.239 101.249H194.013V103.986H192.239V101.249ZM188.837 101.249H190.61V103.986H188.837V101.249ZM185.672 101.249H187.446V103.986H185.672V101.249ZM211.771 108.977V106.24H210.016V108.977H211.771ZM208.332 108.977V106.24H206.577V108.977H208.332ZM202.576 108.977H204.331V106.24H202.576V108.977ZM198.856 108.977H200.611V106.24H198.856V108.977ZM195.403 106.24H197.177V108.977H195.403V106.24ZM192.239 106.24H194.013V108.977H192.239V106.24ZM188.837 106.24H190.61V108.977H188.837V106.24ZM185.672 106.24H187.446V108.977H185.672V106.24ZM211.771 114.053V111.316H210.016V114.053H211.771ZM208.332 114.053V111.316H206.577V114.053H208.332ZM202.576 114.053H204.331V111.316H202.576V114.053ZM198.856 114.053H200.611V111.316H198.856V114.053ZM195.403 111.316H197.177V114.053H195.403V111.316ZM192.239 111.316H194.013V114.053H192.239V111.316ZM188.837 111.316H190.61V114.053H188.837V111.316ZM185.672 111.316H187.446V114.053H185.672V111.316ZM211.771 119.024V116.287H210.016V119.024H211.771ZM208.332 119.024V116.287H206.577V119.024H208.332ZM202.576 119.024H204.331V116.287H202.576V119.024ZM198.856 119.024H200.611V116.287H198.856V119.024ZM195.403 116.287H197.177V119.024H195.403V116.287ZM192.239 116.287H194.013V119.024H192.239V116.287ZM188.837 116.287H190.61V119.024H188.837V116.287ZM187.446 116.287V119.024H185.672V116.287H187.446ZM211.771 123.466V120.729H210.016V123.466H211.771ZM208.332 123.466V120.729H206.577V123.466H208.332ZM202.576 123.466H204.331V120.729H202.576V123.466ZM198.856 123.466H200.611V120.729H198.856V123.466ZM195.403 120.729H197.177V123.466H195.403V120.729ZM192.239 120.729H194.013V123.466H192.239V120.729ZM188.837 120.729H190.61V123.466H188.837V120.729ZM185.672 120.729H187.446V123.466H185.672V120.729ZM211.771 128.457V125.72H210.016V128.457H211.771ZM208.332 128.457V125.72H206.577V128.457H208.332ZM202.576 128.457H204.331V125.72H202.576V128.457ZM198.856 128.457H200.611V125.72H198.856V128.457ZM195.403 125.72H197.177V128.457H195.403V125.72ZM192.239 125.72H194.013V128.457H192.239V125.72ZM188.837 125.72H190.61V128.457H188.837V125.72ZM185.672 125.72H187.446V128.457H185.672V125.72ZM211.771 133.823V131.086H210.016V133.823H211.771ZM208.332 133.823V131.086H206.577V133.823H208.332ZM202.576 133.823H204.331V131.086H202.576V133.823ZM198.856 133.823H200.611V131.086H198.856V133.823ZM195.403 131.086H197.177V133.823H195.403V131.086ZM192.239 131.086H194.013V133.823H192.239V131.086ZM188.837 131.086H190.61V133.823H188.837V131.086ZM185.672 131.086H187.446V133.823H185.672V131.086ZM211.771 138.265V135.527H210.016V138.265H211.771ZM208.332 138.265V135.527H206.577V138.265H208.332ZM202.576 138.265H204.331V135.527H202.576V138.265ZM198.856 138.265H200.611V135.527H198.856V138.265ZM195.403 135.527H197.177V138.265H195.403V135.527ZM192.239 135.527H194.013V138.265H192.239V135.527ZM188.837 135.527H190.61V138.265H188.837V135.527ZM185.672 135.527H187.446V138.265H185.672V135.527ZM211.771 143.256V140.519H210.016V143.256H211.771ZM208.332 143.256V140.519H206.577V143.256H208.332ZM202.576 143.256H204.331V140.519H202.576V143.256ZM198.856 143.256H200.611V140.519H198.856V143.256ZM195.403 140.519H197.177V143.256H195.403V140.519ZM192.239 140.519H194.013V143.256H192.239V140.519ZM188.837 140.519H190.61V143.256H188.837V140.519ZM185.672 140.519H187.446V143.256H185.672V140.519ZM211.771 148.332V145.595H210.016V148.332H211.771ZM208.332 148.332V145.595H206.577V148.332H208.332ZM202.576 148.332H204.331V145.595H202.576V148.332ZM198.856 148.332H200.611V145.595H198.856V148.332ZM195.403 145.595H197.177V148.332H195.403V145.595ZM192.239 145.595H194.013V148.332H192.239V145.595ZM188.837 145.595H190.61V148.332H188.837V145.595ZM185.672 145.595H187.446V148.332H185.672V145.595ZM211.771 153.181V150.444H210.016V153.181H211.771ZM208.332 153.181V150.444H206.577V153.181H208.332ZM202.576 153.181H204.331V150.444H202.576V153.181ZM198.856 153.181H200.611V150.444H198.856V153.181ZM195.403 150.444H197.177V153.181H195.403V150.444ZM192.239 150.444H194.013V153.181H192.239V150.444ZM188.837 150.444H190.61V153.181H188.837V150.444ZM185.672 150.444H187.446V153.181H185.672V150.444ZM211.771 157.623V154.885H210.016V157.623H211.771ZM208.332 157.623V154.885H206.577V157.623H208.332ZM202.576 157.623H204.331V154.885H202.576V157.623ZM198.856 157.623H200.611V154.885H198.856V157.623ZM195.403 154.885H197.177V157.623H195.403V154.885ZM192.239 154.885H194.013V157.623H192.239V154.885ZM188.837 154.885H190.61V157.623H188.837V154.885ZM185.672 154.885H187.446V157.623H185.672V154.885ZM297.521 130.146V127.408H295.767V130.146H297.521ZM294.082 130.146V127.408H292.328V130.146H294.082ZM288.327 130.146H290.082V127.408H288.327V130.146ZM284.607 130.146H286.362V127.408H284.607V130.146ZM281.154 127.408H282.927V130.146H281.154V127.408ZM277.99 127.408H279.763V130.146H277.99V127.408ZM274.587 127.408H276.361V130.146H274.587V127.408ZM271.423 127.408H273.196V130.146H271.423V127.408ZM297.521 134.587V131.85H295.767V134.587H297.521ZM294.082 134.587V131.85H292.328V134.587H294.082ZM288.327 134.587H290.082V131.85H288.327V134.587ZM284.607 134.587H286.362V131.85H284.607V134.587ZM281.154 131.85H282.927V134.587H281.154V131.85ZM277.99 131.85H279.763V134.587H277.99V131.85ZM274.587 131.85H276.361V134.587H274.587V131.85ZM271.423 131.85H273.196V134.587H271.423V131.85ZM297.521 139.579V136.841H295.767V139.579H297.521ZM294.082 139.579V136.841H292.328V139.579H294.082ZM288.327 139.579H290.082V136.841H288.327V139.579ZM284.607 139.579H286.362V136.841H284.607V139.579ZM281.154 136.841H282.927V139.579H281.154V136.841ZM274.587 136.841H276.361V139.579H274.587V136.841ZM271.423 136.841H273.196V139.579H271.423V136.841ZM297.521 144.655V141.917H295.767V144.655H297.521ZM294.082 144.655V141.917H292.328V144.655H294.082ZM288.327 144.655H290.082V141.917H288.327V144.655ZM284.607 144.655H286.362V141.917H284.607V144.655ZM281.154 141.917H282.927V144.655H281.154V141.917ZM277.99 141.917H279.763V144.655H277.99V141.917ZM274.587 141.917H276.361V144.655H274.587V141.917ZM271.423 141.917H273.196V144.655H271.423V141.917ZM297.521 149.504V146.766H295.767V149.504H297.521ZM294.082 149.504V146.766H292.328V149.504H294.082ZM288.327 149.504H290.082V146.766H288.327V149.504ZM284.607 149.504H286.362V146.766H284.607V149.504ZM281.154 146.766H282.927V149.504H281.154V146.766ZM277.99 146.766H279.763V149.504H277.99V146.766ZM274.587 146.766H276.361V149.504H274.587V146.766ZM271.423 146.766H273.196V149.504H271.423V146.766ZM297.521 153.945V151.208H295.767V153.945H297.521ZM294.082 153.945V151.208H292.328V153.945H294.082ZM288.327 153.945H290.082V151.208H288.327V153.945ZM284.607 153.945H286.362V151.208H284.607V153.945ZM281.154 151.208H282.927V153.945H281.154V151.208ZM277.99 151.208H279.763V153.945H277.99V151.208ZM274.587 151.208H276.361V153.945H274.587V151.208ZM271.423 151.208H273.196V153.945H271.423V151.208ZM297.521 158.937V156.199H295.767V158.937H297.521ZM294.082 158.937V156.199H292.328V158.937H294.082ZM288.327 158.937H290.082V156.199H288.327V158.937ZM284.607 158.937H286.362V156.199H284.607V158.937ZM281.154 156.199H282.927V158.937H281.154V156.199ZM277.99 156.199H279.763V158.937H277.99V156.199ZM274.587 156.199H276.361V158.937H274.587V156.199ZM271.423 156.199H273.196V158.937H271.423V156.199ZM297.521 164.013V161.275H295.767V164.013H297.521ZM294.082 164.013V161.275H292.328V164.013H294.082ZM288.327 164.013H290.082V161.275H288.327V164.013ZM284.607 164.013H286.362V161.275H284.607V164.013ZM281.154 161.275H282.927V164.013H281.154V161.275ZM277.99 161.275H279.763V164.013H277.99V161.275ZM274.587 161.275H276.361V164.013H274.587V161.275ZM271.423 161.275H273.196V164.013H271.423V161.275ZM297.521 168.984V166.246H295.767V168.984H297.521ZM294.082 168.984V166.246H292.328V168.984H294.082ZM288.327 168.984H290.082V166.246H288.327V168.984ZM284.607 168.984H286.362V166.246H284.607V168.984ZM281.154 166.246H282.927V168.984H281.154V166.246ZM277.99 166.246H279.763V168.984H277.99V166.246ZM274.587 166.246H276.361V168.984H274.587V166.246ZM273.196 166.246V168.984H271.423V166.246H273.196ZM297.521 173.425V170.688H295.767V173.425H297.521ZM294.082 173.425V170.688H292.328V173.425H294.082ZM288.327 173.425H290.082V170.688H288.327V173.425ZM284.607 173.425H286.362V170.688H284.607V173.425ZM281.154 170.688H282.927V173.425H281.154V170.688ZM277.99 170.688H279.763V173.425H277.99V170.688ZM274.587 170.688H276.361V173.425H274.587V170.688ZM271.423 170.688H273.196V173.425H271.423V170.688ZM297.521 178.417V175.679H295.767V178.417H297.521ZM294.082 178.417V175.679H292.328V178.417H294.082ZM288.327 178.417H290.082V175.679H288.327V178.417ZM284.607 178.417H286.362V175.679H284.607V178.417ZM281.154 175.679H282.927V178.417H281.154V175.679ZM277.99 175.679H279.763V178.417H277.99V175.679ZM274.587 175.679H276.361V178.417H274.587V175.679ZM271.423 175.679H273.196V178.417H271.423V175.679ZM269.596 130.146V127.408H267.841V130.146H269.596ZM266.157 130.146V127.408H264.402V130.146H266.157ZM260.401 130.146H262.156V127.408H260.401V130.146ZM256.682 130.146H258.436V127.408H256.682V130.146ZM253.228 127.408H255.002V130.146H253.228V127.408ZM250.064 127.408H251.838V130.146H250.064V127.408ZM246.662 127.408H248.435V130.146H246.662V127.408ZM269.596 134.587V131.85H267.841V134.587H269.596ZM266.157 134.587V131.85H264.402V134.587H266.157ZM260.401 134.587H262.156V131.85H260.401V134.587ZM256.682 134.587H258.436V131.85H256.682V134.587ZM253.228 131.85H255.002V134.587H253.228V131.85ZM250.064 131.85H251.838V134.587H250.064V131.85ZM246.662 131.85H248.435V134.587H246.662V131.85ZM243.497 131.85H245.271V134.587H243.497V131.85ZM269.596 139.579V136.841H267.841V139.579H269.596ZM266.157 139.579V136.841H264.402V139.579H266.157ZM260.401 139.579H262.156V136.841H260.401V139.579ZM256.682 139.579H258.436V136.841H256.682V139.579ZM253.228 136.841H255.002V139.579H253.228V136.841ZM246.662 136.841H248.435V139.579H246.662V136.841ZM243.497 136.841H245.271V139.579H243.497V136.841ZM269.596 144.655V141.917H267.841V144.655H269.596ZM266.157 144.655V141.917H264.402V144.655H266.157ZM260.401 144.655H262.156V141.917H260.401V144.655ZM256.682 144.655H258.436V141.917H256.682V144.655ZM253.228 141.917H255.002V144.655H253.228V141.917ZM250.064 141.917H251.838V144.655H250.064V141.917ZM246.662 141.917H248.435V144.655H246.662V141.917ZM243.497 141.917H245.271V144.655H243.497V141.917ZM269.596 149.504V146.766H267.841V149.504H269.596ZM266.157 149.504V146.766H264.402V149.504H266.157ZM260.401 149.504H262.156V146.766H260.401V149.504ZM256.682 149.504H258.436V146.766H256.682V149.504ZM253.228 146.766H255.002V149.504H253.228V146.766ZM250.064 146.766H251.838V149.504H250.064V146.766ZM246.662 146.766H248.435V149.504H246.662V146.766ZM243.497 146.766H245.271V149.504H243.497V146.766ZM269.596 153.945V151.208H267.841V153.945H269.596ZM266.157 153.945V151.208H264.402V153.945H266.157ZM260.401 153.945H262.156V151.208H260.401V153.945ZM256.682 153.945H258.436V151.208H256.682V153.945ZM253.228 151.208H255.002V153.945H253.228V151.208ZM250.064 151.208H251.838V153.945H250.064V151.208ZM246.662 151.208H248.435V153.945H246.662V151.208ZM243.497 151.208H245.271V153.945H243.497V151.208ZM269.596 158.937V156.199H267.841V158.937H269.596ZM266.157 158.937V156.199H264.402V158.937H266.157ZM260.401 158.937H262.156V156.199H260.401V158.937ZM256.682 158.937H258.436V156.199H256.682V158.937ZM253.228 156.199H255.002V158.937H253.228V156.199ZM250.064 156.199H251.838V158.937H250.064V156.199ZM246.662 156.199H248.435V158.937H246.662V156.199ZM243.497 156.199H245.271V158.937H243.497V156.199ZM269.596 164.013V161.275H267.841V164.013H269.596ZM266.157 164.013V161.275H264.402V164.013H266.157ZM260.401 164.013H262.156V161.275H260.401V164.013ZM256.682 164.013H258.436V161.275H256.682V164.013ZM253.228 161.275H255.002V164.013H253.228V161.275ZM250.064 161.275H251.838V164.013H250.064V161.275ZM246.662 161.275H248.435V164.013H246.662V161.275ZM243.497 161.275H245.271V164.013H243.497V161.275ZM269.596 168.984V166.246H267.841V168.984H269.596ZM266.157 168.984V166.246H264.402V168.984H266.157ZM260.401 168.984H262.156V166.246H260.401V168.984ZM256.682 168.984H258.436V166.246H256.682V168.984ZM253.228 166.246H255.002V168.984H253.228V166.246ZM250.064 166.246H251.838V168.984H250.064V166.246ZM246.662 166.246H248.435V168.984H246.662V166.246ZM245.271 166.246V168.984H243.497V166.246H245.271ZM269.596 173.425V170.688H267.841V173.425H269.596ZM266.157 173.425V170.688H264.402V173.425H266.157ZM260.401 173.425H262.156V170.688H260.401V173.425ZM256.682 173.425H258.436V170.688H256.682V173.425ZM253.228 170.688H255.002V173.425H253.228V170.688ZM250.064 170.688H251.838V173.425H250.064V170.688ZM246.662 170.688H248.435V173.425H246.662V170.688ZM243.497 170.688H245.271V173.425H243.497V170.688ZM269.596 178.417V175.679H267.841V178.417H269.596ZM266.157 178.417V175.679H264.402V178.417H266.157ZM260.401 178.417H262.156V175.679H260.401V178.417ZM256.682 178.417H258.436V175.679H256.682V178.417ZM253.228 175.679H255.002V178.417H253.228V175.679ZM250.064 175.679H251.838V178.417H250.064V175.679ZM246.662 175.679H248.435V178.417H246.662V175.679ZM243.497 175.679H245.271V178.417H243.497V175.679ZM37.6035 127.516V130.254H35.8488V127.516H37.6035ZM31.8482 130.254H33.6029V127.516H31.8482V130.254ZM29.883 130.254H28.1283V127.516H29.883V130.254ZM24.6751 127.516H26.4486V130.254H24.6751V127.516ZM23.2844 127.516H21.511V130.254H23.2844V127.516ZM18.1084 127.516H19.8818V130.254H18.1084V127.516ZM19.8818 131.958H18.1084V134.695H19.8818V131.958ZM18.1084 136.949H19.8818V139.687H18.1084V136.949ZM19.8818 142.025H18.1084V144.763H19.8818V142.025ZM14.9443 142.025H16.7177V144.763H14.9443V142.025ZM23.2844 142.025H21.511V144.763H23.2844V142.025ZM24.6751 142.025H26.4486V144.763H24.6751V142.025ZM29.883 144.763H28.1283V142.025H29.883V144.763ZM31.8482 144.763H33.6029V142.025H31.8482V144.763ZM37.6035 142.025V144.763H35.8488V142.025H37.6035ZM41.0426 144.763V142.025H39.288V144.763H41.0426ZM37.6035 136.949V139.687H35.8488V136.949H37.6035ZM37.6035 134.695V131.958H35.8488V134.695H37.6035ZM33.6029 134.695H31.8482V131.958H33.6029V134.695ZM31.8482 139.687H33.6029V136.949H31.8482V139.687ZM41.0426 146.874V149.612H39.288V146.874H41.0426ZM37.6035 149.612V146.874H35.8488V149.612H37.6035ZM33.6029 149.612H31.8482V146.874H33.6029V149.612ZM28.1283 149.612H29.883V146.874H28.1283V149.612ZM26.4486 146.874H24.6751V149.612H26.4486V146.874ZM21.511 146.874H23.2844V149.612H21.511V146.874ZM19.8818 146.874H18.1084V149.612H19.8818V146.874ZM14.9443 146.874H16.7177V149.612H14.9443V146.874ZM16.7177 151.316H14.9443V154.053H16.7177V151.316ZM18.1084 151.316H19.8818V154.053H18.1084V151.316ZM23.2844 151.316H21.511V154.053H23.2844V151.316ZM24.6751 151.316H26.4486V154.053H24.6751V151.316ZM29.883 154.053H28.1283V151.316H29.883V154.053ZM31.8482 154.053H33.6029V151.316H31.8482V154.053ZM37.6035 151.316V154.053H35.8488V151.316H37.6035ZM41.0426 154.053V151.316H39.288V154.053H41.0426ZM41.0426 156.307V159.045H39.288V156.307H41.0426ZM37.6035 159.045V156.307H35.8488V159.045H37.6035ZM33.6029 159.045H31.8482V156.307H33.6029V159.045ZM28.1283 159.045H29.883V156.307H28.1283V159.045ZM26.4486 156.307H24.6751V159.045H26.4486V156.307ZM21.511 156.307H23.2844V159.045H21.511V156.307ZM19.8818 156.307H18.1084V159.045H19.8818V156.307ZM14.9443 156.307H16.7177V159.045H14.9443V156.307ZM16.7177 161.383H14.9443V164.121H16.7177V161.383ZM18.1084 161.383H19.8818V164.121H18.1084V161.383ZM23.2844 161.383H21.511V164.121H23.2844V161.383ZM24.6751 161.383H26.4486V164.121H24.6751V161.383ZM29.883 164.121H28.1283V161.383H29.883V164.121ZM31.8482 164.121H33.6029V161.383H31.8482V164.121ZM37.6035 161.383V164.121H35.8488V161.383H37.6035ZM41.0426 164.121V161.383H39.288V164.121H41.0426ZM41.0426 166.354V169.092H39.288V166.354H41.0426ZM37.6035 169.092V166.354H35.8488V169.092H37.6035ZM33.6029 169.092H31.8482V166.354H33.6029V169.092ZM28.1283 169.092H29.883V166.354H28.1283V169.092ZM26.4486 166.354H24.6751V169.092H26.4486V166.354ZM21.511 166.354H23.2844V169.092H21.511V166.354ZM19.8818 166.354H18.1084V169.092H19.8818V166.354ZM16.7177 166.354V169.092H14.9443V166.354H16.7177ZM16.7177 170.796H14.9443V173.533H16.7177V170.796ZM18.1084 170.796H19.8818V173.533H18.1084V170.796ZM23.2844 170.796H21.511V173.533H23.2844V170.796ZM24.6751 170.796H26.4486V173.533H24.6751V170.796ZM29.883 173.533H28.1283V170.796H29.883V173.533ZM31.8482 173.533H33.6029V170.796H31.8482V173.533ZM37.6035 170.796V173.533H35.8488V170.796H37.6035ZM41.0426 173.533V170.796H39.288V173.533H41.0426ZM41.0426 175.787V178.525H39.288V175.787H41.0426ZM37.6035 178.525V175.787H35.8488V178.525H37.6035ZM33.6029 178.525H31.8482V175.787H33.6029V178.525ZM28.1283 178.525H29.883V175.787H28.1283V178.525ZM26.4486 175.787H24.6751V178.525H26.4486V175.787ZM21.511 175.787H23.2844V178.525H21.511V175.787ZM19.8818 175.787H18.1084V178.525H19.8818V175.787ZM14.9443 175.787H16.7177V178.525H14.9443V175.787ZM23.2844 136.949H21.511V139.687H23.2844V136.949ZM24.6751 136.949H26.4486V139.687H24.6751V136.949ZM29.883 139.687H28.1283V136.949H29.883V139.687ZM28.1283 134.695H29.883V131.958H28.1283V134.695ZM26.4486 131.958H24.6751V134.695H26.4486V131.958ZM21.511 131.958H23.2844V134.695H21.511V131.958Z" fill="#F3F1F1"/>
<path d="M58.9606 233.106C28.1546 225.333 12.7784 236.345 8.94099 242.824C-10.8507 247.862 3.90157 245.343 36.6498 258.658C69.3981 271.973 65.7994 254.34 115.821 250.741C165.844 247.142 136.334 255.779 155.047 261.537C173.761 267.295 201.471 255.779 221.264 250.741C241.057 245.703 261.929 250.021 285.681 258.658C309.432 267.295 346.139 254.34 343.26 248.222C340.381 242.104 334.983 242.824 332.464 233.106C329.945 223.389 309.072 233.106 300.795 237.786C292.518 242.465 239.617 234.906 217.665 224.83C195.713 214.753 140.293 230.588 136.334 233.106C132.376 235.625 97.468 242.824 58.9606 233.106Z" fill="#F3F1F1"/>
<rect x="298.229" y="231.166" width="3.75656" height="9.1227" fill="#FCB69F"/>
<rect x="317.964" y="231.003" width="3.29167" height="9.63883" transform="rotate(9.05315 317.964 231.003)" fill="#FCB69F"/>
<path d="M283.155 121.009C283.352 120.556 290.956 119.92 296.009 117.581L299.144 126.138L283.155 129.76C283.155 126.62 282.957 121.463 283.155 121.009Z" fill="#FCB69F" stroke="#C59847" stroke-width="0.404815"/>
<path d="M321.433 233.509C324.779 224.883 328.01 183.044 327.843 162.449L297.967 167.342C295.06 190.166 297.315 232.199 297.425 233.093C297.535 233.987 301.446 233.534 303.388 233.196L311.806 181.535L317.511 233.441C317.937 235.081 321.058 234.476 321.433 233.509Z" fill="#BAC6E0"/>
<path d="M303.264 244.435C302.957 244.806 291.728 245.272 286.606 244.523C288.517 241.393 296.548 236.956 297.967 237.374C298.334 237.483 299.585 238.816 302.179 237.447C302.989 239.226 304.563 242.864 303.264 244.435Z" fill="#BAC6E0"/>
<path d="M321.232 245.123C320.925 245.494 314.985 245.525 309.862 244.776C310.681 241.777 315.16 237.183 316.579 237.602C316.946 237.71 317.553 239.504 320.147 238.135C320.956 239.914 322.531 243.552 321.232 245.123Z" fill="#BAC6E0"/>
<path d="M310.235 97.9903L314.063 104.151C312.281 107.336 307.86 108.007 305.872 107.945L303.075 100.829L308.811 97.0769L310.235 97.9903Z" fill="#FCB69F" stroke="#CB9A42" stroke-width="0.404815"/>
<path d="M308.6 97.7802C310.185 98.0774 313.46 98.1443 313.881 96.0343C314.151 94.6829 313.961 94.3518 313.685 94.4072C315.397 93.0996 317.662 90.5577 315.847 88.5658C313.357 85.8323 316.766 85.4776 315.847 85.4617C314.929 85.4459 316.046 82.0966 313.881 82.0591C311.716 82.0217 308.368 78.8222 304.918 77.9314C303.475 77.5589 301.561 79.912 301.208 78.8414C301.073 78.6422 300.783 78.3878 300.703 78.9639C300.623 79.54 300.278 79.1097 300.115 78.8225C300.15 78.5023 300.108 77.9824 299.662 78.4646C299.104 79.0674 296.854 80.1659 297.276 82.3605C297.697 84.5551 297.911 86.0899 300.175 86.6978C302.44 87.3057 308.377 90.5363 308.369 90.9736C308.362 91.411 305.781 93.9036 307.042 94.3628C308.051 94.7303 308.501 96.7942 308.6 97.7802Z" fill="#404B77"/>
<path d="M311.158 93.562C311.342 94.6485 309.535 96.0449 308.608 96.6072C308.784 100.221 298.795 103.615 297.86 98.9605C296.691 93.1424 300.227 86.8979 300.146 86.6849C300.065 86.4719 306.531 89.4192 307.419 89.4769C308.307 89.5346 307.794 89.8219 308.46 90.4683C309.126 91.1146 307.354 93.2422 307.343 93.8769C307.334 94.3846 307.756 94.4624 307.968 94.4378C308.107 93.749 308.598 92.282 309.45 91.9243C310.516 91.4772 310.927 92.2038 311.158 93.562Z" fill="#FCB69F" stroke="#D3A756" stroke-width="0.404815"/>
<path d="M327.954 162.467C327.954 162.467 331.389 121.068 314.521 104.126C314.521 104.126 313.424 105.245 312.322 106.198C311.145 106.281 310.177 106.889 309.33 107.829C307.686 108.196 305.595 108.334 305.595 108.334L305.382 107.739C305.382 107.739 303.853 109.675 301.943 111.912C300.736 113.326 300.169 114.317 298.759 115.411C297.701 116.232 295.859 117.081 295.859 117.081L298.734 124.401L302.541 120.091C302.541 120.091 310.561 128.036 309.707 128.875C307.709 130.836 295.796 136.821 295.796 136.821C295.796 136.821 292.795 158.318 298.949 165.494C303.022 168.528 327.954 162.467 327.954 162.467Z" fill="#3D4C6C"/>
<path d="M65.4837 96.5012L70.9199 83.6488L68.7893 73.2905C60.9581 71.1441 55.7164 79.9601 55.1737 84.6363C54.9285 85.0042 54.5851 85.9876 55.1737 86.9776C55.7624 87.9677 57.5923 88.2102 57.8933 88.2214C58.7486 90.202 58.6911 95.2026 56.8127 96.5012C54.1202 98.3626 63.7779 99.1766 65.4837 96.5012Z" fill="#FEC082"/>
<path d="M56.295 97.1561L53.7095 98.8099C59.5689 112.907 72.3632 138.847 76.6647 129.83C80.9663 120.814 73.6316 102.188 69.4265 94.0023L68.0823 94.5183L67.0483 93.4849C67.0483 93.4849 65.793 96.3519 64.1278 96.777C63.8072 96.8588 63.6165 96.8725 63.2912 96.8959L63.274 96.8972C60.7524 97.0787 57.4835 94.0023 57.4835 94.0023L56.295 97.1561Z" fill="#DEEAF0" stroke="#C6D5DD" stroke-width="0.269877"/>
<path d="M62.9385 235.99H56.1704C56.1704 235.99 60.9521 220.28 62.9385 205.653C65.4202 187.379 54.8171 170.007 54.8171 170.007C57.0188 169.181 82.5698 156.788 93.2511 155.72C93.2511 155.72 106.041 173.268 110.645 186.163C113.137 193.143 114.03 197.259 115.301 204.561C117.409 216.666 116.778 235.99 116.778 235.99H110.645C96.6759 184.459 86.9593 175.539 83.9561 174.465C80.432 173.206 78.6869 175.054 77.8882 176.369C77.8882 176.369 77.1804 196.185 73.9928 208.36C71.0492 219.603 62.9385 235.99 62.9385 235.99Z" fill="#15395B"/>
<path d="M93.2511 159.315L54.8171 170.007M54.8171 170.007C57.0188 169.181 82.5698 156.788 93.2511 155.72C93.2511 155.72 106.041 173.268 110.645 186.163C113.137 193.143 114.03 197.259 115.301 204.561C117.409 216.666 116.778 235.99 116.778 235.99H110.645C96.6759 184.459 86.9593 175.539 83.9561 174.465C80.432 173.206 78.6869 175.054 77.8882 176.369C77.8882 176.369 77.1804 196.185 73.9928 208.36C71.0493 219.603 62.9385 235.99 62.9385 235.99H56.1704C56.1704 235.99 60.9521 220.28 62.9385 205.653C65.4202 187.379 54.8171 170.007 54.8171 170.007Z" stroke="#26264F" stroke-width="0.269877"/>
<path fill-rule="evenodd" clip-rule="evenodd" d="M99.7968 118.697C95.1113 106.451 96.2261 98.2479 82.2218 96.7864C79.969 96.5513 76.4622 95.9516 73.4854 95.2032C71.9318 94.8127 70.5226 94.3817 69.5113 93.9409C73.446 99.6077 77.8465 119.283 76.2996 129.268L76.2385 129.64L66.2839 115.055L53.1044 98.3411L51.3449 99.5663L42.2506 105.899C36.4177 112.472 24.1916 133.997 24.2669 135.868C24.402 139.221 27.9291 142.672 32.5914 145.788C37.2725 148.918 43.0979 151.711 47.7832 153.732C48.7928 162.697 54.734 171.969 54.734 171.969C54.734 171.969 64.5337 169.296 76.2385 167.261C76.4963 167.216 76.7705 167.169 77.0593 167.119C82.9662 166.097 94.9806 164.019 97.1994 161.541C87.1891 147.376 92.4824 130.225 92.4824 130.225C92.4824 130.225 92.2338 121.835 100.85 131.961C100.373 130.807 131.379 156.806 132.639 153.982C133.563 151.912 104.407 125.438 103.639 126.282C102.978 127.01 101.727 123.742 99.7968 118.697ZM43.8499 127.814C41.7051 133.925 45.4088 134.225 45.6078 140.842C42.8049 138.535 41.934 140.545 40.338 136.821C40.2049 136.511 40.1117 136.192 40.0531 135.868C39.3017 131.714 44.237 126.711 43.8499 127.814Z" fill="#0D4E8B"/>
<path d="M76.2385 129.64L66.2839 115.055L53.1044 98.3411L51.3449 99.5663L42.2506 105.899C36.4177 112.472 24.1916 133.997 24.2669 135.868C24.402 139.221 27.9291 142.672 32.5914 145.788C37.2725 148.918 43.0979 151.711 47.7832 153.732M76.2385 129.64V167.261M76.2385 129.64L76.2996 129.268M76.2385 129.64C76.2598 129.518 76.2802 129.394 76.2996 129.268M76.2385 167.261C64.5337 169.296 54.734 171.969 54.734 171.969C54.734 171.969 48.7928 162.697 47.7832 153.732M76.2385 167.261C76.4963 167.216 76.7705 167.169 77.0593 167.119C82.9662 166.097 94.9806 164.019 97.1994 161.541C87.1891 147.376 92.4824 130.225 92.4824 130.225C92.4824 130.225 92.2338 121.835 100.85 131.961C100.373 130.807 131.379 156.806 132.639 153.982C133.563 151.912 104.407 125.438 103.639 126.282C102.978 127.01 101.727 123.742 99.7968 118.697C95.1113 106.451 96.2261 98.2479 82.2218 96.7864C79.969 96.5513 76.4622 95.9516 73.4854 95.2032C71.9318 94.8127 70.5226 94.3817 69.5113 93.9409C73.446 99.6077 77.8465 119.283 76.2996 129.268M47.7832 153.732C52.5505 155.789 56.9249 157.046 56.9249 157.046L67.7533 153.982C67.7533 153.982 53.9907 147.745 45.6078 140.842M45.6078 140.842C45.4088 134.225 41.7051 133.925 43.8499 127.814C44.237 126.711 39.3017 131.714 40.0531 135.868C40.1117 136.192 40.2049 136.511 40.338 136.821C41.934 140.545 42.8049 138.535 45.6078 140.842Z" stroke="#0B4174" stroke-width="0.269877"/>
<rect x="112.49" y="235.462" width="3.15617" height="3.38555" fill="#FEB1B0"/>
<path d="M61.4167 235.877L57.8312 235.462L56.397 239.668L60.2903 240.249L61.4167 235.877Z" fill="#FEB1B0"/>
<path d="M131.17 244.754C134.049 242.99 124.056 239.235 115.474 238.491L112.001 239.235L111.664 244.754C121.874 244.754 129.754 245.621 131.17 244.754Z" fill="#25304E"/>
<path d="M74.1711 245.356C78.29 243.523 73.5541 239.621 61.275 238.847L56.3052 239.621L55.8238 245.356C70.4319 245.356 72.1449 246.258 74.1711 245.356Z" fill="#25304E"/>
<path d="M68.95 68.7965C71.8194 70.1626 70.1643 74.1757 69.5071 76.5898C68.4701 76.3268 68.769 74.2658 65.4859 74.9522C63.6182 75.3428 60.8235 78.0775 60.0197 78.4482C59.2159 78.8189 56.8136 81.0815 56.9784 81.9693C57.1432 82.8571 60.2436 84.7141 61.2784 85.6292C62.3131 86.5443 62.9539 87.2509 62.9539 87.2509C62.9539 87.2509 70.4746 88.3634 70.4746 83.365C70.4746 79.8726 71.7468 89.6639 71.7468 89.6639C71.7468 89.6639 70.6803 91.1691 66.4953 91.859C62.3102 92.5488 59.4609 89.1285 59.2644 88.3634C59.0679 87.5982 58.9352 86.6797 57.6061 84.7241C56.2771 82.7685 55.1709 84.2807 54.0196 83.6025C52.8683 82.9243 49.2939 74.7376 52.1043 75.5349C56.2663 76.7156 56.4787 68.4978 59.3476 67.9408C62.2164 67.3838 67.1528 67.9408 68.95 68.7965Z" fill="url(#paint0_linear_92_611)"/>
<path d="M198.21 99.772L190.055 131.649C188.838 133.313 185.594 135.541 182.35 131.146C179.105 126.751 174.257 124.912 172.238 124.542C168.845 123.737 161.164 123.956 157.584 131.276C154.004 138.595 156.215 144.317 157.768 146.262C160.382 149.212 167.255 154.376 173.832 151.439C180.409 148.501 182.872 152.58 183.281 154.986C180.668 165.449 175.374 186.483 175.112 186.918C174.851 187.353 175.481 187.849 175.829 188.043C185.413 191.311 205.644 197.566 209.898 196.445C214.152 195.323 213.732 191.357 212.989 189.515C211.052 185.148 209.291 175.311 217.752 170.897C228.328 165.38 233.523 168.573 237.565 175.401C241.171 181.49 239.69 188.687 234.503 193.261C230.353 196.919 231.874 201.083 233.153 202.708C242.928 205.229 262.905 210.369 264.614 210.756C266.323 211.143 266.521 209.716 266.406 208.955C268.481 200.657 272.914 183.066 274.047 179.085C275.181 175.105 278.959 174.374 281.406 175.728C284.707 177.556 285.68 180.371 289.36 182.105C293.528 184.069 296.189 185.009 300.269 183.339C305.342 181.263 308.559 177.212 309.129 171.761C309.843 164.932 308.09 160.611 301.774 157.918C290.251 153.004 287.427 162.379 282.775 157.676L282.75 157.651C281.307 156.191 279.708 154.575 280.076 153.138L281.738 146.642L288.473 120.313L264.026 114.059C258.442 112.631 249.042 108.551 256.122 103.659C263.202 98.7681 263.523 91.3451 262.798 88.245C261.312 83.3719 255.64 74.5012 244.835 78.003C231.33 82.3802 234.252 95.8779 235.616 96.9554C236.979 98.0328 237.102 98.9751 236.399 102.438C235.836 105.208 233.042 105.829 231.715 105.793C223.01 103.749 204.941 99.3812 202.31 98.2711C199.68 97.1611 198.481 98.8092 198.21 99.772Z" fill="#3F7CCD"/>
<path d="M273.475 128.456C273.992 128.257 276.117 126.904 279.208 131.279C279.544 131.755 285.145 132.395 290.804 129.399C294.524 127.43 298.557 122.184 300.125 120.295C307.923 119.36 320.62 119.79 309.023 128.985C297.426 138.18 290.507 139.685 285.958 138.131C284.83 137.696 277.334 134.67 276.688 135.309C275.88 136.108 272.524 137.677 269.282 138.131C266.689 138.495 265.501 134.756 265.232 132.841L273.972 129.399L273.475 128.456Z" fill="#FCB69F" stroke="#CC9A40" stroke-width="0.404815"/>
<path d="M65.4247 153.499V186.403C64.6584 188.316 62.0678 191.279 57.8352 187.825C53.6027 184.371 48.4499 183.791 46.4025 183.933C42.9156 183.994 35.5281 186.11 33.874 194.089C32.2199 202.067 35.7799 207.062 37.7666 208.562C41.0305 210.772 48.9691 214.072 54.6125 209.596C60.2559 205.12 63.6531 208.461 64.6462 210.691C64.707 221.475 64.7922 243.164 64.6462 243.651C64.5003 244.137 65.2341 244.462 65.6192 244.563C75.7141 245.354 96.8646 246.4 100.708 244.259C104.551 242.118 103.161 238.38 101.985 236.779C99.0254 233.029 94.8821 223.936 101.985 217.562C110.864 209.596 118.1 215.799 122.296 217.015C126.492 218.231 127.648 229.36 123.756 235.076C120.642 239.649 123.148 243.306 124.79 244.563C134.884 244.583 155.512 244.612 157.263 244.563C159.015 244.514 158.853 243.083 158.553 242.374C158.507 233.821 158.442 215.68 158.553 211.543C158.665 207.405 154.313 207.358 152.123 207.851C153.188 207.851 153.481 208.416 146.14 210.674C136.964 213.498 135.023 210.145 131.317 207.851C127.611 205.557 126.2 198.322 129.023 190.91C131.847 183.499 138.023 183.675 141.905 183.675C145.787 183.675 150.022 187.734 153.375 188.44C156.728 189.146 157.963 186.403 157.963 184.911V178.205V151.029H132.729C126.964 151.029 116.847 149.406 122.494 142.912C128.141 136.419 126.611 129.148 125.141 126.324C122.494 121.972 114.8 114.783 105.201 120.854C93.201 128.442 99.3772 140.794 100.965 141.5C102.554 142.206 102.906 143.088 103.083 146.617C103.224 149.441 100.671 150.735 99.3772 151.029C90.4364 151.205 71.8489 151.452 69.0255 151.029C66.202 150.605 65.4485 152.499 65.4247 153.499Z" fill="#97BDE9"/>
<path d="M67.4736 161.437C64.9762 161.438 60.6303 158.34 59.0447 156.854C59.0447 156.854 61.0042 155.767 61.9149 154.703C62.5969 153.906 63.3046 152.405 63.3046 152.405C63.6787 151.496 63.9524 152.192 67.4736 152.779C69.3977 153.099 79.154 156.346 69.0201 154.503C70.9442 156 73.2772 156.539 73.3961 157.728C73.5448 159.215 70.5954 161.437 67.4736 161.437Z" fill="#FEC082"/>
<defs>
<linearGradient id="paint0_linear_92_611" x1="60.9163" y1="67.4348" x2="61.0095" y2="91.9682" gradientUnits="userSpaceOnUse">
<stop stop-color="#272852"/>
<stop offset="1" stop-color="#3F4481"/>
</linearGradient>
</defs>
</svg>
