<svg width="1920" height="1377" viewBox="0 0 1920 1377" fill="none" xmlns="http://www.w3.org/2000/svg">
<path d="M234.878 93.3768C70.2029 185.148 -26.6646 122.91 -26.6646 122.91L-11.2474 1377C-11.2474 1377 385.022 1085.21 736.167 1235.41C1087.31 1385.62 1130.9 1093.83 1406.98 1235.41C1683.05 1377 1926.9 1142.79 2060.83 1235.41C2194.77 1328.04 2365.99 1271.63 2365.99 1271.63L2365.99 36.878C2231 42.3658 2181.57 -80.1059 1852.57 93.3768C1143.01 467.518 1259.25 -68.9862 775.881 122.91C292.509 314.807 399.553 1.60613 234.878 93.3768Z" fill="#C6D0E8"/>
<path d="M2424.04 221.822L2436.13 1260.05C2438.72 1273.1 2436.39 1282.44 2436.39 1282.44L2436.13 1260.05C2429.92 1228.82 2395.49 1176.33 2233.26 1179.85C2191.92 1180.75 2150.57 1256.45 2090.01 1259.68C1963.2 1266.43 1870.06 1139.32 1776.38 1130.32C1708.02 1123.76 1640.03 1196.98 1571.01 1186.93C1473.99 1172.82 1424.76 1073.71 1254.17 1130.32C1204.3 1126.2 1153.59 1179.85 1049.34 1179.85C966.605 1179.85 919.325 1101.4 853.768 1102.19C853.768 1102.19 795.875 1102.19 735.514 1126.61C690.791 1144.7 617.26 1151.03 617.26 1151.03C548.067 1156.94 513.249 1077.77 417.437 1126.61C364.789 1153.45 344.669 1177.33 290.777 1186.93C238.834 1196.19 185.886 1159.99 134.761 1166.91C58.3156 1177.25 -17.7493 1249.69 -70.3251 1248.44C-182.586 1245.76 -242 1322.63 -242 1322.63L-242 51.9683C-242 51.9683 -232.814 91.5434 -95.607 117.102C-29.3048 129.453 -7.65323 240.667 134.761 151.461C285.565 95.9039 341.441 176.068 477.29 216.519C613.138 256.971 653.166 155.993 769.758 151.461C886.35 146.929 907.955 267.576 1099.1 221.822C1290.24 176.068 1291.03 271.061 1414.57 272.076C1474.65 272.57 1542.01 170.881 1608.01 176.068C1674.02 181.254 1774.49 205.392 1907.41 221.822C2040.34 238.251 2058.37 104.147 2163.65 122.729C2309.44 148.459 2424.04 221.822 2424.04 221.822Z" fill="url(#paint0_linear_128_1339)"/>
<path d="M4.66695 278.709C-105.021 281.687 -149.286 265.056 -157.708 256.368L-157.708 1179.26C-77.476 1169.06 -140.857 1104.15 -75.0636 1085.06C-9.26984 1065.97 57.2233 1129.96 106.263 1122.65C161.784 1114.37 213.354 1040.1 312.541 1085.06C411.728 1130.02 427.923 1026.71 499.601 1030.3C563.836 1033.52 614.212 1092.5 659.839 1095.72C799.439 1105.59 857.258 1040.19 978.024 1055.49C1076.92 1068.01 1121.95 1149.31 1203.98 1154.13C1276.94 1158.42 1383.46 1092.45 1480.16 1085.06C1570.71 1078.14 1682.34 1187.34 1767.49 1179.26C1855.82 1170.88 1916.21 1093.8 1970.93 1093.8C2008.35 1093.8 2051.29 1148.52 2093.88 1154.13C2139.97 1160.2 2185.19 1117.41 2209.81 1123.57L2209.81 174.451C2213.25 174.451 2222.2 123.595 2121.77 152.979C2088.52 162.709 2010.78 268.084 1959.98 278.709C1907.23 289.739 1858.58 213.897 1790.76 218.724C1706.39 224.73 1674.9 326.675 1591.26 344.406C1506.16 362.446 1462.54 298.024 1372.82 304.39C1313.31 308.611 1246.31 350.76 1173.33 344.406C1121.94 339.931 1050.8 286.898 969.135 274.303C901.176 263.82 861.03 337.141 784.846 328.657C711.398 320.479 597.063 230.303 499.601 274.303C436.737 302.683 414.075 320.855 343.744 328.658C289.177 334.711 228.117 224.077 172.831 230.303C105.201 237.919 52.4223 277.412 4.66695 278.709Z" fill="#3E4285"/>
<defs>
<linearGradient id="paint0_linear_128_1339" x1="1097.68" y1="51.9683" x2="1097.68" y2="1322.63" gradientUnits="userSpaceOnUse">
<stop stop-color="#7AB6FF"/>
<stop offset="1" stop-color="#165DB5"/>
</linearGradient>
</defs>
</svg>
