<svg width="392" height="49" viewBox="0 0 392 49" fill="none" xmlns="http://www.w3.org/2000/svg">
<path d="M54.7134 12.7746H60.7188V15.4063C61.6579 14.4051 62.7989 13.6146 64.0662 13.0871C65.3335 12.5596 66.6984 12.3071 68.0705 12.3462C69.6813 12.3335 71.2766 12.66 72.7528 13.3045C74.2291 13.9491 75.553 14.8972 76.6387 16.0871C77.8013 17.2608 78.7172 18.6554 79.3321 20.1887C79.947 21.7221 80.2485 23.363 80.2189 25.0148C80.26 26.6707 79.9661 28.3177 79.3548 29.8571C78.7435 31.3965 77.8275 32.7965 76.6616 33.9731C75.5702 35.1552 74.2432 36.0955 72.7661 36.7332C71.289 37.3709 69.6946 37.692 68.0858 37.6758C66.7128 37.7219 65.3458 37.4725 64.0775 36.9446C62.8091 36.4167 61.6689 35.6224 60.7341 34.6157V46.9859H54.7134V12.7746ZM60.3516 25.0148C60.3402 25.9573 60.5225 26.8921 60.8871 27.7612C61.2396 28.6202 61.7598 29.4004 62.4171 30.0562C63.0668 30.7324 63.8478 31.2686 64.7121 31.6322C65.5755 32.0009 66.5045 32.1909 67.4432 32.1909C68.382 32.1909 69.311 32.0009 70.1743 31.6322C71.0387 31.2686 71.8196 30.7324 72.4694 30.0562C73.7897 28.6934 74.528 26.8703 74.528 24.9727C74.528 23.0752 73.7897 21.2521 72.4694 19.8892C71.816 19.2155 71.0361 18.6773 70.1743 18.3057C69.3083 17.9423 68.3786 17.7552 67.4394 17.7552C66.5002 17.7552 65.5705 17.9423 64.7045 18.3057C63.8431 18.678 63.0633 19.2161 62.4095 19.8892C61.7295 20.5535 61.1931 21.3503 60.8335 22.2302C60.4684 23.107 60.2887 24.0499 60.3057 24.9995L60.3516 25.0148Z" fill="url(#paint0_linear_11_2070)"/>
<path d="M83.7842 12.7741H89.7895V16.4232C90.4895 15.0978 91.5898 14.0269 92.9337 13.3632C94.1681 12.7525 95.527 12.4357 96.9041 12.4375C97.5866 12.4375 98.2676 12.499 98.939 12.6211V19.0396C98.0457 18.7423 97.1112 18.5875 96.1697 18.5805C94.6977 18.6437 93.2692 19.0979 92.031 19.8964C90.501 20.7736 89.736 22.3827 89.736 24.7236V37.2545H83.7306L83.7842 12.7741Z" fill="url(#paint1_linear_11_2070)"/>
<path d="M104.34 16.0653C105.509 14.8954 106.894 13.9628 108.417 13.3189C109.944 12.6826 111.582 12.355 113.237 12.355C114.891 12.355 116.529 12.6826 118.056 13.3189C119.583 13.9607 120.971 14.8935 122.142 16.0653C123.327 17.2212 124.266 18.6057 124.901 20.135C125.536 21.6643 125.854 23.3065 125.837 24.9624C125.86 26.6246 125.544 28.2741 124.909 29.8104C124.273 31.3466 123.332 32.7373 122.142 33.8977C120.98 35.079 119.594 36.0171 118.066 36.6575C116.538 37.2979 114.898 37.6278 113.241 37.6278C111.584 37.6278 109.943 37.2979 108.415 36.6575C106.887 36.0171 105.502 35.079 104.34 33.8977C103.151 32.7408 102.211 31.3532 101.578 29.8202C100.948 28.2974 100.631 26.6637 100.645 25.0159C100.62 23.3557 100.934 21.7079 101.57 20.1738C102.205 18.6398 103.148 17.252 104.34 16.0959V16.0653ZM106.237 25.0159C106.221 25.9534 106.392 26.8847 106.742 27.7547C107.097 28.6122 107.617 29.3918 108.272 30.0497C108.918 30.715 109.691 31.2439 110.545 31.6051C111.399 31.9663 112.317 32.1524 113.244 32.1524C114.172 32.1524 115.09 31.9663 115.944 31.6051C116.798 31.2439 117.571 30.715 118.217 30.0497C118.874 29.3886 119.392 28.6026 119.74 27.738C120.088 26.8734 120.26 25.9478 120.244 25.0159C120.261 24.0809 120.089 23.1522 119.739 22.2848C119.385 21.427 118.865 20.6472 118.209 19.9898C117.561 19.3235 116.779 18.8021 115.914 18.4598C114.63 17.9088 113.208 17.7653 111.84 18.0485C110.472 18.3317 109.224 19.028 108.264 20.0433C107.608 20.6998 107.088 21.4798 106.734 22.3384C106.392 23.1889 106.223 24.0992 106.237 25.0159Z" fill="url(#paint2_linear_11_2070)"/>
<path d="M130.128 26.7514V21.3428H146.882V26.7514H130.128Z" fill="url(#paint3_linear_11_2070)"/>
<path d="M149.82 14.4958H153.951V6.8457H159.429V14.4958H166.689V18.9405H159.413V29.2835C159.313 30.3329 159.629 31.3797 160.293 32.1982C160.836 32.8178 161.861 33.1162 163.353 33.1162C164.779 33.1355 166.196 32.8756 167.522 32.3512V36.7882C165.738 37.463 163.845 37.8053 161.938 37.7981C159.291 37.7981 157.294 37.1299 155.948 35.7937C155.258 35.0655 154.724 34.204 154.38 33.262C154.035 32.3201 153.887 31.3177 153.943 30.3162V18.9635H149.812L149.82 14.4958Z" fill="url(#paint4_linear_11_2070)"/>
<path d="M173.505 16.0184C174.667 14.8382 176.057 13.9062 177.59 13.279C179.124 12.6518 180.768 12.3423 182.425 12.3693C185.38 12.335 188.247 13.3794 190.488 15.3069C192.739 17.1631 194.253 19.7622 194.757 22.6358C194.943 23.4541 195.038 24.2905 195.04 25.1297C195.041 25.8453 194.962 26.5587 194.803 27.2564H175.739C176.008 28.7469 176.827 30.082 178.034 30.9973C179.292 31.9099 180.817 32.3806 182.371 32.3361C183.539 32.3823 184.703 32.1762 185.783 31.7317C186.868 31.2971 187.848 30.6374 188.66 29.7963L193.961 31.2268C192.925 33.2504 191.264 34.8867 189.226 35.8934C187.135 37.0367 184.792 37.6414 182.409 37.6529C180.743 37.6782 179.089 37.3604 177.551 36.7195C176.012 36.0786 174.622 35.1282 173.466 33.9273C172.279 32.7767 171.337 31.3975 170.697 29.8728C170.063 28.3483 169.74 26.7121 169.749 25.0608C169.721 23.3787 170.038 21.7087 170.68 20.1536C171.322 18.5985 172.276 17.1913 173.482 16.0184H173.505ZM175.8 22.6817H188.958C188.61 21.2715 187.803 20.0172 186.663 19.1167C185.441 18.1465 183.915 17.6397 182.356 17.6861C180.795 17.647 179.269 18.1529 178.041 19.1167C176.891 20.0074 176.081 21.2657 175.746 22.6817H175.8Z" fill="url(#paint5_linear_11_2070)"/>
<path d="M198.138 19.8585C198.102 18.7782 198.342 17.7065 198.834 16.7443C199.327 15.7821 200.056 14.9609 200.953 14.3581C203.122 12.9501 205.676 12.2547 208.259 12.3691C211.56 12.3103 214.816 13.1428 217.684 14.7789V20.4629C213.93 18.4739 210.789 17.4794 208.259 17.4794C207.262 17.4316 206.27 17.6564 205.39 18.1296C205.079 18.2838 204.815 18.5189 204.625 18.8105C204.44 19.1069 204.336 19.4476 204.327 19.7973C204.322 20.1362 204.43 20.4672 204.633 20.7383C204.914 21.0569 205.28 21.288 205.689 21.4039C206.201 21.5875 206.653 21.7405 207.058 21.8476C207.464 21.9547 208.091 22.1077 208.971 22.2836C209.85 22.4596 210.501 22.6279 210.983 22.7503C213.721 23.4592 215.715 24.4359 216.965 25.6803C217.576 26.2752 218.057 26.9901 218.378 27.7801C218.7 28.57 218.854 29.4179 218.832 30.2703C218.902 31.3834 218.66 32.494 218.135 33.4777C217.609 34.4613 216.82 35.2792 215.856 35.8396C213.727 37.065 211.304 37.6841 208.848 37.6298C205.309 37.5941 201.851 36.5686 198.865 34.6692V28.6103C200.258 29.6636 201.787 30.5255 203.409 31.1731C205.118 31.9436 206.966 32.36 208.841 32.3971C209.783 32.4221 210.719 32.2256 211.572 31.8233C211.903 31.6934 212.19 31.4702 212.398 31.1807C212.602 30.8858 212.713 30.537 212.719 30.1785C212.719 29.4135 212.252 28.8398 211.312 28.3731C209.854 27.753 208.329 27.3037 206.767 27.0343C203.814 26.4223 201.642 25.563 200.249 24.4563C199.569 23.9066 199.027 23.205 198.667 22.4078C198.307 21.6106 198.139 20.7401 198.176 19.8662L198.138 19.8585Z" fill="url(#paint6_linear_11_2070)"/>
<path d="M220.989 14.4958H225.105V6.8457H230.59V14.4958H237.919V18.9405H230.636V29.2835C230.537 30.3315 230.849 31.377 231.508 32.1982C232.059 32.8178 233.038 33.1162 234.568 33.1162C235.995 33.1355 237.411 32.8756 238.737 32.3512V36.7882C236.956 37.4624 235.066 37.8047 233.161 37.7981C230.514 37.7981 228.509 37.1325 227.171 35.7937C226.481 35.0636 225.945 34.2025 225.595 33.2615C225.249 32.3199 225.098 31.3179 225.151 30.3162V18.9635H221.035L220.989 14.4958Z" fill="url(#paint7_linear_11_2070)"/>
<path d="M242.876 33.7744C242.864 33.2496 242.963 32.7282 243.167 32.2444C243.37 31.7806 243.667 31.3639 244.039 31.0204C244.401 30.6532 244.833 30.3619 245.309 30.1636C245.794 29.9652 246.315 29.8713 246.839 29.8881C247.603 29.8895 248.351 30.1156 248.988 30.5384C249.623 30.9669 250.12 31.5701 250.419 32.275C250.776 33.1118 250.829 34.0475 250.567 34.9191C250.306 35.7907 249.747 36.5429 248.987 37.0445C248.228 37.5461 247.317 37.7654 246.413 37.6641C245.508 37.5628 244.668 37.1474 244.039 36.4902C243.668 36.1416 243.373 35.7196 243.174 35.2509C242.978 34.7834 242.876 34.2815 242.876 33.7744Z" fill="url(#paint8_linear_11_2070)"/>
<path d="M253.807 19.8593C253.775 18.7786 254.017 17.7073 254.511 16.7458C255.001 15.7815 255.731 14.9596 256.63 14.3589C258.799 12.9575 261.349 12.2651 263.928 12.3775C267.227 12.314 270.481 13.144 273.346 14.7797V20.4637C269.572 18.4747 266.422 17.4802 263.898 17.4802C262.9 17.4332 261.909 17.658 261.029 18.1304C260.717 18.2836 260.452 18.519 260.264 18.8113C260.076 19.1071 259.97 19.4478 259.958 19.7981C259.953 20.137 260.061 20.468 260.264 20.7391C260.546 21.0597 260.916 21.291 261.327 21.4047C261.832 21.5883 262.291 21.7413 262.689 21.8484C263.087 21.9555 263.73 22.1085 264.609 22.2844C265.489 22.4604 266.139 22.6287 266.614 22.7511C269.352 23.4626 271.357 24.4418 272.596 25.6811C273.207 26.2779 273.689 26.994 274.011 27.7849C274.331 28.5767 274.487 29.425 274.47 30.2788C274.536 31.3912 274.293 32.5002 273.768 33.483C273.242 34.4659 272.456 35.2844 271.494 35.8481C269.354 37.0769 266.916 37.6935 264.449 37.6306C260.909 37.597 257.451 36.5713 254.465 34.67V28.6111C255.856 29.6689 257.385 30.5312 259.009 31.1739C260.718 31.9452 262.566 32.3616 264.441 32.3979C265.381 32.4237 266.314 32.2271 267.164 31.8241C267.498 31.6983 267.786 31.4742 267.991 31.1815C268.197 30.8872 268.311 30.5385 268.32 30.1794C268.32 29.4143 267.845 28.8406 266.904 28.3739C265.459 27.7546 263.947 27.3053 262.398 27.0352C259.445 26.4231 257.275 25.5638 255.888 24.4571C255.21 23.9032 254.67 23.1985 254.312 22.3992C253.958 21.6009 253.793 20.7318 253.83 19.8593H253.807Z" fill="url(#paint9_linear_11_2070)"/>
<path d="M276.62 14.4958H280.759V6.8457H286.244V14.4958H293.519V18.9405H286.244V29.2835C286.141 30.3318 286.454 31.3786 287.116 32.1982C287.667 32.8178 288.646 33.1162 290.176 33.1162C291.602 33.1347 293.018 32.8748 294.345 32.3512V36.7882C292.563 37.4612 290.673 37.8059 288.768 37.8057C286.114 37.8057 284.117 37.1401 282.771 35.7937C282.082 35.0646 281.548 34.2031 281.202 33.2615C280.856 32.3199 280.705 31.3179 280.759 30.3162V18.9635H276.635L276.62 14.4958Z" fill="url(#paint10_linear_11_2070)"/>
<path d="M297.222 12.7739H303.228V26.3299C303.196 27.0968 303.319 27.8622 303.588 28.581C303.858 29.2997 304.268 29.9572 304.796 30.5145C305.292 31.0254 305.887 31.43 306.545 31.7036C307.202 31.9771 307.909 32.114 308.621 32.1058C309.446 32.1282 310.266 31.9689 311.023 31.6391C311.779 31.3085 312.451 30.8116 312.989 30.1856C314.132 28.8603 314.733 27.153 314.672 25.4043V12.7739H320.685V37.2543H314.672V34.5079C313.774 35.543 312.655 36.3638 311.398 36.91C310.144 37.453 308.786 37.7141 307.42 37.675C304.765 37.7291 302.189 36.7719 300.213 34.9975C299.21 34.1094 298.415 33.0103 297.886 31.779C297.357 30.5477 297.107 29.2146 297.153 27.8752L297.222 12.7739Z" fill="url(#paint11_linear_11_2070)"/>
<path d="M328.465 16.0176C329.566 14.8477 330.898 13.9198 332.377 13.2928C333.856 12.6659 335.45 12.3537 337.056 12.3762C338.427 12.3396 339.789 12.5933 341.055 13.1207C342.321 13.648 343.461 14.4372 344.4 15.4362V4.93262H350.375V37.2543H344.369V34.6457C343.427 35.6384 342.285 36.4205 341.019 36.9407C339.754 37.468 338.395 37.7284 337.025 37.7057C335.413 37.7223 333.816 37.3968 332.339 36.7506C330.862 36.1044 329.539 35.1523 328.457 33.9571C327.301 32.7895 326.388 31.4036 325.772 29.8802C325.156 28.3568 324.849 26.7261 324.869 25.083C324.832 23.4142 325.128 21.7548 325.741 20.2022C326.348 18.6472 327.264 17.2314 328.434 16.0406L328.465 16.0176ZM330.538 25.0601C330.528 25.9939 330.705 26.9203 331.059 27.7847C331.412 28.6492 331.935 29.4342 332.596 30.0938C333.761 31.2737 335.301 32.011 336.95 32.1792C338.6 32.3474 340.257 31.9359 341.636 31.0155C343.015 30.095 344.031 28.723 344.509 27.1351C344.987 25.5472 344.897 23.8425 344.255 22.3137C343.904 21.4538 343.383 20.6733 342.725 20.0186C342.071 19.3447 341.291 18.8066 340.43 18.4351C339.564 18.0717 338.634 17.8846 337.695 17.8846C336.755 17.8846 335.826 18.0717 334.96 18.4351C333.657 18.9883 332.548 19.9151 331.772 21.0982C330.996 22.2814 330.588 23.668 330.599 25.083L330.538 25.0601Z" fill="url(#paint12_linear_11_2070)"/>
<path d="M356.006 4.1526C356.729 3.46767 357.687 3.08594 358.683 3.08594C359.679 3.08594 360.638 3.46767 361.361 4.1526C361.714 4.48169 361.995 4.88017 362.187 5.32307C362.377 5.7676 362.471 6.24731 362.463 6.73069C362.478 7.20897 362.387 7.68471 362.195 8.12301C362.011 8.56208 361.734 8.95617 361.384 9.27818C360.654 9.94965 359.698 10.3223 358.706 10.3223C357.714 10.3223 356.759 9.94965 356.029 9.27818C355.676 8.95191 355.395 8.55596 355.203 8.11536C355.013 7.67083 354.919 7.19112 354.927 6.70774C354.917 6.22495 355.008 5.74535 355.195 5.30012C355.381 4.85602 355.66 4.45692 356.014 4.12965L356.006 4.1526ZM361.636 12.7743V37.2546H355.631V12.7743H361.636Z" fill="url(#paint13_linear_11_2070)"/>
<path d="M369.539 16.0722C370.705 14.9005 372.09 13.9698 373.616 13.3334C375.916 12.3767 378.449 12.1262 380.891 12.6139C383.334 13.1017 385.577 14.3056 387.333 16.0722C388.524 17.2253 389.467 18.6104 390.102 20.142C390.736 21.6714 391.054 23.3136 391.035 24.9693C391.057 26.6326 390.739 28.2829 390.102 29.8194C389.469 31.3566 388.526 32.7471 387.333 33.9046C386.171 35.0856 384.787 36.0237 383.259 36.664C381.732 37.3043 380.092 37.634 378.436 37.634C376.779 37.634 375.14 37.3043 373.612 36.664C372.085 36.0237 370.7 35.0856 369.539 33.9046C368.355 32.7489 367.418 31.3653 366.785 29.8375C366.151 28.3096 365.833 26.6692 365.851 25.0152C365.822 23.3551 366.135 21.7068 366.769 20.1724C367.403 18.6381 368.346 17.2503 369.539 16.0951V16.0722ZM371.443 25.0152C371.423 26.6507 371.974 28.242 373.002 29.5146C374.029 30.7872 375.469 31.6612 377.072 31.9858C378.675 32.3104 380.341 32.0653 381.783 31.2927C383.225 30.5201 384.351 29.2685 384.969 27.7539C385.321 26.8844 385.495 25.9531 385.481 25.0152C385.494 24.0805 385.322 23.1525 384.976 22.2841C384.624 21.425 384.104 20.6447 383.446 19.989C382.797 19.3238 382.015 18.8026 381.151 18.459C380.294 18.1004 379.372 17.9233 378.443 17.9388C377.517 17.9239 376.598 18.1035 375.745 18.4658C374.893 18.8282 374.126 19.3654 373.494 20.0426C372.83 20.6974 372.305 21.4793 371.95 22.3415C371.595 23.2038 371.418 24.1287 371.428 25.0611L371.443 25.0152Z" fill="url(#paint14_linear_11_2070)"/>
<path d="M49.1749 24.3266C49.1752 29.8373 47.285 35.1813 43.8198 39.4662C42.247 41.4085 40.3931 43.1051 38.3194 44.5C34.631 46.959 30.3477 48.3779 25.9206 48.607C21.4936 48.8362 17.0866 47.8672 13.164 45.8022C9.24141 43.7371 5.94832 40.6524 3.6316 36.8729C1.31489 33.0935 0.0603034 28.7592 0 24.3266C0.066279 19.2539 1.69617 14.3252 4.66726 10.2131C7.63835 6.10105 11.8059 3.00587 16.6012 1.34999C21.3965 -0.305897 26.5859 -0.441818 31.4613 0.960772C36.3367 2.36336 40.6605 5.23614 43.8428 9.18706C47.3096 13.4711 49.2 18.8156 49.1979 24.3266H49.1749Z" fill="url(#paint15_linear_11_2070)"/>
<path d="M38.3419 4.15332V14.8635C37.242 13.6408 35.8987 12.6615 34.3982 11.9883C32.8976 11.3151 31.273 10.9629 29.6284 10.9543C22.8122 10.9543 17.2964 16.952 17.2964 24.342C17.2964 31.732 22.8122 37.7144 29.6284 37.7144C31.2719 37.7081 32.896 37.3585 34.3965 36.688C35.8971 36.0174 37.2409 35.0407 38.3419 33.8205V44.5306C40.4156 43.1357 42.2695 41.4391 43.8423 39.4968V9.18709C42.2735 7.2411 40.419 5.54393 38.3419 4.15332ZM38.3419 26.5069C37.8019 28.5008 36.524 30.2148 34.7671 31.3015C33.0103 32.3882 30.9061 32.7663 28.8809 32.3591C26.8557 31.9519 25.061 30.79 23.8607 29.1088C22.6604 27.4276 22.1441 25.3529 22.4167 23.3052C22.6892 21.2575 23.7301 19.3901 25.3284 18.0813C26.9266 16.7726 28.9627 16.1205 31.0239 16.2572C33.0851 16.3939 35.0173 17.3092 36.4287 18.8176C37.8401 20.3259 38.6252 22.3145 38.625 24.3802C38.626 25.1112 38.5308 25.8391 38.3419 26.5452V26.5069Z" fill="white"/>
<defs>
<linearGradient id="paint0_linear_11_2070" x1="54.7134" y1="29.6814" x2="238.691" y2="29.6814" gradientUnits="userSpaceOnUse">
<stop stop-color="white"/>
<stop offset="1" stop-color="white"/>
</linearGradient>
<linearGradient id="paint1_linear_11_2070" x1="54.7137" y1="24.8766" x2="238.691" y2="24.8766" gradientUnits="userSpaceOnUse">
<stop stop-color="white"/>
<stop offset="1" stop-color="white"/>
</linearGradient>
<linearGradient id="paint2_linear_11_2070" x1="54.7134" y1="24.993" x2="238.691" y2="24.993" gradientUnits="userSpaceOnUse">
<stop stop-color="white"/>
<stop offset="1" stop-color="white"/>
</linearGradient>
<linearGradient id="paint3_linear_11_2070" x1="54.7132" y1="24.0433" x2="238.691" y2="24.0433" gradientUnits="userSpaceOnUse">
<stop stop-color="white"/>
<stop offset="1" stop-color="white"/>
</linearGradient>
<linearGradient id="paint4_linear_11_2070" x1="54.7139" y1="22.3372" x2="238.691" y2="22.3372" gradientUnits="userSpaceOnUse">
<stop stop-color="white"/>
<stop offset="1" stop-color="white"/>
</linearGradient>
<linearGradient id="paint5_linear_11_2070" x1="54.7138" y1="25.0073" x2="238.691" y2="25.0073" gradientUnits="userSpaceOnUse">
<stop stop-color="white"/>
<stop offset="1" stop-color="white"/>
</linearGradient>
<linearGradient id="paint6_linear_11_2070" x1="54.7138" y1="24.9918" x2="238.691" y2="24.9918" gradientUnits="userSpaceOnUse">
<stop stop-color="white"/>
<stop offset="1" stop-color="white"/>
</linearGradient>
<linearGradient id="paint7_linear_11_2070" x1="54.7139" y1="22.3372" x2="238.692" y2="22.3372" gradientUnits="userSpaceOnUse">
<stop stop-color="white"/>
<stop offset="1" stop-color="white"/>
</linearGradient>
<linearGradient id="paint8_linear_11_2070" x1="242.884" y1="33.7591" x2="391.028" y2="33.7591" gradientUnits="userSpaceOnUse">
<stop stop-color="#04D4F1"/>
<stop offset="1" stop-color="#0983F0"/>
</linearGradient>
<linearGradient id="paint9_linear_11_2070" x1="242.883" y1="24.9926" x2="391.035" y2="24.9926" gradientUnits="userSpaceOnUse">
<stop stop-color="#04D4F1"/>
<stop offset="1" stop-color="#0983F0"/>
</linearGradient>
<linearGradient id="paint10_linear_11_2070" x1="242.883" y1="22.3448" x2="391.035" y2="22.3448" gradientUnits="userSpaceOnUse">
<stop stop-color="#04D4F1"/>
<stop offset="1" stop-color="#0983F0"/>
</linearGradient>
<linearGradient id="paint11_linear_11_2070" x1="242.884" y1="25.236" x2="391.036" y2="25.236" gradientUnits="userSpaceOnUse">
<stop stop-color="#04D4F1"/>
<stop offset="1" stop-color="#0983F0"/>
</linearGradient>
<linearGradient id="paint12_linear_11_2070" x1="242.883" y1="21.3039" x2="391.035" y2="21.3039" gradientUnits="userSpaceOnUse">
<stop stop-color="#04D4F1"/>
<stop offset="1" stop-color="#0983F0"/>
</linearGradient>
<linearGradient id="paint13_linear_11_2070" x1="242.884" y1="20.1796" x2="391.036" y2="20.1796" gradientUnits="userSpaceOnUse">
<stop stop-color="#04D4F1"/>
<stop offset="1" stop-color="#0983F0"/>
</linearGradient>
<linearGradient id="paint14_linear_11_2070" x1="242.883" y1="24.9999" x2="391.035" y2="24.9999" gradientUnits="userSpaceOnUse">
<stop stop-color="#04D4F1"/>
<stop offset="1" stop-color="#0983F0"/>
</linearGradient>
<linearGradient id="paint15_linear_11_2070" x1="3.36605" y1="12.0329" x2="45.2504" y2="36.2149" gradientUnits="userSpaceOnUse">
<stop stop-color="#07D9EF"/>
<stop offset="1" stop-color="#0280EC"/>
</linearGradient>
</defs>
</svg>
