<svg width="845" height="1670" viewBox="0 0 845 1670" fill="none" xmlns="http://www.w3.org/2000/svg">
<path d="M273.211 60C237.079 76.4357 116.869 137.297 178.536 215.896C203.622 247.871 281.1 276.147 447.029 240.13C666.8 192.425 802.206 259.148 802.206 336.695C802.206 414.241 713.674 462.208 592.335 462.208C498.141 462.208 251.784 404.644 110.777 445.032C25.767 469.382 -32.4184 581.265 87.3411 650.733C166.568 696.69 479.015 657.195 592.335 650.733C659.297 650.195 806.395 651.729 837.302 774.339C866.442 889.941 755.154 947.149 638.221 959.347C448.461 979.14 146.677 937.127 58.1452 980.826C-48.3107 1033.37 8.03456 1162.45 152.963 1162.45C360.865 1162.45 802.206 1068.4 802.206 1257.9C802.206 1507.01 47.4993 1222.15 152.963 1516L205.5 1669" stroke="#C3C7D2" stroke-width="6" stroke-dasharray="32 32"/>
<path d="M343.825 36.757L219.076 26.0504L246.522 70.3507L250.945 117.603L343.825 36.757Z" fill="url(#paint0_linear_124_1176)" stroke="#1A59A1" stroke-width="0.2"/>
<path d="M343.659 36.8887L237.633 55.3188L246.973 70.5919L248.1 83.3674L343.659 36.8887Z" fill="url(#paint1_linear_124_1176)" stroke="#1A59A1" stroke-width="0.2"/>
<defs>
<linearGradient id="paint0_linear_124_1176" x1="228.737" y1="69.2666" x2="347.935" y2="38.9495" gradientUnits="userSpaceOnUse">
<stop offset="0.343596" stop-color="#5C89C5"/>
<stop offset="1" stop-color="#A6C2E8"/>
</linearGradient>
<linearGradient id="paint1_linear_124_1176" x1="279.332" y1="51.47" x2="284.073" y2="65.6093" gradientUnits="userSpaceOnUse">
<stop offset="0.377232" stop-color="#305A8C"/>
<stop offset="1" stop-color="#305A8C" stop-opacity="0"/>
</linearGradient>
</defs>
</svg>
