<svg width="23" height="37" viewBox="0 0 23 37" fill="none" xmlns="http://www.w3.org/2000/svg">
<path d="M21.2208 1.0392C21.8803 1.70411 22.2503 2.60269 22.2503 3.5392C22.2503 4.47572 21.8803 5.3743 21.2208 6.0392L12.2208 15.0392C11.3231 15.939 10.819 17.1582 10.819 18.4292C10.819 19.7002 11.3231 20.9194 12.2208 21.8192L21.2208 30.8192C21.5653 31.1496 21.8394 31.5463 22.0267 31.9854C22.214 32.4244 22.3105 32.8969 22.3105 33.3742C22.3105 33.8516 22.214 34.324 22.0267 34.7631C21.8394 35.2021 21.5653 35.5988 21.2208 35.9292C20.5571 36.5912 19.6581 36.9629 18.7208 36.9629C17.7834 36.9629 16.8844 36.5912 16.2208 35.9292L0.900766 20.6292C0.615046 20.3457 0.388269 20.0084 0.233515 19.6368C0.0787601 19.2653 -0.000915527 18.8667 -0.000915527 18.4642C-0.000915527 18.0617 0.0787601 17.6632 0.233515 17.2916C0.388269 16.92 0.615046 16.5827 0.900766 16.2992L16.1508 1.0392C16.4827 0.704502 16.8775 0.438839 17.3126 0.257542C17.7477 0.0762444 18.2144 -0.0171013 18.6858 -0.0171013C19.1571 -0.0171013 19.6238 0.0762444 20.0589 0.257542C20.494 0.438839 20.8889 0.704502 21.2208 1.0392Z" fill="white"/>
</svg>
