<svg width="809" height="717" viewBox="0 0 809 717" fill="none" xmlns="http://www.w3.org/2000/svg">
<path d="M589.178 51.9501C535.391 29.1809 442.598 49.3756 356.449 80.4116C209.127 133.486 183.176 164.591 56.4659 322.423C-84.3678 497.847 73.7244 651.365 146.992 678.102C250.427 716.05 496.087 758.829 651.241 626.354C845.183 460.76 809.707 395.139 800.404 322.423C783.297 188.715 656.412 80.4116 589.178 51.9501Z" fill="#4ECBE7"/>
<path d="M575.741 21.1697C522.995 -1.15048 431.998 18.646 347.517 49.07C203.047 101.098 180.152 158.135 55.8949 312.854C-82.2125 484.819 70.2652 608.765 142.114 634.974C243.548 672.175 514.64 684.66 603.23 609.342C740.32 492.791 792.404 417.553 781.145 290.026C769.524 158.398 641.674 49.07 575.741 21.1697Z" fill="url(#paint0_linear_603_412)"/>
<path d="M156.332 1.64223C141.054 -5.06902 111.769 10.4042 99.0358 18.9797C26.5736 64.8401 51.2916 114.056 64.7726 130.834C78.2537 147.613 127.122 169.424 164.757 138.105C202.392 106.786 183.855 79.9405 186.664 54.7732C189.472 29.6059 175.429 10.0313 156.332 1.64223Z" fill="#7FDBF1"/>
<path d="M171.926 55.9023L171.926 93.6096C131.846 93.6096 125.341 121.039 127.099 134.754H171.926V213.061H87.5455C87.5446 199.568 87.5457 117.362 87.5457 117.362C87.5457 117.362 97.6916 55.9023 171.926 55.9023Z" fill="white" fill-opacity="0.3"/>
<path d="M282.675 55.9023L282.675 93.6096C242.596 93.6096 236.091 121.039 237.848 134.754H282.675V213.061H198.295C198.294 199.568 198.295 117.362 198.295 117.362C198.295 117.362 208.441 55.9023 282.675 55.9023Z" fill="white" fill-opacity="0.3"/>
<defs>
<linearGradient id="paint0_linear_603_412" x1="392.68" y1="11.6025" x2="392.68" y2="655.735" gradientUnits="userSpaceOnUse">
<stop stop-color="#78D8EF"/>
<stop offset="1" stop-color="#9DECFF"/>
</linearGradient>
</defs>
</svg>
