<svg width="23" height="37" viewBox="0 0 23 37" fill="none" xmlns="http://www.w3.org/2000/svg">
<path d="M1.00018 35.8905C0.340662 35.2256 -0.0294024 34.327 -0.0294024 33.3905C-0.0294024 32.454 0.340662 31.5554 1.00018 30.8905L10.0002 21.8905C10.8978 20.9906 11.402 19.7715 11.402 18.5005C11.402 17.2295 10.8978 16.0103 10.0002 15.1105L1.00018 6.11049C0.655652 5.78008 0.381503 5.38342 0.194223 4.94434C0.00694337 4.50526 -0.0895996 4.03284 -0.0895996 3.55549C-0.0895996 3.07813 0.00694337 2.60571 0.194223 2.16663C0.381503 1.72755 0.655652 1.33089 1.00018 1.00048C1.6638 0.338536 2.56286 -0.0332031 3.50018 -0.0332031C4.4375 -0.0332031 5.33656 0.338536 6.00018 1.00048L21.3202 16.3005C21.6059 16.584 21.8327 16.9213 21.9874 17.2929C22.1422 17.6644 22.2219 18.063 22.2219 18.4655C22.2219 18.868 22.1422 19.2665 21.9874 19.6381C21.8327 20.0097 21.6059 20.347 21.3202 20.6305L6.07018 35.8905C5.73829 36.2252 5.34341 36.4908 4.90832 36.6721C4.47322 36.8534 4.00654 36.9468 3.53518 36.9468C3.06383 36.9468 2.59714 36.8534 2.16205 36.6721C1.72695 36.4908 1.33207 36.2252 1.00018 35.8905Z" fill="white"/>
</svg>
