<svg width="907" height="1203" viewBox="0 0 907 1203" fill="none" xmlns="http://www.w3.org/2000/svg">
<g clip-path="url(#clip0_128_1285)">
<path d="M546.157 172.708C589.788 44.2374 681.496 40.3995 721.895 54.5393C850.366 98.1708 898.643 36.3596 906.723 0V1202.9C869.354 1195.83 788.555 1161.69 764.315 1081.7C734.015 981.71 676.446 1039.28 546.157 1018.07C415.868 996.86 434.048 869.601 412.838 784.762C391.628 699.923 131.051 769.612 40.152 678.713C-32.5672 605.994 9.85237 539.335 40.152 515.095C69.4417 504.995 128.627 464.191 131.051 381.776C133.475 299.361 279.52 296.937 352.239 306.027C398.698 315.117 502.525 301.179 546.157 172.708Z" fill="#BECCE1"/>
<path d="M587.495 257.309C628.6 144.047 714.997 140.664 753.058 153.13C874.09 191.596 919.572 137.102 927.184 105.047V1165.54C891.978 1159.3 815.857 1129.21 793.021 1058.69C764.476 970.535 710.24 1021.29 587.495 1002.59C464.75 983.891 481.877 871.698 461.895 796.903C441.913 722.108 196.424 783.547 110.788 703.409C42.2789 639.299 82.2424 580.531 110.788 559.161C138.381 550.257 194.14 514.284 196.424 441.626C198.707 368.967 336.296 366.83 404.805 374.844C448.574 382.858 546.389 370.57 587.495 257.309Z" fill="#E8EFF9"/>
<path d="M478.204 493.013C457.056 510.838 396.883 547.758 352.882 531.154C160.361 458.504 96.0312 869.453 186.078 869.453C236.296 869.453 253.474 829.696 303.956 793.237C354.438 756.778 390.728 770.318 524.979 829.255C570.347 849.172 768.289 897.499 858.969 869.453C949.65 841.408 916.366 703.137 886.802 685.182C790.346 626.601 832.437 655.793 777.884 562.03C661.644 362.243 577.667 409.177 478.204 493.013Z" fill="#E8EFF9"/>
<path d="M530.24 454.432L469.519 454.432V498.501V542.571M530.24 454.432L590.961 454.432V498.501V542.571M530.24 454.432V630.709M530.24 630.709H469.519V586.64V542.571M530.24 630.709H590.961V586.64V542.571M469.519 542.571L590.961 542.571" stroke="white" stroke-width="13.1694"/>
<path d="M273.814 918.117C251.276 904.905 398.177 891.069 486.563 894.802C517.466 894.802 707.781 903.514 707.781 919.601C707.781 930.972 651.639 939.438 619.428 941.187C784.74 934.422 896.301 968.137 850.856 978.346C582.736 1038.58 188.171 1005.22 162.099 969.603C148.716 951.32 302.311 945.965 384.56 941.431C357.036 939.165 296.352 931.328 273.814 918.117Z" fill="#BECCE1"/>
<path d="M243.87 917.944C238.17 908.129 291.892 904.356 319.465 903.696C395.06 903.696 409.704 911.216 413.662 921.902C417.619 932.588 355.482 938.129 324.61 938.525C293.739 938.921 250.994 930.214 243.87 917.944Z" fill="#EFECEC" stroke="#E2E8F8" stroke-width="1.31694" stroke-linecap="round"/>
<path d="M369.333 611.969C381.894 619.493 386.913 645.02 386.57 647.666C377.218 628.031 351.885 621.99 340.388 621.423C332.65 633.045 319.26 656.717 327.605 658.425C335.95 660.132 343.869 675.05 346.785 682.295C327.696 681.065 292.084 680.539 302.349 688.269C315.18 697.933 308.351 753.29 305.567 768.089C302.782 782.889 310.486 807.41 309.902 809.697C309.434 811.526 320.52 815.006 326.121 816.517L312.229 817.511L319.973 857.492C322.135 851.635 330.198 840.13 345.154 840.959C360.11 841.788 379.637 815.795 387.531 802.695L359.182 786.072C364.27 786.554 377.168 788.579 388.059 792.821C398.95 797.062 410.373 780.566 414.723 771.787C397.524 771.403 364.929 768.269 372.137 758.806C379.346 749.342 408.891 757.297 422.762 762.457C425.79 758.419 433.508 748.004 440.156 738.651C448.466 726.961 428.32 714.679 443.216 695.44C455.133 680.048 458.409 649.005 458.558 635.407C439.371 638.901 402.582 642.804 408.926 630.473C415.271 618.142 445.049 618.416 459.145 620.094L459.971 583.025L433.45 581.371L450.57 572.952L443.121 553.943L417.336 558.52C418.968 563.85 421.681 574.319 419.479 573.562C416.727 572.616 397.837 560.628 397.18 563.201C394.295 574.491 378.009 593.963 369.271 602.12C363.727 603.854 362.922 608.129 369.333 611.969Z" fill="#D1D9F0"/>
<path d="M322.285 844.748C324.098 841.058 335.34 755.093 356.744 709.903C378.147 664.713 384.214 671.78 399.906 629.484C410.44 601.09 418.787 586.39 426.824 576.98" stroke="#C2CBE5" stroke-width="2.63388" stroke-linecap="round"/>
<path d="M345.086 542.058C328.283 547.648 314.891 577.315 314.504 580.636C331.176 559.379 362.358 559.232 375.865 561.815C381.396 578.176 389.912 610.823 379.724 610.527C369.536 610.232 355.925 626.15 350.394 634.145C372.905 638.082 414.378 647.578 400.177 654.073C382.425 662.192 373.934 731.57 372.777 750.391C371.619 769.211 355.411 796.889 355.411 799.841C355.411 802.203 341.518 803.285 334.571 803.531L350.394 808.698L329.555 855.196C328.783 847.446 322.84 831.135 305.242 827.887C287.644 824.64 272.697 787.417 267.423 769.211L305.242 757.033C299.196 756.172 283.631 754.967 269.738 757.033C255.845 759.1 247.484 735.752 245.04 723.82C265.107 728.249 303.853 733.71 298.296 720.13C292.739 706.55 256.103 707.829 238.479 710.166C236.164 704.385 230.298 689.5 225.358 676.215C219.184 659.609 246.197 650.383 234.62 622.705C225.358 600.564 230.761 561.815 234.62 545.209C255.845 554.927 297.369 570.155 293.665 553.327C289.96 536.5 255.331 528.356 238.479 526.388L248.513 480.997L279.772 486.533L262.406 471.402L276.685 450.367L305.242 463.284C301.769 469.311 295.517 481.292 298.296 480.997C301.769 480.628 327.239 471.402 327.239 474.724C327.239 489.298 340.36 517.654 348.078 530.078C353.996 533.769 353.663 539.205 345.086 542.058Z" fill="#BEC8E7"/>
<path d="M330.644 839.013C329.636 834.001 342.081 726.081 330.648 664.94C319.215 603.799 310.081 610.679 304.417 554.689C300.614 517.102 295.289 496.819 288.755 483.068" stroke="#E2E8F8" stroke-width="2.63388" stroke-linecap="round"/>
<path d="M284.392 879.308V847.622H372.9V879.308H364.598C362.111 893.759 355.652 918.976 355.652 918.976C355.652 918.976 318.147 920.429 301.324 918.976L292.277 879.308H284.392Z" fill="#BAC9E5"/>
<path d="M284.392 847.622V879.308H328.438H372.9V847.622H284.392ZM292.277 879.308L301.324 918.976C318.147 920.429 355.652 918.976 355.652 918.976C355.652 918.976 362.111 893.759 364.598 879.308H292.277Z" stroke="#E2E8F8" stroke-width="1.31694" stroke-linecap="round"/>
<path d="M783.044 676.017C773.126 682.23 769.162 703.309 769.433 705.494C776.818 689.28 796.822 684.292 805.901 683.824C812.011 693.421 822.584 712.968 815.995 714.378C809.405 715.789 803.152 728.107 800.849 734.09C815.923 733.075 844.044 732.64 835.939 739.024C825.806 747.003 831.199 792.716 833.398 804.937C835.596 817.158 829.513 837.407 829.974 839.295C830.344 840.806 821.59 843.679 817.167 844.927L828.137 845.748L822.021 878.763C820.314 873.927 813.947 864.426 802.137 865.11C790.327 865.795 774.907 844.331 768.674 833.513L791.06 819.786C787.043 820.185 776.857 821.857 768.257 825.359C759.657 828.862 750.637 815.239 747.202 807.99C760.783 807.673 786.522 805.085 780.83 797.27C775.138 789.456 751.807 796.024 740.854 800.286C738.463 796.951 732.368 788.35 727.119 780.627C720.557 770.974 736.465 760.832 724.702 744.945C715.292 732.235 712.705 706.6 712.587 695.371C727.739 698.256 756.789 701.48 751.779 691.297C746.769 681.114 723.255 681.34 712.124 682.726L711.472 652.116L732.414 650.75L718.895 643.797L724.778 628.101L745.138 631.88C743.85 636.281 741.708 644.927 743.446 644.302C745.619 643.52 760.536 633.621 761.055 635.746C763.333 645.068 776.194 661.148 783.093 667.884C787.471 669.316 788.107 672.846 783.044 676.017Z" fill="#BEC8E7"/>
<path d="M820.194 868.24C818.763 865.192 809.885 794.205 792.984 756.888C776.083 719.572 771.292 725.407 758.901 690.48C750.583 667.034 743.992 654.895 737.645 647.124" stroke="#D0D8EF" stroke-width="2.63388" stroke-linecap="round"/>
<path d="M802.195 618.286C815.463 622.902 826.038 647.4 826.344 650.142C813.179 632.59 788.556 632.468 777.89 634.601C773.522 648.111 766.798 675.07 774.843 674.826C782.888 674.582 793.635 687.727 798.003 694.329C780.227 697.58 747.478 705.422 758.692 710.785C772.71 717.489 779.414 774.78 780.329 790.321C781.243 805.863 794.042 828.718 794.042 831.156C794.042 833.107 805.012 834 810.497 834.204L798.003 838.47L814.459 876.867C815.069 870.467 819.761 856.998 833.657 854.316C847.553 851.634 859.357 820.897 863.522 805.863L833.657 795.807C838.432 795.096 850.723 794.1 861.693 795.807C872.664 797.513 879.266 778.234 881.196 768.38C865.35 772.037 834.755 776.547 839.143 765.333C843.531 754.119 872.461 755.175 886.377 757.105C888.205 752.331 892.837 740.04 896.738 729.069C901.614 715.356 880.282 707.738 889.424 684.883C896.738 666.598 892.472 634.601 889.424 620.888C872.664 628.913 839.874 641.488 842.8 627.592C845.725 613.696 873.07 606.972 886.377 605.346L878.454 567.864L853.77 572.435L867.483 559.941L856.208 542.57L833.657 553.236C836.4 558.214 841.337 568.107 839.143 567.864C836.4 567.559 816.287 559.941 816.287 562.683C816.287 574.718 805.926 598.134 799.832 608.394C795.159 611.441 795.422 615.93 802.195 618.286Z" fill="#D1D9F0"/>
<path d="M813.596 863.503C814.392 859.365 804.565 770.248 813.593 719.759C822.621 669.27 829.833 674.952 834.306 628.716C837.309 597.679 841.514 580.929 846.673 569.574" stroke="white" stroke-width="2.63388" stroke-linecap="round"/>
<path d="M747.055 930.414C742.348 922.309 786.71 919.193 809.48 918.648C871.904 918.648 883.996 924.858 887.265 933.682C890.533 942.507 839.221 947.082 813.729 947.409C788.236 947.736 752.938 940.546 747.055 930.414Z" fill="#EFECEC" stroke="#E2E8F8" stroke-width="1.31694" stroke-linecap="round"/>
<path d="M780.52 900.98V874.815H853.607V900.98H846.752C844.698 912.914 839.364 933.737 839.364 933.737C839.364 933.737 808.394 934.937 794.501 933.737L787.031 900.98H780.52Z" fill="#BAC9E5"/>
<path d="M780.52 874.815V900.98H816.891H853.607V874.815H780.52ZM787.031 900.98L794.501 933.737C808.394 934.937 839.364 933.737 839.364 933.737C839.364 933.737 844.698 912.914 846.752 900.98H787.031Z" stroke="#E2E8F8" stroke-width="1.31694" stroke-linecap="round"/>
<path d="M362.206 845.221C362.206 845.221 356.445 842.829 258.396 842.829C240.158 842.829 223.24 831.159 231.65 782.806C239.499 737.676 209.085 741.601 209.085 741.601" stroke="white" stroke-width="7.90165" stroke-linecap="round"/>
<path d="M341.901 977.467C342.508 978.276 322.268 892.199 312.072 849.059H306.258C317.886 891.525 341.293 976.659 341.901 977.467Z" stroke="white" stroke-width="7.90165" stroke-linecap="round"/>
<path d="M526.685 977.383C527.279 978.586 507.457 850.626 497.471 786.496H491.778C503.165 849.624 526.09 976.181 526.685 977.383Z" stroke="white" stroke-width="5.26777" stroke-linecap="round"/>
<path d="M230.356 977.467C229.787 978.276 248.746 892.199 258.297 849.059H263.743C252.851 891.525 230.925 976.659 230.356 977.467Z" stroke="white" stroke-width="7.90165" stroke-linecap="round"/>
<path d="M575.54 832.752L587.953 731.199C613.16 706.719 699.439 723.448 705.391 737.675C711.343 751.902 676.1 822.775 680.863 861.032C684.674 891.638 666.934 929.441 657.587 944.517C650.291 947.583 637.024 950.553 642.318 937.901C648.936 922.085 646.476 854.339 642.706 840.668C639.691 829.731 639.49 779.656 639.767 755.986C633.348 767.432 619.076 793.814 613.34 807.775C606.169 825.227 602.29 838.868 608.179 868.936C612.89 892.99 584.091 926.561 569.102 940.34C558.709 943.576 551.883 937.54 555.475 932.091C566.533 915.321 574.702 859.88 575.54 832.752Z" fill="url(#paint0_linear_128_1285)"/>
<path d="M662.161 739.437C635.06 738.698 600.614 742.081 586.779 743.864C597.392 715.194 620.84 653.923 629.727 638.202C638.613 622.48 622.53 599.043 613.377 589.29C617.543 598.236 621.411 616.266 603.551 616.825C581.226 617.524 578.026 629.592 564.617 633.478C551.209 637.364 552.932 666.257 536.937 660.153C524.14 655.27 507.072 663.798 500.137 668.673L483.607 665.981C482.746 662.476 482.407 651.375 487.935 635.01C494.844 614.553 533.07 645.957 546.647 599.791C560.225 553.625 599.717 525.159 613.642 522.914C628.868 520.46 716.515 529.071 720.677 539.067C724.839 549.063 702.082 608.028 705.129 634.039C708.177 660.049 733.883 733.421 734.383 739.726C734.883 746.03 729.083 751.522 720.68 751.489C712.276 751.455 696.039 740.361 662.161 739.437Z" fill="url(#paint1_linear_128_1285)"/>
<path fill-rule="evenodd" clip-rule="evenodd" d="M670.904 524.676C698.356 526.525 756.461 542.421 769.261 591.202C782.06 639.984 755.888 668.909 735.843 678.668C724.024 684.422 688.274 678.478 688.274 678.478C688.274 678.478 684.716 702.904 668.765 708.91C652.814 714.916 629.12 708.752 629.12 708.752C609.547 718.393 599.083 726.04 587.83 744.981C585.461 742.887 583.303 742.867 580.974 739.116C562.538 709.419 586.131 637.804 588.455 588.231C586.868 573.587 586.893 541.366 599.692 529.627C612.491 517.889 630.502 521.347 637.908 524.544L670.904 524.676ZM707.719 603.905L686.796 582.287C665.74 594.021 673.718 635.021 683.18 632.957C686.988 632.127 688.918 632.991 690.979 633.913C694.039 635.282 697.388 636.78 707.603 633.055C721.278 628.067 713.378 611.544 707.719 603.905Z" fill="url(#paint2_linear_128_1285)" fill-opacity="0.9"/>
<path d="M642.211 526.589C643.861 525.063 644.101 522.308 644.014 521.121C644.845 519.892 641.014 517.279 638.277 517.268C635.54 517.257 634.051 513.144 633.396 506.027C632.74 498.91 636.312 495.227 638.372 493.594C640.431 491.961 641.25 492.374 647.13 493.629C651.833 494.633 655.463 497.266 656.69 498.456C656.916 498.959 657.658 502.619 658.82 513.243C660.273 526.523 669.708 528.203 670.254 528.616C670.8 529.028 684.337 531.546 685.974 533.057C687.61 534.569 686.923 535.114 675.678 541.09C664.433 547.067 643.921 544.522 634.901 540.106C625.881 535.691 627.401 533.645 627.957 531.321C628.514 528.996 640.148 528.495 642.211 526.589Z" fill="url(#paint3_linear_128_1285)"/>
<path d="M640.196 482.727C635.445 484.534 634.149 492.688 635.194 496.724C636.842 496.284 637.487 492.629 642.706 493.776C645.676 494.429 654.565 499.457 655.843 500.077C657.121 500.696 656.493 504.023 656.231 505.507C655.969 506.991 651.04 510.096 649.395 511.625C647.75 513.155 645.196 511.609 645.196 511.609C645.196 511.609 635.168 503.221 632.15 508.122C629.131 513.024 632.753 518.371 632.753 518.371C632.753 518.371 634.449 520.887 641.102 522.04C647.755 523.193 652.285 517.475 652.597 516.196C652.91 514.917 653.121 513.382 655.233 510.112C657.346 506.843 659.105 509.371 660.935 508.237C662.765 507.103 665.991 499.357 668.518 495.259C671.045 491.161 657.026 482.986 652.465 482.055C647.904 481.124 646.134 480.468 640.196 482.727Z" fill="url(#paint4_linear_128_1285)"/>
<path d="M530.541 951.598C532.004 947.912 547.102 946.436 554.467 946.158C557.077 946.637 562.658 947.52 564.1 947.221C565.902 946.847 565.452 952.176 565.704 953.319C565.957 954.462 562.468 957.262 559.098 955.865C555.727 954.467 551.315 954.219 547.672 955.819C544.03 957.419 528.711 956.205 530.541 951.598Z" fill="#1B3050" stroke="#183056" stroke-width="0.263388"/>
<path d="M620.971 957.148C622.272 953.462 635.681 951.979 642.223 951.698C644.541 952.175 649.496 953.055 650.777 952.756C652.377 952.381 651.975 957.71 652.199 958.853C652.423 959.996 649.324 962.798 646.331 961.402C643.338 960.006 639.419 959.76 636.183 961.362C632.948 962.963 619.344 961.756 620.971 957.148Z" fill="#1B3050"/>
<path d="M643.74 944.164L640.981 951.912C642.143 955.048 646.635 954.499 648.735 953.833C650.676 952.302 651.468 949.232 652.262 946.085C652.502 945.136 645.816 943.752 643.74 944.164Z" fill="#F78D50"/>
<path d="M557.241 938.628L554.482 946.377C555.644 949.513 560.135 948.964 562.236 948.297C564.176 946.766 564.968 943.696 565.763 940.549C566.002 939.6 559.316 938.217 557.241 938.628Z" fill="#F78D50"/>
<path d="M691.216 658.351L647.84 657.597H644.803L645.85 675.177L691.216 658.351Z" fill="#262852"/>
<path d="M637.274 661.178L664.028 648.893L669.779 656.821C666.993 658.946 660.909 663.195 658.858 663.187C656.294 663.176 647.502 671.473 644.277 676.588C641.052 681.703 634.662 674.627 631.256 671.408C628.532 668.834 634.133 663.516 637.274 661.178Z" fill="#F9994D"/>
<path d="M634.867 583.004L476.315 580.799C474.496 580.774 474.555 584.392 474.812 586.205L493.575 679.324L643.916 686.197C658.579 679.785 684.687 669.893 692.312 666.151C696.696 663.999 694.001 657.326 689.925 658.133C688.45 658.425 660.907 667.615 647.257 672.737C645.03 646.646 640.518 593.281 640.289 588.546C640.06 583.812 636.579 582.879 634.867 583.004Z" fill="#394571"/>
<path d="M504.641 591.545C514.628 587.288 536.568 583.883 544.426 604.315C554.249 629.856 541.97 639.188 581.264 646.064C620.557 652.941 627.925 658.835 627.925 672.096C627.925 682.066 633.13 685.009 636.203 685.328L636.766 685.358C636.588 685.358 636.4 685.348 636.203 685.328L498.747 677.99L476.646 584.177C483.521 581.23 498.746 578.578 504.641 591.545Z" fill="url(#paint5_linear_128_1285)"/>
<path d="M305.724 616.57C309.996 625.595 306.166 639.417 302.736 645.779C282.809 677.754 243.585 747.878 246.107 772.573C249.261 803.441 188.187 803.441 182.711 812.735C177.234 822.029 142.333 831.015 123.156 817.714C108.269 807.388 104.556 793.949 103.075 775.892C100.589 745.586 160.834 746.517 144.57 710.006C128.306 673.494 144.009 659.641 156.359 647.937C168.253 636.664 211.559 630.276 228.721 633.83C241.205 636.416 269.941 603.961 278.798 601.305C293.686 596.84 300.261 605.031 305.724 616.57Z" fill="url(#paint6_linear_128_1285)"/>
<path fill-rule="evenodd" clip-rule="evenodd" d="M379.173 674.202C342.582 649.949 252.088 622.604 182.84 707.239C119.605 784.527 189.576 779.99 243.249 765.428C236.496 777.09 223.21 815.357 243.249 830.205C263.287 845.054 325.304 836.351 335.004 837.588C356.298 825.081 369.905 789.544 381.128 789.797C383.669 791.047 380.662 807.375 379.173 806.352C378.702 806.028 382.008 789.817 381.128 789.797C369.843 784.244 323.903 775.608 332.021 761.065C341.966 743.246 381.38 723.943 382.485 723.943C383.369 723.943 380.645 690.782 379.173 674.202ZM211 749.517C204.812 747.141 235.068 721.466 246.119 714.661V738.752C234.772 744.017 215.207 751.132 211 749.517Z" fill="url(#paint7_linear_128_1285)"/>
<path d="M269.674 689.991C265.146 690.929 265.295 693.272 265.452 694.053C263.526 720.047 259.298 772.846 257.798 776.096C256.297 779.347 262.276 780.576 265.452 780.784C301.708 772.815 375.158 756.781 378.908 756.406C382.659 756.031 385.368 752.499 386.253 750.78L401.255 674.52C401.724 671.707 401.443 666.05 396.567 665.925C390.472 665.768 274.203 689.053 269.674 689.991Z" fill="#F9FAFD"/>
<path d="M354.318 701.894C377.274 703.314 386.361 679.708 388.034 667.728C400.748 665.953 400.168 670.242 401.351 673.94C402.535 677.637 386.413 747.596 386.413 750.997C386.413 753.719 381.976 755.977 379.757 756.766L270.158 779.395C266.903 764.013 268.617 735.497 301.511 744.49C334.405 753.482 336.911 743.109 334.053 736.799C331.243 724.572 331.362 700.474 354.318 701.894Z" fill="url(#paint8_linear_128_1285)"/>
<path d="M390.266 714.677C395.77 720.053 393.6 724.939 391.827 726.71C398.083 725.774 399.167 717.021 401.042 710.926C402.917 704.832 388.075 697.643 384.325 697.799C380.574 697.956 383.387 707.957 390.266 714.677Z" fill="#3E6EA0"/>
<path d="M276.688 646.264C278.954 644.291 282.062 635.954 282.991 631.459L290.272 635.017C290.272 635.96 290.852 642.324 296.248 645.396C300.511 647.824 302.328 648.492 306.628 650.007C311.758 651.814 313.11 652.051 316.91 653.68C324.454 656.913 274.81 663.293 257.56 657.917C262.763 654.472 274.182 648.445 276.688 646.264Z" fill="#4271A6"/>
<path d="M294.265 635.404C289.193 637.305 285.356 633.899 282.687 632.412C279.72 631.251 278.711 627.952 279.547 627.186C280.383 626.419 283.239 628.44 282.054 626.489C280.87 624.538 281.218 619.173 287.42 616.107C292.381 613.654 295.619 620.473 296.618 624.19C296.966 627.256 297.666 634.13 294.265 635.404Z" fill="#6997D1"/>
<path d="M554.463 780.633L144.907 779.512" stroke="white" stroke-width="7.90165" stroke-linecap="round"/>
<path d="M438.079 947.051C432.809 944.211 429.208 930.38 428.066 923.819C429.774 913.645 440.853 922.972 443.789 931.208C446.139 937.798 444.768 945.632 443.789 948.726C444.082 949.35 443.349 949.89 438.079 947.051Z" fill="#11376F"/>
<path d="M375.978 980.754C371.762 975.058 374.813 960.788 376.865 954.365C383.764 946.53 390.951 961.435 389.982 970.417C389.206 977.602 383.834 983.602 381.245 985.704C381.246 986.427 380.194 986.451 375.978 980.754Z" fill="#11376F"/>
<path d="M373.172 934.654C371.336 924.66 357.741 881.705 355.963 842.898H352.335L333.628 836.998C340.621 833.381 347.118 823.161 352.335 816.949C359.463 808.464 360.112 804.554 362.422 805.505C367.025 807.399 377.964 811.192 385.176 823.07C389.778 830.651 386.209 909.14 381.277 936.342C386.132 945.824 391.915 975.436 381.277 972.819C378.289 972.084 373.172 963.212 373.172 948.595V934.654Z" fill="#4372A7"/>
<path d="M421.437 905.172C416.076 895.781 365.625 842.086 362.489 801.853C365.896 792.788 378.192 787.964 380.521 788.335C382.849 788.706 387.346 793.24 390.805 797.986C415.182 831.427 422.46 876.695 427.997 903.35C434.785 909.924 449.053 934.332 440.309 936.36C437.852 936.93 431.076 931.016 426.142 917.788L421.437 905.172Z" fill="#6997D1"/>
<path d="M882.45 955.775L838.656 901.54L831.444 929.643L814.169 949.637L882.45 955.775Z" fill="url(#paint9_linear_128_1285)" stroke="#1A59A1" stroke-width="0.526776"/>
<path d="M881.69 955.469L833.732 920.224L831.215 929.799L826.549 935.141L881.69 955.469Z" fill="url(#paint10_linear_128_1285)" stroke="#1A59A1" stroke-width="0.526776"/>
<path d="M370.623 1043.52L442.919 1024.86L418.715 1005.37L406.877 979.658L370.623 1043.52Z" fill="url(#paint11_linear_128_1285)" stroke="#1A59A1" stroke-width="0.526776"/>
<path d="M370.898 1043.4L426.605 1012.22L418.372 1005.51L415.227 998.579L370.898 1043.4Z" fill="url(#paint12_linear_128_1285)" stroke="#1A59A1" stroke-width="0.526776"/>
</g>
<defs>
<linearGradient id="paint0_linear_128_1285" x1="628.588" y1="718.715" x2="627.676" y2="947.11" gradientUnits="userSpaceOnUse">
<stop stop-color="#142C4D"/>
<stop offset="1" stop-color="#113872"/>
</linearGradient>
<linearGradient id="paint1_linear_128_1285" x1="578.11" y1="545.339" x2="717.736" y2="751.477" gradientUnits="userSpaceOnUse">
<stop stop-color="#5682C6"/>
<stop offset="1" stop-color="#3C6C9C"/>
<stop offset="1" stop-color="#3D5DF9"/>
</linearGradient>
<linearGradient id="paint2_linear_128_1285" x1="-4439.78" y1="501.265" x2="-4537.04" y2="24869.8" gradientUnits="userSpaceOnUse">
<stop stop-color="#6A97D0"/>
<stop offset="0.395074" stop-color="#4797FC"/>
</linearGradient>
<linearGradient id="paint3_linear_128_1285" x1="638.299" y1="502.012" x2="673.732" y2="544.666" gradientUnits="userSpaceOnUse">
<stop stop-color="#FFE2B6"/>
<stop offset="0.610004" stop-color="#F88F4F"/>
</linearGradient>
<linearGradient id="paint4_linear_128_1285" x1="649.973" y1="481.207" x2="649.809" y2="522.221" gradientUnits="userSpaceOnUse">
<stop stop-color="#272852"/>
<stop offset="1" stop-color="#3F4481"/>
</linearGradient>
<linearGradient id="paint5_linear_128_1285" x1="570.949" y1="593.018" x2="489.415" y2="673.57" gradientUnits="userSpaceOnUse">
<stop stop-color="#232940"/>
<stop offset="1" stop-color="#404D5B" stop-opacity="0"/>
</linearGradient>
<linearGradient id="paint6_linear_128_1285" x1="205.308" y1="600.067" x2="205.308" y2="824.44" gradientUnits="userSpaceOnUse">
<stop stop-color="#133059"/>
<stop offset="1" stop-color="#133059" stop-opacity="0.92"/>
</linearGradient>
<linearGradient id="paint7_linear_128_1285" x1="177.625" y1="696.043" x2="359.248" y2="821.531" gradientUnits="userSpaceOnUse">
<stop stop-color="#FF9D3C"/>
<stop offset="1" stop-color="#FD6644"/>
</linearGradient>
<linearGradient id="paint8_linear_128_1285" x1="335.211" y1="667.314" x2="335.211" y2="779.395" gradientUnits="userSpaceOnUse">
<stop stop-color="#FCFCFD"/>
<stop offset="1" stop-color="#DBDBE0"/>
</linearGradient>
<linearGradient id="paint9_linear_128_1285" x1="825.022" y1="922.082" x2="883.154" y2="958.271" gradientUnits="userSpaceOnUse">
<stop offset="0.343596" stop-color="#5C89C5"/>
<stop offset="1" stop-color="#A6C2E8"/>
</linearGradient>
<linearGradient id="paint10_linear_128_1285" x1="851.237" y1="935.387" x2="847.411" y2="942.694" gradientUnits="userSpaceOnUse">
<stop offset="0.377232" stop-color="#305A8C"/>
<stop offset="1" stop-color="#305A8C" stop-opacity="0"/>
</linearGradient>
<linearGradient id="paint11_linear_128_1285" x1="428.934" y1="1002.46" x2="367.877" y2="1043.1" gradientUnits="userSpaceOnUse">
<stop offset="0.343596" stop-color="#5C89C5"/>
<stop offset="1" stop-color="#A6C2E8"/>
</linearGradient>
<linearGradient id="paint12_linear_128_1285" x1="404.027" y1="1022.58" x2="398.591" y2="1015.6" gradientUnits="userSpaceOnUse">
<stop offset="0.377232" stop-color="#305A8C"/>
<stop offset="1" stop-color="#305A8C" stop-opacity="0"/>
</linearGradient>
<clipPath id="clip0_128_1285">
<rect width="907" height="1203" fill="white"/>
</clipPath>
</defs>
</svg>
