<svg width="41" height="40" viewBox="0 0 41 40" fill="none" xmlns="http://www.w3.org/2000/svg">
<path d="M27.6766 13.9334C27.9215 14.0267 28.1817 14.0734 28.4437 14.0711H36.3115C36.8331 14.0711 37.3334 13.8639 37.7023 13.495C38.0712 13.1261 38.2784 12.6258 38.2784 12.1042C38.2784 11.5825 38.0712 11.0822 37.7023 10.7133C37.3334 10.3445 36.8331 10.1372 36.3115 10.1372H33.184L39.6553 3.66599C39.8612 3.48966 40.0284 3.27268 40.1465 3.02865C40.2645 2.78462 40.3309 2.51882 40.3413 2.24794C40.3518 1.97705 40.3061 1.70693 40.2073 1.45452C40.1084 1.20211 39.9584 0.972869 39.7667 0.781182C39.575 0.589494 39.3458 0.439499 39.0934 0.340612C38.8409 0.241725 38.5708 0.196081 38.2999 0.206544C38.0291 0.217007 37.7633 0.283352 37.5192 0.401414C37.2752 0.519476 37.0582 0.686707 36.8819 0.892609L30.4106 7.34417V4.21674C30.4106 3.69507 30.2034 3.19477 29.8345 2.8259C29.4657 2.45703 28.9654 2.2498 28.4437 2.2498C27.922 2.2498 27.4217 2.45703 27.0529 2.8259C26.684 3.19477 26.4768 3.69507 26.4768 4.21674V12.0845C26.4745 12.3465 26.5212 12.6067 26.6145 12.8516C26.7111 13.0932 26.8548 13.3133 27.0371 13.499C27.2194 13.6847 27.4368 13.8323 27.6766 13.9334ZM35.328 21.8012C34.8953 21.8012 34.4429 21.6635 34.0101 21.5651C33.1338 21.372 32.2727 21.1157 31.4335 20.798C30.521 20.4661 29.5179 20.4833 28.6174 20.8464C27.7169 21.2096 26.9824 21.8929 26.5554 22.765L26.1227 23.6501C24.2069 22.5844 22.4465 21.2607 20.8907 19.7162C19.3462 18.1604 18.0225 16.4 16.9568 14.4842L17.7829 13.9334C18.655 13.5064 19.3383 12.772 19.7014 11.8715C20.0646 10.9709 20.0818 9.9679 19.7498 9.05541C19.4375 8.21439 19.1813 7.35361 18.9827 6.47872C18.8844 6.04599 18.8057 5.5936 18.7467 5.1412C18.5078 3.75573 17.7822 2.50106 16.7003 1.60315C15.6185 0.705232 14.2516 0.22308 12.8459 0.243519H6.94505C6.09736 0.23556 5.25791 0.410342 4.48384 0.755967C3.70977 1.10159 3.01926 1.60994 2.45931 2.24642C1.89936 2.88289 1.48313 3.63254 1.23894 4.44434C0.994748 5.25614 0.92834 6.11102 1.04423 6.95078C2.0921 15.191 5.85543 22.8474 11.7398 28.7103C17.6241 34.5733 25.2941 38.3087 33.5381 39.3266H34.2855C35.736 39.3287 37.1364 38.7966 38.2194 37.8317C38.8417 37.2752 39.3388 36.5929 39.6778 35.83C40.0169 35.0671 40.1902 34.241 40.1863 33.4061V27.5053C40.1622 26.139 39.6647 24.8235 38.7787 23.7832C37.8926 22.7429 36.673 22.0424 35.328 21.8012ZM36.3115 33.6028C36.3111 33.8821 36.2513 34.1581 36.136 34.4125C36.0207 34.6668 35.8525 34.8937 35.6427 35.078C35.4229 35.2678 35.1659 35.4095 34.8882 35.4942C34.6104 35.5789 34.3181 35.6046 34.0298 35.5698C26.6634 34.6252 19.8211 31.2553 14.5821 25.9913C9.34314 20.7274 6.00566 13.8692 5.09613 6.49839C5.06483 6.21027 5.09226 5.91879 5.17678 5.64157C5.2613 5.36435 5.40114 5.10715 5.58787 4.8855C5.77219 4.67569 5.99908 4.50753 6.25344 4.39222C6.5078 4.27691 6.78379 4.21709 7.06307 4.21674H12.9639C13.4213 4.20656 13.8679 4.35615 14.2269 4.63977C14.586 4.92338 14.8349 5.32328 14.9308 5.77062C15.0095 6.30825 15.1079 6.83932 15.2259 7.36384C15.4531 8.4007 15.7555 9.41965 16.1307 10.4126L13.3769 11.6911C13.1415 11.7991 12.9297 11.9526 12.7537 12.1427C12.5778 12.3328 12.4411 12.5558 12.3515 12.7989C12.262 13.042 12.2213 13.3003 12.2319 13.5592C12.2425 13.818 12.3041 14.0722 12.4131 14.3071C15.244 20.3707 20.1181 25.2449 26.1817 28.0757C26.6606 28.2725 27.1977 28.2725 27.6766 28.0757C27.9219 27.988 28.1473 27.8524 28.3398 27.6768C28.5323 27.5012 28.6879 27.2892 28.7978 27.0529L30.0173 24.2992C31.0341 24.6628 32.0719 24.965 33.125 25.204C33.6495 25.322 34.1806 25.4204 34.7182 25.499C35.1656 25.595 35.5655 25.8439 35.8491 26.2029C36.1327 26.5619 36.2823 27.0086 36.2721 27.466L36.3115 33.6028Z" fill="url(#paint0_linear_514_275)"/>
<defs>
<linearGradient id="paint0_linear_514_275" x1="20.6658" y1="0.205078" x2="20.6658" y2="39.3266" gradientUnits="userSpaceOnUse">
<stop stop-color="#3D59F9"/>
<stop offset="1" stop-color="#4DB6FE"/>
</linearGradient>
</defs>
</svg>
