<svg width="350" height="227" viewBox="0 0 350 227" fill="none" xmlns="http://www.w3.org/2000/svg">
<path d="M19.853 124.219C-5.73042 127.959 -1.22992 143.959 4.21825 151.491C5.40279 156.426 12.0358 168.478 29.0913 177.205C50.4107 188.114 105.841 124.219 136.399 124.219C166.957 124.219 272.843 179.543 290.61 151.491C308.376 123.44 268.58 131.232 297.716 90.7134C326.853 50.1948 255.077 40.0652 236.6 38.5068C218.124 36.9484 220.966 15.91 182.591 3.44274C144.216 -9.02451 147.059 15.9099 122.186 22.1436C97.3135 28.3772 105.841 13.5723 75.9941 22.1436C46.1468 30.7148 51.8323 119.544 19.853 124.219Z" fill="#D0E2F0"/>
<path d="M68.8344 191.594C56.7384 183.399 57.4499 197.331 43.2194 199.79C-8.0105 207.986 11.2007 216.182 14.7583 216.182H47.4886C72.3924 216.182 75.2373 216.182 85.1987 223.558C95.16 230.934 112.237 223.558 130.025 223.558C147.813 223.558 183.389 214.542 208.293 216.182C233.196 217.821 292.254 224.377 330.676 223.558C369.099 222.738 339.926 204.476 330.676 204.476C321.426 204.476 309.33 211.264 297.234 210.445C285.138 209.625 272.331 191.594 261.658 191.594C250.985 191.594 231.774 199.79 213.986 199.79H122.91C115.084 199.79 80.9303 199.79 68.8344 191.594Z" fill="#F3F1F1"/>
<path d="M146.466 198.042L149.493 181.887C155.839 167 171.949 175.684 179.21 181.887L181.518 198.042H191.327L192.049 206.986H136.079V198.042H146.466Z" fill="#C7CACE"/>
<rect x="271.702" y="196.804" width="3.57778" height="8.68854" fill="#FCB69F"/>
<rect x="290.495" y="196.648" width="3.13501" height="9.1801" transform="rotate(9.05315 290.495 196.648)" fill="#FCB69F"/>
<path d="M180.076 188.523L149.785 182.031C159.478 174.877 173.538 179.05 179.356 182.031L180.076 188.523Z" fill="#A0999B"/>
<rect x="72.2195" y="46.751" width="184.702" height="135.278" rx="2" fill="#F1F6FF"/>
<path d="M59.5192 211.84C59.5192 211.84 56.1096 211.046 56.9455 207.981C57.4221 206.234 59.518 204.122 59.518 204.122C60.3755 204.98 61.0626 206.952 62.0916 207.981C63.1206 209.01 62.0916 210.553 59.5192 211.84Z" fill="#1D2759" stroke="black" stroke-width="0.3"/>
<path d="M69.8136 209.267C71.4139 211.392 73.3552 202.369 71.0975 200.263C69.8105 199.062 68.2133 197.826 68.2133 197.826C67.8894 198.989 67.6211 200.157 67.2324 201.552C66.8438 202.947 68.2133 207.142 69.8136 209.267Z" fill="#1D2759" stroke="black" stroke-width="0.3"/>
<path fill-rule="evenodd" clip-rule="evenodd" d="M40.2308 153.96C38.9446 158.247 37.1439 167.851 40.2308 171.967C43.3178 176.083 51.8061 186.544 55.6644 191.26L56.9506 205.409C58.2368 206.266 61.0665 207.724 62.0955 206.695C63.1245 205.666 63.3818 201.121 63.3818 198.978L67.2404 201.55L69.8129 198.978L64.668 189.974L68.5267 148.815L58.2368 138.525C53.5207 139.382 44.0883 141.355 44.0883 142.384C44.0883 143.413 41.5167 150.53 40.2308 153.96ZM50.5195 170.681C48.4615 167.594 52.2344 159.962 54.3781 156.532L55.6644 178.398L50.5195 170.681Z" fill="#2C519D"/>
<path d="M50.5195 170.681C48.4615 167.594 52.2344 159.962 54.3781 156.532L55.6644 178.398M50.5195 170.681C52.5774 173.768 54.8069 177.112 55.6644 178.398M50.5195 170.681L55.6644 178.398M40.2308 153.96C38.9446 158.247 37.1439 167.851 40.2308 171.967C43.3178 176.083 51.8061 186.544 55.6644 191.26L56.9506 205.409C58.2368 206.266 61.0665 207.724 62.0955 206.695C63.1245 205.666 63.3818 201.121 63.3818 198.978L67.2404 201.55L69.8129 198.978L64.668 189.974L68.5267 148.815L58.2368 138.525C53.5207 139.382 44.0883 141.355 44.0883 142.384C44.0883 143.413 41.5167 150.53 40.2308 153.96Z" stroke="#213B72" stroke-width="0.3"/>
<path d="M20.932 105.082C14.7581 91.7055 38.0818 89.2187 50.5153 89.6475C53.5169 89.2188 60.0346 88.3613 62.0926 88.3613C64.665 88.3613 68.5237 96.0787 68.5237 101.224C68.5237 106.369 71.0962 123.09 72.3824 128.234C73.4114 132.35 72.3824 144.527 71.0962 150.1C65.0938 147.957 52.8317 144.698 51.8027 148.814C50.7738 152.93 38.5117 153.959 32.5093 153.959C28.6502 152.673 23.2475 149.329 32.5093 146.242C41.7711 143.155 37.2259 126.576 33.7955 118.672C29.2914 116.598 24.368 112.527 20.932 105.082Z" fill="#95C1F0"/>
<path d="M33.7955 103.796C38.9404 102.51 47.944 116.658 45.3716 115.372C43.3136 114.343 42.7991 118.373 42.7991 120.517C40.7075 120.707 37.3846 120.324 33.7955 118.672M33.7955 118.672C29.2914 116.598 24.368 112.527 20.932 105.082C14.7581 91.7055 38.0818 89.2187 50.5153 89.6475C53.5169 89.2188 60.0346 88.3613 62.0926 88.3613C64.665 88.3613 68.5237 96.0787 68.5237 101.224C68.5237 106.369 71.0962 123.09 72.3824 128.234C73.4114 132.35 72.3824 144.527 71.0962 150.1C65.0938 147.957 52.8317 144.698 51.8027 148.814C50.7738 152.93 38.5117 153.959 32.5093 153.959C28.6502 152.673 23.2475 149.329 32.5093 146.242C41.7711 143.155 37.2259 126.576 33.7955 118.672Z" stroke="#6389B3" stroke-width="0.3"/>
<path d="M257.346 91.8879C257.535 91.4561 261.455 90.1408 266.267 87.9128L269.589 94.9948L257.346 100.222C257.346 97.2314 257.158 92.3197 257.346 91.8879Z" fill="#FCB69F" stroke="#C59847" stroke-width="0.3"/>
<path d="M293.801 199.034C296.988 190.819 300.065 150.971 299.906 131.357L279.109 132.361C276.341 154.099 270.831 197.787 270.936 198.638C271.041 199.489 274.766 199.058 276.615 198.737L288.818 150.12L290.066 198.969C290.472 200.532 293.444 199.955 293.801 199.034Z" fill="#547ACD"/>
<path d="M276.497 209.44C276.205 209.794 265.51 210.237 260.631 209.525C262.452 206.543 270.1 202.317 271.452 202.716C271.801 202.819 272.993 204.089 275.464 202.785C276.235 204.48 277.734 207.945 276.497 209.44Z" fill="#547ACD"/>
<path d="M293.61 210.095C293.317 210.449 287.66 210.478 282.781 209.766C283.561 206.909 287.826 202.534 289.178 202.932C289.528 203.035 290.106 204.744 292.577 203.44C293.347 205.135 294.847 208.6 293.61 210.095Z" fill="#547ACD"/>
<path d="M283.14 69.9656L286.785 75.8328C285.088 78.8667 280.878 79.5059 278.984 79.4463L276.321 72.6691L281.784 69.0958L283.14 69.9656Z" fill="#FCB69F" stroke="#CB9A42" stroke-width="0.3"/>
<path d="M281.586 69.7652C283.095 70.0483 286.214 70.112 286.616 68.1024C286.872 66.8153 286.692 66.4999 286.429 66.5527C288.059 65.3074 290.217 62.8864 288.488 60.9894C286.117 58.386 287.208 60.3631 286.333 60.348C285.459 60.3328 286.833 56.7318 284.772 56.6961C282.71 56.6604 278.302 52.5427 276.929 53.6647C275.83 54.5623 274.882 52.7474 274.546 51.7277C274.417 51.538 274.141 51.2958 274.065 51.8444C273.988 52.3931 273.659 51.9832 273.505 51.7097C273.538 51.4047 273.498 50.9096 273.073 51.3689C272.542 51.943 270.399 52.9892 270.801 55.0794C271.202 57.1695 271.406 58.6313 273.562 59.2102C275.719 59.7892 281.373 62.8661 281.366 63.2826C281.359 63.6991 278.901 66.0731 280.102 66.5105C281.063 66.8604 281.492 68.8261 281.586 69.7652Z" fill="#1B2758"/>
<path d="M284.017 65.748C284.193 66.7828 282.471 68.1127 281.589 68.6483C281.757 72.0897 272.243 75.3225 271.352 70.8896C270.239 65.3483 273.607 59.401 273.53 59.1981C273.452 58.9953 279.611 61.8023 280.456 61.8573C281.302 61.9122 280.814 62.1859 281.448 62.8015C282.082 63.4171 280.394 65.4435 280.384 66.0479C280.376 66.5314 280.777 66.6055 280.979 66.5822C281.112 65.9261 281.579 64.5289 282.391 64.1882C283.406 63.7624 283.798 64.4544 284.017 65.748Z" fill="#FCB69F" stroke="#D3A756" stroke-width="0.3"/>
<path d="M299.156 132.556C299.156 132.556 306.744 91.9914 286.789 75.6794C286.789 75.6794 284.68 77.1907 283.188 77.902C281.665 78.6287 279.105 79.3216 279.105 79.3216L278.223 77.4782C278.223 77.4782 275.005 81.0961 272.761 83.2335C271.342 84.5852 270.679 85.5339 269.02 86.5774C267.776 87.3605 265.607 88.1673 265.607 88.1673L269.025 95.1991L273.497 91.0803C273.497 91.0803 282.984 98.7303 281.98 99.5311C279.632 101.404 275.307 104.699 275.307 104.699C275.307 104.699 281.063 125.948 279.135 132.209C283.949 135.135 299.156 132.556 299.156 132.556Z" fill="#2D519F"/>
<path d="M58.2385 105.083C56.9523 105.941 55.1516 108.17 58.2385 110.228C61.3255 112.286 58.6665 112.801 56.9511 112.801" stroke="white" stroke-width="0.3"/>
<path d="M61.2224 105.083C59.9362 105.941 58.1355 108.17 61.2224 110.228C64.3094 112.286 61.6503 112.801 59.935 112.801" stroke="white" stroke-width="0.3"/>
<path fill-rule="evenodd" clip-rule="evenodd" d="M64.7842 115.109C63.4936 113.822 56.9446 112.8 54.3721 115.109C54.1362 115.345 53.8532 115.667 53.8134 115.949C53.8086 115.982 53.8086 116.016 53.8134 116.051V117.945C53.8134 117.945 49.2272 116.659 49.2272 121.804C49.2272 128.235 53.8134 127.038 53.8134 127.038V129.253C53.8134 129.253 54.6701 130.752 59.517 130.808C64.6663 130.867 65.49 129.253 65.49 129.253L65.2344 115.719C65.2367 115.55 65.1287 115.445 64.9161 115.238C64.8759 115.199 64.8319 115.156 64.7842 115.109ZM50.5134 120.517C50.5134 119.231 53.0859 119.231 53.8134 120.254V125.662C51.3084 126.691 50.5134 123.09 50.5134 123.09V120.517Z" fill="#313131"/>
<path d="M53.8134 115.949C53.8532 115.667 54.1362 115.345 54.3721 115.109C56.9446 112.8 63.4936 113.822 64.7842 115.109C64.8319 115.156 64.8759 115.199 64.9161 115.238C65.1287 115.445 65.2367 115.55 65.2344 115.719M53.8134 115.949C53.8086 115.982 53.8086 116.016 53.8134 116.051M53.8134 115.949V116.051M65.2344 115.719C65.2307 116.006 65.0367 116.282 64.7842 116.535C62.0895 117.945 56.8219 118.07 54.3721 116.659C54.0297 116.462 53.8411 116.251 53.8134 116.051M65.2344 115.719L65.49 129.253C65.49 129.253 64.6663 130.867 59.517 130.808C54.6701 130.752 53.8134 129.253 53.8134 129.253V127.038M53.8134 117.945C53.8134 117.945 49.2272 116.659 49.2272 121.804C49.2272 128.235 53.8134 127.038 53.8134 127.038M53.8134 117.945V120.254M53.8134 117.945V116.051M53.8134 127.038V125.662M53.8134 120.254C53.0859 119.231 50.5134 119.231 50.5134 120.517M53.8134 120.254V125.662M50.5134 120.517C50.5134 121.803 50.5134 123.09 50.5134 123.09M50.5134 120.517V123.09M50.5134 123.09C50.5134 123.09 51.3084 126.691 53.8134 125.662" stroke="white" stroke-width="0.3"/>
<path d="M51.7991 119.231C49.7411 119.231 47.5116 116.659 46.6542 115.373C42.5382 113.315 42.3667 117.088 42.7955 119.231C43.653 121.375 45.8824 125.92 47.9404 126.949C50.5128 128.235 54.3715 119.231 51.7991 119.231Z" fill="#FCB69F"/>
<path d="M168.22 55.1314C168.747 51.5067 164.933 52.1102 161.897 52.2745C156.959 52.2745 158.637 55.1314 158.966 55.1314C159.295 55.1314 159.442 56.8314 161.897 55.981C164.352 55.1307 165.084 57.7973 164.352 58.8479C165.23 59.7015 167.693 58.7561 168.22 55.1314Z" fill="#D9D9D9" stroke="black" stroke-width="0.3"/>
<path d="M50.5119 87.0754C52.5698 88.1043 53.0843 86.6466 53.0843 85.7891L64.6627 84.5031C65.0915 84.0744 66.2062 83.2169 67.2352 83.2169C68.5214 83.2169 68.5214 79.3582 67.2352 78.072C65.949 76.7857 67.2352 76.7857 68.5214 74.2133C69.8077 71.6408 67.2352 72.927 67.2352 67.7821C67.2352 63.6662 64.6627 64.3522 63.3765 65.2097C62.0903 66.0671 59.5178 67.2676 59.5178 65.2097C59.5178 62.6372 56.9454 63.9234 54.3729 63.9234C51.8004 63.9234 50.5142 66.4959 49.228 65.2097C47.9418 63.9234 53.0867 62.6372 54.3729 60.0647C55.6591 57.4923 50.5142 60.0647 49.228 60.0647C47.9418 60.0647 50.5142 56.2062 47.9394 54.92C45.8796 53.891 44.5089 56.2062 44.0811 57.4924C43.653 58.3499 42.0249 59.5503 38.937 57.4924C35.0772 54.9199 37.6519 61.3511 37.6519 62.6373C37.6519 63.9235 35.0783 65.2098 33.7921 65.2098C32.5059 65.2098 35.0783 69.0684 36.3645 70.3547C37.3935 71.3837 38.5083 69.9259 38.937 69.0684C38.937 67.7822 39.1942 65.467 40.2232 66.496C41.5095 67.7822 44.0819 65.2098 45.3681 65.2098C46.6544 65.2098 50.5142 67.7821 47.9418 67.7821C45.3693 67.7821 41.5106 71.6408 45.3693 72.927C49.228 74.2133 45.3693 75.4995 44.0831 76.7857C42.7968 78.072 44.0831 81.9306 46.6555 80.6444C48.7135 79.6154 47.9394 82.3592 47.9394 83.2167C47.9394 84.0742 48.4539 86.0464 50.5119 87.0754Z" fill="#1B2855"/>
<path d="M167.129 41.7205C178.448 39.6625 179.563 44.7214 178.705 46.8651L158.126 48.8734C162.28 49.9904 165.132 52.01 163.271 52.01C161.213 52.01 160.698 54.5825 160.698 55.8687C160.269 56.2975 157.097 57.4122 147.836 58.4412C136.26 59.7274 119.538 49.4376 116.966 45.5792C114.393 41.7208 124.683 41.7205 133.687 40.4342C140.89 39.4051 146.978 41.7204 149.122 43.0066C150.408 43.4354 155.81 43.7785 167.129 41.7205Z" fill="#394358"/>
<path d="M131.115 45.5792C136.26 49.815 146.55 48.1514 152.981 48.1514C154.759 48.1514 156.538 48.4464 158.126 48.8734M158.126 48.8734C162.28 49.9904 165.132 52.01 163.271 52.01C161.213 52.01 160.698 54.5825 160.698 55.8687C160.269 56.2975 157.097 57.4122 147.836 58.4412C136.26 59.7274 119.538 49.4376 116.966 45.5792C114.393 41.7208 124.683 41.7205 133.687 40.4342C140.89 39.4051 146.978 41.7204 149.122 43.0066C150.408 43.4354 155.81 43.7785 167.129 41.7205C178.448 39.6625 179.563 44.7214 178.705 46.8651L158.126 48.8734Z" stroke="#272E3D" stroke-width="0.3"/>
<path d="M54.3783 85.7881V89.6468C56.4363 92.8771 58.6656 90.9928 59.5231 89.6468V85.6089C61.0099 85.7883 62.7147 85.7883 63.3817 85.7883C64.668 85.7883 64.668 81.9296 64.668 80.6434C64.668 79.3571 64.668 78.0709 63.3817 76.7847C62.0955 75.4984 62.0955 71.6396 60.8093 70.3534C59.5231 69.0671 58.2368 71.6396 56.9506 74.212C55.6644 76.7845 55.6644 75.4983 53.0919 76.7845C51.0339 77.8135 53.0919 80.6432 54.3781 81.9294C53.9495 81.9294 52.8347 80.9006 51.8057 81.9296C50.7767 82.9586 53.0921 85.3594 54.3783 85.7881Z" fill="#FCB69F"/>
<path d="M56.9506 84.502C56.9506 85.1212 58.1429 85.4423 59.5231 85.6089M59.5231 85.6089C61.0099 85.7883 62.7147 85.7883 63.3817 85.7883C64.668 85.7883 64.668 81.9296 64.668 80.6434C64.668 79.3571 64.668 78.0709 63.3817 76.7847C62.0955 75.4984 62.0955 71.6396 60.8093 70.3534C59.5231 69.0671 58.2368 71.6396 56.9506 74.212C55.6644 76.7845 55.6644 75.4983 53.0919 76.7845C51.0339 77.8135 53.0919 80.6432 54.3781 81.9294C53.9495 81.9294 52.8347 80.9006 51.8057 81.9296C50.7767 82.9586 53.0921 85.3594 54.3783 85.7881V89.6468C56.4363 92.8771 58.6656 90.9928 59.5231 89.6468V85.6089Z" stroke="#CC8A74" stroke-width="0.3"/>
<path d="M162.195 38.3934C165.282 37.3644 166.054 33.6773 166.054 31.9623C169.912 29.3897 164.767 24.2448 163.481 21.6723C162.195 19.0999 157.05 20.3861 151.904 26.8173C147.787 31.9622 153.619 37.1072 157.05 39.6797C158.336 40.6442 158.336 42.2521 157.05 43.5383C155.423 45.165 161.338 44.3957 162.196 43.5383C160.91 42.6808 159.108 39.4224 162.195 38.3934Z" fill="#FCB69F" stroke="#AE735F" stroke-width="0.3"/>
<path d="M154.361 29.6089C159.506 28.58 159.935 24.8928 159.506 23.1778C168.508 27.0366 165.939 32.1813 165.939 33.4675C165.939 34.7538 168.511 30.8951 169.798 28.3226C171.084 25.7501 168.511 23.1778 165.939 18.0328C163.881 13.9167 162.509 16.3178 162.08 18.0328V12.8878C162.08 9.02913 155.649 11.6016 154.361 12.888L154.36 12.8893C153.072 14.1752 151.786 15.4595 142.786 12.888C133.782 10.3155 142.786 19.3191 144.072 21.8916C145.358 24.464 144.072 25.7503 140.213 29.6089C136.354 33.4676 142.786 33.4676 145.358 34.7539C147.93 36.0401 149.217 36.0401 147.93 39.8988C146.901 42.9857 150.074 44.615 151.789 45.0437C150.931 44.615 149.988 42.7285 153.075 38.6126C156.162 34.4966 155.219 33.4676 154.361 33.4676C152.217 32.6101 149.216 30.6379 154.361 29.6089Z" fill="#1B2855" stroke="black" stroke-width="0.3"/>
<path d="M75.215 50.3901C75.215 49.8379 75.6627 49.3901 76.215 49.3901H252.921C253.473 49.3901 253.921 49.8379 253.921 50.3901V159.775C253.921 160.328 253.473 160.775 252.921 160.775H76.215C75.6627 160.775 75.215 160.328 75.215 159.775V50.3901Z" fill="#5E73B5"/>
<path d="M162.887 98.8831C162.887 92.0691 160.759 85.4252 156.799 79.8797L130.184 98.8831H162.887Z" fill="#51A7F7"/>
<path d="M148.425 74.2783C145.194 71.4492 141.437 69.2842 137.369 67.907C133.301 66.5297 129.002 65.9671 124.717 66.2514C120.431 66.5357 116.244 67.6612 112.394 69.5637C108.544 71.4663 105.106 74.1085 102.277 77.3397L126.881 98.8831L148.425 74.2783Z" fill="#A5BEFF"/>
<path d="M161.597 101.403C161.597 105.698 160.751 109.95 159.107 113.918C157.464 117.886 155.055 121.491 152.018 124.528L128.893 101.403H161.597Z" fill="#9DB9D3"/>
<path d="M150.006 124.58C144.033 130.553 135.98 133.983 127.535 134.152C119.089 134.321 110.906 131.215 104.699 125.486C98.4919 119.756 94.7427 111.847 94.2365 103.415C93.7304 94.9828 96.5066 86.682 101.984 80.251L126.881 101.455L150.006 124.58Z" fill="#2C519E"/>
<rect x="172.765" y="66.0159" width="57.5486" height="78.1345" fill="#2A365C" stroke="#D9D9D9"/>
<rect x="178.67" y="83.3535" width="6.86073" height="16.4673" fill="#D9D9D9"/>
<path d="M238.33 49.6697H75.604V161.08H80.2279C86.0835 160.155 83.6875 154.624 100.33 152.405C121.132 149.631 101.533 125.619 115.863 109.439C130.194 93.259 152.292 110.794 172.049 97.2103C182.626 89.9391 193.52 112.186 196.176 88.9476C198.82 65.8122 201.346 78.7935 234.631 70.9347C261.258 64.6477 248.191 54.1384 238.33 49.6697Z" fill="url(#paint0_linear_92_612)" fill-opacity="0.5"/>
<rect x="188.302" y="77.167" width="6.14979" height="22.6554" fill="#D9D9D9"/>
<rect x="198.546" y="88.4941" width="5.98901" height="11.3274" fill="#D9D9D9"/>
<rect x="208.32" y="70.7031" width="6.62207" height="29.1185" fill="#D9D9D9"/>
<rect x="218.096" y="83.3535" width="5.83325" height="16.4673" fill="#D9D9D9"/>
<rect x="178.67" y="106.644" width="45.2567" height="2.0493" fill="#D9D9D9"/>
<rect x="178.67" y="113.266" width="45.2567" height="2.36458" fill="#D9D9D9"/>
<rect x="178.67" y="120.359" width="45.2567" height="2.0493" fill="#D9D9D9"/>
<rect x="178.67" y="127.61" width="46.3595" height="2.67985" fill="#D9D9D9"/>
<rect x="178.67" y="134.861" width="46.3595" height="2.52222" fill="#D9D9D9"/>
<path d="M122.366 116.332C118.289 117.368 79.2011 128.448 86.293 151.257C76.97 165.445 99.4848 178.822 109.195 169.093L122.366 157.743L131.731 128.448C132.465 127.378 134.287 124.741 135.697 122.752C137.46 120.267 132.612 117.161 131.731 114.675C130.849 112.19 126.442 115.297 122.366 116.332Z" fill="#0F2544"/>
<path d="M248.128 98.9817C248.621 98.792 250.645 97.5027 253.589 101.67C253.908 102.123 259.243 102.733 264.633 99.8798C268.176 98.0043 272.016 93.0075 273.511 91.2086C280.938 90.3186 293.03 90.7278 281.985 99.4849C270.94 108.242 264.35 109.676 260.017 108.196C258.944 107.781 251.804 104.899 251.188 105.508C250.419 106.269 247.223 107.763 244.135 108.196C241.665 108.542 240.534 104.982 240.278 103.158L248.602 99.8798L248.128 98.9817Z" fill="#FCB69F" stroke="#CC9A40" stroke-width="0.3"/>
<path d="M142.54 191.651C146.364 187.865 155.078 180.589 159.348 181.77C164.686 183.247 164.913 184.269 164.913 185.518C164.913 186.767 162.187 204.484 147.537 206.187C135.817 207.55 130.313 208.496 129.026 208.799L126.528 208.004C123.651 208.761 115.535 209.98 106.086 208.799C94.2752 207.323 88.1438 195.285 83.4876 190.856C79.7626 187.312 81.4812 185.821 82.8061 185.518C86.6669 185.14 94.9791 185.336 97.3412 189.152C109.682 186.313 135.998 182.838 142.54 191.651Z" fill="#1B2757"/>
<path d="M124.824 203.916L142.54 191.651M142.54 191.651C146.364 187.865 155.078 180.589 159.348 181.77C164.686 183.247 164.913 184.269 164.913 185.518C164.913 186.767 162.187 204.484 147.537 206.187C135.817 207.55 130.313 208.496 129.026 208.799L126.528 208.004M142.54 191.651C135.998 182.838 109.682 186.313 97.3412 189.152M126.528 208.004V205.392C117.783 201.569 99.7034 192.968 97.3412 189.152M126.528 208.004C123.651 208.761 115.535 209.98 106.086 208.799C94.2752 207.323 88.1438 195.285 83.4876 190.856C79.7626 187.312 81.4812 185.821 82.8061 185.518C86.6669 185.14 94.9791 185.336 97.3412 189.152" stroke="#161F45" stroke-width="0.3"/>
<path fill-rule="evenodd" clip-rule="evenodd" d="M122.514 135.776C112.258 138.106 91.0886 150.54 91.9203 167.899C92.6137 182.372 103.863 178.498 113.46 170.849C111.531 176.079 104.966 186.563 94.1342 186.654C80.5947 186.767 104.176 194.944 105.417 194.49C106.658 194.036 115.572 192.332 117.829 195.853C120.085 199.373 130.014 198.124 130.691 195.853C131.368 193.581 135.881 190.288 138.589 191.537C140.638 192.483 143.979 190.047 146.559 188.166C147.389 187.561 148.14 187.013 148.744 186.654C149.352 186.292 150.163 185.76 151.061 185.17C153.045 183.867 155.453 182.286 157.032 181.656C158.139 181.659 158.732 181.556 158.432 181.43C158.143 181.309 157.652 181.409 157.032 181.656C153.149 181.646 142.94 180.322 142.764 174.048C142.538 165.985 142.425 154.628 146.149 153.493C149.127 152.584 153.859 146.754 155.852 143.953C155.288 142.477 153.234 139.524 149.534 139.524C145.833 139.524 137.461 137.026 133.738 135.776H122.514ZM107.621 164.963C107.495 163.184 112.084 159.548 114.503 157.695L115.118 161.556C113.949 162.174 112.824 162.833 111.817 163.424C109.415 164.832 107.684 165.847 107.621 164.963Z" fill="#547ACF"/>
<path d="M115.118 161.556C116.776 160.68 119.557 157.356 120.799 156.621V163.928C118.653 166.318 116.119 168.729 113.46 170.849M115.118 161.556L114.503 157.695C112.084 159.548 107.495 163.184 107.621 164.963C107.684 165.847 109.415 164.832 111.817 163.424C112.824 162.833 113.949 162.174 115.118 161.556ZM113.46 170.849C103.863 178.498 92.6137 182.372 91.9203 167.899C91.0886 150.54 112.258 138.106 122.514 135.776H133.738C137.461 137.026 145.833 139.524 149.534 139.524C153.234 139.524 155.288 142.477 155.852 143.953C153.859 146.754 149.127 152.584 146.149 153.493C142.425 154.628 142.538 165.985 142.764 174.048C142.94 180.322 153.149 181.646 157.032 181.656M113.46 170.849C111.531 176.079 104.966 186.563 94.1342 186.654C80.5947 186.767 104.176 194.944 105.417 194.49C106.658 194.036 115.572 192.332 117.829 195.853C120.085 199.373 130.014 198.124 130.691 195.853C131.368 193.581 135.881 190.288 138.589 191.537C140.638 192.483 143.979 190.047 146.559 188.166C147.389 187.561 148.14 187.013 148.744 186.654C149.352 186.292 150.163 185.76 151.061 185.17C153.045 183.867 155.453 182.286 157.032 181.656M157.032 181.656C157.652 181.409 158.143 181.309 158.432 181.43C158.732 181.556 158.139 181.659 157.032 181.656Z" stroke="#405EA2" stroke-width="0.3"/>
<path d="M160.143 142.818L121.759 150.653C120.122 150.653 119.942 152.243 120.056 153.038C119.829 160.231 119.26 174.979 118.806 176.433C118.352 177.887 120.206 177.947 121.19 177.796C132.168 175.487 154.442 170.823 155.714 170.641C156.986 170.459 157.379 169.884 157.417 169.619C159.121 162.351 162.596 147.247 162.868 144.975C163.141 142.704 161.165 142.59 160.143 142.818Z" fill="#D9D9D9" stroke="#8C8C8C" stroke-width="0.3"/>
<path d="M125.251 134.566C125.963 133.993 126.938 131.57 127.23 130.263L129.516 131.297C129.516 131.571 129.698 133.421 131.392 134.314C132.731 135.02 133.301 135.214 134.651 135.654C136.262 136.18 137.837 135.381 138.183 136.539C138.55 137.771 128.758 145.225 119.986 137.64C121.62 136.639 124.464 135.2 125.251 134.566Z" fill="#FCB69F"/>
<path d="M131.487 131.613C127.598 132.876 124.657 130.613 122.61 129.626C120.335 128.854 119.562 126.663 120.203 126.154C120.844 125.645 123.033 126.987 122.125 125.691C121.217 124.395 121.484 120.831 126.239 118.794C130.042 117.165 132.524 121.695 133.29 124.164C133.557 126.2 134.094 130.766 131.487 131.613Z" fill="#FCB69F"/>
<path d="M163.205 152.813C163.204 148.725 160.254 148.081 158.779 148.271C157.418 147.18 157.53 148.725 157.756 149.634L160.481 155.198C161.39 156.107 163.207 156.902 163.205 152.813Z" fill="#FCB69F" stroke="black" stroke-width="0.3"/>
<path d="M134.198 206.365C132.08 205.605 130.396 205.605 129.908 206.365L128.984 208.973C129.274 209.407 129.559 210.342 132.08 211.255C135.23 212.395 136.969 212.504 138.707 211.255C140.446 210.005 137.498 207.55 134.198 206.365Z" fill="#1B2757" stroke="#111939" stroke-width="0.3"/>
<path d="M130.504 206.307C129.308 205.476 126.865 205.492 126.865 205.492V208.154C126.865 208.154 128.467 209.023 129.58 209.023C133.491 209.023 133.165 208.157 130.504 206.307Z" fill="#FCB69F"/>
<rect x="74.791" y="49.3901" width="179.13" height="9.75035" fill="#DBDBDB"/>
<defs>
<linearGradient id="paint0_linear_92_612" x1="162.991" y1="49.6697" x2="162.991" y2="161.08" gradientUnits="userSpaceOnUse">
<stop stop-color="#E3E3E3" stop-opacity="0.65"/>
<stop offset="1" stop-color="#D9D9D9" stop-opacity="0"/>
</linearGradient>
</defs>
</svg>
