<svg width="1058" height="1025" viewBox="0 0 1058 1025" fill="none" xmlns="http://www.w3.org/2000/svg">
<path d="M770.655 804.934C816.267 896.297 885.046 889.826 913.734 875.17C1005.1 829.558 1047.39 870.739 1057.12 897.031L934.693 -0.000100059C907.545 9.07535 850.765 42.7559 840.83 104.874C828.411 182.522 779.621 145.45 684.62 174.527C589.619 203.603 616.127 296.653 608.945 362.078C601.763 427.504 265.14 362.079 106.757 505.075C49.3064 556.945 52.4544 640.833 106.757 675.526C216.489 745.632 395.153 685.368 437.097 725.251C482.069 768.011 578.377 766.634 631.681 752.455C665.402 740.948 725.043 713.571 770.655 804.934Z" fill="#BECCE1"/>
<path d="M795.056 744.339C834.488 819.386 895.04 813.525 920.387 801.214C1001.1 762.883 1037.99 796.545 1046.35 818.167L945.455 78.8664C921.504 86.561 871.301 114.784 862.091 166.12C850.578 230.289 807.939 200.067 724.149 224.78C640.359 249.494 662.973 326.077 656.159 380.121C649.345 434.164 242.234 383.28 120.332 524.686C44.9118 612.174 122.534 652.785 144.467 664.967C242.513 682.8 488.928 644.7 497.433 695.135C505.938 745.57 622.394 707.24 669.391 695.135C699.141 685.384 755.624 669.292 795.056 744.339Z" fill="#E8EFF9"/>
<path d="M382.807 671.257C348.223 671.257 126.519 693.97 41.5344 711.263C-25.2262 749.478 437.429 725.657 462.624 737.63C487.82 749.602 585.038 727.226 641.428 711.263C686.54 698.493 622.632 693.97 585.038 693.305C543.646 699.291 456.364 671.258 382.807 671.257Z" fill="#C6D0E8"/>
<path fill-rule="evenodd" clip-rule="evenodd" d="M78.145 587.69V647.711H661.143V556.186H651.592V545.906H638.062V519.046H627.715V502.134H615.379V472.289H611.001V502.134H601.45V519.046H590.706V545.906H574.788V554.197H565.635V585.036H553.298V494.507H548.523V534.963H538.176V521.367H532.207V485.222H525.044V415.915H521.462V446.755H509.524V462.672H492.412V498.155H459.382V432.496L423.566 430.506V401.988H413.617V528.994H382.975V498.155H355.146V435.48H338.802V371.811H334.027V403.977H322.088V432.496H301.793V519.046H285.875V556.186H277.916L276.324 527.336H265.977V519.046H256.487H251.253V509.097H156.143L152.163 556.186L144.189 556.082L145 455.377H137.041V417.573H133.46V432.496L107.991 441.781L105.603 456.703H93.6646V558.176H86.5014V587.69H78.145ZM254.399 526.551V531.123H251.436V526.551H254.399ZM97.8586 466.97V462.398H100.79V466.97H97.8586ZM103.603 466.97V462.398H106.534V466.97H103.603ZM113.217 466.97H110.286V462.398H113.217V466.97ZM119.431 466.97H116.5V462.398H119.431V466.97ZM125.199 462.398H122.237V466.97H125.199V462.398ZM130.485 462.398H127.522V466.97H130.485V462.398ZM136.169 462.398H133.206V466.97H136.169V462.398ZM141.454 462.398H138.492V466.97H141.454V462.398ZM97.8586 474.389V469.817H100.79V474.389H97.8586ZM103.603 474.389V469.817H106.534V474.389H103.603ZM113.217 474.389H110.286V469.817H113.217V474.389ZM119.431 474.389H116.5V469.817H119.431V474.389ZM125.199 469.817H122.237V474.389H125.199V469.817ZM130.485 469.817H127.522V474.389H130.485V469.817ZM136.169 469.817H133.206V474.389H136.169V469.817ZM141.454 469.817H138.492V474.389H141.454V469.817ZM97.8586 482.727V478.155H100.79V482.727H97.8586ZM103.603 482.727V478.155H106.534V482.727H103.603ZM113.217 482.727H110.286V478.155H113.217V482.727ZM119.431 482.727H116.5V478.155H119.431V482.727ZM125.199 478.155H122.237V482.727H125.199V478.155ZM130.485 478.155H127.522V482.727H130.485V478.155ZM136.169 478.155H133.206V482.727H136.169V478.155ZM141.454 478.155H138.492V482.727H141.454V478.155ZM97.8586 491.206V486.634H100.79V491.206H97.8586ZM103.603 491.206V486.634H106.534V491.206H103.603ZM113.217 491.206H110.286V486.634H113.217V491.206ZM119.431 491.206H116.5V486.634H119.431V491.206ZM125.199 486.634H122.237V491.206H125.199V486.634ZM130.485 486.634H127.522V491.206H130.485V486.634ZM136.169 486.634H133.206V491.206H136.169V486.634ZM141.454 486.634H138.492V491.206H141.454V486.634ZM97.8586 499.306V494.734H100.79V499.306H97.8586ZM103.603 499.306V494.734H106.534V499.306H103.603ZM113.217 499.306H110.286V494.734H113.217V499.306ZM119.431 499.306H116.5V494.734H119.431V499.306ZM125.199 494.734H122.237V499.306H125.199V494.734ZM130.485 494.734H127.522V499.306H130.485V494.734ZM136.169 494.734H133.206V499.306H136.169V494.734ZM141.454 494.734H138.492V499.306H141.454V494.734ZM97.8586 506.725V502.153H100.79V506.725H97.8586ZM103.603 506.725V502.153H106.534V506.725H103.603ZM113.217 506.725H110.286V502.153H113.217V506.725ZM119.431 506.725H116.5V502.153H119.431V506.725ZM125.199 502.153H122.237V506.725H125.199V502.153ZM130.485 502.153H127.522V506.725H130.485V502.153ZM136.169 502.153H133.206V506.725H136.169V502.153ZM141.454 502.153H138.492V506.725H141.454V502.153ZM97.8586 515.063V510.491H100.79V515.063H97.8586ZM103.603 515.063V510.491H106.534V515.063H103.603ZM113.217 515.063H110.286V510.491H113.217V515.063ZM119.431 515.063H116.5V510.491H119.431V515.063ZM125.199 510.491H122.237V515.063H125.199V510.491ZM130.485 510.491H127.522V515.063H130.485V510.491ZM136.169 510.491H133.206V515.063H136.169V510.491ZM141.454 510.491H138.492V515.063H141.454V510.491ZM97.8586 523.542V518.97H100.79V523.542H97.8586ZM103.603 523.542V518.97H106.534V523.542H103.603ZM113.217 523.542H110.286V518.97H113.217V523.542ZM119.431 523.542H116.5V518.97H119.431V523.542ZM125.199 518.97H122.237V523.542H125.199V518.97ZM130.485 518.97H127.522V523.542H130.485V518.97ZM136.169 518.97H133.206V523.542H136.169V518.97ZM141.454 518.97H138.492V523.542H141.454V518.97ZM97.8586 531.846V527.274H100.79V531.846H97.8586ZM103.603 531.846V527.274H106.534V531.846H103.603ZM113.217 531.846H110.286V527.274H113.217V531.846ZM119.431 531.846H116.5V527.274H119.431V531.846ZM125.199 527.274H122.237V531.846H125.199V527.274ZM130.485 527.274H127.522V531.846H130.485V527.274ZM136.169 527.274H133.206V531.846H136.169V527.274ZM138.492 527.274V531.846H141.454V527.274H138.492ZM97.8586 539.265V534.693H100.79V539.265H97.8586ZM103.603 539.265V534.693H106.534V539.265H103.603ZM113.217 539.265H110.286V534.693H113.217V539.265ZM119.431 539.265H116.5V534.693H119.431V539.265ZM125.199 534.693H122.237V539.265H125.199V534.693ZM130.485 534.693H127.522V539.265H130.485V534.693ZM136.169 534.693H133.206V539.265H136.169V534.693ZM141.454 534.693H138.492V539.265H141.454V534.693ZM97.8586 547.603V543.031H100.79V547.603H97.8586ZM103.603 547.603V543.031H106.534V547.603H103.603ZM113.217 547.603H110.286V543.031H113.217V547.603ZM119.431 547.603H116.5V543.031H119.431V547.603ZM125.199 543.031H122.237V547.603H125.199V543.031ZM130.485 543.031H127.522V547.603H130.485V543.031ZM136.169 543.031H133.206V547.603H136.169V543.031ZM141.454 543.031H138.492V547.603H141.454V543.031ZM97.8586 556.082V551.51H100.79V556.082H97.8586ZM103.603 556.082V551.51H106.534V556.082H103.603ZM113.217 556.082H110.286V551.51H113.217V556.082ZM119.431 556.082H116.5V551.51H119.431V556.082ZM125.199 551.51H122.237V556.082H125.199V551.51ZM130.485 551.51H127.522V556.082H130.485V551.51ZM136.169 551.51H133.206V556.082H136.169V551.51ZM141.454 551.51H138.492V556.082H141.454V551.51ZM307.396 447.67V443.098H310.327V447.67H307.396ZM313.141 447.67V443.098H316.072V447.67H313.141ZM322.754 447.67H319.823V443.098H322.754V447.67ZM328.968 447.67H326.037V443.098H328.968V447.67ZM334.736 443.098H331.774V447.67H334.736V443.098ZM340.022 443.098H337.06V447.67H340.022V443.098ZM345.706 443.098H342.743V447.67H345.706V443.098ZM350.991 443.098H348.029V447.67H350.991V443.098ZM307.396 455.089V450.517H310.327V455.089H307.396ZM313.141 455.089V450.517H316.072V455.089H313.141ZM322.754 455.089H319.823V450.517H322.754V455.089ZM328.968 455.089H326.037V450.517H328.968V455.089ZM334.736 450.517H331.774V455.089H334.736V450.517ZM340.022 450.517H337.06V455.089H340.022V450.517ZM345.706 450.517H342.743V455.089H345.706V450.517ZM350.991 450.517H348.029V455.089H350.991V450.517ZM307.396 463.427V458.855H310.327V463.427H307.396ZM313.141 463.427V458.855H316.072V463.427H313.141ZM322.754 463.427H319.823V458.855H322.754V463.427ZM328.968 463.427H326.037V458.855H328.968V463.427ZM334.736 458.855H331.774V463.427H334.736V458.855ZM340.022 458.855H337.06V463.427H340.022V458.855ZM345.706 458.855H342.743V463.427H345.706V458.855ZM350.991 458.855H348.029V463.427H350.991V458.855ZM307.396 471.906V467.334H310.327V471.906H307.396ZM313.141 471.906V467.334H316.072V471.906H313.141ZM322.754 471.906H319.823V467.334H322.754V471.906ZM328.968 471.906H326.037V467.334H328.968V471.906ZM334.736 467.334H331.774V471.906H334.736V467.334ZM340.022 467.334H337.06V471.906H340.022V467.334ZM345.706 467.334H342.743V471.906H345.706V467.334ZM350.991 467.334H348.029V471.906H350.991V467.334ZM307.396 480.006V475.434H310.327V480.006H307.396ZM313.141 480.006V475.434H316.072V480.006H313.141ZM322.754 480.006H319.823V475.434H322.754V480.006ZM328.968 480.006H326.037V475.434H328.968V480.006ZM334.736 475.434H331.774V480.006H334.736V475.434ZM340.022 475.434H337.06V480.006H340.022V475.434ZM345.706 475.434H342.743V480.006H345.706V475.434ZM350.991 475.434H348.029V480.006H350.991V475.434ZM307.396 487.425V482.853H310.327V487.425H307.396ZM313.141 487.425V482.853H316.072V487.425H313.141ZM322.754 487.425H319.823V482.853H322.754V487.425ZM328.968 487.425H326.037V482.853H328.968V487.425ZM334.736 482.853H331.774V487.425H334.736V482.853ZM340.022 482.853H337.06V487.425H340.022V482.853ZM345.706 482.853H342.743V487.425H345.706V482.853ZM350.991 482.853H348.029V487.425H350.991V482.853ZM307.396 495.763V491.191H310.327V495.763H307.396ZM313.141 495.763V491.191H316.072V495.763H313.141ZM322.754 495.763H319.823V491.191H322.754V495.763ZM328.968 495.763H326.037V491.191H328.968V495.763ZM334.736 491.191H331.774V495.763H334.736V491.191ZM340.022 491.191H337.06V495.763H340.022V491.191ZM345.706 491.191H342.743V495.763H345.706V491.191ZM350.991 491.191H348.029V495.763H350.991V491.191ZM307.396 504.242V499.67H310.327V504.242H307.396ZM313.141 504.242V499.67H316.072V504.242H313.141ZM322.754 504.242H319.823V499.67H322.754V504.242ZM328.968 504.242H326.037V499.67H328.968V504.242ZM334.736 499.67H331.774V504.242H334.736V499.67ZM340.022 499.67H337.06V504.242H340.022V499.67ZM345.706 499.67H342.743V504.242H345.706V499.67ZM350.991 499.67H348.029V504.242H350.991V499.67ZM307.396 512.546V507.974H310.327V512.546H307.396ZM313.141 512.546V507.974H316.072V512.546H313.141ZM322.754 512.546H319.823V507.974H322.754V512.546ZM328.968 512.546H326.037V507.974H328.968V512.546ZM334.736 507.974H331.774V512.546H334.736V507.974ZM340.022 507.974H337.06V512.546H340.022V507.974ZM345.706 507.974H342.743V512.546H345.706V507.974ZM348.029 507.974V512.546H350.991V507.974H348.029ZM307.396 519.965V515.393H310.327V519.965H307.396ZM313.141 519.965V515.393H316.072V519.965H313.141ZM322.754 519.965H319.823V515.393H322.754V519.965ZM328.968 519.965H326.037V515.393H328.968V519.965ZM334.736 515.393H331.774V519.965H334.736V515.393ZM340.022 515.393H337.06V519.965H340.022V515.393ZM345.706 515.393H342.743V519.965H345.706V515.393ZM350.991 515.393H348.029V519.965H350.991V515.393ZM307.396 528.303V523.731H310.327V528.303H307.396ZM313.141 528.303V523.731H316.072V528.303H313.141ZM322.754 528.303H319.823V523.731H322.754V528.303ZM328.968 528.303H326.037V523.731H328.968V528.303ZM334.736 523.731H331.774V528.303H334.736V523.731ZM340.022 523.731H337.06V528.303H340.022V523.731ZM345.706 523.731H342.743V528.303H345.706V523.731ZM350.991 523.731H348.029V528.303H350.991V523.731ZM307.396 537.266V532.694H310.327V537.266H307.396ZM313.141 537.266V532.694H316.072V537.266H313.141ZM322.754 537.266H319.823V532.694H322.754V537.266ZM328.968 537.266H326.037V532.694H328.968V537.266ZM334.736 532.694H331.774V537.266H334.736V532.694ZM340.022 532.694H337.06V537.266H340.022V532.694ZM345.706 532.694H342.743V537.266H345.706V532.694ZM350.991 532.694H348.029V537.266H350.991V532.694ZM307.396 544.685V540.113H310.327V544.685H307.396ZM313.141 544.685V540.113H316.072V544.685H313.141ZM322.754 544.685H319.823V540.113H322.754V544.685ZM328.968 544.685H326.037V540.113H328.968V544.685ZM334.736 540.113H331.774V544.685H334.736V540.113ZM340.022 540.113H337.06V544.685H340.022V540.113ZM345.706 540.113H342.743V544.685H345.706V540.113ZM350.991 540.113H348.029V544.685H350.991V540.113ZM307.396 553.023V548.451H310.327V553.023H307.396ZM313.141 553.023V548.451H316.072V553.023H313.141ZM322.754 553.023H319.823V548.451H322.754V553.023ZM328.968 553.023H326.037V548.451H328.968V553.023ZM334.736 548.451H331.774V553.023H334.736V548.451ZM340.022 548.451H337.06V553.023H340.022V548.451ZM345.706 548.451H342.743V553.023H345.706V548.451ZM350.991 548.451H348.029V553.023H350.991V548.451ZM307.396 561.502V556.93H310.327V561.502H307.396ZM313.141 561.502V556.93H316.072V561.502H313.141ZM322.754 561.502H319.823V556.93H322.754V561.502ZM328.968 561.502H326.037V556.93H328.968V561.502ZM334.736 556.93H331.774V561.502H334.736V556.93ZM340.022 556.93H337.06V561.502H340.022V556.93ZM345.706 556.93H342.743V561.502H345.706V556.93ZM350.991 556.93H348.029V561.502H350.991V556.93ZM307.396 569.602V565.03H310.327V569.602H307.396ZM313.141 569.602V565.03H316.072V569.602H313.141ZM322.754 569.602H319.823V565.03H322.754V569.602ZM328.968 569.602H326.037V565.03H328.968V569.602ZM334.736 565.03H331.774V569.602H334.736V565.03ZM340.022 565.03H337.06V569.602H340.022V565.03ZM345.706 565.03H342.743V569.602H345.706V565.03ZM350.991 565.03H348.029V569.602H350.991V565.03ZM307.396 577.021V572.449H310.327V577.021H307.396ZM313.141 577.021V572.449H316.072V577.021H313.141ZM322.754 577.021H319.823V572.449H322.754V577.021ZM328.968 577.021H326.037V572.449H328.968V577.021ZM334.736 572.449H331.774V577.021H334.736V572.449ZM340.022 572.449H337.06V577.021H340.022V572.449ZM345.706 572.449H342.743V577.021H345.706V572.449ZM350.991 572.449H348.029V577.021H350.991V572.449ZM164.156 531.123V526.551H167.087V531.123H164.156ZM169.901 531.123V526.551H172.832V531.123H169.901ZM179.515 531.123H176.584V526.551H179.515V531.123ZM185.728 531.123H182.797V526.551H185.728V531.123ZM191.497 526.551H188.534V531.123H191.497V526.551ZM196.782 526.551H193.82V531.123H196.782V526.551ZM202.466 526.551H199.504V531.123H202.466V526.551ZM207.751 526.551H204.789V531.123H207.751V526.551ZM164.156 538.542V533.97H167.087V538.542H164.156ZM169.901 538.542V533.97H172.832V538.542H169.901ZM179.515 538.542H176.584V533.97H179.515V538.542ZM185.728 538.542H182.797V533.97H185.728V538.542ZM191.497 533.97H188.534V538.542H191.497V533.97ZM196.782 533.97H193.82V538.542H196.782V533.97ZM202.466 533.97H199.504V538.542H202.466V533.97ZM207.751 533.97H204.789V538.542H207.751V533.97ZM164.156 546.88V542.308H167.087V546.88H164.156ZM169.901 546.88V542.308H172.832V546.88H169.901ZM179.515 546.88H176.584V542.308H179.515V546.88ZM185.728 546.88H182.797V542.308H185.728V546.88ZM191.497 542.308H188.534V546.88H191.497V542.308ZM202.466 542.308H199.504V546.88H202.466V542.308ZM207.751 542.308H204.789V546.88H207.751V542.308ZM164.156 555.359V550.787H167.087V555.359H164.156ZM169.901 555.359V550.787H172.832V555.359H169.901ZM179.515 555.359H176.584V550.787H179.515V555.359ZM185.728 555.359H182.797V550.787H185.728V555.359ZM191.497 550.787H188.534V555.359H191.497V550.787ZM196.782 550.787H193.82V555.359H196.782V550.787ZM202.466 550.787H199.504V555.359H202.466V550.787ZM207.751 550.787H204.789V555.359H207.751V550.787ZM164.156 563.459V558.887H167.087V563.459H164.156ZM169.901 563.459V558.887H172.832V563.459H169.901ZM179.515 563.459H176.584V558.887H179.515V563.459ZM185.728 563.459H182.797V558.887H185.728V563.459ZM191.497 558.887H188.534V563.459H191.497V558.887ZM196.782 558.887H193.82V563.459H196.782V558.887ZM202.466 558.887H199.504V563.459H202.466V558.887ZM207.751 558.887H204.789V563.459H207.751V558.887ZM164.156 570.878V566.306H167.087V570.878H164.156ZM169.901 570.878V566.306H172.832V570.878H169.901ZM179.515 570.878H176.584V566.306H179.515V570.878ZM185.728 570.878H182.797V566.306H185.728V570.878ZM191.497 566.306H188.534V570.878H191.497V566.306ZM196.782 566.306H193.82V570.878H196.782V566.306ZM202.466 566.306H199.504V570.878H202.466V566.306ZM207.751 566.306H204.789V570.878H207.751V566.306ZM164.156 579.216V574.644H167.087V579.216H164.156ZM169.901 579.216V574.644H172.832V579.216H169.901ZM179.515 579.216H176.584V574.644H179.515V579.216ZM185.728 579.216H182.797V574.644H185.728V579.216ZM191.497 574.644H188.534V579.216H191.497V574.644ZM196.782 574.644H193.82V579.216H196.782V574.644ZM202.466 574.644H199.504V579.216H202.466V574.644ZM207.751 574.644H204.789V579.216H207.751V574.644ZM164.156 587.695V583.123H167.087V587.695H164.156ZM169.901 587.695V583.123H172.832V587.695H169.901ZM179.515 587.695H176.584V583.123H179.515V587.695ZM185.728 587.695H182.797V583.123H185.728V587.695ZM191.497 583.123H188.534V587.695H191.497V583.123ZM196.782 583.123H193.82V587.695H196.782V583.123ZM202.466 583.123H199.504V587.695H202.466V583.123ZM207.751 583.123H204.789V587.695H207.751V583.123ZM164.156 595.999V591.427H167.087V595.999H164.156ZM169.901 595.999V591.427H172.832V595.999H169.901ZM179.515 595.999H176.584V591.427H179.515V595.999ZM185.728 595.999H182.797V591.427H185.728V595.999ZM191.497 591.427H188.534V595.999H191.497V591.427ZM196.782 591.427H193.82V595.999H196.782V591.427ZM202.466 591.427H199.504V595.999H202.466V591.427ZM204.789 591.427V595.999H207.751V591.427H204.789ZM164.156 603.418V598.846H167.087V603.418H164.156ZM169.901 603.418V598.846H172.832V603.418H169.901ZM179.515 603.418H176.584V598.846H179.515V603.418ZM185.728 603.418H182.797V598.846H185.728V603.418ZM191.497 598.846H188.534V603.418H191.497V598.846ZM196.782 598.846H193.82V603.418H196.782V598.846ZM202.466 598.846H199.504V603.418H202.466V598.846ZM207.751 598.846H204.789V603.418H207.751V598.846ZM164.156 611.756V607.184H167.087V611.756H164.156ZM169.901 611.756V607.184H172.832V611.756H169.901ZM179.515 611.756H176.584V607.184H179.515V611.756ZM185.728 611.756H182.797V607.184H185.728V611.756ZM191.497 607.184H188.534V611.756H191.497V607.184ZM196.782 607.184H193.82V611.756H196.782V607.184ZM202.466 607.184H199.504V611.756H202.466V607.184ZM207.751 607.184H204.789V611.756H207.751V607.184ZM210.804 531.123V526.551H213.735V531.123H210.804ZM216.548 531.123V526.551H219.479V531.123H216.548ZM226.162 531.123H223.231V526.551H226.162V531.123ZM232.376 531.123H229.445V526.551H232.376V531.123ZM238.144 526.551H235.182V531.123H238.144V526.551ZM243.43 526.551H240.467V531.123H243.43V526.551ZM249.113 526.551H246.151V531.123H249.113V526.551ZM210.804 538.542V533.97H213.735V538.542H210.804ZM216.548 538.542V533.97H219.479V538.542H216.548ZM226.162 538.542H223.231V533.97H226.162V538.542ZM232.376 538.542H229.445V533.97H232.376V538.542ZM238.144 533.97H235.182V538.542H238.144V533.97ZM243.43 533.97H240.467V538.542H243.43V533.97ZM249.113 533.97H246.151V538.542H249.113V533.97ZM254.399 533.97H251.436V538.542H254.399V533.97ZM210.804 546.88V542.308H213.735V546.88H210.804ZM216.548 546.88V542.308H219.479V546.88H216.548ZM226.162 546.88H223.231V542.308H226.162V546.88ZM232.376 546.88H229.445V542.308H232.376V546.88ZM238.144 542.308H235.182V546.88H238.144V542.308ZM249.113 542.308H246.151V546.88H249.113V542.308ZM254.399 542.308H251.436V546.88H254.399V542.308ZM210.804 555.359V550.787H213.735V555.359H210.804ZM216.548 555.359V550.787H219.479V555.359H216.548ZM226.162 555.359H223.231V550.787H226.162V555.359ZM232.376 555.359H229.445V550.787H232.376V555.359ZM238.144 550.787H235.182V555.359H238.144V550.787ZM243.43 550.787H240.467V555.359H243.43V550.787ZM249.113 550.787H246.151V555.359H249.113V550.787ZM254.399 550.787H251.436V555.359H254.399V550.787ZM210.804 563.459V558.887H213.735V563.459H210.804ZM216.548 563.459V558.887H219.479V563.459H216.548ZM226.162 563.459H223.231V558.887H226.162V563.459ZM232.376 563.459H229.445V558.887H232.376V563.459ZM238.144 558.887H235.182V563.459H238.144V558.887ZM243.43 558.887H240.467V563.459H243.43V558.887ZM249.113 558.887H246.151V563.459H249.113V558.887ZM254.399 558.887H251.436V563.459H254.399V558.887ZM210.804 570.878V566.306H213.735V570.878H210.804ZM216.548 570.878V566.306H219.479V570.878H216.548ZM226.162 570.878H223.231V566.306H226.162V570.878ZM232.376 570.878H229.445V566.306H232.376V570.878ZM238.144 566.306H235.182V570.878H238.144V566.306ZM243.43 566.306H240.467V570.878H243.43V566.306ZM249.113 566.306H246.151V570.878H249.113V566.306ZM254.399 566.306H251.436V570.878H254.399V566.306ZM210.804 579.216V574.644H213.735V579.216H210.804ZM216.548 579.216V574.644H219.479V579.216H216.548ZM226.162 579.216H223.231V574.644H226.162V579.216ZM232.376 579.216H229.445V574.644H232.376V579.216ZM238.144 574.644H235.182V579.216H238.144V574.644ZM243.43 574.644H240.467V579.216H243.43V574.644ZM249.113 574.644H246.151V579.216H249.113V574.644ZM254.399 574.644H251.436V579.216H254.399V574.644ZM210.804 587.695V583.123H213.735V587.695H210.804ZM216.548 587.695V583.123H219.479V587.695H216.548ZM226.162 587.695H223.231V583.123H226.162V587.695ZM232.376 587.695H229.445V583.123H232.376V587.695ZM238.144 583.123H235.182V587.695H238.144V583.123ZM243.43 583.123H240.467V587.695H243.43V583.123ZM249.113 583.123H246.151V587.695H249.113V583.123ZM254.399 583.123H251.436V587.695H254.399V583.123ZM210.804 595.999V591.427H213.735V595.999H210.804ZM216.548 595.999V591.427H219.479V595.999H216.548ZM226.162 595.999H223.231V591.427H226.162V595.999ZM232.376 595.999H229.445V591.427H232.376V595.999ZM238.144 591.427H235.182V595.999H238.144V591.427ZM243.43 591.427H240.467V595.999H243.43V591.427ZM249.113 591.427H246.151V595.999H249.113V591.427ZM251.436 591.427V595.999H254.399V591.427H251.436ZM210.804 603.418V598.846H213.735V603.418H210.804ZM216.548 603.418V598.846H219.479V603.418H216.548ZM226.162 603.418H223.231V598.846H226.162V603.418ZM232.376 603.418H229.445V598.846H232.376V603.418ZM238.144 598.846H235.182V603.418H238.144V598.846ZM243.43 598.846H240.467V603.418H243.43V598.846ZM249.113 598.846H246.151V603.418H249.113V598.846ZM254.399 598.846H251.436V603.418H254.399V598.846ZM210.804 611.756V607.184H213.735V611.756H210.804ZM216.548 611.756V607.184H219.479V611.756H216.548ZM226.162 611.756H223.231V607.184H226.162V611.756ZM232.376 611.756H229.445V607.184H232.376V611.756ZM238.144 607.184H235.182V611.756H238.144V607.184ZM243.43 607.184H240.467V611.756H243.43V607.184ZM249.113 607.184H246.151V611.756H249.113V607.184ZM254.399 607.184H251.436V611.756H254.399V607.184ZM598.329 526.731V531.304H601.26V526.731H598.329ZM607.943 531.304H605.012V526.731H607.943V531.304ZM611.226 531.304H614.157V526.731H611.226V531.304ZM619.925 526.731H616.962V531.304H619.925V526.731ZM622.248 526.731H625.21V531.304H622.248V526.731ZM630.894 526.731H627.932V531.304H630.894V526.731ZM627.932 534.15H630.894V538.723H627.932V534.15ZM630.894 542.488H627.932V547.061H630.894V542.488ZM627.932 550.967H630.894V555.54H627.932V550.967ZM636.179 550.967H633.217V555.54H636.179V550.967ZM622.248 550.967H625.21V555.54H622.248V550.967ZM619.925 550.967H616.962V555.54H619.925V550.967ZM611.226 555.54H614.157V550.967H611.226V555.54ZM607.943 555.54H605.012V550.967H607.943V555.54ZM598.329 550.967V555.54H601.26V550.967H598.329ZM592.584 555.54V550.967H595.515V555.54H592.584ZM598.329 542.488V547.061H601.26V542.488H598.329ZM598.329 538.723V534.15H601.26V538.723H598.329ZM605.012 538.723H607.943V534.15H605.012V538.723ZM607.943 547.061H605.012V542.488H607.943V547.061ZM592.584 559.067V563.64H595.515V559.067H592.584ZM598.329 563.64V559.067H601.26V563.64H598.329ZM605.012 563.64H607.943V559.067H605.012V563.64ZM614.157 563.64H611.226V559.067H614.157V563.64ZM616.962 559.067H619.925V563.64H616.962V559.067ZM625.21 559.067H622.248V563.64H625.21V559.067ZM627.932 559.067H630.894V563.64H627.932V559.067ZM636.179 559.067H633.217V563.64H636.179V559.067ZM633.217 566.486H636.179V571.059H633.217V566.486ZM630.894 566.486H627.932V571.059H630.894V566.486ZM622.248 566.486H625.21V571.059H622.248V566.486ZM619.925 566.486H616.962V571.059H619.925V566.486ZM611.226 571.059H614.157V566.486H611.226V571.059ZM607.943 571.059H605.012V566.486H607.943V571.059ZM598.329 566.486V571.059H601.26V566.486H598.329ZM592.584 571.059V566.486H595.515V571.059H592.584ZM592.584 574.824V579.397H595.515V574.824H592.584ZM598.329 579.397V574.824H601.26V579.397H598.329ZM605.012 579.397H607.943V574.824H605.012V579.397ZM614.157 579.397H611.226V574.824H614.157V579.397ZM616.962 574.824H619.925V579.397H616.962V574.824ZM625.21 574.824H622.248V579.397H625.21V574.824ZM627.932 574.824H630.894V579.397H627.932V574.824ZM636.179 574.824H633.217V579.397H636.179V574.824ZM633.217 583.303H636.179V587.876H633.217V583.303ZM630.894 583.303H627.932V587.876H630.894V583.303ZM622.248 583.303H625.21V587.876H622.248V583.303ZM619.925 583.303H616.962V587.876H619.925V583.303ZM611.226 587.876H614.157V583.303H611.226V587.876ZM607.943 587.876H605.012V583.303H607.943V587.876ZM598.329 583.303V587.876H601.26V583.303H598.329ZM592.584 587.876V583.303H595.515V587.876H592.584ZM592.584 591.607V596.179H595.515V591.607H592.584ZM598.329 596.179V591.607H601.26V596.179H598.329ZM605.012 596.179H607.943V591.607H605.012V596.179ZM614.157 596.179H611.226V591.607H614.157V596.179ZM616.962 591.607H619.925V596.179H616.962V591.607ZM625.21 591.607H622.248V596.179H625.21V591.607ZM627.932 591.607H630.894V596.179H627.932V591.607ZM633.217 591.607V596.179H636.179V591.607H633.217ZM633.217 599.026H636.179V603.599H633.217V599.026ZM630.894 599.026H627.932V603.599H630.894V599.026ZM622.248 599.026H625.21V603.599H622.248V599.026ZM619.925 599.026H616.962V603.599H619.925V599.026ZM611.226 603.599H614.157V599.026H611.226V603.599ZM607.943 603.599H605.012V599.026H607.943V603.599ZM598.329 599.026V603.599H601.26V599.026H598.329ZM592.584 603.599V599.026H595.515V603.599H592.584ZM592.584 607.364V611.936H595.515V607.364H592.584ZM598.329 611.936V607.364H601.26V611.936H598.329ZM605.012 611.936H607.943V607.364H605.012V611.936ZM614.157 611.936H611.226V607.364H614.157V611.936ZM616.962 607.364H619.925V611.936H616.962V607.364ZM625.21 607.364H622.248V611.936H625.21V607.364ZM627.932 607.364H630.894V611.936H627.932V607.364ZM636.179 607.364H633.217V611.936H636.179V607.364ZM622.248 542.488H625.21V547.061H622.248V542.488ZM619.925 542.488H616.962V547.061H619.925V542.488ZM611.226 547.061H614.157V542.488H611.226V547.061ZM614.157 538.723H611.226V534.15H614.157V538.723ZM616.962 534.15H619.925V538.723H616.962V534.15ZM625.21 534.15H622.248V538.723H625.21V534.15Z" fill="#D1DBE9"/>
<path d="M187.78 445.082L197.289 422.602L193.562 404.485C179.865 400.731 170.697 416.151 169.748 424.33C169.319 424.973 168.718 426.693 169.748 428.425C170.778 430.156 173.978 430.58 174.505 430.6C176 434.064 175.9 442.81 172.614 445.082C167.905 448.337 184.797 449.761 187.78 445.082Z" fill="#FEC082"/>
<path d="M167.179 449.12L171.701 446.227L173.78 440.711L183.908 445.774L184.157 445.549L190.509 439.806L192.318 441.613L194.669 440.711C202.024 455.028 214.852 487.605 207.329 503.376C199.805 519.146 177.428 473.776 167.179 449.12Z" fill="#DEEAF0"/>
<path d="M171.701 446.227L167.179 449.12C177.428 473.776 199.805 519.146 207.329 503.376C214.852 487.605 202.024 455.028 194.669 440.711L192.318 441.613M171.701 446.227L173.78 440.711L183.908 445.774M171.701 446.227L180.743 453.279L183.908 445.774M183.908 445.774L184.157 445.549M192.318 441.613L190.509 439.806L184.157 445.549M192.318 441.613L191.594 449.661L184.157 445.549" stroke="#C6D5DD" stroke-width="0.528904"/>
<path d="M183.324 689.053H171.486C171.486 689.053 179.849 661.576 183.324 635.992C187.664 604.031 169.119 573.647 169.119 573.647C172.97 572.202 217.659 550.525 236.341 548.657C236.341 548.657 258.712 579.349 266.764 601.904C271.122 614.112 272.685 621.312 274.908 634.083C278.594 655.255 277.49 689.053 277.49 689.053H266.764C242.331 598.924 225.337 583.321 220.084 581.444C213.92 579.241 210.868 582.474 209.471 584.774C209.471 584.774 208.233 619.433 202.658 640.727C197.51 660.391 183.324 689.053 183.324 689.053Z" fill="#15395B"/>
<path d="M236.341 554.945L169.119 573.647M169.119 573.647C172.97 572.202 217.659 550.525 236.341 548.657C236.341 548.657 258.712 579.349 266.764 601.904C271.122 614.112 272.685 621.312 274.908 634.083C278.594 655.255 277.49 689.053 277.49 689.053H266.764C242.331 598.924 225.337 583.321 220.084 581.444C213.92 579.241 210.868 582.474 209.471 584.774C209.471 584.774 208.233 619.433 202.658 640.727C197.51 660.391 183.324 689.053 183.324 689.053H171.486C171.486 689.053 179.849 661.576 183.324 635.992C187.664 604.031 169.119 573.647 169.119 573.647Z" stroke="#26264F" stroke-width="0.528904"/>
<path fill-rule="evenodd" clip-rule="evenodd" d="M247.79 483.903C239.595 462.485 241.545 448.137 217.051 445.581C213.111 445.17 206.977 444.121 201.77 442.812C199.053 442.129 196.588 441.375 194.82 440.604C201.701 450.516 209.398 484.929 206.693 502.393L206.586 503.044L189.175 477.533L166.123 448.3L163.046 450.443L147.14 461.519C136.938 473.015 115.554 510.664 115.685 513.936C115.922 519.802 122.091 525.836 130.245 531.287C138.433 536.76 148.622 541.646 156.816 545.181C158.582 560.861 168.974 577.078 168.974 577.078C168.974 577.078 186.114 572.404 206.586 568.844C207.037 568.765 207.516 568.682 208.021 568.595C218.353 566.808 239.366 563.174 243.247 558.839C225.739 534.065 234.997 504.067 234.997 504.067C234.997 504.067 234.562 489.392 249.632 507.104C248.798 505.085 260.949 495.017 263.154 490.077C264.77 486.456 255.853 495.695 254.511 497.171C253.354 498.444 251.166 492.728 247.79 483.903ZM149.937 499.85C146.185 510.538 155.457 519.714 155.805 531.287C150.902 527.251 146.586 522.117 143.794 515.604C143.562 515.061 143.399 514.503 143.296 513.936C141.982 506.67 150.614 497.921 149.937 499.85Z" fill="#0D4E8B"/>
<path d="M206.586 503.044L189.175 477.533L166.123 448.3L163.046 450.443M206.586 503.044L186.311 483.903V475.672L177.483 474.843L163.046 450.443M206.586 503.044V568.844M206.586 503.044L206.693 502.393M206.586 503.044C206.623 502.83 206.659 502.613 206.693 502.393M163.046 450.443L147.14 461.519C136.938 473.015 115.554 510.664 115.685 513.936C115.922 519.802 122.091 525.836 130.245 531.287M206.586 568.844C186.114 572.404 168.974 577.078 168.974 577.078C168.974 577.078 158.582 560.861 156.816 545.181M206.586 568.844C207.037 568.765 207.516 568.682 208.021 568.595C218.353 566.808 239.366 563.174 243.247 558.839C225.739 534.065 234.997 504.067 234.997 504.067C234.997 504.067 234.562 489.392 249.632 507.104C248.798 505.085 260.949 495.017 263.154 490.077C264.77 486.456 255.853 495.695 254.511 497.171C253.354 498.444 251.166 492.728 247.79 483.903C239.595 462.485 241.545 448.137 217.051 445.581C213.111 445.17 206.977 444.121 201.77 442.812M201.77 442.812C199.053 442.129 196.588 441.375 194.82 440.604C201.701 450.516 209.398 484.929 206.693 502.393M201.77 442.812L211.17 465.434L207.963 469.383L212.601 474.843L206.693 502.393M156.816 545.181C165.154 548.778 172.806 550.978 172.806 550.978L191.745 545.618C191.745 545.618 170.467 543.36 155.805 531.287M156.816 545.181C148.622 541.646 138.433 536.76 130.245 531.287M155.805 531.287C155.457 519.714 146.185 510.538 149.937 499.85C150.614 497.921 141.982 506.67 143.296 513.936M155.805 531.287C150.902 527.251 146.586 522.117 143.794 515.604C143.562 515.061 143.399 514.503 143.296 513.936M130.245 531.287L126.084 526.542L143.296 513.936" stroke="#0B4174" stroke-width="0.528904"/>
<rect x="269.984" y="688.13" width="5.52026" height="5.92147" fill="#FEB1B0"/>
<path d="M180.664 688.856L174.392 688.13L171.884 695.486L178.693 696.502L180.664 688.856Z" fill="#FEB1B0"/>
<path d="M302.665 704.381C307.699 701.296 290.221 694.729 275.212 693.427L269.137 694.729L268.549 704.381C286.405 704.381 300.188 705.899 302.665 704.381Z" fill="#25304E"/>
<path d="M202.969 705.436C210.173 702.229 201.89 695.404 180.413 694.051L171.721 695.404L170.879 705.436C196.429 705.436 199.425 707.013 202.969 705.436Z" fill="#25304E"/>
<path d="M401.271 443.902L398.848 458.973C395.787 459.97 394.939 460.924 392.434 462.174C391.011 459.181 388.17 452.692 388.194 450.676C388.218 448.659 391.545 447.854 393.205 447.704C393.329 444.697 396.647 445.434 396.913 443.902C397.178 442.369 400.772 443.565 401.271 443.902Z" fill="#FEB1B0"/>
<path d="M161.575 574.056L154.508 560.563L144.229 536.147L311.923 419.854H369.748L566.998 283L572.78 294.565L547.08 366.526L530.375 350.463L392.878 457.119L326.058 449.409L161.575 574.056Z" fill="#406FA2" stroke="white" stroke-width="2.64452"/>
<path d="M306.76 392.868L126.216 526.51L155.129 560.562L320.253 439.771L383.861 448.766L522.333 342.312L536.816 357.037L565.691 283L489.233 288.183L499.513 306.13L369.084 401.221L306.76 392.868Z" fill="#92C6FF" stroke="white" stroke-width="2.64452"/>
<path d="M183.996 445.612L181.333 452.13C182.221 452.574 184.661 453.674 187.321 454.526C189.981 455.377 191.016 465.94 193.189 476.538L197.166 473.751L201.435 470.848L189.449 453.461L190.913 448.14L183.996 445.612Z" fill="#1956F2" stroke="#26264F" stroke-width="0.528904"/>
<path d="M628.714 420.562L607.834 430.663L608.782 437.576C612.057 437.09 619.023 435.838 620.679 434.718C622.335 433.598 621.136 430.48 620.329 429.061C622.749 427.321 627.87 423.579 628.99 422.529C630.109 421.479 629.273 420.78 628.714 420.562Z" fill="#FEC082"/>
<path d="M476.577 432.322L486.085 409.842L482.358 391.725C468.661 387.971 459.493 403.391 458.544 411.57C458.115 412.213 457.515 413.933 458.544 415.665C459.574 417.396 462.774 417.821 463.301 417.84C464.797 421.304 464.696 430.051 461.411 432.322C456.701 435.578 473.593 437.001 476.577 432.322Z" fill="#FEC082"/>
<path d="M456.765 435.868L461.287 432.975L463.366 427.459L473.493 432.522L473.743 432.297L480.095 426.554L481.903 428.361H485.3C492.655 442.679 504.644 475.659 497.121 491.429C489.597 507.2 467.013 460.524 456.765 435.868Z" fill="#DEEAF0"/>
<path d="M461.287 432.975L456.765 435.868C467.013 460.524 489.597 507.2 497.121 491.429C504.644 475.659 492.655 442.679 485.3 428.361H481.903M461.287 432.975L463.366 427.459L473.493 432.522M461.287 432.975L470.328 440.027L473.493 432.522M473.493 432.522L473.743 432.297M481.903 428.361L480.095 426.554L473.743 432.297M481.903 428.361L481.18 436.41L473.743 432.297" stroke="#C6D5DD" stroke-width="0.528904"/>
<path d="M433.593 679.782L422.252 678.055L460.248 544.701C464.099 543.257 502.426 539.16 521.108 537.292L506.809 679.782H496.456C493.908 646.748 488.616 579.299 487.827 573.777C487.038 568.255 484.047 571.477 482.65 573.777L433.593 679.782Z" fill="#4372A7"/>
<path d="M460.463 543.948L460.248 544.701M460.248 544.701L422.252 678.055L433.593 679.782L482.65 573.777C484.047 571.477 487.038 568.255 487.827 573.777C488.616 579.299 493.908 646.748 496.456 679.782H506.809L521.108 537.292C502.426 539.16 464.099 543.257 460.248 544.701Z" stroke="#26264F" stroke-width="0.528904"/>
<path d="M474.17 434.031L471.507 440.55C472.395 440.993 474.835 442.094 477.495 442.945C480.155 443.797 485.166 465.207 487.339 475.805L496.785 487.512V473.943L479.623 441.881L481.087 436.56L474.17 434.031Z" fill="#3F66F9" stroke="#26264F" stroke-width="0.528904"/>
<path d="M507.691 433.347C542.276 436.956 601.555 435.669 605.522 431.306C608.696 427.816 607.25 436.535 608.696 440.033C581.256 457.272 520.238 463.438 520.238 463.438C520.238 463.438 530.702 510.539 524.107 533.15C520.037 537.697 511.535 540.479 501.864 542.161C481.392 545.721 455.682 544.351 455.682 544.351C455.682 544.351 465.457 511.437 450.813 484.463C449.762 482.525 429.995 516.109 416.301 511.437C389.535 502.307 389.674 462.609 389.674 462.609L401.574 457.149C401.574 457.149 410.192 484.066 420.664 487.239C423.799 488.189 427.578 460.781 437.78 449.285L453.686 438.209L456.763 436.066L479.815 465.299L497.226 490.81L497.333 490.159C500.038 472.695 492.342 438.281 485.46 428.37C487.228 429.141 489.693 429.895 492.41 430.578C497.617 431.887 503.751 432.936 507.691 433.347Z" fill="#B5C3D0"/>
<path d="M497.226 490.81C500.232 473.564 492.428 438.406 485.46 428.37C487.228 429.141 489.693 429.895 492.41 430.578M497.226 490.81L479.815 465.299L456.763 436.066L453.686 438.209M497.226 490.81L475.574 471.669V463.438L466.746 462.609L453.686 438.209M497.226 490.81L501.864 542.161M497.226 490.81L501.864 462.609L497.226 457.149L500.433 453.199L492.41 430.578M453.686 438.209L437.78 449.285C427.578 460.781 423.799 488.189 420.664 487.239C410.192 484.066 401.574 457.149 401.574 457.149L389.674 462.609C389.674 462.609 389.535 502.307 416.301 511.437C429.995 516.109 449.762 482.525 450.813 484.463C465.457 511.437 455.682 544.351 455.682 544.351C455.682 544.351 481.392 545.721 501.864 542.161M501.864 542.161C511.535 540.479 520.037 537.697 524.107 533.15C530.702 510.539 520.238 463.438 520.238 463.438C520.238 463.438 581.256 457.272 608.696 440.033C607.25 436.535 608.696 427.816 605.522 431.306C601.555 435.669 542.276 436.956 507.691 433.347C503.751 432.936 497.617 431.887 492.41 430.578" stroke="#0B4174" stroke-width="0.528904"/>
<rect x="499.352" y="679.784" width="5.52026" height="5.92147" fill="#FEB1B0"/>
<path d="M431.168 679.663L424.897 678.938L422.389 686.294L429.198 687.309L431.168 679.663Z" fill="#FEB1B0"/>
<path d="M532.264 695.604C537.299 692.64 519.589 686.331 504.579 685.081L498.504 686.331L497.916 695.604C515.772 695.604 529.787 697.062 532.264 695.604Z" fill="#25304E"/>
<path d="M454.017 698.368C459.052 694.625 441.342 686.66 426.333 685.081L420.258 686.66L419.669 698.368C437.526 698.368 451.541 700.209 454.017 698.368Z" fill="#25304E"/>
<path d="M193.835 396.622C198.853 399.011 195.958 406.03 194.809 410.253C192.995 409.793 193.518 406.188 187.776 407.388C184.509 408.071 179.621 412.855 178.215 413.503C176.809 414.151 172.607 418.109 172.896 419.662C173.184 421.214 178.607 424.462 180.417 426.063C182.226 427.663 183.347 428.899 183.347 428.899C183.347 428.899 196.501 430.845 196.501 422.103C196.501 415.994 198.726 433.12 198.726 433.12C198.726 433.12 196.861 435.752 189.541 436.959C182.221 438.166 177.238 432.183 176.894 430.845C176.55 429.507 176.318 427.9 173.994 424.48C171.669 421.059 169.734 423.704 167.721 422.518C165.707 421.332 159.455 407.013 164.371 408.408C171.65 410.473 172.022 396.099 177.04 395.125C182.057 394.151 190.691 395.125 193.835 396.622Z" fill="url(#paint0_linear_128_1289)"/>
<path d="M483.075 372.479C485.486 367.473 484.973 393.059 483.823 397.282C482.01 396.822 482.36 394.53 476.618 395.731C473.351 396.414 463.571 401.674 462.165 402.323C460.759 402.971 461.45 406.451 461.738 408.004C462.026 409.557 467.449 412.805 469.259 414.405C471.068 416.006 473.879 414.388 473.879 414.388C473.879 414.388 484.912 405.612 488.232 410.74C491.553 415.868 487.568 421.462 487.568 421.462C487.568 421.462 485.703 424.095 478.383 425.301C471.063 426.508 466.08 420.526 465.736 419.187C465.392 417.849 465.16 416.243 462.836 412.822C460.511 409.402 458.576 412.047 456.563 410.86C454.549 409.674 451 401.569 448.22 397.282C445.44 392.994 460.864 384.442 465.882 383.468C470.899 382.493 478.382 382.222 483.075 372.479Z" fill="url(#paint1_linear_128_1289)"/>
<path d="M181.259 530.675C170.674 530.876 150.865 518.194 142.284 511.827L123.618 526.386C124.099 527.032 123.861 526.978 129.39 530.956C137.133 536.526 161.37 543.324 175.003 543.994C181.499 539.471 191.844 530.474 181.259 530.675Z" fill="#0D4E8B" stroke="#0D4E8B" stroke-width="0.793356"/>
<path d="M192.134 550.125C187.847 550.125 180.388 544.809 177.667 542.258L182.593 538.567L184.978 534.622C185.621 533.063 186.09 534.257 192.134 535.264C195.436 535.815 212.181 541.387 194.788 538.224C198.091 540.793 202.095 541.717 202.299 543.759C202.554 546.31 197.492 550.125 192.134 550.125Z" fill="#FEC082"/>
<path d="M46.7163 644.985C20.4137 620.946 31.1917 587.21 38.5069 561.277C39.235 558.696 39.9749 557.883 41.6796 558.685C43.3713 568.86 77.5548 617.063 46.7163 644.985ZM46.7163 644.985C46.7163 644.985 40.8469 622.065 39.698 607.038C38.6249 593.002 40.5345 571.002 40.5345 571.002" stroke="#D9D9D9" stroke-width="1.32226"/>
<path d="M682.115 647.838C708.473 623.857 696.134 588.108 687.652 560.672C686.808 557.941 686.014 557.058 684.279 557.822C682.888 568.386 649.231 617.287 682.115 647.838ZM682.115 647.838C682.115 647.838 687.377 624.129 688.035 608.467C688.65 593.839 685.898 570.751 685.898 570.751" stroke="#D9D9D9" stroke-width="1.32226"/>
<path d="M566.396 646.209C584.745 629.664 576.994 605.692 571.718 587.281C571.193 585.449 570.669 584.863 569.476 585.402C568.341 592.554 544.586 626.022 566.396 646.209ZM566.396 646.209C566.396 646.209 570.397 630.13 571.125 619.547C571.804 609.662 570.345 594.11 570.345 594.11" stroke="#FFFDFD" stroke-width="0.793356"/>
<path d="M397.685 653.6C422.555 631.175 412.05 598.682 404.898 573.727C404.186 571.243 403.476 570.449 401.859 571.18C400.321 580.874 368.122 626.238 397.685 653.6ZM397.685 653.6C397.685 653.6 403.108 631.807 404.094 617.461C405.014 604.062 403.038 582.983 403.038 582.983" stroke="#B5B1B1" stroke-width="0.793356"/>
<path d="M81.3826 643.612C35.8799 588.027 60.1244 530.146 76.9694 485.244C78.6461 480.775 80.1175 479.582 83.1636 481.786C84.9818 501.328 141.94 604.954 81.3826 643.612ZM81.3826 643.612C81.3826 643.612 73.4838 598.72 73.2916 570.427C73.1122 544.001 79.4659 504.096 79.4659 504.096" stroke="#92C5F8" stroke-width="1.32226"/>
<path d="M367.26 641.016C351.747 621.997 361.311 601.129 368.025 584.97C368.693 583.362 369.239 582.918 370.3 583.653C370.663 590.55 389.577 626.421 367.26 641.016ZM367.26 641.016C367.26 641.016 365.09 625.227 365.441 615.206C365.768 605.846 368.642 591.613 368.642 591.613" stroke="white" stroke-width="0.793356"/>
<path d="M294.551 646.678C328.491 614.019 315.519 570.936 306.78 537.762C305.91 534.46 304.987 533.449 302.804 534.587C300.436 547.865 255.964 612.282 294.551 646.678ZM294.551 646.678C294.551 646.678 302.502 616.646 304.284 597.112C305.949 578.868 303.995 550.478 303.995 550.478" stroke="white" stroke-width="0.793356"/>
<defs>
<linearGradient id="paint0_linear_128_1289" x1="179.783" y1="394.24" x2="179.946" y2="437.15" gradientUnits="userSpaceOnUse">
<stop stop-color="#272852"/>
<stop offset="1" stop-color="#3F4481"/>
</linearGradient>
<linearGradient id="paint1_linear_128_1289" x1="468.624" y1="382.583" x2="468.786" y2="425.493" gradientUnits="userSpaceOnUse">
<stop stop-color="#272852"/>
<stop offset="1" stop-color="#3F4481"/>
</linearGradient>
</defs>
</svg>
