<svg width="1450" height="1352" viewBox="0 0 1450 1352" fill="none" xmlns="http://www.w3.org/2000/svg">
<path d="M963.435 271.258C944.132 156.968 764.196 253.214 721.649 300.795C678.285 349.289 348.922 83.7876 347.13 44.9004L347.188 43.716C347.13 44.0837 347.111 44.4787 347.13 44.9004L298.351 1040.67C333.158 1047.34 414.867 1045.41 463.253 984.377C523.735 908.091 553.924 977.688 674.1 1003.9C794.275 1030.11 822.075 913.598 869.494 847.331C916.913 781.063 1118.89 930.646 1228.78 882.979C1316.69 844.845 1308.6 763.97 1284.78 741.177C1242.37 700.576 1225.53 666.78 1251.63 594.524C1277.74 522.269 1154.29 440.975 1058.81 443.063C982.089 444.74 984.489 395.916 963.435 271.258Z" fill="#BECCE1"/>
<path d="M924.349 345.673C927.49 233.445 792.707 264.297 747.233 321.662C674.874 412.944 366.275 184.81 366.103 151.779L366.149 151.089C366.117 151.309 366.102 151.539 366.103 151.779L311.922 974.699C344.566 981.347 440.946 924.028 484.874 870.727C539.784 804.099 551.496 931.299 664.274 957.104C777.052 982.91 821.797 891.058 864.714 833.075C907.631 775.092 1075.98 893.755 1177.63 853.613C1258.95 821.499 1255.07 751.682 1227 728.599C1206.13 711.438 1170.12 661.178 1193.01 597.426C1215.9 533.675 1097.39 484.731 1035.27 468.228C994.595 460.193 921.209 457.901 924.349 345.673Z" fill="#E8EFF9"/>
<g clip-path="url(#clip0_128_1287)">
<path d="M1098.51 728.817C1098.92 727.886 1118.9 718.835 1129.29 714.028L1135.88 728.817L1100.84 742.294C1100.84 735.842 1098.1 729.749 1098.51 728.817Z" fill="#FCB69F" stroke="#C59847" stroke-width="0.577856"/>
<path d="M706.667 563.171C502.159 577.161 535.587 380.823 535.587 380.823C535.587 380.823 733.23 364.852 706.667 563.171Z" fill="#D3E3F2"/>
<path d="M706.667 563.171C502.159 577.161 535.587 380.823 535.587 380.823C535.587 380.823 733.23 364.852 706.667 563.171ZM706.667 563.171L686.318 541.275M550.356 394.974L589.721 437.333M606.104 454.961L623.047 405.097M606.104 454.961L589.721 437.333M606.104 454.961L623.468 473.645M640.831 492.329L665.374 442.804M640.831 492.329L623.468 473.645M640.831 492.329L656.512 509.202M589.721 437.333L546.583 444.748M623.468 473.645L566.369 490.177M656.512 509.202L604.462 531.556M656.512 509.202L671.415 525.239M686.318 541.275L659.41 549.427M686.318 541.275L671.415 525.239M671.415 525.239L696.257 486.543" stroke="#FBFFFE" stroke-width="3.85237" stroke-linecap="round"/>
<path d="M759.506 775.232C737.554 928.557 597.752 872.857 597.752 872.857C597.752 872.857 617.156 724.292 759.506 775.232Z" fill="#C2D2E9"/>
<path d="M759.506 775.232C737.554 928.557 597.752 872.857 597.752 872.857C597.752 872.857 617.156 724.292 759.506 775.232ZM759.506 775.232L740.113 786.811M610.541 864.178L648.056 841.778M663.669 832.456L629.498 812.063M663.669 832.456L648.056 841.778M663.669 832.456L680.216 822.575M696.764 812.695L664.043 786.74M696.764 812.695L680.216 822.575M696.764 812.695L711.708 803.772M648.056 841.778L646.724 874.825M680.216 822.575L683.417 867.377M711.708 803.772L720.007 845.763M711.708 803.772L725.91 795.292M740.113 786.811L741.888 807.981M740.113 786.811L725.91 795.292M725.91 795.292L701.239 770.826" stroke="#FBFFFE" stroke-width="3.85237" stroke-linecap="round"/>
<path d="M750.407 556.184C575.276 449.655 715.828 308.548 715.828 308.548C715.828 308.548 886.494 409.498 750.407 556.184Z" fill="#C2D2E9"/>
<path d="M750.407 556.184C575.276 449.655 715.828 308.548 715.828 308.548C715.828 308.548 886.494 409.498 750.407 556.184ZM750.407 556.184L746.413 526.56M719.73 328.626L727.456 385.934M730.671 409.784L773.273 378.822M730.671 409.784L727.456 385.934M730.671 409.784L734.079 435.062M737.486 460.34L786.101 434.038M737.486 460.34L734.079 435.062M737.486 460.34L740.564 483.168M727.456 385.934L687.939 367.11M734.079 435.062L677.9 415.633M740.564 483.168L685.15 471.407M740.564 483.168L743.488 504.864M746.413 526.56L719.73 517.699M746.413 526.56L743.488 504.864M743.488 504.864L786.101 487.581" stroke="#FBFFFE" stroke-width="3.85237" stroke-linecap="round"/>
<path fill-rule="evenodd" clip-rule="evenodd" d="M791.669 526.831C794.828 526.831 814.566 522.094 824.04 519.726V491.302H866.675V519.726L904.573 526.831L916.416 505.514L956.682 526.831L942.47 551.307L969.314 574.993L993 561.571L1019.84 599.468L999.316 615.259L1005.63 649.209L1035.63 653.946V699.739H1005.63L993 731.32L1019.84 750.269L999.316 788.956L969.314 777.113L946.27 798.086L956.682 826.064L925.106 846.764L901.825 821.79L876.15 830.801V860.803H824.04V833.959L791.669 826.064L774.3 849.75L733.245 826.064L746.667 800.799L727.718 777.113L697.716 788.956L673.24 750.269L693.843 723.722L689.939 693.113L665.956 684.224L673.24 642.85H697.716L705.554 611.617L685.477 592.654L705.554 561.571L727.718 574.993L746.667 547.477L736.789 526.831L774.3 505.514L791.669 526.831ZM850.185 565.281C815.857 565.672 793.755 575.48 769.197 599.468C745.208 622.901 733.677 643.919 733.245 677.451C732.8 711.95 743.537 735.089 769.197 758.153C796.403 782.606 822.624 787.634 859.074 784.541C895.125 781.482 920.782 773.149 942.47 744.19C960.631 719.941 963.67 699.204 961.508 668.986C959.423 639.837 953.542 621.028 933.816 599.468C909.998 573.437 885.466 564.88 850.185 565.281ZM831.56 653.946C840.206 647.303 848.805 645.545 859.074 649.209C867.888 652.353 872.315 657.486 876.15 666.023C880.485 675.673 881.351 683.9 876.15 693.113C871.052 702.141 863.894 706.112 853.571 707.081C843.149 708.059 835.784 704.956 828.597 697.345C821.849 690.198 819.008 683.407 820.132 673.642C821.149 664.807 824.509 659.364 831.56 653.946ZM767.591 680.837C763.518 675.844 752.917 677.451 752.917 684.224C752.917 684.224 760.417 724.996 778.65 744.19C798.494 765.08 847.222 771.42 847.222 771.42C855.714 769.325 856.035 762.9 850.185 758.153C850.185 758.153 806.61 752.601 789.232 733.748C773.417 716.589 767.591 680.837 767.591 680.837ZM866.675 584.752C866.675 584.752 900.933 594.153 916.416 609.303C932.666 625.204 942.47 661.366 942.47 661.366C942.47 661.366 943.737 666.452 938.407 668.259C934.321 669.645 931.455 666.023 931.455 666.023C931.455 666.023 922.987 632.967 908.174 618.615C893.888 604.773 862.037 597.028 862.037 597.028C862.037 597.028 858.758 592.343 859.759 589.399C861.527 584.201 866.675 584.752 866.675 584.752Z" fill="#B0C3E4"/>
<path fill-rule="evenodd" clip-rule="evenodd" d="M1058.58 482.491C1059.61 482.491 1066.09 480.936 1069.2 480.159V470.831H1083.19V480.159L1095.63 482.491L1099.51 475.495L1112.73 482.491L1108.06 490.523L1116.87 498.296L1124.65 493.891L1133.46 506.328L1126.72 511.51L1128.79 522.652L1138.64 524.206V539.234H1128.79L1124.65 549.598L1133.46 555.817L1126.72 568.513L1116.87 564.626L1109.31 571.509L1112.73 580.69L1102.36 587.484L1094.72 579.288L1086.3 582.245V592.091H1069.2V583.281L1058.58 580.69L1052.87 588.463L1039.4 580.69L1043.81 572.399L1037.59 564.626L1027.74 568.513L1019.71 555.817L1027.74 549.598L1025.19 537.06L1017.32 534.143L1019.71 520.565H1027.74L1030.31 510.315L1023.73 504.092L1030.31 493.891L1037.59 498.296L1043.81 489.266L1040.56 482.491L1052.87 475.495L1058.58 482.491ZM1076.56 500.206C1067.39 500.301 1061.07 501.653 1054.38 507.923C1047.79 514.092 1045.68 520.128 1045.21 529.142C1044.67 539.409 1046.77 546.9 1054.38 553.822C1062.14 560.892 1070.14 563.346 1080.54 561.903C1089.3 560.689 1094.85 557.042 1100.68 550.395C1106.47 543.789 1108.25 537.926 1108.06 529.142C1107.87 520.21 1105.93 514.137 1099.51 507.923C1092.72 501.347 1086.02 500.108 1076.56 500.206Z" fill="#B5C3E8"/>
<path d="M1262 977.901C1238.22 1002.11 1112.05 1011 931.18 1011C750.306 1011 630.753 998.778 607 977.901C629.808 956.556 745.583 951 926.456 951C1103.12 951 1221.21 951 1262 977.901Z" fill="#C6D0E8"/>
<path d="M980.675 818.344L992.673 753.933H959.521L948.47 811.397L977.593 817.679V834.745H956.063V837.091H980.345V818.272L980.675 818.344Z" fill="#D9D9D9"/>
<path d="M980.345 818.272L980.675 818.344L992.673 753.933H959.521L948.47 811.397L977.593 817.679M980.345 818.272V837.091H956.063V834.745H977.593V817.679M980.345 818.272L977.593 817.679" stroke="#000D3E" stroke-width="3.85237" stroke-linecap="round"/>
<path d="M813.072 826.781C817.371 831.079 825.47 844.836 823.473 865.471C820.976 891.265 826.8 898.754 844.689 900.418C862.579 902.082 894.613 892.929 897.525 896.674" stroke="#C7A58C" stroke-width="5.77856" stroke-linecap="round"/>
<path d="M882.548 897.922L901.685 983.208M839.281 900.418L821.391 983.208" stroke="#C7A58C" stroke-width="3.85237" stroke-linecap="round"/>
<path d="M854.347 784.936C852.892 784.354 853.741 778.026 854.347 774.934C850.564 769.988 842.345 775.541 838.709 778.935C837.678 784.27 833.471 796.83 824.888 804.395C816.304 811.96 839.012 842.463 851.438 856.769C865.138 857.496 892.392 858.806 891.81 858.224C891.083 857.496 880.717 851.859 876.898 847.494C873.079 843.13 866.771 802.64 862.531 797.303C857.814 791.365 856.166 785.664 854.347 784.936Z" fill="#466DB2"/>
<path d="M835.624 776.935C834.411 774.813 832.932 770.097 836.714 768.206C840.427 766.35 849.349 771.466 853.575 774.407L845.444 776.935C844.11 777.784 841.37 779.845 841.079 781.299C840.788 782.754 874.177 810.154 890.907 823.672L942.736 828.945C941.827 831.491 946.404 838.581 942.736 838.947C849.81 848.235 887.27 836.765 871.267 838.947C855.264 841.13 838.715 808.214 836.714 811.669C834.714 815.124 847.262 835.856 855.264 844.949C861.665 852.223 881.693 856.83 890.907 858.224C886.361 880.774 843.807 893.867 835.624 894.958C827.44 896.05 830.168 870.772 829.986 858.224C829.804 845.676 823.803 854.041 817.984 823.672C813.328 799.376 827.804 782.391 835.624 776.935Z" fill="#6D97C9"/>
<path d="M888.874 731.555C892.31 746.555 880.529 745.207 874.209 742.658C869.036 741.417 855.19 755.234 848.967 760.779C848.548 761.826 844.508 761.089 844.987 757.741C845.72 752.609 837.969 749.257 839.54 739.621C840.117 736.082 844.987 722.757 858.603 724.119C863.876 724.646 864.468 727.052 874.209 728.309C882.002 729.314 884.335 728.483 884.893 726.318C884.789 721.814 885.438 716.556 888.874 731.555Z" fill="#445171"/>
<path d="M1081.44 388.416C1081.44 430.536 1045.9 465.053 1001.6 465.053C957.298 465.053 921.763 430.536 921.763 388.416C921.763 346.296 957.298 311.779 1001.6 311.779C1045.9 311.779 1081.44 346.296 1081.44 388.416Z" fill="#B0C3E4" stroke="#D1E6F9" stroke-width="11.5571"/>
<path d="M1050.35 356.815H956.285V420.017H1050.35V356.815Z" fill="white"/>
<path d="M966.574 367.103L1005.52 400.909L1042.27 367.103" stroke="#B3C1E4" stroke-width="5.77856" stroke-linecap="round"/>
<path d="M823.915 334.605C815.093 336.845 730.509 360.822 745.856 410.18C725.681 440.882 774.402 469.83 795.414 448.777L823.915 424.215L844.181 360.822C845.77 358.507 849.712 352.8 852.763 348.498C856.578 343.12 846.088 336.397 844.181 331.019C842.274 325.642 832.737 332.364 823.915 334.605Z" fill="#0F2544"/>
<path d="M1091.86 637.146C1083.44 660.56 1088.35 689.889 1091.86 701.626C1096.32 716.566 1101.46 731.351 1101.46 741.868L1057.1 760.618C1054.21 758.636 1045.85 748.454 1035.61 723.576C1025.37 698.699 1005.73 685.773 997.197 682.419C976.313 674.645 938.754 648.03 955.582 603.763C976.618 548.43 1026.92 547.515 1057.1 554.832C1087.29 562.149 1102.38 607.879 1091.86 637.146Z" fill="#EAC5A8"/>
<path d="M1072.82 712.798C1072.08 710.969 1056.05 665.696 1048.12 643.289C1044.62 634.295 1040.37 615.48 1057.23 615.48C1070.42 615.48 1069.83 636.429 1058.64 639.173C1053 640.555 1027.39 650.453 1015.2 657.007C1010.17 660.209 998.916 663.593 994.16 651.52C989.405 639.447 1002.46 632.671 1010.17 636.429C1022.12 642.263 1041.72 692.829 1054.98 719.658M987.471 587.894L976.277 602.287M974.678 607.884C971.879 614.613 967.962 631.431 974.678 644.864" stroke="#FCF8E8" stroke-width="5.77856"/>
<path d="M1094.5 707.264L1038.53 732.051" stroke="#97755C" stroke-width="11.5571" stroke-linecap="round"/>
<path d="M1099.9 721.624L1045.73 745.811" stroke="#97755C" stroke-width="11.5571" stroke-linecap="round"/>
<path d="M1104.1 736.216L1054.52 758.604" stroke="#97755C" stroke-width="11.5571" stroke-linecap="round"/>
<path d="M1099.9 747.41L1068.52 760.618" stroke="#97755C" stroke-width="11.5571" stroke-linecap="round"/>
<rect x="1140.81" y="948.48" width="7.71942" height="18.7464" fill="#FCB69F"/>
<rect x="1181.36" y="948.143" width="6.7641" height="19.807" transform="rotate(9.05315 1181.36 948.143)" fill="#FCB69F"/>
<path d="M1188.49 953.292C1195.37 935.567 1202.01 849.593 1201.66 807.272L1156.79 809.44C1150.82 856.341 1138.93 950.602 1139.16 952.439C1139.38 954.275 1147.42 953.345 1151.41 952.651L1177.74 847.755L1180.43 953.153C1181.31 956.524 1187.72 955.28 1188.49 953.292Z" fill="#547ACD"/>
<path d="M1151.16 975.745C1150.52 976.508 1127.45 977.464 1116.92 975.927C1120.85 969.494 1137.35 960.376 1140.27 961.236C1141.02 961.459 1143.59 964.198 1148.93 961.386C1150.59 965.042 1153.82 972.518 1151.16 975.745Z" fill="#547ACD"/>
<path d="M1188.08 977.158C1187.45 977.922 1175.24 977.985 1164.71 976.447C1166.4 970.284 1175.6 960.843 1178.52 961.703C1179.27 961.926 1180.52 965.612 1185.85 962.8C1187.51 966.455 1190.75 973.931 1188.08 977.158Z" fill="#547ACD"/>
<path d="M1165.49 674.814L1173.35 687.473C1169.69 694.019 1160.61 695.399 1156.52 695.27L1150.77 680.647L1162.56 672.938L1165.49 674.814Z" fill="#FCB69F" stroke="#CB9A42" stroke-width="0.577856"/>
<path d="M1162.13 674.382C1165.39 674.993 1172.12 675.131 1172.99 670.795C1173.54 668.018 1173.15 667.337 1172.58 667.451C1176.1 664.764 1180.76 659.541 1177.03 655.448C1171.91 649.83 1174.26 654.096 1172.38 654.064C1170.49 654.031 1173.46 646.261 1169.01 646.184C1164.56 646.107 1155.05 637.223 1152.09 639.644C1149.72 641.581 1147.67 637.665 1146.94 635.465C1146.67 635.055 1146.07 634.533 1145.91 635.716C1145.74 636.9 1145.03 636.016 1144.7 635.426C1144.77 634.768 1144.68 633.7 1143.77 634.69C1142.62 635.929 1138 638.186 1138.86 642.696C1139.73 647.206 1140.17 650.36 1144.82 651.609C1149.48 652.858 1161.68 659.497 1161.66 660.395C1161.65 661.294 1156.34 666.416 1158.93 667.36C1161.01 668.115 1161.93 672.356 1162.13 674.382Z" fill="#1B2758"/>
<path d="M1167.38 665.715C1167.76 667.947 1164.05 670.817 1162.14 671.972C1162.5 679.397 1141.98 686.373 1140.05 676.808C1137.65 664.852 1144.92 652.02 1144.75 651.583C1144.59 651.145 1157.87 657.202 1159.7 657.32C1161.52 657.439 1160.47 658.029 1161.84 659.357C1163.21 660.685 1159.56 665.058 1159.54 666.362C1159.52 667.405 1160.39 667.565 1160.83 667.514C1161.11 666.099 1162.12 663.084 1163.87 662.349C1166.06 661.431 1166.91 662.924 1167.38 665.715Z" fill="#FCB69F" stroke="#D3A756" stroke-width="0.577856"/>
<path d="M1200.04 809.859C1200.04 809.859 1216.41 722.337 1173.36 687.142C1173.36 687.142 1168.81 690.403 1165.59 691.938C1162.3 693.506 1156.78 695.001 1156.78 695.001L1154.88 691.024C1154.88 691.024 1147.93 698.829 1143.09 703.441C1140.03 706.358 1138.6 708.404 1135.02 710.656C1132.34 712.345 1127.66 714.086 1127.66 714.086L1135.03 729.258L1144.68 720.371C1144.68 720.371 1165.15 736.877 1162.99 738.605C1157.92 742.647 1148.59 749.756 1148.59 749.756C1148.59 749.756 1161.01 795.603 1156.85 809.111C1167.23 815.423 1200.04 809.859 1200.04 809.859Z" fill="#2D519F"/>
<path d="M1089.95 737.419C1091.01 737.01 1095.38 734.228 1101.73 743.22C1102.42 744.197 1113.93 745.513 1125.56 739.357C1133.2 735.31 1141.49 724.529 1144.71 720.648C1160.74 718.728 1186.83 719.611 1163 738.505C1139.17 757.399 1124.95 760.493 1115.6 757.3C1113.28 756.405 1097.88 750.187 1096.55 751.501C1094.89 753.143 1087.99 756.366 1081.33 757.3C1076 758.047 1073.56 750.365 1073.01 746.43L1090.97 739.357L1089.95 737.419Z" fill="#FCB69F" stroke="#CC9A40" stroke-width="0.577856"/>
<path d="M867.571 497.59C875.845 489.398 894.703 473.654 903.943 476.21C915.494 479.404 915.985 481.616 915.985 484.319C915.985 487.023 910.087 525.36 878.385 529.046C853.024 531.995 841.113 534.043 838.328 534.698L832.921 532.978C826.696 534.617 809.133 537.254 788.686 534.698C763.128 531.504 749.86 505.454 739.784 495.87C731.724 488.202 735.443 484.975 738.31 484.319C746.664 483.5 764.651 483.926 769.763 492.183C796.467 486.04 853.414 478.52 867.571 497.59Z" fill="#1B2757"/>
<path d="M829.234 524.131L867.571 497.59M867.571 497.59C875.845 489.398 894.703 473.654 903.943 476.21C915.494 479.404 915.985 481.616 915.985 484.319C915.985 487.023 910.087 525.36 878.385 529.046C853.024 531.995 841.113 534.043 838.328 534.698L832.921 532.978M867.571 497.59C853.414 478.52 796.467 486.04 769.763 492.183M832.921 532.978V527.326C813.998 519.052 774.875 500.441 769.763 492.183M832.921 532.978C826.696 534.617 809.133 537.254 788.686 534.698C763.128 531.504 749.86 505.454 739.784 495.87C731.724 488.202 735.443 484.975 738.31 484.319C746.664 483.5 764.651 483.926 769.763 492.183" stroke="#161F45" stroke-width="0.577856"/>
<path fill-rule="evenodd" clip-rule="evenodd" d="M824.236 376.681C802.042 381.722 756.233 408.628 758.033 446.193C759.533 477.512 783.875 469.129 804.642 452.576C800.469 463.894 786.262 486.581 762.823 486.777C733.525 487.023 784.553 504.717 787.239 503.734C789.925 502.751 809.214 499.065 814.097 506.683C818.98 514.301 840.466 511.598 841.931 506.683C843.396 501.768 853.162 494.641 859.022 497.345C863.456 499.39 870.685 494.119 876.268 490.049C878.064 488.74 879.689 487.555 880.996 486.777C882.313 485.994 884.067 484.842 886.009 483.567C890.304 480.747 895.515 477.325 898.931 475.963C901.327 475.969 902.61 475.745 901.96 475.473C901.336 475.211 900.272 475.428 898.931 475.963C890.528 475.94 868.436 473.076 868.056 459.499C867.567 442.051 867.323 417.475 875.38 415.018C881.826 413.052 892.064 400.437 896.378 394.375C895.157 391.18 890.713 384.79 882.705 384.79C874.697 384.79 856.58 379.384 848.523 376.681H824.236ZM792.008 439.839C791.734 435.989 801.665 428.121 806.901 424.111L808.231 432.467C805.701 433.803 803.266 435.23 801.088 436.508C795.889 439.555 792.143 441.751 792.008 439.839Z" fill="#547ACF"/>
<path d="M808.231 432.467C811.818 430.572 817.836 423.377 820.524 421.788V437.6C815.88 442.772 810.398 447.988 804.642 452.576M808.231 432.467L806.901 424.111C801.665 428.121 791.734 435.989 792.008 439.839C792.143 441.751 795.889 439.555 801.088 436.508C803.266 435.23 805.701 433.803 808.231 432.467ZM804.642 452.576C783.875 469.129 759.533 477.512 758.033 446.193C756.233 408.628 802.042 381.722 824.236 376.681H848.523C856.58 379.384 874.697 384.79 882.705 384.79C890.713 384.79 895.157 391.18 896.378 394.375C892.064 400.437 881.826 413.052 875.38 415.018C867.323 417.475 867.567 442.051 868.056 459.499C868.436 473.076 890.528 475.94 898.931 475.963M804.642 452.576C800.469 463.894 786.262 486.581 762.823 486.777C733.525 487.023 784.553 504.717 787.239 503.734C789.925 502.751 809.214 499.065 814.097 506.683C818.98 514.301 840.466 511.598 841.931 506.683C843.396 501.768 853.162 494.641 859.022 497.345C863.456 499.39 870.685 494.119 876.268 490.049C878.064 488.74 879.689 487.555 880.996 486.777C882.313 485.994 884.067 484.842 886.009 483.567C890.304 480.747 895.515 477.325 898.931 475.963M898.931 475.963C900.272 475.428 901.336 475.211 901.96 475.473C902.61 475.745 901.327 475.969 898.931 475.963Z" stroke="#405EA2" stroke-width="0.577856"/>
<path d="M905.663 391.917L822.601 408.874C819.06 408.874 818.67 412.315 818.918 414.035C818.425 429.599 817.195 461.514 816.212 464.66C815.229 467.805 819.241 467.936 821.37 467.609C845.126 462.612 893.326 452.52 896.078 452.126C898.831 451.733 899.683 450.488 899.765 449.915C903.451 434.187 910.971 401.502 911.561 396.587C912.151 391.672 907.875 391.426 905.663 391.917Z" fill="#D9D9D9" stroke="#8C8C8C" stroke-width="0.577856"/>
<path d="M829.892 374.054C831.042 373.127 832.618 369.214 833.088 367.103L836.781 368.773C836.781 369.216 837.075 372.204 839.811 373.646C841.973 374.786 842.894 375.1 845.075 375.811C847.676 376.659 850.221 375.37 850.779 377.241C851.372 379.23 835.557 391.269 821.389 379.018C824.028 377.401 828.621 375.078 829.892 374.054Z" fill="#FCB69F"/>
<path d="M843.652 367.672C835.237 370.405 828.873 365.508 824.444 363.371C819.522 361.702 817.848 356.96 819.235 355.858C820.623 354.756 825.36 357.661 823.395 354.856C821.429 352.052 822.007 344.339 832.296 339.932C840.526 336.406 845.898 346.209 847.555 351.552C848.133 355.959 849.294 365.84 843.652 367.672Z" fill="#FCB69F"/>
<path d="M912.29 413.547C912.287 404.7 905.904 403.308 902.712 403.718C899.765 401.358 900.008 404.701 900.497 406.667L906.395 418.709C908.361 420.674 912.293 422.395 912.29 413.547Z" fill="#FCB69F" stroke="black" stroke-width="0.577856"/>
<path d="M849.52 529.431C844.935 527.785 841.293 527.785 840.236 529.431L838.237 535.073C838.864 536.014 839.481 538.037 844.935 540.011C851.754 542.48 855.515 542.715 859.277 540.011C863.039 537.308 856.66 531.995 849.52 529.431Z" fill="#1B2757" stroke="#111939" stroke-width="0.577856"/>
<path d="M841.525 529.305C838.937 527.506 833.65 527.542 833.65 527.542V533.302C833.65 533.302 837.117 535.183 839.526 535.183C847.99 535.183 847.285 533.309 841.525 529.305Z" fill="#FCB69F"/>
<path fill-rule="evenodd" clip-rule="evenodd" d="M614.041 411.708C622.391 411.603 638.504 409.264 641.752 415.353C642.421 422.522 643.663 429.693 644.619 436.533C646.402 439.428 654.661 442.786 657.71 442.731C660.249 439.741 671.674 428.327 676.502 429.972C680.869 431.873 684.405 438.287 687.013 441.6C689.941 444.624 697.155 448.992 695.581 456.182C694.196 462.511 687.372 468.684 684.114 473.68C685.919 478.662 687.725 483.645 689.529 488.626C697.07 488.762 709.583 489.357 711.22 495.954C712.687 500.53 712.378 523.037 710.583 525.81C709.806 527.766 707.775 529.223 705.136 529.127C703.332 527.511 701.526 525.567 699.722 523.623C699.722 523.501 699.722 523.379 699.722 523.258C701.632 523.015 703.544 522.772 705.168 522.529C706.737 517.274 706.968 501.891 705.136 497.047C698.537 497.249 686.62 496.738 683.509 491.579C682.734 488.505 681.672 485.102 680.611 481.7C679.512 479.037 676.91 475.563 678.095 471.128C680.572 464.526 688.115 460.991 689.529 453.63C684.646 448.041 679.761 442.451 674.591 436.533C674.453 437.105 674.028 437.347 673.317 437.59C669.044 440.034 661.702 452.198 654.811 449.985C652.263 448.527 649.715 446.741 646.88 445.61C644.181 444.266 641.147 444.031 639.236 441.236C636.467 435.98 638.189 424.885 636.337 418.306C629.119 418.756 621.897 418.877 614.678 418.999C614.295 424.978 614.398 436.832 611.812 441.236C610.178 444.019 607.163 444.281 603.881 445.61C601.514 446.741 598.859 448.527 596.205 449.985C590.834 451.41 579.835 439.97 577.412 436.533C574.351 437.763 563.45 450.744 561.805 453.995C563.534 460.536 574.708 467.693 573.272 475.867C571.892 479.269 570.511 482.673 569.131 486.075C567.866 489.769 567.604 493.171 564.385 494.824C558.302 495.589 551.931 497.011 545.561 498.105C545.479 502.412 544.87 521.203 546.517 522.529C552.78 523.294 559.045 524.716 565.309 525.81C567.749 527.654 567.967 530.767 569.131 534.194C570.511 537.596 571.892 541 573.272 544.073C574.199 549.873 564.384 562.512 561.805 565.18C562.01 566.506 561.934 566.284 562.442 567.003C567.219 572.471 571.998 577.94 576.775 583.079C589.924 576.972 585.063 565.517 603.244 573.966C606.625 575.765 610.08 576.078 611.812 579.033C614.929 584.353 612.982 595.347 614.71 601.307C622.216 601.513 629.437 601.392 636.369 601.27C637.27 590.562 637.134 578.689 644.619 575.06C645.288 577.453 646.53 579.519 647.199 581.257C646.424 582.193 645.362 582.8 644.014 583.079C644.347 591.055 643.725 604.294 639.236 607.467C635.992 610.134 612.781 608.949 610.538 606.374C606.534 601.777 608.912 590.093 606.716 583.079C604.924 580.746 596.704 577.623 593.657 576.846C591.003 579.276 588.348 581.707 585.694 584.137C574.015 594.245 572.632 588.508 563.748 578.669C561.382 575.632 554.242 571.242 555.753 564.087C556.978 558.288 563.81 550.697 567.22 546.261C565.521 541.607 563.822 536.624 562.124 531.314C556.28 531.359 544.694 531.076 541.42 526.94C537.837 523.101 538.117 497.258 541.42 492.673C544.765 488.69 556.742 489.511 562.442 488.262C563.748 483.402 565.628 478.54 567.22 473.68C563.841 469.621 556.945 461.908 555.753 456.182C554.446 449.896 572.849 429.386 577.412 429.935C583.52 430.67 589.953 439.579 594.294 443.423C598.54 441.236 602.788 439.048 607.034 436.533C606.941 425.948 608.028 416.006 614.041 411.708Z" fill="#B4BCEB"/>
<path fill-rule="evenodd" clip-rule="evenodd" d="M716.654 675.494C711.136 675.259 700.428 676.219 698.452 672.079C698.209 667.319 697.587 662.538 697.146 657.985C696.048 656.008 690.687 653.49 688.671 653.416C686.911 655.299 679.049 662.422 675.905 661.16C673.073 659.746 670.916 655.381 669.285 653.097C667.435 650.994 662.792 647.847 664.031 643.155C665.121 639.025 669.8 635.196 672.09 632.014C671.036 628.658 669.982 625.301 668.928 621.945C663.951 621.582 655.703 620.734 654.805 616.317C653.963 613.241 654.791 598.386 656.054 596.621C656.621 595.357 658.003 594.468 659.743 594.627C660.89 595.76 662.029 597.11 663.167 598.46C663.164 598.54 663.16 598.621 663.157 598.701C661.888 598.792 660.619 598.883 659.539 598.984C658.357 602.398 657.778 612.551 658.853 615.816C663.217 615.923 671.075 616.693 672.986 620.214C673.413 622.272 674.02 624.559 674.626 626.844C675.278 628.643 676.901 631.033 675.995 633.918C674.176 638.189 669.096 640.25 667.957 645.06C671.028 648.929 674.099 652.8 677.349 656.896C677.456 656.523 677.744 656.379 678.22 656.244C681.11 654.785 686.297 647.018 690.787 648.73C692.43 649.786 694.063 651.058 695.904 651.907C697.65 652.893 699.647 653.159 700.832 655.075C702.515 658.647 701.07 665.912 702.11 670.325C706.891 670.291 711.664 670.473 716.435 670.655C716.854 666.72 717.115 658.886 718.945 656.071C720.102 654.292 722.1 654.229 724.305 653.47C725.9 652.81 727.703 651.726 729.497 650.86C733.084 650.114 740.031 658.069 741.536 660.428C743.592 659.727 751.152 651.549 752.329 649.461C751.368 645.078 744.187 639.945 745.362 634.598C746.368 632.401 747.374 630.203 748.38 628.007C749.318 625.612 749.586 623.375 751.758 622.4C755.797 622.116 760.045 621.408 764.282 620.917C764.455 618.076 765.379 605.686 764.329 604.75C760.213 604.017 756.114 602.85 752.007 601.9C750.446 600.594 750.389 598.53 749.715 596.224C748.898 593.926 748.081 591.628 747.255 589.548C746.803 585.684 753.637 577.692 755.414 576.023C755.315 575.141 755.36 575.29 755.044 574.796C752.04 571.012 749.035 567.225 746.023 563.657C737.168 567.213 740.061 574.956 728.287 568.715C726.104 567.403 723.831 567.071 722.769 565.056C720.857 561.429 722.448 554.238 721.472 550.239C716.521 549.83 711.748 549.648 707.166 549.476C706.273 556.516 706.034 564.364 700.989 566.489C700.614 564.883 699.851 563.473 699.457 562.302C699.995 561.712 700.713 561.349 701.612 561.213C701.613 555.933 702.391 547.212 705.444 545.279C707.661 543.636 722.959 545.262 724.369 547.044C726.886 550.226 724.991 557.857 726.247 562.569C727.366 564.176 732.708 566.537 734.7 567.161C736.52 565.652 738.341 564.143 740.161 562.635C748.156 556.383 748.91 560.222 754.505 567.044C755.984 569.136 760.578 572.295 759.381 576.966C758.411 580.751 753.688 585.517 751.312 588.323C752.305 591.458 753.289 594.812 754.264 598.38C758.125 598.563 765.769 599.172 767.817 602.022C770.077 604.688 769.175 621.747 766.866 624.656C764.546 627.165 756.658 626.187 752.859 626.805C751.861 629.968 750.485 633.11 749.299 636.263C751.417 639.066 755.759 644.412 756.387 648.237C757.076 652.436 744.352 665.314 741.353 664.786C737.339 664.078 733.337 657.96 730.577 655.263C727.712 656.553 724.845 657.844 721.971 659.351C721.738 666.346 720.745 672.873 716.654 675.494Z" fill="#B4BCEB"/>
<path fill-rule="evenodd" clip-rule="evenodd" d="M776 507.632C774.64 511.889 772.845 520.463 769.939 521.091C767.048 520.228 764.061 519.656 761.249 518.993C759.828 519.414 757.141 523.043 756.651 524.601C757.384 526.392 759.891 534.107 758.444 536.283C756.975 538.181 753.896 538.9 752.174 539.669C750.511 540.649 747.608 543.579 745.084 541.573C742.863 539.808 741.615 535.308 740.225 532.816C737.992 532.897 735.757 532.978 733.524 533.059C732.206 536.865 729.877 543.118 727.045 542.843C725.025 542.82 716.353 538.888 715.579 537.512C714.951 536.789 714.727 535.513 715.207 534.19C716.136 533.545 717.193 532.954 718.249 532.364C718.296 532.384 718.343 532.405 718.39 532.425C718.164 533.436 717.937 534.447 717.759 535.313C719.533 536.991 725.457 539.688 727.642 539.571C728.67 536.186 730.867 530.221 733.389 529.507C734.71 529.629 736.207 529.661 737.704 529.692C738.921 529.581 740.704 528.843 742.224 530.188C744.368 532.553 744.473 536.976 747.089 538.929C750.074 537.387 753.061 535.844 756.221 534.212C756.023 534.046 756 533.789 756.025 533.387C755.795 530.808 752.311 525.04 754.325 521.912C755.318 520.863 756.438 519.869 757.351 518.619C758.325 517.474 758.925 515.973 760.329 515.472C762.831 514.947 766.842 517.682 769.703 517.846C770.74 514.105 771.904 510.418 773.067 506.733C770.814 505.535 766.202 503.599 764.929 501.547C764.124 500.251 764.528 498.676 764.563 496.787C764.522 495.395 764.275 493.747 764.155 492.155C764.504 489.189 770.783 485.523 772.522 484.87C772.558 483.109 769.355 475.397 768.371 474.017C765.546 473.797 760.897 478.27 757.969 476.17C756.882 474.898 755.795 473.627 754.708 472.355C753.488 471.093 752.213 470.39 752.112 468.478C752.836 465.261 753.354 461.788 753.998 458.37C752.342 457.606 745.16 454.145 744.37 454.758C743.023 457.81 741.421 460.753 739.947 463.75C738.822 464.679 737.579 464.268 736.055 464.284C734.505 464.414 732.955 464.544 731.532 464.729C729.128 464.228 725.875 457.124 725.273 455.367C724.725 455.249 724.824 455.247 724.46 455.385C721.54 456.893 718.618 458.402 715.824 459.966C715.987 467.666 721.242 467.12 714.917 474.934C713.653 476.349 712.952 478.05 711.516 478.434C708.931 479.125 704.996 476.292 702.396 476.17C701.057 479.946 699.893 483.633 698.778 487.173C702.777 489.427 707.402 491.349 707.554 495.758C706.514 495.696 705.504 495.98 704.719 496.028C704.486 495.478 704.429 494.837 704.546 494.105C701.399 492.937 696.372 490.4 695.895 487.589C695.405 485.495 699.758 473.908 701.132 473.201C703.585 471.939 707.715 475.107 710.802 475.168C712.008 474.649 714.597 470.999 715.409 469.583C714.912 467.828 714.416 466.072 713.919 464.317C711.96 456.691 714.416 456.951 719.719 454.091C721.293 453.399 724.193 450.51 726.712 452.478C728.755 454.072 730.551 458.814 731.699 461.29C733.788 461.208 736.004 461.181 738.347 461.209C739.31 458.234 741.363 452.4 743.515 451.431C745.604 450.256 755.575 454.732 756.798 457.179C757.781 459.545 755.454 465.489 754.982 468.592C756.646 470.07 758.216 471.84 759.832 473.464C761.972 472.429 766.119 470.221 768.538 470.577C771.194 470.967 776.058 483.752 775.079 485.977C773.77 488.955 769.237 490.727 767.019 492.286C767.155 494.808 767.29 497.332 767.553 499.91C771.671 501.639 775.343 503.858 776 507.632Z" fill="#B4BCEB"/>
<rect x="638.046" y="493.575" width="114.935" height="164.572" transform="rotate(2.33887 638.046 493.575)" fill="url(#paint0_linear_128_1287)"/>
<rect x="608.328" y="513.79" width="114.935" height="164.572" transform="rotate(-9.61004 608.328 513.79)" fill="#6DBDDF"/>
<rect x="640.8" y="626.774" width="94.1078" height="5.07534" fill="white" fill-opacity="0.4"/>
<rect x="640.8" y="633.89" width="94.1078" height="5.07534" fill="white" fill-opacity="0.4"/>
<rect x="640.8" y="539.415" width="94.1078" height="5.07534" fill="white" fill-opacity="0.4"/>
<rect x="640.8" y="641.006" width="94.1078" height="5.07534" fill="white" fill-opacity="0.4"/>
<rect x="640.8" y="546.53" width="94.1078" height="5.07534" fill="white" fill-opacity="0.4"/>
<rect x="640.8" y="648.121" width="94.1078" height="5.07534" fill="white" fill-opacity="0.4"/>
<rect x="640.8" y="553.646" width="94.1078" height="5.07534" fill="white" fill-opacity="0.4"/>
<rect x="640.8" y="655.237" width="94.1078" height="5.07534" fill="white" fill-opacity="0.4"/>
<rect x="640.8" y="560.762" width="94.1078" height="5.07534" fill="white" fill-opacity="0.4"/>
<rect x="640.8" y="567.464" width="94.1078" height="5.07534" fill="white" fill-opacity="0.4"/>
<rect x="640.8" y="574.58" width="94.1078" height="5.07534" fill="white" fill-opacity="0.4"/>
<rect x="640.8" y="581.273" width="94.1078" height="5.07534" fill="white" fill-opacity="0.4"/>
<rect x="692.458" y="588.125" width="42.449" height="5.07534" fill="white" fill-opacity="0.4"/>
<rect x="692.458" y="594.977" width="42.449" height="5.07534" fill="white" fill-opacity="0.4"/>
<rect x="640.8" y="588.125" width="50.3113" height="36.683" fill="white" fill-opacity="0.4"/>
<rect x="692.458" y="600.946" width="42.449" height="5.07534" fill="white" fill-opacity="0.4"/>
<rect x="692.458" y="607.208" width="42.449" height="5.07534" fill="white" fill-opacity="0.4"/>
<rect x="692.458" y="613.469" width="42.449" height="5.07534" fill="white" fill-opacity="0.4"/>
<rect x="692.458" y="620.162" width="42.449" height="5.07534" fill="white" fill-opacity="0.4"/>
<g filter="url(#filter0_dd_128_1287)">
<path d="M856.513 766.045C878.973 770.305 874.713 744.746 874.326 742.81C874.526 740.593 864.642 739.472 859.359 739.188L858.676 747.183L854.679 747.768C854.939 746.696 855.127 744.005 853.802 741.821C852.144 739.091 848.147 742.81 847.172 744.551C846.392 745.943 848.342 750.006 849.414 751.863C845.646 754.297 849.414 762.468 849.414 762.468C849.414 762.468 841.168 770.877 842.668 774.15C844.168 777.423 849.629 776.195 852.172 775.172L854.794 765.617C855.327 765.783 855.9 765.929 856.513 766.045Z" fill="#F5B38F"/>
<path d="M960.852 824.913C958.216 822.037 943.624 829.814 942.666 830.533C942.666 830.533 941.581 831.667 941.796 833.967C942.116 837.401 943.123 837.133 943.123 837.133C943.123 837.133 952.291 838.778 956.996 835.386C958.285 834.458 959.729 833.135 960.852 834.258C961.646 835.052 959.734 837.053 960.852 837.133C961.97 837.213 964.59 836.75 966.123 834.258C968.04 831.143 963.488 827.788 960.852 824.913Z" fill="#F5B38F"/>
</g>
<path d="M909.573 961.736C909.765 963.27 920.196 962.375 925.388 961.736C929.86 945.522 938.95 912.47 939.525 909.978C940.1 907.486 943.119 881.463 944.557 868.763L909.573 865.648L872.671 892.725L927.544 883.38C921.474 908.86 909.381 960.202 909.573 961.736Z" fill="#000D3E"/>
<path d="M936.649 967.247C936.649 967.247 973.168 976.645 962.364 978.275C954.762 979.421 922.991 976.592 922.991 976.592C920.307 973.717 921.713 970.122 922.751 968.685L936.649 957.662C936.649 957.662 956.668 962.445 950.787 963.413C945.894 964.218 938.327 963.413 938.327 963.413L936.649 967.247Z" fill="#142758"/>
<path d="M948.63 858.699C944.796 855.44 907.575 857.341 889.444 858.699L845.833 875.233C839.842 876.91 830.689 882.996 841.999 893.923C856.136 907.581 937.847 872.357 933.055 880.265C929.221 886.591 923.789 942.486 921.553 969.643C930.02 970.202 945.611 969.835 940.243 963.892C933.534 956.464 960.372 887.933 958.455 875.233C956.538 862.533 953.423 862.772 948.63 858.699Z" fill="#22407E"/>
</g>
<defs>
<filter id="filter0_dd_128_1287" x="834.781" y="739.188" width="139.505" height="113.753" filterUnits="userSpaceOnUse" color-interpolation-filters="sRGB">
<feFlood flood-opacity="0" result="BackgroundImageFix"/>
<feColorMatrix in="SourceAlpha" type="matrix" values="0 0 0 0 0 0 0 0 0 0 0 0 0 0 0 0 0 0 127 0" result="hardAlpha"/>
<feOffset dy="7.70475"/>
<feGaussianBlur stdDeviation="3.85237"/>
<feComposite in2="hardAlpha" operator="out"/>
<feColorMatrix type="matrix" values="0 0 0 0 0 0 0 0 0 0 0 0 0 0 0 0 0 0 0.25 0"/>
<feBlend mode="normal" in2="BackgroundImageFix" result="effect1_dropShadow_128_1287"/>
<feColorMatrix in="SourceAlpha" type="matrix" values="0 0 0 0 0 0 0 0 0 0 0 0 0 0 0 0 0 0 127 0" result="hardAlpha"/>
<feOffset dy="7.70475"/>
<feGaussianBlur stdDeviation="3.85237"/>
<feComposite in2="hardAlpha" operator="out"/>
<feColorMatrix type="matrix" values="0 0 0 0 0 0 0 0 0 0 0 0 0 0 0 0 0 0 0.25 0"/>
<feBlend mode="normal" in2="effect1_dropShadow_128_1287" result="effect2_dropShadow_128_1287"/>
<feBlend mode="normal" in="SourceGraphic" in2="effect2_dropShadow_128_1287" result="shape"/>
</filter>
<linearGradient id="paint0_linear_128_1287" x1="695.514" y1="493.575" x2="695.514" y2="658.147" gradientUnits="userSpaceOnUse">
<stop stop-color="#C0EFFF"/>
<stop offset="1" stop-color="#D9D9D9"/>
</linearGradient>
<clipPath id="clip0_128_1287">
<rect x="492" y="306" width="707" height="693" rx="110" fill="white"/>
</clipPath>
</defs>
</svg>
