<svg width="60" height="60" viewBox="0 0 60 60" fill="none" xmlns="http://www.w3.org/2000/svg">
<circle cx="30" cy="30" r="29.5" fill="#383C73" fill-opacity="0.3" stroke="#ECECEC"/>
<path d="M19.1117 36.2999C19.5272 36.7109 20.0887 36.9415 20.6739 36.9415C21.2591 36.9415 21.8206 36.7109 22.2361 36.2999L27.8601 30.6917C28.4224 30.1323 29.1842 29.8182 29.9784 29.8182C30.7727 29.8182 31.5345 30.1323 32.0968 30.6917L37.7207 36.2999C37.9272 36.5146 38.1751 36.6854 38.4494 36.8021C38.7238 36.9188 39.019 36.979 39.3173 36.979C39.6156 36.979 39.9108 36.9188 40.1852 36.8021C40.4595 36.6854 40.7074 36.5146 40.9139 36.2999C41.3275 35.8864 41.5598 35.3262 41.5598 34.7421C41.5598 34.158 41.3275 33.5977 40.9139 33.1842L31.3532 23.6377C31.176 23.4597 30.9653 23.3184 30.7331 23.2219C30.5009 23.1255 30.2518 23.0759 30.0003 23.0759C29.7488 23.0759 29.4997 23.1255 29.2675 23.2219C29.0354 23.3184 28.8246 23.4597 28.6474 23.6377L19.1117 33.1406C18.9026 33.3474 18.7366 33.5935 18.6233 33.8646C18.51 34.1357 18.4517 34.4265 18.4517 34.7203C18.4517 35.014 18.51 35.3048 18.6233 35.5759C18.7366 35.847 18.9026 36.0931 19.1117 36.2999Z" fill="white"/>
</svg>
