<svg width="41" height="39" viewBox="0 0 41 39" fill="none" xmlns="http://www.w3.org/2000/svg">
<path d="M16.311 15.7813C16.1235 15.5944 14.358 13.99 13.4987 13.2112L9.74902 17.1832L11.6239 19.7534L10.9208 20.9216M10.9208 28.8657L11.6239 30.5012L9.74902 32.3704L13.4987 36.3425L15.6079 34.2396L17.8282 34.8145L18.337 38.3654H23.9338L24.4426 34.8145L26.857 34.2396L28.4975 36.3425L32.7159 32.3704L30.3724 30.0339L31.0754 28.8657M31.0754 20.4543L30.3724 19.2861L32.2472 17.1832L28.4975 13.2112L26.1539 15.7813" stroke="#4DB6FE"/>
<path d="M4.60108 17.5857V19.9632M4.60108 19.9632L5.80144 21.8652L7.24187 19.9632M4.60108 19.9632H2.20036L1 20.9142V28.5223H3.16065M7.24187 19.9632V17.5857M7.24187 19.9632H9.64259L10.843 21.152V28.5223H8.6823M3.16065 28.5223V23.054M3.16065 28.5223H5.80144H8.6823M8.6823 23.054V28.5223" stroke="#4DB6FE"/>
<path d="M34.1299 17.5857V19.9632M34.1299 19.9632L35.3302 21.8652L36.7707 19.9632M34.1299 19.9632H31.7292L30.5288 20.9142V28.5223H32.6895M36.7707 19.9632V17.5857M36.7707 19.9632H39.1714L40.3718 21.152V28.5223H38.2111M32.6895 28.5223V23.054M32.6895 28.5223H35.3302H38.2111M38.2111 23.054V28.5223" stroke="#4DB6FE"/>
<path d="M19.9126 5.55566V7.93319M19.9126 7.93319L21.113 9.83521L22.5534 7.93319M19.9126 7.93319H17.5119L16.3115 8.8842V16.4923H18.4722M22.5534 7.93319V5.55566M22.5534 7.93319H24.9541L26.1545 9.12195V16.4923H23.9938M18.4722 16.4923V11.024M18.4722 16.4923H21.113H23.9938M23.9938 11.024V16.4923" stroke="#4DB6FE"/>
<circle cx="21.2329" cy="25.7883" r="5.51514" stroke="#4DB6FE"/>
<path d="M8.15581 15.3989C8.15581 17.024 7.07406 18.1799 5.92165 18.1799C4.76925 18.1799 3.6875 17.024 3.6875 15.3989C3.6875 13.7738 4.76925 12.6179 5.92165 12.6179C7.07406 12.6179 8.15581 13.7738 8.15581 15.3989Z" stroke="#4DB6FE"/>
<path d="M37.6841 15.3989C37.6841 17.024 36.6024 18.1799 35.45 18.1799C34.2976 18.1799 33.2158 17.024 33.2158 15.3989C33.2158 13.7738 34.2976 12.6179 35.45 12.6179C36.6024 12.6179 37.6841 13.7738 37.6841 15.3989Z" stroke="#4DB6FE"/>
<path d="M23.4668 3.36839C23.4668 4.99351 22.3851 6.14937 21.2327 6.14937C20.0803 6.14937 18.9985 4.99351 18.9985 3.36839C18.9985 1.74326 20.0803 0.587402 21.2327 0.587402C22.3851 0.587402 23.4668 1.74326 23.4668 3.36839Z" stroke="#4DB6FE"/>
</svg>
