<svg width="40" height="34" viewBox="0 0 40 34" fill="none" xmlns="http://www.w3.org/2000/svg">
<path d="M3.1294 30.2448H37.0213M3.1294 30.2448C2.32598 30.4305 0.780944 30.3227 1.02605 28.406C1.27115 26.4892 1.12817 18.0237 1.02605 14.0305C1.00486 13.3592 1.64289 12.0165 4.36447 12.0165H10.9439M3.1294 30.2448C3.1294 30.2448 1.5441 30.3329 1.5441 31.5734C1.5441 32.8138 3.1294 32.8138 3.1294 32.8138H37.0213C37.0213 32.8138 38.7302 32.8138 38.7302 31.5331C38.7302 30.222 37.0213 30.2448 37.0213 30.2448M37.0213 30.2448C38.6111 30.2448 39.0028 29.0189 39 28.406C39 24.0442 39 14.9889 39 13.6619C39 12.335 37.075 11.7374 36.1126 11.6045H31.1869" stroke="white" stroke-linecap="round"/>
<path d="M18.6247 26.674H20.5924M26.4957 26.674C26.4957 26.674 26.4957 22.3129 26.4957 20.0453C26.4957 18.6497 28.932 18.2256 29.819 16.731C30.8754 14.9509 31.0434 11.6722 31.0434 11.6722C31.0434 11.6722 31.191 8.02387 29.4692 5.39233C27.7658 2.78891 24.2081 1.20293 21.4233 1.03142C18.2313 0.834825 15.9575 1.53667 13.7272 3.82245C11.2995 6.31044 11.9781 9.05556 11.2784 12.37C10.6679 15.2619 7.60527 17.0798 8.13 18.3008C8.64124 19.4905 10.5585 18.9684 11.2784 20.0453C11.6282 20.5686 10.4039 24.7551 12.6777 24.7551C14.9516 24.7551 16.001 24.7551 16.001 26.3251V30.1628H26.4957V26.674ZM26.4957 26.674H22.5602M22.5602 26.674C22.5602 22.791 22.5602 16.731 22.5602 16.731L26.4957 14.8121M22.5602 26.674H20.5924M20.5924 26.674V14.8121M20.5924 8.18343V14.8121M20.5924 14.8121L24.2219 13.2422V11.6722M20.5924 17.952L18.6247 17.6032V15.6843M20.5924 20.7431L15.6512 19.6964V12.37" stroke="white"/>
<ellipse cx="20.4427" cy="6.30211" rx="1.76744" ry="1.76744" stroke="white"/>
<ellipse cx="24.4198" cy="10.2792" rx="1.32558" ry="1.32558" stroke="white"/>
<ellipse cx="27.5106" cy="14.2562" rx="1.76744" ry="1.76744" stroke="white"/>
<ellipse cx="18.2313" cy="14.2562" rx="1.32558" ry="1.76744" stroke="white"/>
<ellipse cx="15.5824" cy="10.2792" rx="1.32558" ry="1.32558" stroke="white"/>
</svg>
