<svg width="39" height="33" viewBox="0 0 39 33" fill="none" xmlns="http://www.w3.org/2000/svg">
<path d="M21.5 6C21.5 9.1268 19.4038 11.5 17 11.5C14.5962 11.5 12.5 9.1268 12.5 6C12.5 2.8732 14.5962 0.5 17 0.5C19.4038 0.5 21.5 2.8732 21.5 6Z" stroke="white"/>
<path d="M14.4015 10.5V15.7231M14.4015 15.7231L16.838 17.3641M14.4015 15.7231C14.4015 15.7231 10.973 15.7231 9.45954 15.7231C8.35067 15.7231 7.00027 16.8283 7.00018 17.9838C6.99977 23.634 7.00018 31.9999 7.00018 31.9999M16.838 17.3641L19.2743 15.7231M16.838 17.3641L14.8445 27.0264L16.838 31.9999M16.838 17.3641L18.8313 27.0264L16.838 31.9999M19.2743 15.7231V11M19.2743 15.7231C19.2743 15.7231 22.043 16.0162 23.8378 16.0162C24.7838 16.0162 25.9189 16.7369 25.9189 17.9838C25.9189 22.5637 25.9189 31.9999 25.9189 31.9999M25.9189 31.9999H21.9321M25.9189 31.9999H35M7.00018 31.9999H11.7437M7.00018 31.9999H16.838M11.7437 31.9999V21.6008M11.7437 31.9999H16.838M21.9321 21.6008V31.9999M21.9321 31.9999H16.838M13 4.5C13.9874 4.05066 15.2283 3.46024 16.6164 4.84678C18.0044 6.23332 20.4698 5.36033 21.3527 4.84678" stroke="white"/>
<path d="M7 32H0" stroke="white"/>
<rect x="0.5" y="4.5" width="6" height="27" stroke="white"/>
<path d="M0.5 6H6.49982M0.5 30H6.49982M1.99982 8.6H4.90891V23.4H1.99982V8.6ZM3.63636 25.2C4.48989 25.2552 5.26132 26.0784 5.09091 27C4.94939 27.7654 4.34531 28.1567 3.63636 28.2C2.86952 28.2469 2.15062 27.8284 2 27C1.82276 26.0252 2.73418 25.1416 3.63636 25.2Z" stroke="white"/>
<circle cx="30.5097" cy="8.50971" r="5" transform="rotate(-60.0976 30.5097 8.50971)" stroke="white"/>
<path d="M32.9736 16.2539L32.2045 13.5321L32.919 13.2983L34.2467 15.7253L35.6884 18.2813C35.8807 18.9618 33.9351 19.6562 33.7428 18.9757L32.9736 16.2539Z" stroke="white"/>
<path d="M29.0138 11.1104C27.28 10.1134 26.7926 6.94914 29.3392 5.52973" stroke="white" stroke-linecap="round"/>
</svg>
