<svg width="505" height="63" viewBox="0 0 505 63" fill="none" xmlns="http://www.w3.org/2000/svg">
<path d="M70.6593 16.4981H78.4148V19.8967C79.6277 18.6037 81.1011 17.5828 82.7378 16.9016C84.3745 16.2203 86.1371 15.8942 87.9092 15.9448C89.9894 15.9283 92.0497 16.35 93.9561 17.1824C95.8626 18.0148 97.5724 19.2392 98.9744 20.776C100.476 22.2916 101.659 24.0927 102.453 26.0729C103.247 28.0531 103.636 30.1723 103.598 32.3055C103.651 34.4439 103.272 36.571 102.482 38.5591C101.693 40.5471 100.51 42.3551 99.004 43.8746C97.5946 45.4012 95.8808 46.6155 93.9732 47.4391C92.0656 48.2627 90.0066 48.6774 87.9289 48.6563C86.1557 48.7159 84.3904 48.3939 82.7524 47.7121C81.1144 47.0303 79.6419 46.0046 78.4346 44.7045V60.6799H70.6593V16.4981ZM77.9406 32.3055C77.9259 33.5227 78.1613 34.7298 78.6322 35.8523C79.0875 36.9617 79.7592 37.9692 80.6081 38.8162C81.4472 39.6894 82.4558 40.3819 83.572 40.8514C84.6869 41.3276 85.8867 41.573 87.0991 41.573C88.3114 41.573 89.5112 41.3276 90.6261 40.8514C91.7423 40.3819 92.7509 39.6894 93.59 38.8162C95.2951 37.0562 96.2486 34.7017 96.2486 32.2512C96.2486 29.8006 95.2951 27.4462 93.59 25.6861C92.7463 24.816 91.739 24.121 90.6261 23.6411C89.5077 23.1718 88.307 22.9301 87.0941 22.9301C85.8813 22.9301 84.6805 23.1718 83.5621 23.6411C82.4497 24.1219 81.4427 24.8168 80.5982 25.6861C79.7201 26.544 79.0274 27.573 78.563 28.7093C78.0915 29.8417 77.8595 31.0593 77.8813 32.2858L77.9406 32.3055Z" fill="url(#paint0_linear_2_346)"/>
<path d="M108.202 16.4979H115.958V21.2105C116.862 19.4988 118.283 18.1159 120.018 17.2587C121.612 16.4701 123.367 16.0609 125.146 16.0632C126.027 16.0633 126.907 16.1426 127.774 16.3004V24.5894C126.62 24.2056 125.413 24.0055 124.197 23.9966C122.296 24.0782 120.452 24.6647 118.852 25.6959C116.877 26.8288 115.889 28.9068 115.889 31.93V48.1129H108.133L108.202 16.4979Z" fill="url(#paint1_linear_2_346)"/>
<path d="M134.749 20.7465C136.259 19.2356 138.047 18.0312 140.014 17.1997C141.987 16.3779 144.102 15.9548 146.239 15.9548C148.375 15.9548 150.491 16.3779 152.463 17.1997C154.435 18.0285 156.227 19.2332 157.738 20.7465C159.27 22.2393 160.482 24.0273 161.302 26.0023C162.123 27.9773 162.534 30.0981 162.51 32.2365C162.54 34.3832 162.133 36.5135 161.312 38.4974C160.492 40.4813 159.276 42.2774 157.738 43.7759C156.238 45.3015 154.449 46.5131 152.475 47.3401C150.502 48.1672 148.383 48.5931 146.244 48.5931C144.104 48.5931 141.985 48.1672 140.012 47.3401C138.038 46.5131 136.249 45.3015 134.749 43.7759C133.213 42.2819 132 40.4899 131.182 38.5101C130.369 36.5435 129.959 34.4336 129.977 32.3057C129.944 30.1616 130.351 28.0335 131.171 26.0524C131.992 24.0713 133.209 22.2791 134.749 20.786V20.7465ZM137.199 32.3057C137.177 33.5164 137.399 34.719 137.851 35.8426C138.31 36.95 138.981 37.9569 139.827 38.8065C140.661 39.6657 141.659 40.3488 142.762 40.8152C143.865 41.2817 145.051 41.522 146.248 41.522C147.446 41.522 148.632 41.2817 149.735 40.8152C150.838 40.3488 151.836 39.6657 152.67 38.8065C153.519 37.9527 154.188 36.9376 154.637 35.8211C155.087 34.7045 155.308 33.5092 155.288 32.3057C155.31 31.0982 155.088 29.8987 154.636 28.7786C154.178 27.6707 153.507 26.6637 152.66 25.8147C151.823 24.9543 150.813 24.2809 149.696 23.8388C148.038 23.1273 146.202 22.9419 144.435 23.3076C142.668 23.6734 141.056 24.5726 139.817 25.8839C138.969 26.7317 138.297 27.739 137.841 28.8478C137.399 29.9462 137.18 31.1218 137.199 32.3057Z" fill="url(#paint2_linear_2_346)"/>
<path d="M168.053 34.5482V27.5632H189.689V34.5482H168.053Z" fill="url(#paint3_linear_2_346)"/>
<path d="M193.483 18.721H198.818V8.84131H205.892V18.721H215.268V24.461H205.872V37.8183C205.742 39.1735 206.151 40.5255 207.009 41.5825C207.71 42.3827 209.034 42.7681 210.96 42.7681C212.802 42.7929 214.632 42.4573 216.345 41.7801V47.5103C214.041 48.3817 211.596 48.8237 209.133 48.8144C205.714 48.8144 203.136 47.9516 201.397 46.2259C200.506 45.2855 199.817 44.1728 199.372 42.9564C198.927 41.7399 198.735 40.4454 198.808 39.1521V24.4907H193.473L193.483 18.721Z" fill="url(#paint4_linear_2_346)"/>
<path d="M224.071 20.6871C225.572 19.1629 227.367 17.9594 229.347 17.1493C231.327 16.3393 233.451 15.9396 235.59 15.9745C239.407 15.9302 243.11 17.279 246.004 19.7683C248.91 22.1654 250.865 25.5219 251.516 29.233C251.757 30.2899 251.879 31.37 251.882 32.4538C251.884 33.3779 251.781 34.2993 251.576 35.2003H226.956C227.303 37.1252 228.361 38.8494 229.919 40.0315C231.545 41.21 233.514 41.8179 235.521 41.7604C237.029 41.8201 238.532 41.5539 239.928 40.9799C241.328 40.4186 242.595 39.5667 243.642 38.4804L250.489 40.3279C249.15 42.9413 247.006 45.0543 244.373 46.3545C241.673 47.831 238.648 48.6119 235.571 48.6268C233.419 48.6594 231.283 48.2491 229.296 47.4214C227.309 46.5937 225.514 45.3663 224.021 43.8154C222.488 42.3295 221.271 40.5482 220.445 38.5792C219.625 36.6104 219.209 34.4974 219.22 32.3649C219.184 30.1925 219.594 28.0357 220.423 26.0275C221.252 24.0192 222.483 22.2018 224.041 20.6871H224.071ZM227.035 29.2923H244.028C243.578 27.4711 242.535 25.8514 241.064 24.6884C239.486 23.4354 237.515 22.7809 235.501 22.8409C233.486 22.7904 231.516 23.4437 229.929 24.6884C228.444 25.8386 227.397 27.4637 226.965 29.2923H227.035Z" fill="url(#paint5_linear_2_346)"/>
<path d="M255.883 25.6466C255.837 24.2514 256.146 22.8674 256.782 21.6247C257.418 20.3821 258.36 19.3216 259.519 18.5431C262.319 16.7248 265.618 15.8268 268.954 15.9744C273.217 15.8985 277.422 16.9736 281.126 19.0865V26.4271C276.278 23.8584 272.221 22.574 268.954 22.574C267.666 22.5124 266.385 22.8027 265.249 23.4138C264.847 23.6129 264.505 23.9166 264.261 24.2931C264.021 24.6759 263.888 25.116 263.876 25.5676C263.869 26.0052 264.008 26.4327 264.271 26.7828C264.633 27.1943 265.107 27.4927 265.634 27.6423C266.296 27.8794 266.879 28.077 267.403 28.2153C267.926 28.3536 268.736 28.5512 269.873 28.7785C271.009 29.0057 271.849 29.223 272.471 29.3811C276.008 30.2966 278.583 31.5579 280.197 33.165C280.986 33.9334 281.607 34.8566 282.022 35.8768C282.437 36.897 282.636 37.9919 282.608 39.0928C282.698 40.5303 282.386 41.9646 281.708 43.2349C281.029 44.5053 280.01 45.5615 278.764 46.2852C276.015 47.8677 272.886 48.6672 269.715 48.5971C265.144 48.5511 260.678 47.2266 256.822 44.7736V36.9489C258.621 38.3092 260.595 39.4224 262.69 40.2586C264.898 41.2537 267.284 41.7915 269.705 41.8394C270.922 41.8717 272.13 41.6179 273.232 41.0984C273.66 40.9307 274.031 40.6424 274.299 40.2685C274.562 39.8876 274.706 39.4372 274.714 38.9743C274.714 37.9863 274.111 37.2453 272.896 36.6427C271.013 35.8418 269.044 35.2616 267.027 34.9137C263.214 34.1234 260.408 33.0135 258.61 31.5843C257.731 30.8745 257.031 29.9684 256.566 28.9389C256.101 27.9093 255.884 26.7851 255.932 25.6565L255.883 25.6466Z" fill="url(#paint6_linear_2_346)"/>
<path d="M285.394 18.721H290.709V8.84131H297.793V18.721H307.258V24.461H297.852V37.8183C297.724 39.1718 298.128 40.522 298.979 41.5825C299.69 42.3827 300.955 42.7681 302.931 42.7681C304.773 42.7929 306.602 42.4573 308.315 41.7801V47.5103C306.014 48.3809 303.573 48.8229 301.113 48.8144C297.694 48.8144 295.106 47.9549 293.377 46.2259C292.487 45.283 291.795 44.171 291.342 42.9558C290.896 41.7396 290.701 40.4457 290.769 39.1521V24.4907H285.453L285.394 18.721Z" fill="url(#paint7_linear_2_346)"/>
<path d="M313.659 43.6178C313.644 42.94 313.772 42.2666 314.035 41.6418C314.297 41.0429 314.681 40.5047 315.161 40.0611C315.629 39.5869 316.186 39.2107 316.801 38.9546C317.427 38.6984 318.101 38.5772 318.777 38.5989C319.765 38.6007 320.73 38.8927 321.553 39.4387C322.373 39.992 323.015 40.771 323.401 41.6814C323.863 42.7621 323.93 43.9705 323.593 45.0961C323.255 46.2217 322.533 47.1931 321.552 47.8409C320.572 48.4887 319.395 48.7719 318.227 48.6411C317.059 48.5102 315.974 47.9737 315.161 47.1251C314.682 46.6749 314.302 46.1298 314.045 45.5246C313.791 44.9208 313.66 44.2726 313.659 43.6178Z" fill="url(#paint8_linear_2_346)"/>
<path d="M327.777 25.6466C327.735 24.2509 328.047 22.8674 328.686 21.6255C329.318 20.3803 330.261 19.3188 331.422 18.5431C334.223 16.7333 337.516 15.839 340.848 15.9843C345.107 15.9022 349.31 16.9742 353.009 19.0865V26.4271C348.135 23.8583 344.068 22.574 340.808 22.574C339.52 22.5134 338.239 22.8036 337.103 23.4138C336.7 23.6116 336.358 23.9156 336.115 24.293C335.872 24.675 335.736 25.1151 335.72 25.5675C335.713 26.0052 335.852 26.4326 336.115 26.7827C336.48 27.1967 336.957 27.4954 337.488 27.6423C338.14 27.8794 338.733 28.077 339.247 28.2153C339.761 28.3536 340.591 28.5512 341.727 28.7784C342.863 29.0056 343.703 29.223 344.315 29.3811C347.852 30.2999 350.441 31.5645 352.041 33.165C352.83 33.9357 353.452 34.8605 353.869 35.8819C354.282 36.9045 354.483 38.0001 354.462 39.1027C354.546 40.5393 354.232 41.9714 353.554 43.2407C352.876 44.51 351.86 45.567 350.619 46.295C347.854 47.8819 344.706 48.6783 341.519 48.597C336.949 48.5537 332.482 47.229 328.626 44.7736V36.9489C330.422 38.315 332.397 39.4286 334.495 40.2586C336.702 41.2547 339.088 41.7925 341.509 41.8393C342.724 41.8726 343.929 41.6188 345.027 41.0983C345.458 40.9358 345.83 40.6465 346.094 40.2685C346.36 39.8884 346.508 39.4381 346.518 38.9742C346.518 37.9863 345.906 37.2453 344.691 36.6426C342.825 35.8428 340.872 35.2626 338.872 34.9137C335.058 34.1233 332.255 33.0135 330.464 31.5842C329.588 30.8689 328.891 29.9589 328.429 28.9266C327.972 27.8957 327.759 26.7732 327.806 25.6466H327.777Z" fill="url(#paint9_linear_2_346)"/>
<path d="M357.238 18.721H362.583V8.84131H369.667V18.721H379.062V24.461H369.667V37.8183C369.534 39.1722 369.938 40.524 370.793 41.5825C371.504 42.3827 372.769 42.7681 374.745 42.7681C376.587 42.7919 378.416 42.4563 380.129 41.7801V47.5103C377.827 48.3794 375.387 48.8246 372.927 48.8243C369.499 48.8243 366.92 47.9648 365.181 46.2259C364.292 45.2843 363.603 44.1717 363.156 42.9557C362.709 41.7398 362.514 40.4457 362.583 39.1521V24.4907H357.258L357.238 18.721Z" fill="url(#paint10_linear_2_346)"/>
<path d="M383.845 16.498H391.6V34.0048C391.56 34.9952 391.718 35.9837 392.066 36.9119C392.414 37.8401 392.944 38.6891 393.626 39.409C394.267 40.0688 395.035 40.5912 395.884 40.9445C396.733 41.2978 397.646 41.4745 398.566 41.4639C399.631 41.4929 400.69 41.2872 401.668 40.8613C402.644 40.4343 403.512 39.7927 404.207 38.9841C405.682 37.2727 406.458 35.0678 406.38 32.8094V16.498H414.146V48.113H406.38V44.5662C405.22 45.9029 403.775 46.9629 402.152 47.6684C400.532 48.3695 398.779 48.7068 397.014 48.6563C393.586 48.7261 390.259 47.49 387.708 45.1985C386.412 44.0515 385.385 42.6321 384.702 41.0419C384.019 39.4518 383.696 37.7302 383.756 36.0005L383.845 16.498Z" fill="url(#paint11_linear_2_346)"/>
<path d="M424.193 20.687C425.614 19.1761 427.335 17.9777 429.245 17.1681C431.155 16.3584 433.213 15.9553 435.287 15.9842C437.058 15.937 438.818 16.2646 440.452 16.9457C442.087 17.6268 443.559 18.6459 444.772 19.9361V6.37134H452.488V48.1129H444.732V44.7439C443.515 46.0259 442.04 47.036 440.405 47.7078C438.772 48.3888 437.017 48.7251 435.248 48.6958C433.166 48.7172 431.103 48.2968 429.196 47.4623C427.289 46.6279 425.58 45.3983 424.183 43.8548C422.69 42.3468 421.511 40.5571 420.716 38.5896C419.92 36.6222 419.524 34.5163 419.549 32.3944C419.501 30.2392 419.884 28.0962 420.675 26.0911C421.459 24.0828 422.642 22.2544 424.153 20.7166L424.193 20.687ZM426.87 32.3647C426.857 33.5707 427.086 34.7671 427.542 35.8834C427.999 36.9998 428.674 38.0137 429.528 38.8655C431.032 40.3892 433.021 41.3415 435.151 41.5587C437.282 41.7759 439.421 41.2445 441.203 40.0558C442.984 38.867 444.296 37.0952 444.913 35.0445C445.53 32.9938 445.414 30.7922 444.584 28.8179C444.131 27.7074 443.459 26.6995 442.608 25.854C441.765 24.9837 440.757 24.2887 439.644 23.8089C438.526 23.3397 437.325 23.098 436.112 23.098C434.899 23.098 433.699 23.3397 432.58 23.8089C430.898 24.5234 429.466 25.7202 428.464 27.2483C427.461 28.7763 426.934 30.567 426.949 32.3944L426.87 32.3647Z" fill="url(#paint12_linear_2_346)"/>
<path d="M459.76 5.36386C460.694 4.47931 461.932 3.98633 463.218 3.98633C464.504 3.98633 465.742 4.47931 466.676 5.36386C467.132 5.78885 467.495 6.30347 467.743 6.87545C467.988 7.44953 468.109 8.06905 468.099 8.69331C468.119 9.31097 468.001 9.92536 467.753 10.4914C467.515 11.0584 467.158 11.5674 466.706 11.9832C465.763 12.8504 464.529 13.3317 463.248 13.3317C461.967 13.3317 460.733 12.8504 459.79 11.9832C459.334 11.5619 458.971 11.0505 458.723 10.4815C458.477 9.90744 458.356 9.28792 458.367 8.66367C458.354 8.04017 458.471 7.4208 458.713 6.84581C458.953 6.27228 459.314 5.75686 459.77 5.33422L459.76 5.36386ZM467.032 16.4982V48.1131H459.276V16.4982H467.032Z" fill="url(#paint13_linear_2_346)"/>
<path d="M477.237 20.7563C478.743 19.2431 480.532 18.0412 482.503 17.2194C485.473 15.9838 488.744 15.6603 491.899 16.2902C495.053 16.9201 497.949 18.4748 500.217 20.7563C501.756 22.2455 502.973 24.0343 503.793 26.0123C504.613 27.9874 505.023 30.1082 504.999 32.2463C505.027 34.3944 504.617 36.5257 503.793 38.51C502.976 40.4952 501.758 42.291 500.217 43.7858C498.717 45.311 496.929 46.5224 494.956 47.3493C492.984 48.1762 490.866 48.6021 488.727 48.6021C486.588 48.6021 484.47 48.1762 482.498 47.3493C480.525 46.5224 478.737 45.311 477.237 43.7858C475.709 42.2933 474.499 40.5065 473.68 38.5333C472.862 36.5602 472.452 34.4416 472.475 32.3056C472.438 30.1617 472.841 28.0331 473.66 26.0515C474.479 24.07 475.697 22.2777 477.237 20.7859V20.7563ZM479.697 32.3056C479.671 34.4178 480.382 36.4729 481.709 38.1164C483.036 39.7598 484.896 40.8886 486.966 41.3078C489.036 41.727 491.188 41.4104 493.05 40.4127C494.912 39.4149 496.367 37.7986 497.164 35.8425C497.619 34.7196 497.844 33.517 497.826 32.3056C497.842 31.0985 497.621 29.9001 497.174 28.7786C496.719 27.6691 496.047 26.6615 495.198 25.8147C494.36 24.9556 493.35 24.2824 492.234 23.8387C491.127 23.3756 489.937 23.1469 488.737 23.1669C487.541 23.1477 486.354 23.3796 485.253 23.8476C484.152 24.3155 483.161 25.0092 482.345 25.8838C481.487 26.7295 480.809 27.7392 480.351 28.8528C479.893 29.9663 479.664 31.1608 479.677 32.3649L479.697 32.3056Z" fill="url(#paint14_linear_2_346)"/>
<path d="M63.5064 31.4164C63.5068 38.5331 61.0657 45.4345 56.5907 50.9682C54.5595 53.4765 52.1653 55.6676 49.4872 57.469C44.7238 60.6448 39.1922 62.4771 33.4749 62.773C27.7576 63.069 22.0664 61.8176 17.0005 59.1507C11.9347 56.4838 7.68189 52.5001 4.68999 47.6192C1.6981 42.7382 0.0778783 37.1408 0 31.4164C0.0855954 24.8653 2.19051 18.5002 6.02748 13.1897C9.86446 7.87914 15.2466 3.8819 21.4394 1.74343C27.6322 -0.395048 34.3341 -0.570581 40.6303 1.24078C46.9266 3.05214 52.5106 6.76215 56.6203 11.8645C61.0974 17.3971 63.5388 24.2993 63.5361 31.4164H63.5064Z" fill="url(#paint15_linear_2_346)"/>
<path d="M49.5162 5.36353V19.195C48.0957 17.6161 46.3609 16.3513 44.4231 15.482C42.4852 14.6126 40.3871 14.1577 38.2632 14.1465C29.4605 14.1465 22.3372 21.8922 22.3372 31.4359C22.3372 40.9797 29.4605 48.7056 38.2632 48.7056C40.3857 48.6975 42.4831 48.246 44.421 47.38C46.3588 46.5141 48.0943 45.2527 49.5162 43.6768V57.5084C52.1942 55.7069 54.5884 53.5158 56.6196 51.0075V11.8643C54.5936 9.35121 52.1986 7.15941 49.5162 5.36353ZM49.5162 34.2319C48.8187 36.8069 47.1684 39.0204 44.8996 40.4238C42.6308 41.8272 39.9132 42.3154 37.2978 41.7896C34.6824 41.2638 32.3647 39.7632 30.8145 37.592C29.2644 35.4208 28.5977 32.7415 28.9497 30.097C29.3016 27.4526 30.6459 25.0409 32.71 23.3507C34.774 21.6605 37.4035 20.8184 40.0654 20.995C42.7274 21.1715 45.2226 22.3535 47.0453 24.3015C48.8681 26.2494 49.8821 28.8176 49.8817 31.4853C49.883 32.4293 49.7601 33.3694 49.5162 34.2813V34.2319Z" fill="white"/>
<defs>
<linearGradient id="paint0_linear_2_346" x1="70.6593" y1="38.3321" x2="308.255" y2="38.3321" gradientUnits="userSpaceOnUse">
<stop stop-color="white"/>
<stop offset="1" stop-color="white"/>
</linearGradient>
<linearGradient id="paint1_linear_2_346" x1="70.6595" y1="32.1276" x2="308.255" y2="32.1276" gradientUnits="userSpaceOnUse">
<stop stop-color="white"/>
<stop offset="1" stop-color="white"/>
</linearGradient>
<linearGradient id="paint2_linear_2_346" x1="70.6592" y1="32.276" x2="308.255" y2="32.276" gradientUnits="userSpaceOnUse">
<stop stop-color="white"/>
<stop offset="1" stop-color="white"/>
</linearGradient>
<linearGradient id="paint3_linear_2_346" x1="70.6589" y1="31.0508" x2="308.255" y2="31.0508" gradientUnits="userSpaceOnUse">
<stop stop-color="white"/>
<stop offset="1" stop-color="white"/>
</linearGradient>
<linearGradient id="paint4_linear_2_346" x1="70.6595" y1="28.8476" x2="308.255" y2="28.8476" gradientUnits="userSpaceOnUse">
<stop stop-color="white"/>
<stop offset="1" stop-color="white"/>
</linearGradient>
<linearGradient id="paint5_linear_2_346" x1="70.6594" y1="32.2957" x2="308.255" y2="32.2957" gradientUnits="userSpaceOnUse">
<stop stop-color="white"/>
<stop offset="1" stop-color="white"/>
</linearGradient>
<linearGradient id="paint6_linear_2_346" x1="70.6593" y1="32.2759" x2="308.255" y2="32.2759" gradientUnits="userSpaceOnUse">
<stop stop-color="white"/>
<stop offset="1" stop-color="white"/>
</linearGradient>
<linearGradient id="paint7_linear_2_346" x1="70.6597" y1="28.8476" x2="308.256" y2="28.8476" gradientUnits="userSpaceOnUse">
<stop stop-color="white"/>
<stop offset="1" stop-color="white"/>
</linearGradient>
<linearGradient id="paint8_linear_2_346" x1="313.669" y1="43.598" x2="504.989" y2="43.598" gradientUnits="userSpaceOnUse">
<stop stop-color="#04D4F1"/>
<stop offset="1" stop-color="#0983F0"/>
</linearGradient>
<linearGradient id="paint9_linear_2_346" x1="313.669" y1="32.2758" x2="504.998" y2="32.2758" gradientUnits="userSpaceOnUse">
<stop stop-color="#04D4F1"/>
<stop offset="1" stop-color="#0983F0"/>
</linearGradient>
<linearGradient id="paint10_linear_2_346" x1="313.669" y1="28.8575" x2="504.998" y2="28.8575" gradientUnits="userSpaceOnUse">
<stop stop-color="#04D4F1"/>
<stop offset="1" stop-color="#0983F0"/>
</linearGradient>
<linearGradient id="paint11_linear_2_346" x1="313.67" y1="32.592" x2="504.999" y2="32.592" gradientUnits="userSpaceOnUse">
<stop stop-color="#04D4F1"/>
<stop offset="1" stop-color="#0983F0"/>
</linearGradient>
<linearGradient id="paint12_linear_2_346" x1="313.669" y1="27.5138" x2="504.998" y2="27.5138" gradientUnits="userSpaceOnUse">
<stop stop-color="#04D4F1"/>
<stop offset="1" stop-color="#0983F0"/>
</linearGradient>
<linearGradient id="paint13_linear_2_346" x1="313.67" y1="26.0617" x2="504.999" y2="26.0617" gradientUnits="userSpaceOnUse">
<stop stop-color="#04D4F1"/>
<stop offset="1" stop-color="#0983F0"/>
</linearGradient>
<linearGradient id="paint14_linear_2_346" x1="313.669" y1="32.2859" x2="504.999" y2="32.2859" gradientUnits="userSpaceOnUse">
<stop stop-color="#04D4F1"/>
<stop offset="1" stop-color="#0983F0"/>
</linearGradient>
<linearGradient id="paint15_linear_2_346" x1="4.34705" y1="15.5398" x2="58.4382" y2="46.7694" gradientUnits="userSpaceOnUse">
<stop stop-color="#07D9EF"/>
<stop offset="1" stop-color="#0280EC"/>
</linearGradient>
</defs>
</svg>
