<svg width="26" height="26" viewBox="0 0 26 26" fill="none" xmlns="http://www.w3.org/2000/svg">
<path d="M12.83 25.66C19.9158 25.66 25.66 19.9158 25.66 12.83C25.66 5.74419 19.9158 0 12.83 0C5.74419 0 0 5.74419 0 12.83C0 19.9158 5.74419 25.66 12.83 25.66Z" fill="url(#paint0_radial_11_1999)"/>
<path d="M25.4418 12.5605C25.4945 15.0541 24.8067 17.5073 23.4652 19.61C22.1238 21.7127 20.189 23.3705 17.9055 24.3737C15.622 25.3769 13.0923 25.6805 10.6363 25.2461C8.18027 24.8118 5.90817 23.6589 4.10727 21.9333C2.30638 20.2078 1.05755 17.987 0.518691 15.5517C-0.0201687 13.1165 0.175133 10.5762 1.0799 8.2519C1.98468 5.92764 3.55829 3.92384 5.60179 2.49384C7.64528 1.06383 10.0669 0.271846 12.5605 0.218007C15.9046 0.149202 19.1394 1.4103 21.5545 3.7244C23.9696 6.0385 25.3677 9.21645 25.4418 12.5605Z" fill="url(#paint1_radial_11_1999)"/>
<path d="M25.2238 12.2777C25.333 14.7291 24.7128 17.1579 23.4417 19.2568C22.1706 21.3557 20.3056 23.0306 18.0825 24.0696C15.8595 25.1086 13.3783 25.465 10.9527 25.0938C8.52709 24.7226 6.26604 23.6405 4.45547 21.9842C2.64489 20.3279 1.36613 18.172 0.780882 15.789C0.195637 13.4059 0.330199 10.9029 1.16755 8.59631C2.00491 6.28976 3.50744 4.28331 5.48514 2.83072C7.46284 1.37812 9.82688 0.544612 12.2783 0.435601C15.5653 0.289433 18.7757 1.45493 21.2035 3.67572C23.6312 5.89651 25.0773 8.99071 25.2238 12.2777Z" fill="url(#paint2_radial_11_1999)"/>
<path d="M25.0057 12.0095C25.1676 14.417 24.6121 16.8186 23.4093 18.9105C22.2064 21.0023 20.4104 22.6906 18.2481 23.7617C16.0859 24.8329 13.6546 25.2389 11.2616 24.9283C8.86864 24.6178 6.6215 23.6047 4.80429 22.0171C2.98708 20.4295 1.68142 18.3387 1.05239 16.0091C0.423356 13.6795 0.499206 11.2157 1.27035 8.92923C2.04149 6.64274 3.47329 4.63624 5.38471 3.16344C7.29613 1.69064 9.60135 0.817668 12.0089 0.65491C15.2374 0.440056 18.4192 1.51502 20.8559 3.64384C23.2926 5.77265 24.7851 8.78134 25.0057 12.0095Z" fill="url(#paint3_radial_11_1999)"/>
<path d="M24.7876 11.7271C25.0059 14.0922 24.518 16.469 23.3856 18.5568C22.2531 20.6446 20.5269 22.3497 18.4254 23.4565C16.3238 24.5632 13.9413 25.022 11.579 24.7746C9.21675 24.5273 6.98088 23.585 5.15416 22.0669C3.32744 20.5488 1.99192 18.5232 1.31648 16.246C0.641045 13.9689 0.656032 11.5427 1.35955 9.27407C2.06306 7.00547 3.42351 4.99644 5.26884 3.50105C7.11418 2.00565 9.36151 1.09105 11.7266 0.872913C14.8972 0.583897 18.053 1.56438 20.5016 3.59924C22.9501 5.6341 24.4915 8.55716 24.7876 11.7271Z" fill="url(#paint4_radial_11_1999)"/>
<path d="M24.5693 11.4568C24.8402 13.7779 24.4167 16.1272 23.3525 18.2076C22.2883 20.288 20.6312 22.0062 18.5906 23.1449C16.55 24.2836 14.2175 24.7917 11.8882 24.6049C9.55887 24.4182 7.33721 23.545 5.50409 22.0957C3.67098 20.6464 2.30873 18.6862 1.58959 16.4628C0.870439 14.2394 0.826681 11.8527 1.46384 9.60439C2.10101 7.35612 3.39048 5.34725 5.16924 3.83176C6.94799 2.31627 9.13616 1.36221 11.4571 1.0902C14.5701 0.728781 17.6993 1.61744 20.1577 3.56107C22.6161 5.50469 24.2028 8.34444 24.5693 11.4568Z" fill="url(#paint5_radial_11_1999)"/>
<path d="M24.3771 11.1746C24.6978 13.4512 24.3369 15.7719 23.3399 17.8436C22.343 19.9154 20.7547 21.6454 18.7754 22.8153C16.7962 23.9852 14.5148 24.5426 12.2191 24.4172C9.92336 24.2917 7.71625 23.489 5.87629 22.1104C4.03634 20.7318 2.646 18.839 1.88074 16.671C1.11548 14.5029 1.0096 12.1568 1.57646 9.9286C2.14332 7.70043 3.35752 5.69012 5.06581 4.15136C6.77411 2.61261 8.89994 1.61438 11.175 1.28265C12.6917 1.06321 14.2367 1.14517 15.7216 1.52382C17.2066 1.90247 18.6022 2.57037 19.8286 3.48927C21.055 4.40816 22.088 5.55998 22.8685 6.87876C23.649 8.19754 24.1617 9.65735 24.3771 11.1746Z" fill="url(#paint6_radial_11_1999)"/>
<path d="M24.1332 10.9051C24.5149 13.1416 24.2246 15.4412 23.2991 17.5128C22.3737 19.5844 20.8546 21.3349 18.9341 22.5431C17.0136 23.7512 14.7779 24.3626 12.5099 24.3C10.2419 24.2373 8.04335 23.5034 6.19247 22.1911C4.34159 20.8788 2.92149 19.047 2.11181 16.9275C1.30213 14.808 1.13924 12.4959 1.64376 10.2838C2.14827 8.07174 3.29752 6.05896 4.94613 4.5001C6.59474 2.94125 8.66864 1.90636 10.9055 1.52634C13.9032 1.01706 16.9804 1.71888 19.4608 3.47754C21.9412 5.2362 23.6218 7.90778 24.1332 10.9051Z" fill="url(#paint7_radial_11_1999)"/>
<path d="M23.915 10.6357C24.3497 12.8289 24.1242 15.1017 23.267 17.1667C22.4098 19.2317 20.9595 20.9961 19.0995 22.2367C17.2394 23.4773 15.0532 24.1385 12.8174 24.1365C10.5815 24.1345 8.39653 23.4695 6.5387 22.2255C4.68086 20.9816 3.23367 19.2146 2.38018 17.1481C1.52668 15.0816 1.30523 12.8084 1.74381 10.616C2.1824 8.42359 3.26134 6.41052 4.84414 4.83139C6.42695 3.25226 8.44253 2.17801 10.6359 1.74452C13.5754 1.16704 16.624 1.7787 19.1132 3.4454C21.6025 5.1121 23.3292 7.69784 23.915 10.6357Z" fill="url(#paint8_radial_11_1999)"/>
<path d="M23.6971 10.3537C24.1878 12.5038 24.0297 14.7512 23.243 16.8115C22.4563 18.8719 21.0762 20.6526 19.2772 21.9285C17.4783 23.2043 15.3414 23.918 13.1368 23.9793C10.9323 24.0405 8.75904 23.4465 6.89207 22.2725C5.0251 21.0985 3.54826 19.3971 2.64836 17.3836C1.74846 15.3701 1.46593 13.135 1.8365 10.9609C2.20707 8.78684 3.2141 6.7715 4.73021 5.16983C6.24631 3.56815 8.20338 2.4521 10.3539 1.96284C13.2356 1.31068 16.2584 1.8277 18.7596 3.40057C21.2608 4.97344 23.0364 7.47383 23.6971 10.3537Z" fill="url(#paint9_radial_11_1999)"/>
<path d="M23.4787 10.0846C24.0213 12.1904 23.9273 14.4097 23.2086 16.462C22.4899 18.5143 21.1788 20.3074 19.4411 21.6147C17.7034 22.9219 15.6171 23.6845 13.446 23.8061C11.2749 23.9277 9.11645 23.4028 7.24364 22.2978C5.37083 21.1927 3.86773 19.5572 2.92439 17.598C1.98105 15.6387 1.63982 13.4438 1.94386 11.2906C2.2479 9.13749 3.18355 7.12284 4.63251 5.50141C6.08146 3.87999 7.97866 2.72461 10.0842 2.18135C12.9083 1.45621 15.9048 1.88111 18.416 3.36281C20.9272 4.84451 22.748 7.26196 23.4787 10.0846Z" fill="url(#paint10_radial_11_1999)"/>
<path d="M23.2609 9.8025C23.8613 11.8667 23.8359 14.0627 23.188 16.1125C22.5401 18.1623 21.2988 19.9739 19.6211 21.3181C17.9434 22.6623 15.9047 23.4786 13.7629 23.6639C11.6211 23.8492 9.47254 23.3951 7.58891 22.359C5.70529 21.3229 4.17128 19.7514 3.18097 17.8434C2.19066 15.9353 1.78853 13.7763 2.02547 11.6397C2.26241 9.50298 3.12776 7.48458 4.51206 5.83982C5.89635 4.19505 7.73738 2.99782 9.80224 2.39959C11.172 2.00098 12.6069 1.87631 14.0249 2.03271C15.443 2.1891 16.8162 2.6235 18.0662 3.31105C19.3162 3.9986 20.4184 4.92582 21.3097 6.03968C22.2011 7.15354 22.8641 8.43219 23.2609 9.8025Z" fill="url(#paint11_radial_11_1999)"/>
<path d="M23.0941 9.53228C23.7312 11.5508 23.7568 13.7128 23.1676 15.7458C22.5785 17.7789 21.401 19.5922 19.7834 20.9574C18.1658 22.3226 16.1804 23.1787 14.0772 23.4178C11.9741 23.6569 9.84718 23.2684 7.96439 22.3011C6.08159 21.3339 4.52708 19.8312 3.49659 17.9823C2.4661 16.1334 2.00571 14.0209 2.1734 11.9108C2.34108 9.80078 3.12935 7.78752 4.43893 6.12456C5.74851 4.4616 7.52086 3.2233 9.53278 2.5656C10.8804 2.12506 12.302 1.95606 13.7153 2.06838C15.1286 2.1807 16.5056 2.5721 17.7667 3.21995C19.0278 3.86781 20.148 4.75925 21.0624 5.84274C21.9768 6.92622 22.6674 8.18025 23.0941 9.53228Z" fill="url(#paint12_radial_11_1999)"/>
<path d="M22.8116 9.25005C23.5164 11.2238 23.6202 13.3622 23.1097 15.3949C22.5993 17.4276 21.4976 19.2633 19.944 20.67C18.3903 22.0766 16.4545 22.991 14.3812 23.2975C12.308 23.604 10.1903 23.2889 8.29614 22.3921C6.40193 21.4952 4.81618 20.0568 3.73939 18.2588C2.66259 16.4607 2.14311 14.3838 2.24661 12.2905C2.35011 10.1973 3.07195 8.18171 4.32087 6.49867C5.56979 4.81563 7.2897 3.54069 9.26314 2.83505C10.5739 2.36635 11.9642 2.16049 13.3546 2.22924C14.745 2.29799 16.1082 2.63999 17.3664 3.23572C18.6245 3.83144 19.753 4.66921 20.6873 5.70117C21.6216 6.73312 22.3435 7.93905 22.8116 9.25005Z" fill="url(#paint13_radial_11_1999)"/>
<path d="M22.5937 8.98115C23.3527 10.9128 23.5219 13.0261 23.0799 15.0539C22.638 17.0817 21.6047 18.9329 20.1108 20.3736C18.6169 21.8142 16.7294 22.7796 14.6869 23.1477C12.6444 23.5157 10.5386 23.2699 8.63578 22.4414C6.73295 21.6128 5.1185 20.2387 3.99654 18.4927C2.87457 16.7467 2.29546 14.7073 2.33241 12.6322C2.36937 10.5571 3.02074 8.5396 4.20417 6.83467C5.38759 5.12975 7.04995 3.81397 8.98108 3.05369C10.2639 2.54684 11.6341 2.29815 13.0132 2.32186C14.3923 2.34558 15.7531 2.64124 17.0177 3.1919C18.2823 3.74256 19.4258 4.53739 20.3827 5.53082C21.3395 6.52426 22.0909 7.69677 22.5937 8.98115Z" fill="url(#paint14_radial_11_1999)"/>
<path d="M22.3756 8.71111C23.189 10.5983 23.4247 12.6844 23.0527 14.7055C22.6808 16.7267 21.7179 18.5922 20.2859 20.0662C18.8539 21.5401 17.017 22.5565 15.0074 22.9866C12.9978 23.4168 10.9059 23.2415 8.99592 22.4829C7.08598 21.7243 5.44383 20.4165 4.27706 18.7247C3.1103 17.033 2.47132 15.0333 2.4409 12.9784C2.41047 10.9236 2.98997 8.90583 4.10613 7.18027C5.2223 5.45472 6.82501 4.09883 8.71166 3.28402C9.96489 2.74093 11.313 2.45052 12.6787 2.42946C14.0444 2.40839 15.4008 2.65708 16.6702 3.16126C17.9396 3.66543 19.0969 4.41519 20.076 5.36755C21.0551 6.31991 21.8365 7.45614 22.3756 8.71111Z" fill="url(#paint15_radial_11_1999)"/>
<path d="M22.1576 8.42877C23.0131 10.265 23.3061 12.3134 22.9997 14.3159C22.6933 16.3184 21.8012 18.1855 20.4357 19.6819C19.0702 21.1784 17.2924 22.2373 15.3263 22.7253C13.3601 23.2133 11.2935 23.1085 9.38679 22.4242C7.48006 21.7399 5.81845 20.5067 4.61126 18.8799C3.40407 17.253 2.70529 15.3054 2.60293 13.2821C2.50057 11.2589 2.9992 9.25065 4.03604 7.51028C5.07287 5.76991 6.60152 4.37528 8.42946 3.50205C9.65322 2.91744 10.9807 2.58115 12.3352 2.51262C13.6897 2.4441 15.0443 2.64468 16.3208 3.1028C17.5974 3.56091 18.7704 4.26746 19.7722 5.18162C20.7741 6.09578 21.5848 7.19942 22.1576 8.42877Z" fill="url(#paint16_radial_11_1999)"/>
<path d="M21.9393 8.15969C22.8712 9.96574 23.2461 12.0078 23.0163 14.0271C22.7865 16.0465 21.9624 17.9521 20.6484 19.5026C19.3344 21.053 17.5897 22.1785 15.6354 22.7363C13.6811 23.2942 11.6052 23.2593 9.67076 22.6361C7.73631 22.0129 6.03042 20.8294 4.76928 19.2357C3.50814 17.642 2.74853 15.7097 2.5867 13.6838C2.42488 11.6579 2.86813 9.62957 3.86029 7.85585C4.85245 6.08213 6.34884 4.64288 8.15983 3.72051C10.5771 2.48935 13.3834 2.26518 15.9655 3.09701C18.5475 3.92884 20.6952 5.74902 21.9393 8.15969Z" fill="url(#paint17_radial_11_1999)"/>
<path d="M21.7213 7.87753C22.6998 9.63556 23.1351 11.6442 22.9721 13.6496C22.8092 15.655 22.0553 17.567 20.8058 19.144C19.5563 20.721 17.8673 21.8921 15.9523 22.5093C14.0373 23.1264 11.9823 23.162 10.0471 22.6114C8.11189 22.0608 6.38341 20.9487 5.08014 19.4159C3.77687 17.8831 2.95733 15.9982 2.72515 13.9997C2.49296 12.0011 2.85855 9.9786 3.77568 8.1878C4.69282 6.397 6.12033 4.91833 7.87774 3.93873C9.04525 3.28794 10.3295 2.87359 11.6573 2.71934C12.985 2.56509 14.33 2.67397 15.6156 3.03976C16.9013 3.40554 18.1022 4.02106 19.1498 4.85115C20.1975 5.68124 21.0713 6.70962 21.7213 7.87753Z" fill="url(#paint18_radial_11_1999)"/>
<path d="M21.5029 7.60818C22.5355 9.32344 23.0362 11.3063 22.9418 13.3062C22.8474 15.306 22.1621 17.2329 20.9726 18.8433C19.7831 20.4536 18.1428 21.6751 16.2591 22.3533C14.3754 23.0314 12.3329 23.1358 10.3899 22.6532C8.44694 22.1706 6.69067 21.1227 5.34322 19.6419C3.99576 18.1612 3.11763 16.3142 2.81987 14.3344C2.52211 12.3546 2.81808 10.331 3.67037 8.51945C4.52265 6.70788 5.89297 5.18971 7.60805 4.15691C8.74652 3.46937 10.0095 3.01322 11.3245 2.81457C12.6396 2.61593 13.9809 2.67871 15.2716 2.99931C16.5624 3.31992 17.7772 3.89204 18.8465 4.68291C19.9158 5.47378 20.8185 6.46786 21.5029 7.60818Z" fill="url(#paint19_radial_11_1999)"/>
<path d="M21.2851 7.32554C22.3739 8.9971 22.9424 10.954 22.9189 12.9488C22.8953 14.9435 22.2806 16.8865 21.1525 18.5318C20.0245 20.1772 18.4338 21.451 16.5817 22.1921C14.7296 22.9333 12.6993 23.1084 10.7476 22.6955C8.79595 22.2825 7.01059 21.3 5.61742 19.8722C4.22425 18.4444 3.28585 16.6354 2.92094 14.6742C2.55604 12.7129 2.78102 10.6875 3.56742 8.85419C4.35382 7.02084 5.66632 5.46192 7.33887 4.37464C8.44801 3.65161 9.68883 3.15435 10.9903 2.91134C12.2919 2.66832 13.6285 2.68431 14.9238 2.95839C16.2192 3.23247 17.4477 3.75926 18.5393 4.50863C19.6308 5.25799 20.5639 6.21522 21.2851 7.32554Z" fill="url(#paint20_radial_11_1999)"/>
<path d="M21.0667 7.05696C22.2086 8.68605 22.8418 10.6172 22.8861 12.6061C22.9305 14.595 22.3841 16.5524 21.316 18.2308C20.2479 19.9092 18.706 21.2331 16.8855 22.0353C15.0649 22.8374 13.0474 23.0816 11.0881 22.7371C9.12869 22.3926 7.31548 21.4748 5.87772 20.0998C4.43996 18.7248 3.44223 16.9544 3.01068 15.0123C2.57914 13.0702 2.73317 11.0438 3.4533 9.18933C4.17343 7.33482 5.42731 5.7355 7.05639 4.5936C8.13748 3.83375 9.35787 3.29466 10.6476 3.00719C11.9374 2.71973 13.2712 2.68954 14.5727 2.91837C15.8741 3.1472 17.1176 3.63054 18.232 4.34071C19.3464 5.05088 20.3097 5.97392 21.0667 7.05696Z" fill="url(#paint21_radial_11_1999)"/>
<path d="M20.8488 6.78698C22.039 8.37472 22.7322 10.2793 22.8412 12.2606C22.9502 14.2419 22.47 16.211 21.4612 17.9197C20.4524 19.6284 18.9601 21.0001 17.1727 21.8617C15.3853 22.7233 13.3827 23.0363 11.4176 22.7612C9.45254 22.4861 7.61293 21.6352 6.13084 20.3158C4.64876 18.9965 3.59058 17.2677 3.08979 15.3477C2.589 13.4277 2.66803 11.4024 3.31691 9.5272C3.96579 7.65203 5.15545 6.01103 6.73583 4.81116C7.79005 4.00864 8.99278 3.42286 10.2746 3.08765C11.5564 2.75244 12.8919 2.67443 14.2041 2.85813C15.5162 3.04183 16.7789 3.4836 17.9194 4.15793C19.0599 4.83226 20.0555 5.72581 20.8488 6.78698Z" fill="url(#paint22_radial_11_1999)"/>
<path d="M20.6306 6.50554C21.8843 8.04825 22.6522 9.92824 22.837 11.9076C23.0218 13.8869 22.6152 15.8765 21.6686 17.6246C20.7221 19.3727 19.2782 20.8007 17.5197 21.7278C15.7612 22.6549 13.7672 23.0395 11.79 22.8328C9.81288 22.6261 7.94151 21.8374 6.4128 20.5666C4.88408 19.2959 3.76675 17.6001 3.20225 15.694C2.63774 13.788 2.65144 11.7572 3.24161 9.85895C3.83177 7.96065 4.97187 6.28012 6.51759 5.03009C8.586 3.35736 11.2334 2.5733 13.8791 2.8499C16.5249 3.12649 18.9529 4.44117 20.6306 6.50554Z" fill="url(#paint23_radial_11_1999)"/>
<path d="M20.4124 6.23566C21.7244 7.73251 22.5622 9.58537 22.8194 11.5591C23.0767 13.5329 22.7418 15.5386 21.8572 17.3217C20.9727 19.1049 19.5784 20.585 17.8512 21.5744C16.124 22.5638 14.1419 23.0178 12.1563 22.8788C10.1707 22.7398 8.27112 22.0141 6.69864 20.7937C5.12616 19.5734 3.95165 17.9134 3.32415 16.0244C2.69665 14.1355 2.64445 12.1027 3.17416 10.184C3.70387 8.26529 4.79162 6.54721 6.29938 5.24775C8.30658 3.51785 10.916 2.65103 13.5593 2.83607C16.2026 3.0211 18.6658 4.24299 20.4124 6.23566Z" fill="url(#paint24_radial_11_1999)"/>
<path d="M20.1944 5.95392C21.553 7.41014 22.4494 9.23647 22.7702 11.202C23.091 13.1676 22.8219 15.1842 21.9968 16.9968C21.1718 18.8095 19.8278 20.3368 18.1349 21.3858C16.442 22.4348 14.476 22.9583 12.4856 22.8901C10.4952 22.822 8.56965 22.1653 6.9524 21.003C5.33516 19.8407 4.09881 18.225 3.39965 16.3602C2.70049 14.4953 2.56991 12.4651 3.0244 10.5261C3.4789 8.58703 4.49808 6.82628 5.95309 5.46638C6.91992 4.56275 8.05536 3.85852 9.2945 3.39394C10.5336 2.92937 11.8522 2.71355 13.1748 2.75883C14.4974 2.8041 15.7981 3.10959 17.0025 3.65782C18.207 4.20606 19.2916 4.98629 20.1944 5.95392Z" fill="url(#paint25_radial_11_1999)"/>
<path d="M19.9765 5.68413C21.3911 7.09775 22.3547 8.89918 22.7454 10.8605C23.1361 12.8219 22.9363 14.8551 22.1713 16.7028C21.4063 18.5506 20.1105 20.13 18.4478 21.2413C16.785 22.3525 14.8301 22.9456 12.8302 22.9456C10.8303 22.9456 8.87532 22.3525 7.21258 21.2413C5.54983 20.13 4.25401 18.5506 3.48901 16.7028C2.72402 14.8551 2.52423 12.8219 2.91492 10.8605C3.30561 8.89918 4.26922 7.09775 5.68386 5.68413C6.62171 4.74457 7.73563 3.99916 8.96188 3.49058C10.1881 2.982 11.5026 2.72021 12.8302 2.72021C14.1577 2.72021 15.4722 2.982 16.6985 3.49058C17.9247 3.99916 19.0386 4.74457 19.9765 5.68413Z" fill="url(#paint26_radial_11_1999)"/>
<path d="M2.8097 12.8308C2.8097 10.849 3.39738 8.91166 4.49841 7.26384C5.59945 5.61602 7.1644 4.3317 8.99535 3.5733C10.8263 2.81489 12.841 2.61645 14.7848 3.00309C16.7285 3.38972 18.5139 4.34405 19.9153 5.74541C21.3167 7.14676 22.271 8.9322 22.6576 10.8759C23.0443 12.8197 22.8458 14.8344 22.0874 16.6654C21.329 18.4963 20.0447 20.0613 18.3969 21.1623C16.7491 22.2633 14.8117 22.851 12.8299 22.851C11.5136 22.8527 10.2098 22.5947 8.99336 22.0917C7.77688 21.5887 6.67159 20.8507 5.74079 19.9199C4.80999 18.9891 4.07197 17.8838 3.56901 16.6674C3.06604 15.4509 2.80801 14.1471 2.8097 12.8308V12.8308Z" stroke="#000D20" stroke-width="0.5" stroke-miterlimit="10"/>
<path d="M12.8301 7.69823C12.3627 7.67836 11.8966 7.76016 11.4639 7.93797C11.0312 8.11579 10.6422 8.38538 10.3238 8.72814C10.0055 9.0709 9.76529 9.47867 9.61985 9.9233C9.47441 10.3679 9.42719 10.8388 9.48144 11.3035C9.48144 14.8574 12.8814 18.1803 12.8814 18.1803C12.8814 18.1803 16.2685 14.8574 16.2685 11.3035C16.3007 10.8359 16.2351 10.3667 16.0759 9.92581C15.9168 9.48496 15.6675 9.0821 15.344 8.74292C15.0205 8.40373 14.6299 8.13567 14.1971 7.9558C13.7642 7.77593 13.2987 7.68821 12.8301 7.69823Z" fill="black"/>
<path d="M14.4046 11.0401C14.4153 10.1969 13.7405 9.50474 12.8974 9.49399C12.0542 9.48325 11.362 10.158 11.3513 11.0012C11.3405 11.8443 12.0153 12.5365 12.8585 12.5473C13.7016 12.558 14.3938 11.8832 14.4046 11.0401Z" fill="#FAFCFB"/>
<defs>
<radialGradient id="paint0_radial_11_1999" cx="0" cy="0" r="1" gradientUnits="userSpaceOnUse" gradientTransform="translate(14.1238 1.92809) scale(30.8782)">
<stop offset="0.13" stop-color="white"/>
<stop offset="0.34" stop-color="#FCFCFD"/>
<stop offset="0.52" stop-color="#F1F5F7"/>
<stop offset="0.69" stop-color="#DFE7EC"/>
<stop offset="0.85" stop-color="#C6D5DD"/>
<stop offset="1" stop-color="#A8BECB"/>
</radialGradient>
<radialGradient id="paint1_radial_11_1999" cx="0" cy="0" r="1" gradientUnits="userSpaceOnUse" gradientTransform="translate(14.1668 2.81326) scale(30.4841 30.4841)">
<stop offset="0.13" stop-color="white"/>
<stop offset="0.34" stop-color="#FCFCFD"/>
<stop offset="0.52" stop-color="#F1F5F7"/>
<stop offset="0.69" stop-color="#DFE7EC"/>
<stop offset="0.85" stop-color="#C6D5DD"/>
<stop offset="1" stop-color="#A8BECB"/>
</radialGradient>
<radialGradient id="paint2_radial_11_1999" cx="0" cy="0" r="1" gradientUnits="userSpaceOnUse" gradientTransform="translate(14.2084 3.66876) scale(30.0622 30.0622)">
<stop offset="0.13" stop-color="white"/>
<stop offset="0.34" stop-color="#FCFCFD"/>
<stop offset="0.52" stop-color="#F1F5F7"/>
<stop offset="0.69" stop-color="#DFE7EC"/>
<stop offset="0.85" stop-color="#C6D5DD"/>
<stop offset="1" stop-color="#A8BECB"/>
</radialGradient>
<radialGradient id="paint3_radial_11_1999" cx="0" cy="0" r="1" gradientUnits="userSpaceOnUse" gradientTransform="translate(14.2485 4.49826) scale(29.6157)">
<stop offset="0.13" stop-color="white"/>
<stop offset="0.34" stop-color="#FCFCFD"/>
<stop offset="0.52" stop-color="#F1F5F7"/>
<stop offset="0.69" stop-color="#DFE7EC"/>
<stop offset="0.85" stop-color="#C6D5DD"/>
<stop offset="1" stop-color="#A8BECB"/>
</radialGradient>
<radialGradient id="paint4_radial_11_1999" cx="0" cy="0" r="1" gradientUnits="userSpaceOnUse" gradientTransform="translate(14.2885 5.30029) scale(29.1492 29.1492)">
<stop offset="0.13" stop-color="white"/>
<stop offset="0.34" stop-color="#FCFCFD"/>
<stop offset="0.52" stop-color="#F1F5F7"/>
<stop offset="0.69" stop-color="#DFE7EC"/>
<stop offset="0.85" stop-color="#C6D5DD"/>
<stop offset="1" stop-color="#A8BECB"/>
</radialGradient>
<radialGradient id="paint5_radial_11_1999" cx="0" cy="0" r="1" gradientUnits="userSpaceOnUse" gradientTransform="translate(14.3269 6.07542) scale(28.6627 28.6627)">
<stop offset="0.13" stop-color="white"/>
<stop offset="0.34" stop-color="#FCFCFD"/>
<stop offset="0.52" stop-color="#F1F5F7"/>
<stop offset="0.69" stop-color="#DFE7EC"/>
<stop offset="0.85" stop-color="#C6D5DD"/>
<stop offset="1" stop-color="#A8BECB"/>
</radialGradient>
<radialGradient id="paint6_radial_11_1999" cx="0" cy="0" r="1" gradientUnits="userSpaceOnUse" gradientTransform="translate(14.364 6.82521) scale(28.1608 28.1608)">
<stop offset="0.13" stop-color="white"/>
<stop offset="0.34" stop-color="#FCFCFD"/>
<stop offset="0.52" stop-color="#F1F5F7"/>
<stop offset="0.69" stop-color="#DFE7EC"/>
<stop offset="0.85" stop-color="#C6D5DD"/>
<stop offset="1" stop-color="#A8BECB"/>
</radialGradient>
<radialGradient id="paint7_radial_11_1999" cx="0" cy="0" r="1" gradientUnits="userSpaceOnUse" gradientTransform="translate(14.3994 7.55182) scale(27.6481)">
<stop offset="0.13" stop-color="white"/>
<stop offset="0.34" stop-color="#FCFCFD"/>
<stop offset="0.52" stop-color="#F1F5F7"/>
<stop offset="0.69" stop-color="#DFE7EC"/>
<stop offset="0.85" stop-color="#C6D5DD"/>
<stop offset="1" stop-color="#A8BECB"/>
</radialGradient>
<radialGradient id="paint8_radial_11_1999" cx="0" cy="0" r="1" gradientUnits="userSpaceOnUse" gradientTransform="translate(14.4346 8.25549) scale(27.1247 27.1247)">
<stop offset="0.13" stop-color="white"/>
<stop offset="0.34" stop-color="#FCFCFD"/>
<stop offset="0.52" stop-color="#F1F5F7"/>
<stop offset="0.69" stop-color="#DFE7EC"/>
<stop offset="0.85" stop-color="#C6D5DD"/>
<stop offset="1" stop-color="#A8BECB"/>
</radialGradient>
<radialGradient id="paint9_radial_11_1999" cx="0" cy="0" r="1" gradientUnits="userSpaceOnUse" gradientTransform="translate(14.4702 8.93928) scale(26.5935)">
<stop offset="0.13" stop-color="white"/>
<stop offset="0.34" stop-color="#FCFCFD"/>
<stop offset="0.52" stop-color="#F1F5F7"/>
<stop offset="0.69" stop-color="#DFE7EC"/>
<stop offset="0.85" stop-color="#C6D5DD"/>
<stop offset="1" stop-color="#A8BECB"/>
</radialGradient>
<radialGradient id="paint10_radial_11_1999" cx="0" cy="0" r="1" gradientUnits="userSpaceOnUse" gradientTransform="translate(14.5039 9.60017) scale(26.0593 26.0593)">
<stop offset="0.13" stop-color="white"/>
<stop offset="0.34" stop-color="#FCFCFD"/>
<stop offset="0.52" stop-color="#F1F5F7"/>
<stop offset="0.69" stop-color="#DFE7EC"/>
<stop offset="0.85" stop-color="#C6D5DD"/>
<stop offset="1" stop-color="#A8BECB"/>
</radialGradient>
<radialGradient id="paint11_radial_11_1999" cx="0" cy="0" r="1" gradientUnits="userSpaceOnUse" gradientTransform="translate(14.5396 10.2439) scale(25.5235 25.5235)">
<stop offset="0.13" stop-color="white"/>
<stop offset="0.34" stop-color="#FCFCFD"/>
<stop offset="0.52" stop-color="#F1F5F7"/>
<stop offset="0.69" stop-color="#DFE7EC"/>
<stop offset="0.85" stop-color="#C6D5DD"/>
<stop offset="1" stop-color="#A8BECB"/>
</radialGradient>
<radialGradient id="paint12_radial_11_1999" cx="0" cy="0" r="1" gradientUnits="userSpaceOnUse" gradientTransform="translate(14.5734 10.8681) scale(24.9877 24.9877)">
<stop offset="0.13" stop-color="white"/>
<stop offset="0.34" stop-color="#FCFCFD"/>
<stop offset="0.52" stop-color="#F1F5F7"/>
<stop offset="0.69" stop-color="#DFE7EC"/>
<stop offset="0.85" stop-color="#C6D5DD"/>
<stop offset="1" stop-color="#A8BECB"/>
</radialGradient>
<radialGradient id="paint13_radial_11_1999" cx="0" cy="0" r="1" gradientUnits="userSpaceOnUse" gradientTransform="translate(14.6071 11.4763) scale(24.455 24.455)">
<stop offset="0.13" stop-color="white"/>
<stop offset="0.34" stop-color="#FCFCFD"/>
<stop offset="0.52" stop-color="#F1F5F7"/>
<stop offset="0.69" stop-color="#DFE7EC"/>
<stop offset="0.85" stop-color="#C6D5DD"/>
<stop offset="1" stop-color="#A8BECB"/>
</radialGradient>
<radialGradient id="paint14_radial_11_1999" cx="0" cy="0" r="1" gradientUnits="userSpaceOnUse" gradientTransform="translate(14.6427 12.0711) scale(23.9285 23.9285)">
<stop offset="0.13" stop-color="white"/>
<stop offset="0.34" stop-color="#FCFCFD"/>
<stop offset="0.52" stop-color="#F1F5F7"/>
<stop offset="0.69" stop-color="#DFE7EC"/>
<stop offset="0.85" stop-color="#C6D5DD"/>
<stop offset="1" stop-color="#A8BECB"/>
</radialGradient>
<radialGradient id="paint15_radial_11_1999" cx="0" cy="0" r="1" gradientUnits="userSpaceOnUse" gradientTransform="translate(14.6781 12.6525) scale(23.4081 23.4081)">
<stop offset="0.13" stop-color="white"/>
<stop offset="0.34" stop-color="#FCFCFD"/>
<stop offset="0.52" stop-color="#F1F5F7"/>
<stop offset="0.69" stop-color="#DFE7EC"/>
<stop offset="0.85" stop-color="#C6D5DD"/>
<stop offset="1" stop-color="#A8BECB"/>
</radialGradient>
<radialGradient id="paint16_radial_11_1999" cx="0" cy="0" r="1" gradientUnits="userSpaceOnUse" gradientTransform="translate(14.7136 13.2221) scale(22.8969)">
<stop offset="0.13" stop-color="white"/>
<stop offset="0.34" stop-color="#FCFCFD"/>
<stop offset="0.52" stop-color="#F1F5F7"/>
<stop offset="0.69" stop-color="#DFE7EC"/>
<stop offset="0.85" stop-color="#C6D5DD"/>
<stop offset="1" stop-color="#A8BECB"/>
</radialGradient>
<radialGradient id="paint17_radial_11_1999" cx="0" cy="0" r="1" gradientUnits="userSpaceOnUse" gradientTransform="translate(14.7503 13.7828) scale(22.3966 22.3966)">
<stop offset="0.13" stop-color="white"/>
<stop offset="0.34" stop-color="#FCFCFD"/>
<stop offset="0.52" stop-color="#F1F5F7"/>
<stop offset="0.69" stop-color="#DFE7EC"/>
<stop offset="0.85" stop-color="#C6D5DD"/>
<stop offset="1" stop-color="#A8BECB"/>
</radialGradient>
<radialGradient id="paint18_radial_11_1999" cx="0" cy="0" r="1" gradientUnits="userSpaceOnUse" gradientTransform="translate(14.789 14.3356) scale(21.9085)">
<stop offset="0.13" stop-color="white"/>
<stop offset="0.34" stop-color="#FCFCFD"/>
<stop offset="0.52" stop-color="#F1F5F7"/>
<stop offset="0.69" stop-color="#DFE7EC"/>
<stop offset="0.85" stop-color="#C6D5DD"/>
<stop offset="1" stop-color="#A8BECB"/>
</radialGradient>
<radialGradient id="paint19_radial_11_1999" cx="0" cy="0" r="1" gradientUnits="userSpaceOnUse" gradientTransform="translate(14.8272 14.8838) scale(21.4359)">
<stop offset="0.13" stop-color="white"/>
<stop offset="0.34" stop-color="#FCFCFD"/>
<stop offset="0.52" stop-color="#F1F5F7"/>
<stop offset="0.69" stop-color="#DFE7EC"/>
<stop offset="0.85" stop-color="#C6D5DD"/>
<stop offset="1" stop-color="#A8BECB"/>
</radialGradient>
<radialGradient id="paint20_radial_11_1999" cx="0" cy="0" r="1" gradientUnits="userSpaceOnUse" gradientTransform="translate(14.869 15.4269) scale(20.9801)">
<stop offset="0.13" stop-color="white"/>
<stop offset="0.34" stop-color="#FCFCFD"/>
<stop offset="0.52" stop-color="#F1F5F7"/>
<stop offset="0.69" stop-color="#DFE7EC"/>
<stop offset="0.85" stop-color="#C6D5DD"/>
<stop offset="1" stop-color="#A8BECB"/>
</radialGradient>
<radialGradient id="paint21_radial_11_1999" cx="0" cy="0" r="1" gradientUnits="userSpaceOnUse" gradientTransform="translate(14.9119 15.9697) scale(20.5429)">
<stop offset="0.13" stop-color="white"/>
<stop offset="0.34" stop-color="#FCFCFD"/>
<stop offset="0.52" stop-color="#F1F5F7"/>
<stop offset="0.69" stop-color="#DFE7EC"/>
<stop offset="0.85" stop-color="#C6D5DD"/>
<stop offset="1" stop-color="#A8BECB"/>
</radialGradient>
<radialGradient id="paint22_radial_11_1999" cx="0" cy="0" r="1" gradientUnits="userSpaceOnUse" gradientTransform="translate(14.9568 16.5111) scale(20.1272 20.1272)">
<stop offset="0.13" stop-color="white"/>
<stop offset="0.34" stop-color="#FCFCFD"/>
<stop offset="0.52" stop-color="#F1F5F7"/>
<stop offset="0.69" stop-color="#DFE7EC"/>
<stop offset="0.85" stop-color="#C6D5DD"/>
<stop offset="1" stop-color="#A8BECB"/>
</radialGradient>
<radialGradient id="paint23_radial_11_1999" cx="0" cy="0" r="1" gradientUnits="userSpaceOnUse" gradientTransform="translate(15.0028 17.0554) scale(19.7361)">
<stop offset="0.13" stop-color="white"/>
<stop offset="0.34" stop-color="#FCFCFD"/>
<stop offset="0.52" stop-color="#F1F5F7"/>
<stop offset="0.69" stop-color="#DFE7EC"/>
<stop offset="0.85" stop-color="#C6D5DD"/>
<stop offset="1" stop-color="#A8BECB"/>
</radialGradient>
<radialGradient id="paint24_radial_11_1999" cx="0" cy="0" r="1" gradientUnits="userSpaceOnUse" gradientTransform="translate(15.052 17.603) scale(19.3697)">
<stop offset="0.13" stop-color="white"/>
<stop offset="0.34" stop-color="#FCFCFD"/>
<stop offset="0.52" stop-color="#F1F5F7"/>
<stop offset="0.69" stop-color="#DFE7EC"/>
<stop offset="0.85" stop-color="#C6D5DD"/>
<stop offset="1" stop-color="#A8BECB"/>
</radialGradient>
<radialGradient id="paint25_radial_11_1999" cx="0" cy="0" r="1" gradientUnits="userSpaceOnUse" gradientTransform="translate(15.1029 18.1578) scale(19.0341)">
<stop offset="0.13" stop-color="white"/>
<stop offset="0.34" stop-color="#FCFCFD"/>
<stop offset="0.52" stop-color="#F1F5F7"/>
<stop offset="0.69" stop-color="#DFE7EC"/>
<stop offset="0.85" stop-color="#C6D5DD"/>
<stop offset="1" stop-color="#A8BECB"/>
</radialGradient>
<radialGradient id="paint26_radial_11_1999" cx="0" cy="0" r="1" gradientUnits="userSpaceOnUse" gradientTransform="translate(15.157 18.7209) scale(18.7308 18.7308)">
<stop offset="0.13" stop-color="white"/>
<stop offset="0.34" stop-color="#FCFCFD"/>
<stop offset="0.52" stop-color="#F1F5F7"/>
<stop offset="0.69" stop-color="#DFE7EC"/>
<stop offset="0.85" stop-color="#C6D5DD"/>
<stop offset="1" stop-color="#A8BECB"/>
</radialGradient>
</defs>
</svg>
