<svg width="26" height="26" viewBox="0 0 26 26" fill="none" xmlns="http://www.w3.org/2000/svg">
<path d="M12.8291 25.4255C19.788 25.4255 25.4293 19.7842 25.4293 12.8253C25.4293 5.86639 19.788 0.225098 12.8291 0.225098C5.87018 0.225098 0.228882 5.86639 0.228882 12.8253C0.228882 19.7842 5.87018 25.4255 12.8291 25.4255Z" fill="white"/>
<path d="M25.2104 13.2797C25.4587 6.44218 20.1171 0.69799 13.2796 0.449661C6.44216 0.201331 0.697969 5.5429 0.44964 12.3804C0.201311 19.2179 5.54288 24.9621 12.3804 25.2104C19.2178 25.4587 24.962 20.1171 25.2104 13.2797Z" fill="url(#paint0_radial_11_1966)"/>
<path d="M25.0061 12.289C25.1121 14.6975 24.5015 17.0834 23.2516 19.1449C22.0016 21.2064 20.1683 22.851 17.9837 23.8706C15.799 24.8902 13.3611 25.2391 10.9781 24.8731C8.5952 24.5071 6.37432 23.4427 4.59633 21.8145C2.81835 20.1863 1.56313 18.0674 0.98942 15.7257C0.415705 13.3841 0.549263 10.925 1.3732 8.65925C2.19714 6.39354 3.67446 4.42305 5.61832 2.99696C7.56218 1.57087 9.88528 0.75325 12.2938 0.647489C15.5233 0.505681 18.6768 1.65248 21.0608 3.83564C23.4448 6.01881 24.8639 9.05952 25.0061 12.289Z" fill="url(#paint1_radial_11_1966)"/>
<path d="M24.782 12.0162C24.9415 14.3796 24.3967 16.7372 23.2164 18.7909C22.0361 20.8447 20.2734 22.5024 18.1511 23.5544C16.0288 24.6064 13.6422 25.0055 11.2931 24.7013C8.94396 24.3971 6.73779 23.4031 4.95352 21.8451C3.16924 20.2872 1.88697 18.2351 1.26885 15.9484C0.650726 13.6618 0.724498 11.2431 1.48084 8.9984C2.23718 6.75365 3.64212 4.78356 5.51804 3.33722C7.39396 1.89089 9.6566 1.03325 12.0199 0.872744C13.5896 0.766135 15.165 0.969834 16.656 1.4722C18.1469 1.97457 19.5244 2.76577 20.7095 3.80059C21.8946 4.83541 22.8643 6.09359 23.563 7.50325C24.2618 8.9129 24.676 10.4464 24.782 12.0162Z" fill="url(#paint2_radial_11_1966)"/>
<path d="M24.5703 11.7414C24.7845 14.0636 24.3053 16.3971 23.1933 18.4469C22.0813 20.4967 20.3865 22.1708 18.3231 23.2574C16.2597 24.3439 13.9204 24.7942 11.6011 24.5513C9.28174 24.3084 7.08653 23.3832 5.29304 21.8927C3.49954 20.4022 2.18831 18.4133 1.52515 16.1776C0.861998 13.9418 0.876707 11.5596 1.56742 9.33227C2.25813 7.10489 3.59382 5.13236 5.40559 3.6641C7.21736 2.19584 9.42383 1.29781 11.746 1.08356C13.2878 0.941302 14.8426 1.10413 16.3216 1.56275C17.8005 2.02137 19.1746 2.7668 20.3655 3.75647C21.5563 4.74615 22.5406 5.96069 23.262 7.33075C23.9835 8.70081 24.428 10.1996 24.5703 11.7414Z" fill="url(#paint3_radial_11_1966)"/>
<path d="M24.3586 11.431C24.6323 13.7089 24.2245 16.0168 23.187 18.063C22.1494 20.1093 20.5285 21.802 18.5292 22.9274C16.5298 24.0527 14.2418 24.5601 11.9541 24.3855C9.66651 24.2109 7.48198 23.3621 5.67661 21.9463C3.87125 20.5305 2.52608 18.6114 1.81109 16.4313C1.0961 14.2513 1.04339 11.9083 1.65962 9.69828C2.27585 7.4883 3.53336 5.51059 5.27323 4.01506C7.0131 2.51954 9.15725 1.57334 11.4347 1.29602C12.949 1.11163 14.4847 1.22762 15.9541 1.63734C17.4235 2.04707 18.7977 2.74249 19.9981 3.68381C21.1984 4.62514 22.2014 5.79391 22.9497 7.12324C23.6979 8.45258 24.1767 9.9164 24.3586 11.431Z" fill="url(#paint4_radial_11_1966)"/>
<path d="M24.1469 11.2066C24.4588 13.444 24.1008 15.7236 23.1181 17.7576C22.1353 19.7916 20.5719 21.4888 18.6252 22.6348C16.6785 23.7809 14.4358 24.3244 12.1805 24.1967C9.92508 24.069 7.75812 23.2758 5.95323 21.9174C4.14833 20.5589 2.78645 18.6961 2.03956 16.5641C1.29268 14.4322 1.19428 12.1267 1.75681 9.93891C2.31933 7.75109 3.51754 5.77901 5.20013 4.27172C6.88271 2.76443 8.97422 1.78952 11.2105 1.47013C12.6993 1.25914 14.2152 1.34368 15.6713 1.71893C17.1275 2.09417 18.4954 2.75275 19.6968 3.65701C20.8983 4.56128 21.9097 5.69349 22.6733 6.98891C23.4368 8.28433 23.9376 9.71755 24.1469 11.2066Z" fill="url(#paint5_radial_11_1966)"/>
<path d="M23.8853 10.9325C24.2495 13.1163 23.9586 15.3591 23.0493 17.3778C22.14 19.3964 20.653 21.1005 18.7762 22.2749C16.8993 23.4493 14.7166 24.0413 12.5036 23.9764C10.2905 23.9115 8.1463 23.1924 6.34153 21.91C4.53676 20.6275 3.15233 18.8392 2.36297 16.7707C1.5736 14.7022 1.41468 12.4462 1.90626 10.2875C2.39784 8.12875 3.51789 6.16401 5.12505 4.64123C6.73221 3.11846 8.75445 2.10589 10.9365 1.73134C12.3913 1.48163 13.8811 1.5218 15.3203 1.84953C16.7595 2.17726 18.1198 2.7861 19.323 3.64108C20.5262 4.49605 21.5486 5.58032 22.3316 6.8316C23.1145 8.08288 23.6426 9.47652 23.8853 10.9325Z" fill="url(#paint6_radial_11_1966)"/>
<path d="M23.7112 10.6708C24.1398 12.8231 23.9204 15.0542 23.0807 17.0818C22.2411 19.1094 20.8189 20.8424 18.9942 22.0616C17.1694 23.2807 15.024 23.9313 12.8295 23.931C10.6349 23.9306 8.48972 23.2794 6.66533 22.0597C4.84094 20.8399 3.41931 19.1065 2.58029 17.0786C1.74127 15.0508 1.52255 12.8196 1.95181 10.6674C2.38107 8.51524 3.43902 6.53872 4.99181 4.98791C6.54461 3.43711 8.52248 2.3817 10.6752 1.95521C13.5595 1.38378 16.5527 1.98077 18.997 3.61501C21.4414 5.24925 23.1369 7.78703 23.7112 10.6708Z" fill="url(#paint7_radial_11_1966)"/>
<path d="M23.4995 10.3973C23.98 12.5079 23.8238 14.7137 23.0506 16.7356C22.2775 18.7575 20.9221 20.5046 19.1559 21.7562C17.3897 23.0077 15.292 23.7074 13.1282 23.7667C10.9643 23.826 8.83148 23.2423 6.99938 22.0894C5.16727 20.9365 3.71821 19.2662 2.83544 17.2897C1.95268 15.3132 1.67586 13.1194 2.04 10.9855C2.40414 8.85173 3.39289 6.87382 4.88119 5.30196C6.36949 3.73011 8.2905 2.6349 10.4013 2.15486C13.2312 1.51127 16.2009 2.01806 18.6572 3.56376C21.1135 5.10946 22.8553 7.5675 23.4995 10.3973Z" fill="url(#paint8_radial_11_1966)"/>
<path d="M23.2877 10.1851C23.8152 12.2583 23.7155 14.4414 23.0013 16.4579C22.2871 18.4744 20.9905 20.2336 19.2757 21.5126C17.561 22.7917 15.5052 23.533 13.3688 23.6428C11.2324 23.7526 9.11143 23.2259 7.27459 22.1294C5.43775 21.0329 3.96765 19.4159 3.05049 17.4832C2.13333 15.5506 1.81037 13.3892 2.12251 11.2729C2.43465 9.15652 3.36786 7.18042 4.80393 5.59485C6.24 4.00928 8.11433 2.88557 10.1895 2.36605C12.963 1.6717 15.8987 2.10469 18.3536 3.5702C20.8086 5.0357 22.5828 7.4143 23.2877 10.1851Z" fill="url(#paint9_radial_11_1966)"/>
<path d="M23.0636 9.86185C23.6505 11.8867 23.6237 14.0401 22.9866 16.0497C22.3494 18.0593 21.1307 19.8348 19.4844 21.1517C17.838 22.4685 15.8382 23.2676 13.7377 23.4477C11.6372 23.6278 9.53053 23.181 7.68405 22.1637C5.83756 21.1464 4.33426 19.6043 3.36428 17.7325C2.3943 15.8607 2.00122 13.7433 2.23477 11.6481C2.46831 9.55293 3.31798 7.57406 4.67631 5.9618C6.03464 4.34955 7.8406 3.17635 9.86577 2.5906C11.2098 2.20016 12.6176 2.07857 14.0086 2.2328C15.3997 2.38703 16.7467 2.81405 17.9725 3.48942C19.1983 4.16479 20.279 5.07525 21.1526 6.1687C22.0262 7.26216 22.6756 8.51715 23.0636 9.86185Z" fill="url(#paint10_radial_11_1966)"/>
<path d="M22.852 9.58732C23.4924 11.5698 23.5306 13.6977 22.9617 15.7018C22.3927 17.706 21.2423 19.4965 19.6557 20.8468C18.0692 22.1971 16.1179 23.0466 14.0486 23.2878C11.9792 23.5291 9.8848 23.1513 8.03018 22.2022C6.17556 21.2532 4.64403 19.7754 3.62927 17.9559C2.61452 16.1364 2.16212 14.0568 2.32929 11.9802C2.49646 9.90353 3.27568 7.9231 4.56842 6.28933C5.86116 4.65556 7.60935 3.44183 9.59191 2.80164C12.2501 1.94327 15.1405 2.17594 17.6272 3.44847C20.1139 4.72101 21.9933 6.92919 22.852 9.58732Z" fill="url(#paint11_radial_11_1966)"/>
<path d="M22.6404 9.3145C23.3351 11.2551 23.4387 13.3582 22.938 15.3576C22.4374 17.3571 21.3551 19.1633 19.828 20.5476C18.3009 21.932 16.3975 22.8324 14.3587 23.135C12.3198 23.4376 10.237 23.1287 8.37362 22.2476C6.51026 21.3664 4.95006 19.9524 3.89033 18.1845C2.83059 16.4166 2.31892 14.3742 2.42002 12.3154C2.52112 10.2567 3.23045 8.2742 4.4583 6.61863C5.68616 4.96305 7.37739 3.70877 9.31811 3.01441C11.9202 2.08341 14.7856 2.22412 17.2839 3.40559C19.7823 4.58706 21.7091 6.71253 22.6404 9.3145Z" fill="url(#paint12_radial_11_1966)"/>
<path d="M22.4287 9.03966C23.1792 10.9391 23.3493 13.0186 22.9176 15.0148C22.4858 17.011 21.4715 18.8342 20.0031 20.2537C18.5347 21.6733 16.6781 22.6252 14.6685 22.9892C12.6588 23.3531 10.5863 23.1127 8.71332 22.2983C6.84035 21.4838 5.25109 20.1321 4.14669 18.4141C3.04229 16.696 2.4724 14.689 2.50915 12.647C2.54589 10.6049 3.18763 8.61969 4.35312 6.94252C5.51862 5.26535 7.15548 3.97164 9.05654 3.22514C11.6013 2.22939 14.437 2.28212 16.943 3.3718C19.449 4.46148 21.4214 6.49938 22.4287 9.03966Z" fill="url(#paint13_radial_11_1966)"/>
<path d="M22.2047 8.77877C23.0045 10.6327 23.2366 12.6822 22.8717 14.6681C22.5068 16.654 21.5613 18.4871 20.1546 19.9356C18.748 21.3841 16.9434 22.383 14.9691 22.806C12.9948 23.229 10.9394 23.0571 9.06274 22.312C7.18612 21.567 5.57256 20.2822 4.42607 18.6201C3.27959 16.958 2.65167 14.9934 2.6217 12.9745C2.59173 10.9556 3.16107 8.9731 4.25772 7.27775C5.35438 5.5824 6.9291 4.25029 8.78278 3.44984C10.0137 2.91652 11.3378 2.63132 12.6792 2.61059C14.0205 2.58986 15.3528 2.83401 16.5996 3.32904C17.8464 3.82407 18.9833 4.56026 19.9452 5.49542C20.907 6.43059 21.6748 7.54635 22.2047 8.77877Z" fill="url(#paint14_radial_11_1966)"/>
<path d="M21.9931 8.50456C22.8487 10.3176 23.1474 12.3437 22.8514 14.3266C22.5553 16.3094 21.6778 18.1599 20.3299 19.644C18.982 21.1281 17.2243 22.179 15.279 22.664C13.3337 23.1489 11.2883 23.046 9.40149 22.3683C7.5147 21.6906 5.87128 20.4685 4.67913 18.8566C3.48699 17.2448 2.79967 15.3155 2.70412 13.313C2.60857 11.3105 3.10908 9.32457 4.14235 7.60653C5.17561 5.88848 6.69521 4.51549 8.50891 3.66121C9.71211 3.09267 11.0156 2.76696 12.3448 2.70272C13.674 2.63848 15.0029 2.83696 16.2553 3.28682C17.5077 3.73668 18.6592 4.42907 19.6437 5.32439C20.6283 6.21971 21.4266 7.30038 21.9931 8.50456Z" fill="url(#paint15_radial_11_1966)"/>
<path d="M21.7814 8.2311C22.6908 10.0015 23.0547 12.0018 22.8269 13.979C22.5992 15.9562 21.7901 17.8214 20.502 19.3386C19.214 20.8559 17.5048 21.957 15.5908 22.5026C13.6768 23.0482 11.6439 23.0139 9.74942 22.4039C7.85493 21.7939 6.18395 20.6357 4.94789 19.0757C3.71183 17.5158 2.96623 15.6243 2.80544 13.6406C2.64465 11.6568 3.07589 9.66993 4.04459 7.93131C5.01329 6.19269 6.47593 4.78047 8.24745 3.87333C10.6204 2.65823 13.3785 2.43467 15.9162 3.25175C18.4538 4.06883 20.5633 5.85974 21.7814 8.2311Z" fill="url(#paint16_radial_11_1966)"/>
<path d="M21.5697 7.96921C22.5183 9.69213 22.9356 11.6573 22.7689 13.617C22.6023 15.5767 21.8592 17.4432 20.6334 18.9813C19.4076 20.5193 17.7539 21.66 15.8807 22.2596C14.0076 22.8592 11.9988 22.8908 10.1077 22.3505C8.21662 21.8102 6.5278 20.7221 5.25415 19.2234C3.98051 17.7248 3.17904 15.8826 2.95079 13.9291C2.72254 11.9756 3.07773 9.99826 3.97156 8.24633C4.8654 6.4944 6.25788 5.0463 7.97348 4.08457C9.12008 3.44181 10.3826 3.03235 11.6882 2.8798C12.9937 2.72726 14.3166 2.83463 15.5805 3.19575C16.8444 3.55686 18.0243 4.16456 19.0522 4.98383C20.0802 5.8031 20.9358 6.81772 21.5697 7.96921Z" fill="url(#paint17_radial_11_1966)"/>
<path d="M21.3953 7.69545C22.4099 9.38257 22.9018 11.3325 22.8088 13.299C22.7159 15.2655 22.0423 17.1604 20.8731 18.7443C19.7039 20.3282 18.0915 21.5301 16.2397 22.1983C14.3878 22.8664 12.3795 22.9708 10.4683 22.4982C8.55719 22.0256 6.82894 20.9973 5.50187 19.5431C4.17479 18.0889 3.30841 16.2741 3.01213 14.3278C2.71585 12.3815 3.00297 10.3911 3.83723 8.60787C4.67149 6.82467 6.01547 5.32868 7.69943 4.30883C8.82051 3.62988 10.0646 3.17885 11.3603 2.98161C12.656 2.78436 13.978 2.84478 15.2503 3.15939C16.5226 3.474 17.7204 4.03663 18.7748 4.81502C19.8293 5.59341 20.7198 6.57225 21.3953 7.69545Z" fill="url(#paint18_radial_11_1966)"/>
<path d="M21.1337 7.42105C22.2208 9.07022 22.7931 11.0054 22.7777 12.9805C22.7623 14.9557 22.1601 16.8817 21.0474 18.5138C19.9348 20.1458 18.3621 21.4102 16.5291 22.1463C14.6961 22.8823 12.6857 23.0568 10.7533 22.6475C8.82097 22.2382 7.05394 21.2636 5.67681 19.8476C4.29969 18.4316 3.37466 16.6381 3.01929 14.6951C2.66392 12.7521 2.89426 10.7473 3.68104 8.93552C4.46781 7.12374 5.77549 5.5868 7.43788 4.52002C9.64337 3.10473 12.3178 2.61559 14.8814 3.15862C17.4451 3.70165 19.6915 5.2331 21.1337 7.42105Z" fill="url(#paint19_radial_11_1966)"/>
<path d="M20.9221 7.15939C22.0488 8.75837 22.675 10.656 22.7216 12.6114C22.7681 14.5669 22.2327 16.4921 21.1834 18.1429C20.1341 19.7936 18.6181 21.0955 16.8278 21.8834C15.0375 22.6712 13.0535 22.9095 11.1275 22.5681C9.20147 22.2267 7.42029 21.3209 6.00987 19.9656C4.59945 18.6104 3.62337 16.8667 3.20543 14.9559C2.7875 13.045 2.94655 11.0531 3.66241 9.23276C4.37827 7.41244 5.61868 5.84577 7.22628 4.73149C9.36867 3.25048 12.0089 2.67474 14.5734 3.12935C17.1379 3.58396 19.4194 5.0322 20.9221 7.15939Z" fill="url(#paint20_radial_11_1966)"/>
<path d="M20.7104 6.88596C21.8867 8.44527 22.574 10.3184 22.6855 12.2685C22.7969 14.2185 22.3275 16.1578 21.3366 17.8409C20.3457 19.5241 18.8778 20.8756 17.1187 21.7244C15.3595 22.5732 13.3882 22.8811 11.454 22.6093C9.51977 22.3375 7.70965 21.4981 6.25261 20.1973C4.79556 18.8965 3.75707 17.1928 3.2685 15.3016C2.77992 13.4105 2.86323 11.417 3.50788 9.57322C4.15253 7.72946 5.32955 6.11833 6.89004 4.94364C8.98194 3.37304 11.6111 2.69557 14.2015 3.05963C16.7919 3.42369 19.1325 4.7996 20.7104 6.88596Z" fill="url(#paint21_radial_11_1966)"/>
<path d="M20.4865 6.6117C21.72 8.12275 22.4777 9.96567 22.6637 11.9074C22.8496 13.8491 22.4556 15.8023 21.5313 17.52C20.6071 19.2377 19.1942 20.6427 17.4713 21.5573C15.7484 22.4719 13.793 22.8551 11.8524 22.6582C9.91178 22.4614 8.07313 21.6934 6.56902 20.4515C5.06491 19.2095 3.96291 17.5494 3.40242 15.6811C2.84192 13.8128 2.84811 11.8202 3.4202 9.95538C3.99229 8.09058 5.10458 6.43734 6.61637 5.20476C7.61897 4.38523 8.77333 3.77146 10.0134 3.39859C11.2535 3.02571 12.5549 2.90104 13.8432 3.03173C15.1315 3.16241 16.3814 3.54587 17.5214 4.16017C18.6613 4.77446 19.6689 5.60754 20.4865 6.6117Z" fill="url(#paint22_radial_11_1966)"/>
<path d="M20.2749 6.35113C21.5535 7.82323 22.3669 9.64134 22.6124 11.5757C22.858 13.51 22.5245 15.4736 21.6543 17.2185C20.784 18.9633 19.416 20.411 17.7232 21.3786C16.0304 22.3461 14.0887 22.7901 12.1436 22.6544C10.1985 22.5187 8.3373 21.8094 6.79522 20.6162C5.25315 19.4229 4.09943 17.7993 3.4799 15.9505C2.86038 14.1017 2.80284 12.1108 3.31458 10.2293C3.82631 8.34781 4.88434 6.66027 6.35494 5.37997C7.33164 4.52747 8.46703 3.8762 9.696 3.46351C10.925 3.05082 12.2233 2.88483 13.5166 2.97505C14.8099 3.06528 16.0726 3.40996 17.2323 3.9893C18.3921 4.56865 19.4261 5.37127 20.2749 6.35113Z" fill="url(#paint23_radial_11_1966)"/>
<path d="M20.0631 6.07639C21.3997 7.50751 22.2817 9.30291 22.5977 11.2354C22.9136 13.168 22.6492 15.1508 21.838 16.933C21.0268 18.7153 19.7052 20.2169 18.0404 21.2478C16.3756 22.2788 14.4424 22.7928 12.4854 22.7249C10.5284 22.6569 8.63556 22.01 7.04629 20.866C5.45702 19.722 4.24277 18.1324 3.55715 16.2982C2.87154 14.4639 2.74537 12.4675 3.19461 10.5616C3.64385 8.65565 4.64832 6.92576 6.08092 5.59081C8.00014 3.80241 10.5508 2.849 13.1725 2.94005C15.7943 3.0311 18.2726 4.15915 20.0631 6.07639Z" fill="url(#paint24_radial_11_1966)"/>
<path d="M19.8515 5.80224C21.2504 7.19288 22.2049 8.96759 22.5941 10.9014C22.9832 12.8352 22.7894 14.8409 22.0373 16.6645C21.2851 18.488 20.0085 20.0471 18.3692 21.1442C16.7299 22.2413 14.8018 22.827 12.8292 22.827C10.8567 22.827 8.92853 22.2413 7.28923 21.1442C5.64994 20.0471 4.37329 18.488 3.62114 16.6645C2.86899 14.8409 2.67521 12.8352 3.06435 10.9014C3.45349 8.96759 4.40803 7.19288 5.80698 5.80224C7.67322 3.94706 10.1978 2.90576 12.8292 2.90576C15.4607 2.90576 17.9852 3.94706 19.8515 5.80224Z" fill="url(#paint25_radial_11_1966)"/>
<path d="M2.98054 12.8249C2.97315 10.8755 3.54446 8.96767 4.62213 7.34318C5.6998 5.71868 7.23534 4.45056 9.03427 3.69941C10.8332 2.94827 12.8146 2.74789 14.7275 3.12367C16.6404 3.49945 18.3987 4.43448 19.7798 5.81033C21.1609 7.18618 22.1026 8.94095 22.4856 10.8524C22.8687 12.7638 22.6758 14.746 21.9315 16.5477C21.1872 18.3495 19.9249 19.8899 18.3045 20.9737C16.6841 22.0575 14.7786 22.6361 12.8291 22.6361C10.2236 22.6361 7.72418 21.6036 5.87829 19.7647C4.0324 17.9258 2.99042 15.4304 2.98054 12.8249V12.8249Z" stroke="#000D20" stroke-width="0.5" stroke-miterlimit="10"/>
<path d="M12.8292 14.332L11.5841 13.1865L7.78659 16.4113C7.92862 16.5442 8.11499 16.6197 8.30952 16.6229H17.3488C17.5433 16.6197 17.7297 16.5442 17.8717 16.4113L14.1365 13.2114L12.8292 14.332Z" fill="#030104"/>
<path d="M17.8718 9.26391C17.7297 9.13094 17.5433 9.05551 17.3488 9.05225H8.30955C8.11833 9.05367 7.9352 9.1296 7.79907 9.26391L12.7794 13.5843L17.8718 9.26391Z" fill="#030104"/>
<path d="M7.55011 9.72461V15.9749L11.1982 12.8871L7.55011 9.72461Z" fill="#030104"/>
<path d="M14.4604 12.8874L18.1084 15.9751V9.7124L14.4604 12.8874Z" fill="#030104"/>
<defs>
<radialGradient id="paint0_radial_11_1966" cx="0" cy="0" r="1" gradientUnits="userSpaceOnUse" gradientTransform="translate(15.3087 18.9135) scale(23.4324)">
<stop offset="0.13" stop-color="white"/>
<stop offset="1" stop-color="#FCFCFD"/>
</radialGradient>
<radialGradient id="paint1_radial_11_1966" cx="0" cy="0" r="1" gradientUnits="userSpaceOnUse" gradientTransform="translate(15.2696 18.8132) scale(23.0464)">
<stop offset="0.13" stop-color="white"/>
<stop offset="0.76" stop-color="#FCFDFD"/>
<stop offset="1" stop-color="#F8FAFB"/>
</radialGradient>
<radialGradient id="paint2_radial_11_1966" cx="0" cy="0" r="1" gradientUnits="userSpaceOnUse" gradientTransform="translate(15.2322 18.7147) scale(22.6604 22.6604)">
<stop offset="0.13" stop-color="white"/>
<stop offset="0.67" stop-color="#FCFCFD"/>
<stop offset="1" stop-color="#F5F7F9"/>
</radialGradient>
<radialGradient id="paint3_radial_11_1966" cx="0" cy="0" r="1" gradientUnits="userSpaceOnUse" gradientTransform="translate(15.1824 18.6143) scale(22.2993)">
<stop offset="0.13" stop-color="white"/>
<stop offset="0.61" stop-color="#FCFCFD"/>
<stop offset="1" stop-color="#F2F5F7"/>
</radialGradient>
<radialGradient id="paint4_radial_11_1966" cx="0" cy="0" r="1" gradientUnits="userSpaceOnUse" gradientTransform="translate(15.145 18.5279) scale(21.9507 21.9507)">
<stop offset="0.13" stop-color="white"/>
<stop offset="0.56" stop-color="#FCFCFD"/>
<stop offset="0.93" stop-color="#F1F4F7"/>
<stop offset="1" stop-color="#EEF2F5"/>
</radialGradient>
<radialGradient id="paint5_radial_11_1966" cx="0" cy="0" r="1" gradientUnits="userSpaceOnUse" gradientTransform="translate(15.1201 18.4405) scale(21.6145)">
<stop offset="0.13" stop-color="white"/>
<stop offset="0.53" stop-color="#FCFCFD"/>
<stop offset="0.87" stop-color="#F1F5F7"/>
<stop offset="1" stop-color="#EBF0F3"/>
</radialGradient>
<radialGradient id="paint6_radial_11_1966" cx="0" cy="0" r="1" gradientUnits="userSpaceOnUse" gradientTransform="translate(15.0826 18.3531) scale(21.2908 21.2908)">
<stop offset="0.13" stop-color="white"/>
<stop offset="0.51" stop-color="#FCFCFD"/>
<stop offset="0.83" stop-color="#F1F4F7"/>
<stop offset="1" stop-color="#E8EDF1"/>
</radialGradient>
<radialGradient id="paint7_radial_11_1966" cx="0" cy="0" r="1" gradientUnits="userSpaceOnUse" gradientTransform="translate(15.0454 18.2782) scale(20.992)">
<stop offset="0.13" stop-color="white"/>
<stop offset="0.48" stop-color="#FCFCFD"/>
<stop offset="0.78" stop-color="#F1F5F7"/>
<stop offset="1" stop-color="#E4EBEF"/>
</radialGradient>
<radialGradient id="paint8_radial_11_1966" cx="0" cy="0" r="1" gradientUnits="userSpaceOnUse" gradientTransform="translate(15.0205 18.2039) scale(20.6932 20.6932)">
<stop offset="0.13" stop-color="white"/>
<stop offset="0.47" stop-color="#FCFCFD"/>
<stop offset="0.75" stop-color="#F1F4F7"/>
<stop offset="1" stop-color="#E1E8ED"/>
</radialGradient>
<radialGradient id="paint9_radial_11_1966" cx="0" cy="0" r="1" gradientUnits="userSpaceOnUse" gradientTransform="translate(14.9831 18.1287) scale(20.4193)">
<stop offset="0.13" stop-color="white"/>
<stop offset="0.45" stop-color="#FCFCFD"/>
<stop offset="0.73" stop-color="#F1F4F7"/>
<stop offset="0.98" stop-color="#DFE7EC"/>
<stop offset="1" stop-color="#DEE6EB"/>
</radialGradient>
<radialGradient id="paint10_radial_11_1966" cx="0" cy="0" r="1" gradientUnits="userSpaceOnUse" gradientTransform="translate(14.9581 18.0669) scale(20.1703 20.1703)">
<stop offset="0.13" stop-color="white"/>
<stop offset="0.44" stop-color="#FCFCFD"/>
<stop offset="0.7" stop-color="#F1F4F7"/>
<stop offset="0.94" stop-color="#DFE7EC"/>
<stop offset="1" stop-color="#DAE3E9"/>
</radialGradient>
<radialGradient id="paint11_radial_11_1966" cx="0" cy="0" r="1" gradientUnits="userSpaceOnUse" gradientTransform="translate(14.9333 18.004) scale(19.9337 19.9337)">
<stop offset="0.13" stop-color="white"/>
<stop offset="0.43" stop-color="#FCFCFD"/>
<stop offset="0.68" stop-color="#F1F5F7"/>
<stop offset="0.92" stop-color="#DFE7EC"/>
<stop offset="1" stop-color="#D7E1E7"/>
</radialGradient>
<radialGradient id="paint12_radial_11_1966" cx="0" cy="0" r="1" gradientUnits="userSpaceOnUse" gradientTransform="translate(14.9085 17.9429) scale(19.7096 19.7096)">
<stop offset="0.13" stop-color="white"/>
<stop offset="0.42" stop-color="#FCFCFD"/>
<stop offset="0.66" stop-color="#F1F5F7"/>
<stop offset="0.89" stop-color="#DFE7EC"/>
<stop offset="1" stop-color="#D4DFE5"/>
</radialGradient>
<radialGradient id="paint13_radial_11_1966" cx="0" cy="0" r="1" gradientUnits="userSpaceOnUse" gradientTransform="translate(14.896 17.8922) scale(19.5104)">
<stop offset="0.13" stop-color="white"/>
<stop offset="0.41" stop-color="#FCFCFD"/>
<stop offset="0.64" stop-color="#F1F5F7"/>
<stop offset="0.86" stop-color="#DFE7EC"/>
<stop offset="1" stop-color="#D0DCE3"/>
</radialGradient>
<radialGradient id="paint14_radial_11_1966" cx="0" cy="0" r="1" gradientUnits="userSpaceOnUse" gradientTransform="translate(14.8712 17.8429) scale(19.3236 19.3236)">
<stop offset="0.13" stop-color="white"/>
<stop offset="0.4" stop-color="#FCFCFD"/>
<stop offset="0.63" stop-color="#F1F5F7"/>
<stop offset="0.84" stop-color="#DFE8EC"/>
<stop offset="1" stop-color="#CDDAE1"/>
</radialGradient>
<radialGradient id="paint15_radial_11_1966" cx="0" cy="0" r="1" gradientUnits="userSpaceOnUse" gradientTransform="translate(14.8588 17.8053) scale(19.1617)">
<stop offset="0.13" stop-color="white"/>
<stop offset="0.39" stop-color="#FCFCFD"/>
<stop offset="0.61" stop-color="#F1F5F7"/>
<stop offset="0.82" stop-color="#DFE8EC"/>
<stop offset="1" stop-color="#C9D7DF"/>
</radialGradient>
<radialGradient id="paint16_radial_11_1966" cx="0" cy="0" r="1" gradientUnits="userSpaceOnUse" gradientTransform="translate(14.8464 17.7684) scale(19.0248 19.0248)">
<stop offset="0.13" stop-color="white"/>
<stop offset="0.38" stop-color="#FCFCFD"/>
<stop offset="0.6" stop-color="#F1F5F7"/>
<stop offset="0.8" stop-color="#DFE8EC"/>
<stop offset="1" stop-color="#C6D5DD"/>
</radialGradient>
<radialGradient id="paint17_radial_11_1966" cx="0" cy="0" r="1" gradientUnits="userSpaceOnUse" gradientTransform="translate(14.8339 17.7431) scale(18.9127)">
<stop offset="0.13" stop-color="white"/>
<stop offset="0.38" stop-color="#FCFCFD"/>
<stop offset="0.59" stop-color="#F1F5F7"/>
<stop offset="0.79" stop-color="#DFE7EC"/>
<stop offset="0.98" stop-color="#C6D5DD"/>
<stop offset="1" stop-color="#C3D2DB"/>
</radialGradient>
<radialGradient id="paint18_radial_11_1966" cx="0" cy="0" r="1" gradientUnits="userSpaceOnUse" gradientTransform="translate(14.8213 17.7183) scale(18.8131 18.8131)">
<stop offset="0.13" stop-color="white"/>
<stop offset="0.37" stop-color="#FCFCFD"/>
<stop offset="0.58" stop-color="#F1F5F7"/>
<stop offset="0.77" stop-color="#DFE8EC"/>
<stop offset="0.95" stop-color="#C6D5DD"/>
<stop offset="1" stop-color="#BFD0D9"/>
</radialGradient>
<radialGradient id="paint19_radial_11_1966" cx="0" cy="0" r="1" gradientUnits="userSpaceOnUse" gradientTransform="translate(14.8087 17.6929) scale(18.7384 18.7384)">
<stop offset="0.13" stop-color="white"/>
<stop offset="0.37" stop-color="#FCFCFD"/>
<stop offset="0.57" stop-color="#F1F5F7"/>
<stop offset="0.76" stop-color="#DFE7EC"/>
<stop offset="0.94" stop-color="#C6D5DD"/>
<stop offset="1" stop-color="#BCCDD7"/>
</radialGradient>
<radialGradient id="paint20_radial_11_1966" cx="0" cy="0" r="1" gradientUnits="userSpaceOnUse" gradientTransform="translate(14.8088 17.6803) scale(18.6886 18.6886)">
<stop offset="0.13" stop-color="white"/>
<stop offset="0.36" stop-color="#FCFCFD"/>
<stop offset="0.56" stop-color="#F1F5F7"/>
<stop offset="0.75" stop-color="#DFE7EC"/>
<stop offset="0.92" stop-color="#C6D5DD"/>
<stop offset="1" stop-color="#B9CBD5"/>
</radialGradient>
<radialGradient id="paint21_radial_11_1966" cx="0" cy="0" r="1" gradientUnits="userSpaceOnUse" gradientTransform="translate(14.8087 17.6683) scale(18.6637 18.6637)">
<stop offset="0.13" stop-color="white"/>
<stop offset="0.36" stop-color="#FCFCFD"/>
<stop offset="0.55" stop-color="#F1F5F7"/>
<stop offset="0.73" stop-color="#DFE7EC"/>
<stop offset="0.9" stop-color="#C6D5DD"/>
<stop offset="1" stop-color="#B5C8D3"/>
</radialGradient>
<radialGradient id="paint22_radial_11_1966" cx="0" cy="0" r="1" gradientUnits="userSpaceOnUse" gradientTransform="translate(14.7965 17.668) scale(18.6513 18.6513)">
<stop offset="0.13" stop-color="white"/>
<stop offset="0.35" stop-color="#FCFCFD"/>
<stop offset="0.54" stop-color="#F1F5F7"/>
<stop offset="0.72" stop-color="#DFE7EC"/>
<stop offset="0.89" stop-color="#C6D5DD"/>
<stop offset="1" stop-color="#B2C6D1"/>
</radialGradient>
<radialGradient id="paint23_radial_11_1966" cx="0" cy="0" r="1" gradientUnits="userSpaceOnUse" gradientTransform="translate(14.809 17.6813) scale(18.6637)">
<stop offset="0.13" stop-color="white"/>
<stop offset="0.35" stop-color="#FCFCFD"/>
<stop offset="0.54" stop-color="#F1F5F7"/>
<stop offset="0.71" stop-color="#DFE7EC"/>
<stop offset="0.88" stop-color="#C6D5DD"/>
<stop offset="1" stop-color="#AFC3CF"/>
</radialGradient>
<radialGradient id="paint24_radial_11_1966" cx="0" cy="0" r="1" gradientUnits="userSpaceOnUse" gradientTransform="translate(14.8089 17.6805) scale(18.7135 18.7135)">
<stop offset="0.13" stop-color="white"/>
<stop offset="0.35" stop-color="#FCFCFD"/>
<stop offset="0.53" stop-color="#F1F5F7"/>
<stop offset="0.7" stop-color="#DFE8EC"/>
<stop offset="0.86" stop-color="#C6D5DD"/>
<stop offset="1" stop-color="#ABC1CD"/>
</radialGradient>
<radialGradient id="paint25_radial_11_1966" cx="0" cy="0" r="1" gradientUnits="userSpaceOnUse" gradientTransform="translate(14.8089 17.7052) scale(18.7758 18.7758)">
<stop offset="0.13" stop-color="white"/>
<stop offset="0.34" stop-color="#FCFCFD"/>
<stop offset="0.52" stop-color="#F1F5F7"/>
<stop offset="0.69" stop-color="#DFE7EC"/>
<stop offset="0.85" stop-color="#C6D5DD"/>
<stop offset="1" stop-color="#A8BECB"/>
</radialGradient>
</defs>
</svg>
