<svg width="14" height="22" viewBox="0 0 14 22" fill="none" xmlns="http://www.w3.org/2000/svg">
<g clip-path="url(#clip0_265_2176)">
<path d="M1.2744 20.5187C0.897349 20.1386 0.685782 19.6248 0.685782 19.0894C0.685782 18.554 0.897349 18.0403 1.2744 17.6602L6.41973 12.5148C6.93293 12.0004 7.22114 11.3034 7.22114 10.5768C7.22114 9.85012 6.93293 9.15313 6.41973 8.63869L1.2744 3.49336C1.07743 3.30447 0.920699 3.07769 0.81363 2.82667C0.706561 2.57564 0.651367 2.30556 0.651367 2.03265C0.651367 1.75975 0.706561 1.48967 0.81363 1.23864C0.920699 0.987618 1.07743 0.760842 1.2744 0.571951C1.65379 0.193512 2.16779 -0.0190125 2.70366 -0.0190125C3.23953 -0.0190125 3.75352 0.193512 4.13292 0.571951L12.8914 9.31902C13.0548 9.48111 13.1844 9.67393 13.2729 9.88636C13.3614 10.0988 13.4069 10.3266 13.4069 10.5568C13.4069 10.7869 13.3614 11.0147 13.2729 11.2272C13.1844 11.4396 13.0548 11.6324 12.8914 11.7945L4.17294 20.5187C3.9832 20.71 3.75744 20.8619 3.50869 20.9656C3.25995 21.0692 2.99314 21.1226 2.72367 21.1226C2.45419 21.1226 2.18739 21.0692 1.93864 20.9656C1.6899 20.8619 1.46414 20.71 1.2744 20.5187Z" fill="#DFE7EC"/>
</g>
<defs>
<clipPath id="clip0_265_2176">
<rect width="12.7033" height="21.113" fill="white" transform="translate(0.703125 0.000244141)"/>
</clipPath>
</defs>
</svg>
