<svg width="13" height="22" viewBox="0 0 13 22" fill="none" xmlns="http://www.w3.org/2000/svg">
<g clip-path="url(#clip0_265_2173)">
<path d="M12.1309 0.594646C12.5079 0.974775 12.7195 1.4885 12.7195 2.02391C12.7195 2.55932 12.5079 3.07304 12.1309 3.45317L6.98554 8.5985C6.47234 9.11294 6.18414 9.80993 6.18414 10.5366C6.18414 11.2632 6.47234 11.9602 6.98554 12.4747L12.1309 17.62C12.3278 17.8089 12.4846 18.0357 12.5916 18.2867C12.6987 18.5377 12.7539 18.8078 12.7539 19.0807C12.7539 19.3536 12.6987 19.6237 12.5916 19.8747C12.4846 20.1257 12.3278 20.3525 12.1309 20.5414C11.7515 20.9198 11.2375 21.1324 10.7016 21.1324C10.1657 21.1324 9.65175 20.9198 9.27236 20.5414L0.513852 11.7943C0.350505 11.6322 0.220856 11.4394 0.132382 11.227C0.0439081 11.0145 -0.00164318 10.7867 -0.00164318 10.5566C-0.00164318 10.3265 0.0439081 10.0986 0.132382 9.88619C0.220856 9.67375 0.350505 9.48094 0.513852 9.31885L9.23234 0.594646C9.42208 0.403297 9.64783 0.251415 9.89658 0.147768C10.1453 0.0441189 10.4121 -0.00924683 10.6816 -0.00924683C10.9511 -0.00924683 11.2179 0.0441189 11.4666 0.147768C11.7154 0.251415 11.9411 0.403297 12.1309 0.594646Z" fill="#DFE7EC"/>
</g>
<defs>
<clipPath id="clip0_265_2173">
<rect width="12.7033" height="21.113" fill="white" transform="matrix(-1 0 0 -1 12.7031 21.113)"/>
</clipPath>
</defs>
</svg>
