<svg width="374" height="965"  fill="none" xmlns="http://www.w3.org/2000/svg">
<path d="M-78.6015 -13.356C-144.324 -21.1751 -172 -0.235806 -172 -0.235806V1001C-172 1001 8.16286 910.157 111.752 895.218C215.342 880.279 301.607 955.015 431.083 951.799C560.56 948.584 608.806 890.606 676.586 887.838C744.365 885.07 794 922.279 794 922.279V-0.235806C739.147 3.86426 756.837 -29 614.663 -29C497.103 -29 248.485 75.6373 147.853 64.0409C47.2212 52.4446 -12.8785 -5.53695 -78.6015 -13.356Z" fill="#F0F0F0"/>
<path d="M-264 0C-264 0 -159.106 69.9429 64.3716 85.9603C287.849 101.978 263.458 26.2484 394.365 28.3214C555.502 30.8733 793.652 129.896 793.652 129.896L796.945 928.653C799.303 932.054 796.971 935 796.971 935L796.945 928.653C792.086 921.641 767.306 912.692 661.139 923.596C503.46 939.791 449.048 876.802 255.222 860.102C61.395 843.402 -24.8271 898.805 -119.908 923.596C-214.989 948.387 -264 915 -264 915V0Z" fill="#92C6FF"/>
<path d="M-93.5226 149.133C-144.85 151.519 -167.059 118.816 -171 111.858V850.972C-76.7279 830.463 -8.54738 864 181.897 864C339.901 864 333.353 850.972 472.368 820.209C569.311 798.757 748.442 782.525 825.081 782.525C861.551 782.525 914.698 796.881 936.863 806.366V46.2532C938.471 46.2532 926.353 35 879.076 35C819.981 35 680.978 113.729 647.418 124.98L647.027 125.111C604.125 139.494 537.425 161.856 452.038 149.133C388.684 139.693 290.272 94.3408 181.897 94.3408C64.4313 94.3408 -29.3628 146.151 -93.5226 149.133Z" fill="#3E4285"/>
</svg>
