<svg width="335" height="299" viewBox="0 0 335 299" fill="none" xmlns="http://www.w3.org/2000/svg">
<path d="M243.862 25.1908C221.689 15.8102 183.437 24.1301 147.924 36.9165C87.1944 58.7824 76.4965 71.5975 24.2631 136.622C-33.7924 208.895 31.3776 272.142 61.5803 283.157C104.219 298.791 205.487 316.416 269.446 261.838C349.394 193.615 334.77 166.58 330.935 136.622C323.883 81.5362 271.578 36.9165 243.862 25.1908Z" fill="#29B7D7"/>
<path d="M243.861 9.56968C221.689 0.189063 183.437 8.50902 147.924 21.2954C87.1937 43.1613 77.5695 67.1325 25.3361 132.157C-32.7194 204.429 31.3769 256.521 61.5797 267.536C104.219 283.17 205.486 300.794 269.445 246.216C349.393 177.994 334.939 176.159 330.206 122.563C325.32 67.2431 271.577 21.2954 243.861 9.56968Z" fill="#7FDBF1"/>
<path d="M67.4431 1.17699C61.0321 -1.6515 48.7432 4.86975 43.4001 8.48393C12.9931 27.812 23.3654 48.5543 29.0224 55.6255C34.6794 62.6968 55.186 71.8894 70.9784 58.6898C86.7709 45.4901 78.9925 34.1761 80.1711 23.5693C81.3496 12.9624 75.4569 4.71259 67.4431 1.17699Z" fill="#7FDBF1"/>
<path d="M74.1693 24.1699L74.1694 40.0058C57.2247 40.0058 54.4745 51.5254 55.2175 57.2852H74.1694V90.1718H38.4953C38.495 84.5051 38.4954 49.9808 38.4954 49.9808C38.4954 49.9808 42.7849 24.1699 74.1693 24.1699Z" fill="white" fill-opacity="0.3"/>
<path d="M120.7 24.1699L120.7 40.0058C103.755 40.0058 101.005 51.5254 101.748 57.2852H120.7V90.1718H85.0256C85.0252 84.5051 85.0257 49.9808 85.0257 49.9808C85.0257 49.9808 89.3152 24.1699 120.7 24.1699Z" fill="white" fill-opacity="0.3"/>
</svg>
