<svg width="325" height="778" viewBox="0 0 325 778" fill="none" xmlns="http://www.w3.org/2000/svg">
<path d="M76.8618 777C-0.0292282 588.198 328.239 763.734 312.986 634.2C305.13 567.486 181.167 587.906 92.2872 587.906C30.3298 587.906 4.53871 547.087 25.855 506.739C48.4522 463.965 164.878 498.711 246.63 498.711C280.485 498.711 334.226 454.678 321.768 395.589C308.555 332.918 254.815 335.055 226.189 335.33C177.743 338.633 70.189 356.944 36.3192 333.454C-14.8786 297.946 14.8055 242.548 51.1477 230.102C111.429 209.458 185.92 238.968 226.189 238.968C278.062 238.968 315.909 214.45 315.909 174.813C315.909 135.176 258.023 101.071 164.07 125.455C93.1337 143.865 58.4991 141.5 30.9991 125.455C-14.5643 98.87 0.499716 3.9999 30.9996 22.9999" stroke="#C3C7D2" stroke-width="3" stroke-dasharray="15 15"/>
<path d="M64.2709 31.7562L30.9404 6.09827L30.6641 23.6031L23.3428 37.7662L64.2709 31.7562Z" fill="url(#paint0_linear_265_1660)" stroke="#1A59A1" stroke-width="0.122595"/>
<path d="M64.2002 31.7634L30.8779 17.7405L30.748 23.7533L28.7491 27.57L64.2002 31.7634Z" fill="url(#paint1_linear_265_1660)" stroke="#1A59A1" stroke-width="0.122595"/>
<defs>
<linearGradient id="paint0_linear_265_1660" x1="25.8322" y1="20.0703" x2="65.0353" y2="33.1217" gradientUnits="userSpaceOnUse">
<stop offset="0.343596" stop-color="#5C89C5"/>
<stop offset="1" stop-color="#A6C2E8"/>
</linearGradient>
<linearGradient id="paint1_linear_265_1660" x1="43.3664" y1="24.2167" x2="42.142" y2="29.0748" gradientUnits="userSpaceOnUse">
<stop offset="0.377232" stop-color="#305A8C"/>
<stop offset="1" stop-color="#305A8C" stop-opacity="0"/>
</linearGradient>
</defs>
</svg>
