<svg width="26" height="26" viewBox="0 0 26 26" fill="none" xmlns="http://www.w3.org/2000/svg">
<path d="M12.83 25.66C19.9158 25.66 25.66 19.9158 25.66 12.83C25.66 5.74419 19.9158 0 12.83 0C5.74419 0 0 5.74419 0 12.83C0 19.9158 5.74419 25.66 12.83 25.66Z" fill="url(#paint0_radial_11_2030)"/>
<path d="M25.4329 12.6156C25.475 15.1108 24.7761 17.5623 23.4247 19.6603C22.0733 21.7582 20.13 23.4081 17.8407 24.4015C15.5514 25.3948 13.0189 25.6869 10.5636 25.2407C8.10835 24.7945 5.84053 23.6302 4.04705 21.895C2.25357 20.1598 1.01502 17.9316 0.488058 15.4924C-0.0389023 13.0531 0.169405 10.5124 1.08663 8.19158C2.00386 5.87075 3.58879 3.87408 5.64095 2.45415C7.69311 1.03422 10.1203 0.25482 12.6155 0.214536C15.9593 0.160552 19.1877 1.43648 21.5912 3.76187C23.9947 6.08726 25.3764 9.27183 25.4329 12.6156Z" fill="url(#paint1_radial_11_2030)"/>
<path d="M25.2311 12.2751C25.3408 14.7248 24.7217 17.152 23.4522 19.25C22.1827 21.3479 20.3197 23.0224 18.0987 24.0618C15.8778 25.1011 13.3985 25.4587 10.9743 25.0893C8.55013 24.7199 6.28989 23.6401 4.47928 21.9864C2.66866 20.3327 1.38896 18.1794 0.801935 15.7985C0.214907 13.4177 0.346905 10.9162 1.18124 8.61036C2.01558 6.30451 3.5148 4.29777 5.4894 2.84381C7.464 1.38984 9.82534 0.553918 12.2749 0.441703C13.9028 0.367129 15.5295 0.614138 17.0618 1.16861C18.5942 1.72308 20.0023 2.57413 21.2056 3.67312C22.4088 4.77211 23.3837 6.09748 24.0744 7.57347C24.7651 9.04945 25.1582 10.6471 25.2311 12.2751Z" fill="url(#paint2_radial_11_2030)"/>
<path d="M25.0041 11.9976C25.1681 14.4046 24.6147 16.8061 23.414 18.8985C22.2132 20.991 20.4191 22.6805 18.2582 23.7533C16.0974 24.8262 13.667 25.2343 11.2743 24.9261C8.88156 24.6178 6.63395 23.607 4.81563 22.0215C2.9973 20.436 1.68991 18.3469 1.05875 16.0184C0.427581 13.6899 0.500982 11.2266 1.26967 8.93984C2.03836 6.65307 3.46782 4.64557 5.37732 3.17112C7.28682 1.69668 9.59063 0.821514 11.9975 0.656265C15.2256 0.437977 18.4085 1.50971 20.8471 3.63612C23.2857 5.76254 24.7808 8.76982 25.0041 11.9976Z" fill="url(#paint3_radial_11_2030)"/>
<path d="M24.7768 11.7326C24.9914 14.0953 24.5007 16.4685 23.3668 18.5523C22.2328 20.6362 20.5065 22.337 18.4061 23.4399C16.3056 24.5428 13.9254 24.9982 11.5662 24.7486C9.20695 24.4989 6.97471 23.5555 5.15162 22.0374C3.32853 20.5193 1.99643 18.4948 1.32371 16.2198C0.650995 13.9448 0.667864 11.5214 1.37218 9.256C2.07651 6.99058 3.43666 4.98482 5.28071 3.49228C7.12476 1.99974 9.36991 1.08742 11.7324 0.870636C13.3025 0.724888 14.886 0.890443 16.3921 1.35781C17.8982 1.82518 19.2972 2.58517 20.509 3.59423C21.7208 4.60329 22.7216 5.84158 23.4539 7.23812C24.1863 8.63466 24.6359 10.162 24.7768 11.7326Z" fill="url(#paint4_radial_11_2030)"/>
<path d="M24.5625 11.4544C24.8334 13.7737 24.4106 16.1212 23.3475 18.2002C22.2845 20.2792 20.6289 21.9964 18.59 23.1346C16.5512 24.2729 14.2207 24.781 11.8931 24.595C9.56547 24.4089 7.34529 23.5369 5.51319 22.0892C3.68109 20.6415 2.31934 18.6831 1.60008 16.4616C0.880827 14.2401 0.836359 11.8552 1.4723 9.60847C2.10824 7.3617 3.39604 5.35391 5.17289 3.83893C6.94975 2.32394 9.13588 1.36978 11.4549 1.09706C14.5662 0.734538 17.6941 1.62169 20.1517 3.56367C22.6094 5.50565 24.1958 8.34366 24.5625 11.4544Z" fill="url(#paint5_radial_11_2030)"/>
<path d="M24.3481 11.1772C24.6639 13.4537 24.2982 15.7727 23.2971 17.8416C22.2961 19.9104 20.7046 21.6363 18.7235 22.8014C16.7424 23.9666 14.4606 24.5187 12.166 24.3881C9.87145 24.2575 7.66698 23.4501 5.83088 22.0678C3.99478 20.6854 2.60935 18.7901 1.84948 16.621C1.0896 14.452 0.98934 12.1065 1.56135 9.88049C2.13335 7.65451 3.35198 5.64788 5.06342 4.11389C6.77486 2.5799 8.90239 1.5873 11.1775 1.26139C12.6936 1.04588 14.2373 1.13155 15.7203 1.51348C17.2032 1.89542 18.5963 2.56612 19.8197 3.48718C21.0431 4.40825 22.0728 5.56158 22.8498 6.88115C23.6269 8.20071 24.136 9.66059 24.3481 11.1772Z" fill="url(#paint6_radial_11_2030)"/>
<path d="M24.1208 10.9C24.5001 13.1332 24.2088 15.4287 23.2838 17.4963C22.3587 19.564 20.8414 21.3109 18.9236 22.5163C17.0058 23.7218 14.7737 24.3316 12.5095 24.2687C10.2452 24.2058 8.05042 23.4729 6.20256 22.1629C4.3547 20.8528 2.93673 19.0243 2.1279 16.9085C1.31908 14.7926 1.1557 12.4845 1.65843 10.2759C2.16116 8.06722 3.30742 6.05719 4.95232 4.49989C6.59722 2.94259 8.6669 1.90792 10.8997 1.52669C12.3836 1.27165 13.9031 1.31196 15.3713 1.6453C16.8396 1.97864 18.2276 2.59846 19.4558 3.46923C20.684 4.34 21.7283 5.44461 22.5288 6.71973C23.3293 7.99486 23.8703 9.41543 24.1208 10.9Z" fill="url(#paint7_radial_11_2030)"/>
<path d="M23.9694 10.6354C24.429 12.8405 24.2222 15.1326 23.3755 17.2199C22.5287 19.3073 21.0802 21.0956 19.2142 22.3573C17.3482 23.6191 15.149 24.2973 12.8965 24.3057C10.6439 24.3141 8.43981 23.6523 6.56447 22.4044C4.68913 21.1566 3.22735 19.3791 2.36507 17.2981C1.50279 15.2171 1.27899 12.9267 1.72213 10.7181C2.16527 8.50961 3.25534 6.48279 4.85365 4.89552C6.45197 3.30826 8.48629 2.23229 10.6979 1.80447C13.6283 1.22079 16.6706 1.8225 19.1582 3.47777C21.6459 5.13303 23.3759 7.70687 23.9694 10.6354Z" fill="url(#paint8_radial_11_2030)"/>
<path d="M23.6918 10.3577C24.1808 12.5059 24.0217 14.7509 23.2348 16.8087C22.4479 18.8666 21.0685 20.6448 19.2709 21.9187C17.4733 23.1925 15.3384 23.9048 13.1361 23.9653C10.9338 24.0258 8.76293 23.4319 6.89814 22.2587C5.03334 21.0854 3.55831 19.3856 2.65958 17.3741C1.76084 15.3626 1.47877 13.1297 1.84902 10.9579C2.21927 8.78608 3.22522 6.77282 4.73966 5.1727C6.2541 3.57258 8.20902 2.45747 10.3572 1.96839C13.2377 1.31599 16.2594 1.83288 18.7593 3.40566C21.2592 4.97843 23.0331 7.47864 23.6918 10.3577Z" fill="url(#paint9_radial_11_2030)"/>
<path d="M23.4649 10.0926C24.0056 12.1977 23.9099 14.4159 23.1899 16.4665C22.4699 18.5172 21.1579 20.3083 19.4198 21.6133C17.6818 22.9183 15.5958 23.6785 13.4256 23.7979C11.2555 23.9172 9.09871 23.3903 7.22805 22.2838C5.35739 21.1773 3.85689 19.5409 2.91633 17.5815C1.97577 15.6222 1.63739 13.4279 1.944 11.2762C2.25061 9.12452 3.18844 7.11209 4.63886 5.49344C6.08928 3.87479 7.98715 2.72264 10.0924 2.18269C11.4899 1.82256 12.9446 1.74156 14.3734 1.94433C15.8022 2.14709 17.177 2.62963 18.4191 3.36434C19.6612 4.09904 20.7462 5.07149 21.612 6.22601C22.4778 7.38054 23.1075 8.69448 23.4649 10.0926Z" fill="url(#paint10_radial_11_2030)"/>
<path d="M23.2504 9.80266C23.8487 11.8632 23.8226 14.0548 23.1753 16.1005C22.5281 18.1462 21.2889 19.9541 19.6143 21.2955C17.9397 22.6369 15.9049 23.4517 13.7673 23.6368C11.6297 23.8219 9.48513 23.369 7.60488 22.3354C5.72462 21.3018 4.19306 19.7339 3.20384 17.8299C2.21461 15.9259 1.81216 13.7713 2.04735 11.6386C2.28254 9.50594 3.14482 7.49086 4.52516 5.84818C5.9055 4.20551 7.74192 3.00901 9.80223 2.40995C11.1707 2.01207 12.6041 1.88768 14.0206 2.04389C15.4371 2.2001 16.8089 2.63385 18.0578 3.32036C19.3066 4.00688 20.408 4.9327 21.299 6.04495C22.1899 7.1572 22.853 8.43408 23.2504 9.80266Z" fill="url(#paint11_radial_11_2030)"/>
<path d="M23.036 9.52452C23.6884 11.5421 23.728 13.7078 23.1498 15.7479C22.5716 17.788 21.4016 19.6109 19.7875 20.9861C18.1735 22.3614 16.188 23.2272 14.082 23.4742C11.9759 23.7211 9.84398 23.3382 7.95556 22.3737C6.06715 21.4092 4.50708 19.9065 3.47256 18.0555C2.43804 16.2046 1.97552 14.0884 2.14346 11.9746C2.31141 9.86085 3.10228 7.8443 4.4161 6.17991C5.72992 4.51552 7.50771 3.27801 9.52473 2.62382C12.2316 1.74942 15.1748 1.98501 17.708 3.27884C20.2413 4.57268 22.1575 6.819 23.036 9.52452Z" fill="url(#paint12_radial_11_2030)"/>
<path d="M22.809 9.25951C23.516 11.2359 23.6208 13.3776 23.1103 15.4136C22.5997 17.4496 21.4967 19.2884 19.9408 20.6973C18.3849 22.1063 16.4461 23.0221 14.3696 23.3288C12.2931 23.6355 10.1723 23.3194 8.27546 22.4205C6.37867 21.5215 4.79114 20.0801 3.71376 18.2787C2.63638 16.4772 2.11756 14.3967 2.22295 12.3003C2.32834 10.2039 3.0532 8.1859 4.30582 6.5016C5.55843 4.81729 7.28251 3.54238 9.2599 2.8382C10.571 2.36776 11.9621 2.16075 13.3534 2.22903C14.7446 2.29731 16.1087 2.63954 17.3675 3.2361C18.6262 3.83265 19.7548 4.6718 20.6886 5.70543C21.6224 6.73905 22.3429 7.94683 22.809 9.25951Z" fill="url(#paint13_radial_11_2030)"/>
<path d="M22.5945 8.98165C23.3557 10.913 23.5272 13.0268 23.0871 15.0557C22.647 17.0845 21.6151 18.9373 20.122 20.3796C18.6289 21.822 16.7416 22.7892 14.6988 23.1589C12.6559 23.5287 10.5493 23.2843 8.6454 22.4567C6.74146 21.6291 5.1257 20.2556 4.00244 18.5097C2.87919 16.7638 2.2989 14.724 2.33496 12.6483C2.37102 10.5726 3.02181 8.55418 4.20503 6.84836C5.38825 5.14253 7.05075 3.8259 8.98229 3.06496C11.572 2.04474 14.4609 2.09493 17.0136 3.20449C19.5663 4.31405 21.5738 6.39213 22.5945 8.98165Z" fill="url(#paint14_radial_11_2030)"/>
<path d="M22.38 8.70426C23.1973 10.594 23.4359 12.6836 23.0654 14.7089C22.6949 16.7342 21.732 18.6041 20.2986 20.082C18.8652 21.56 17.0256 22.5796 15.0126 23.0119C12.9996 23.4442 10.9036 23.2697 8.98978 22.5105C7.07596 21.7513 5.43031 20.4416 4.261 18.747C3.09169 17.0523 2.45127 15.049 2.42076 12.9903C2.39025 10.9316 2.97101 8.91016 4.08958 7.18162C5.20814 5.45308 6.81426 4.09514 8.70473 3.27958C11.2377 2.18685 14.1009 2.14441 16.6651 3.16159C19.2293 4.17876 21.2848 6.17234 22.38 8.70426Z" fill="url(#paint15_radial_11_2030)"/>
<path d="M22.1529 8.42743C23.0244 10.2736 23.3286 12.3368 23.0272 14.356C22.7257 16.3752 21.8321 18.2596 20.4595 19.7707C19.0868 21.2819 17.2968 22.352 15.3158 22.8456C13.3348 23.3392 11.252 23.2341 9.33072 22.5437C7.40948 21.8533 5.7362 20.6085 4.52259 18.9668C3.30897 17.3252 2.60956 15.3604 2.51284 13.3212C2.41612 11.2819 2.92644 9.25981 3.97923 7.51066C5.03202 5.76151 6.57997 4.36394 8.42724 3.49476C9.65194 2.91484 10.9791 2.58242 12.3325 2.51656C13.686 2.4507 15.0391 2.65271 16.3143 3.11099C17.5896 3.56927 18.7617 4.2748 19.7637 5.18713C20.7656 6.09945 21.5775 7.2006 22.1529 8.42743Z" fill="url(#paint16_radial_11_2030)"/>
<path d="M21.9384 8.14935C22.8643 9.95228 23.2346 11.9894 23.0024 14.0028C22.7702 16.0163 21.946 17.9156 20.6339 19.4604C19.3219 21.0053 17.5811 22.1262 15.6318 22.6813C13.6825 23.2365 11.6123 23.2009 9.68327 22.579C7.75421 21.9572 6.05297 20.7771 4.79483 19.1881C3.53669 17.5991 2.77821 15.6725 2.61537 13.6523C2.45253 11.632 2.89264 9.60886 3.88002 7.83883C4.86741 6.0688 6.35767 4.63145 8.16223 3.70869C9.35826 3.09523 10.6635 2.72346 12.0032 2.61464C13.343 2.50582 14.6911 2.66207 15.9705 3.07446C17.2498 3.48686 18.4354 4.14731 19.4594 5.01809C20.4834 5.88886 21.3258 6.95289 21.9384 8.14935Z" fill="url(#paint17_radial_11_2030)"/>
<path d="M21.724 7.88508C22.6991 9.64465 23.1312 11.6537 22.9655 13.6586C22.7998 15.6635 22.0439 17.5744 20.7931 19.15C19.5423 20.7257 17.8528 21.8954 15.9377 22.5116C14.0227 23.1278 11.968 23.1628 10.0331 22.6123C8.09814 22.0617 6.3697 20.9502 5.06595 19.4181C3.76219 17.886 2.94156 16.002 2.70766 14.0039C2.47377 12.0058 2.83708 9.9832 3.75174 8.19141C4.6664 6.39963 6.09141 4.91899 7.84687 3.93642C9.01705 3.28335 10.3045 2.86742 11.6356 2.71244C12.9667 2.55746 14.3153 2.66647 15.6042 3.03322C16.8931 3.39998 18.0971 4.01728 19.1472 4.84982C20.1973 5.68236 21.0729 6.71378 21.724 7.88508Z" fill="url(#paint18_radial_11_2030)"/>
<path d="M21.4465 7.56893C22.4764 9.27743 22.9769 11.2529 22.8848 13.2457C22.7926 15.2385 22.1119 17.1593 20.9287 18.7654C19.7454 20.3716 18.1128 21.5911 16.2368 22.2698C14.3609 22.9485 12.3259 23.0561 10.3889 22.5789C8.45186 22.1017 6.69971 21.0611 5.35377 19.5886C4.00782 18.1161 3.12846 16.2778 2.82676 14.3058C2.52505 12.3338 2.81454 10.3166 3.65865 8.50905C4.50277 6.7015 5.86364 5.18465 7.56937 4.15012C8.70454 3.46163 9.9644 3.00388 11.2768 2.8031C12.5891 2.60231 13.9282 2.66243 15.2173 2.98002C16.5064 3.29761 17.7202 3.86641 18.7891 4.65386C19.858 5.44131 20.761 6.43191 21.4465 7.56893Z" fill="url(#paint19_radial_11_2030)"/>
<path d="M21.2824 7.32975C22.371 9.00352 22.9386 10.9626 22.9135 12.959C22.8884 14.9555 22.2718 16.8996 21.1415 18.5455C20.0112 20.1914 18.4181 21.465 16.5638 22.2053C14.7095 22.9456 12.6773 23.1192 10.7243 22.7043C8.7713 22.2893 6.98525 21.3044 5.59214 19.8741C4.19904 18.4438 3.26146 16.6324 2.89805 14.6692C2.53464 12.7059 2.76172 10.679 3.55056 8.84481C4.33939 7.01064 5.65454 5.45166 7.32961 4.3651C9.57347 2.9096 12.3033 2.40429 14.9195 2.96017C17.5357 3.51605 19.8242 5.08765 21.2824 7.32975Z" fill="url(#paint20_radial_11_2030)"/>
<path d="M21.0678 7.05182C22.2204 8.68469 22.8622 10.623 22.9118 12.6211C22.9615 14.6191 22.4167 16.5869 21.3467 18.275C20.2767 19.9631 18.7295 21.2955 16.9013 22.1032C15.0732 22.911 13.0463 23.1578 11.0778 22.8122C9.1092 22.4667 7.28755 21.5445 5.84373 20.1624C4.39992 18.7804 3.39896 17.0008 2.96776 15.0492C2.53655 13.0976 2.69452 11.0619 3.42162 9.20018C4.14873 7.33847 5.41223 5.73457 7.05197 4.59179C9.23937 3.06733 11.9411 2.47037 14.5672 2.93129C17.1933 3.39222 19.5303 4.87357 21.0678 7.05182Z" fill="url(#paint21_radial_11_2030)"/>
<path d="M20.841 6.78732C22.0535 8.37901 22.7655 10.2952 22.8866 12.2924C23.0077 14.2897 22.5323 16.2779 21.5209 18.0044C20.5096 19.7309 19.0078 21.1178 17.2065 21.9889C15.4052 22.86 13.3855 23.176 11.4042 22.8968C9.42287 22.6175 7.56925 21.7557 6.07884 20.4206C4.58842 19.0856 3.52848 17.3376 3.03368 15.3989C2.53887 13.4601 2.63152 11.418 3.29987 9.53202C3.96822 7.64603 5.18209 6.00127 6.78728 4.80668C7.8398 4.01315 9.03841 3.43487 10.3146 3.10493C11.5908 2.77498 12.9195 2.69984 14.2247 2.88379C15.5299 3.06774 16.7861 3.50718 17.9214 4.17698C19.0567 4.84678 20.0488 5.73381 20.841 6.78732Z" fill="url(#paint22_radial_11_2030)"/>
<path d="M20.6264 6.50974C21.8966 8.05584 22.6785 9.9446 22.8728 11.9361C23.0671 13.9275 22.6651 15.9318 21.7178 17.6943C20.7705 19.4568 19.3206 20.8979 17.5525 21.8345C15.7843 22.7712 13.7777 23.1611 11.7874 22.9548C9.79715 22.7485 7.91314 21.9552 6.37472 20.6758C4.8363 19.3964 3.71291 17.6885 3.14728 15.7692C2.58164 13.8499 2.59928 11.8058 3.19797 9.89649C3.79665 7.98724 4.94936 6.29902 6.50963 5.04633C8.58153 3.38288 11.2258 2.60359 13.8687 2.87756C16.5116 3.15153 18.9398 4.45666 20.6264 6.50974Z" fill="url(#paint23_radial_11_2030)"/>
<path d="M20.4119 6.23229C21.7308 7.73532 22.5734 9.59626 22.833 11.579C23.0925 13.5617 22.7572 15.5768 21.8696 17.3687C20.982 19.1605 19.5821 20.6483 17.8476 21.6433C16.113 22.6382 14.122 23.0955 12.1272 22.957C10.1324 22.8186 8.22362 22.0907 6.64314 20.8657C5.06266 19.6407 3.88171 17.9738 3.25011 16.0766C2.61852 14.1793 2.56477 12.1372 3.09567 10.2093C3.62657 8.28144 4.71819 6.55473 6.23203 5.24827C8.24754 3.50888 10.8687 2.63631 13.5246 2.82062C16.1805 3.00493 18.656 4.23117 20.4119 6.23229Z" fill="url(#paint24_radial_11_2030)"/>
<path d="M20.1848 5.95494C21.5515 7.41257 22.4548 9.24308 22.7802 11.2145C23.1056 13.186 22.8385 15.2097 22.0126 17.0292C21.1868 18.8487 19.8395 20.3821 18.1414 21.4352C16.4432 22.4882 14.4707 23.0135 12.4738 22.9445C10.4768 22.8754 8.54531 22.2152 6.92396 21.0473C5.30262 19.8795 4.06441 18.2567 3.36622 16.3845C2.66804 14.5123 2.54131 12.475 3.00208 10.5307C3.46286 8.58644 4.4904 6.82268 5.95452 5.46293C7.90973 3.6471 10.5045 2.67946 13.1712 2.77166C15.838 2.86386 18.3597 4.0084 20.1848 5.95494Z" fill="url(#paint25_radial_11_2030)"/>
<path d="M19.9703 5.67628C21.3806 7.08818 22.3407 8.8865 22.7292 10.8439C23.1178 12.8014 22.9172 14.83 22.153 16.6735C21.3888 18.517 20.0953 20.0926 18.4358 21.2011C16.7764 22.3095 14.8255 22.9012 12.8299 22.9012C10.8343 22.9012 8.88348 22.3095 7.22403 21.2011C5.56459 20.0926 4.27101 18.517 3.50681 16.6735C2.74261 14.83 2.54209 12.8014 2.9306 10.8439C3.3191 8.8865 4.2792 7.08818 5.68953 5.67628C6.62684 4.73792 7.73992 3.99352 8.96512 3.48562C10.1903 2.97773 11.5036 2.71631 12.8299 2.71631C14.1562 2.71631 15.4695 2.97773 16.6947 3.48562C17.9199 3.99352 19.033 4.73792 19.9703 5.67628Z" fill="url(#paint26_radial_11_2030)"/>
<path d="M22.7527 14.3097C23.5723 8.83158 19.796 3.72624 14.3179 2.90656C8.83982 2.08688 3.73448 5.86325 2.9148 11.3413C2.09512 16.8194 5.87149 21.9247 11.3496 22.7444C16.8276 23.5641 21.933 19.7877 22.7527 14.3097Z" stroke="#000D20" stroke-width="0.5" stroke-miterlimit="10"/>
<path d="M15.8072 17.22C15.8023 17.3079 15.7802 17.3939 15.7421 17.4732C15.7039 17.5525 15.6505 17.6234 15.5849 17.682C15.5192 17.7406 15.4427 17.7857 15.3596 17.8147C15.2765 17.8436 15.1885 17.8559 15.1007 17.8508H10.6853C10.5987 17.8559 10.512 17.8435 10.4303 17.8142C10.3487 17.785 10.2738 17.7395 10.2102 17.6806C10.1466 17.6217 10.0955 17.5505 10.0601 17.4714C10.0246 17.3922 10.0056 17.3067 10.004 17.22V8.38913C10.0073 8.30296 10.0275 8.21828 10.0635 8.13992C10.0995 8.06157 10.1506 7.99109 10.2139 7.9325C10.2771 7.87392 10.3513 7.82838 10.4322 7.7985C10.5131 7.76862 10.5991 7.75497 10.6853 7.75835H15.1386C15.3151 7.75133 15.4875 7.8132 15.6193 7.93089C15.7511 8.04858 15.8321 8.21289 15.845 8.38913L15.8072 17.22Z" fill="#000D20"/>
<path d="M15.189 8.59082H10.6348V15.9709H15.189V8.59082Z" fill="#FAFCFB"/>
<path d="M12.9056 17.1074C13.1216 17.1074 13.2967 16.9323 13.2967 16.7163C13.2967 16.5003 13.1216 16.3252 12.9056 16.3252C12.6896 16.3252 12.5145 16.5003 12.5145 16.7163C12.5145 16.9323 12.6896 17.1074 12.9056 17.1074Z" fill="#FAFCFB"/>
<defs>
<radialGradient id="paint0_radial_11_2030" cx="0" cy="0" r="1" gradientUnits="userSpaceOnUse" gradientTransform="translate(13.7888 0.656007) scale(31.501)">
<stop offset="0.13" stop-color="white"/>
<stop offset="0.34" stop-color="#FCFCFD"/>
<stop offset="0.52" stop-color="#F1F5F7"/>
<stop offset="0.69" stop-color="#DFE7EC"/>
<stop offset="0.85" stop-color="#C6D5DD"/>
<stop offset="1" stop-color="#A8BECB"/>
</radialGradient>
<radialGradient id="paint1_radial_11_2030" cx="0" cy="0" r="1" gradientUnits="userSpaceOnUse" gradientTransform="translate(13.8392 1.5644) scale(31.0973 31.0973)">
<stop offset="0.13" stop-color="white"/>
<stop offset="0.34" stop-color="#FCFCFD"/>
<stop offset="0.52" stop-color="#F1F5F7"/>
<stop offset="0.69" stop-color="#DFE7EC"/>
<stop offset="0.85" stop-color="#C6D5DD"/>
<stop offset="1" stop-color="#A8BECB"/>
</radialGradient>
<radialGradient id="paint2_radial_11_2030" cx="0" cy="0" r="1" gradientUnits="userSpaceOnUse" gradientTransform="translate(13.8771 2.43496) scale(30.6684)">
<stop offset="0.13" stop-color="white"/>
<stop offset="0.34" stop-color="#FCFCFD"/>
<stop offset="0.52" stop-color="#F1F5F7"/>
<stop offset="0.69" stop-color="#DFE7EC"/>
<stop offset="0.85" stop-color="#C6D5DD"/>
<stop offset="1" stop-color="#A8BECB"/>
</radialGradient>
<radialGradient id="paint3_radial_11_2030" cx="0" cy="0" r="1" gradientUnits="userSpaceOnUse" gradientTransform="translate(13.9276 3.2803) scale(30.2142 30.2142)">
<stop offset="0.13" stop-color="white"/>
<stop offset="0.34" stop-color="#FCFCFD"/>
<stop offset="0.52" stop-color="#F1F5F7"/>
<stop offset="0.69" stop-color="#DFE7EC"/>
<stop offset="0.85" stop-color="#C6D5DD"/>
<stop offset="1" stop-color="#A8BECB"/>
</radialGradient>
<radialGradient id="paint4_radial_11_2030" cx="0" cy="0" r="1" gradientUnits="userSpaceOnUse" gradientTransform="translate(13.9653 4.10021) scale(29.7348)">
<stop offset="0.13" stop-color="white"/>
<stop offset="0.34" stop-color="#FCFCFD"/>
<stop offset="0.52" stop-color="#F1F5F7"/>
<stop offset="0.69" stop-color="#DFE7EC"/>
<stop offset="0.85" stop-color="#C6D5DD"/>
<stop offset="1" stop-color="#A8BECB"/>
</radialGradient>
<radialGradient id="paint5_radial_11_2030" cx="0" cy="0" r="1" gradientUnits="userSpaceOnUse" gradientTransform="translate(14.0033 4.89433) scale(29.2428 29.2428)">
<stop offset="0.13" stop-color="white"/>
<stop offset="0.34" stop-color="#FCFCFD"/>
<stop offset="0.52" stop-color="#F1F5F7"/>
<stop offset="0.69" stop-color="#DFE7EC"/>
<stop offset="0.85" stop-color="#C6D5DD"/>
<stop offset="1" stop-color="#A8BECB"/>
</radialGradient>
<radialGradient id="paint6_radial_11_2030" cx="0" cy="0" r="1" gradientUnits="userSpaceOnUse" gradientTransform="translate(14.0412 5.6516) scale(28.7256 28.7256)">
<stop offset="0.13" stop-color="white"/>
<stop offset="0.34" stop-color="#FCFCFD"/>
<stop offset="0.52" stop-color="#F1F5F7"/>
<stop offset="0.69" stop-color="#DFE7EC"/>
<stop offset="0.85" stop-color="#C6D5DD"/>
<stop offset="1" stop-color="#A8BECB"/>
</radialGradient>
<radialGradient id="paint7_radial_11_2030" cx="0" cy="0" r="1" gradientUnits="userSpaceOnUse" gradientTransform="translate(14.0788 6.39628) scale(28.2083 28.2083)">
<stop offset="0.13" stop-color="white"/>
<stop offset="0.34" stop-color="#FCFCFD"/>
<stop offset="0.52" stop-color="#F1F5F7"/>
<stop offset="0.69" stop-color="#DFE7EC"/>
<stop offset="0.85" stop-color="#C6D5DD"/>
<stop offset="1" stop-color="#A8BECB"/>
</radialGradient>
<radialGradient id="paint8_radial_11_2030" cx="0" cy="0" r="1" gradientUnits="userSpaceOnUse" gradientTransform="translate(14.1167 7.11561) scale(27.6785 27.6785)">
<stop offset="0.13" stop-color="white"/>
<stop offset="0.34" stop-color="#FCFCFD"/>
<stop offset="0.52" stop-color="#F1F5F7"/>
<stop offset="0.69" stop-color="#DFE7EC"/>
<stop offset="0.85" stop-color="#C6D5DD"/>
<stop offset="1" stop-color="#A8BECB"/>
</radialGradient>
<radialGradient id="paint9_radial_11_2030" cx="0" cy="0" r="1" gradientUnits="userSpaceOnUse" gradientTransform="translate(14.1419 7.80938) scale(27.136 27.136)">
<stop offset="0.13" stop-color="white"/>
<stop offset="0.34" stop-color="#FCFCFD"/>
<stop offset="0.52" stop-color="#F1F5F7"/>
<stop offset="0.69" stop-color="#DFE7EC"/>
<stop offset="0.85" stop-color="#C6D5DD"/>
<stop offset="1" stop-color="#A8BECB"/>
</radialGradient>
<radialGradient id="paint10_radial_11_2030" cx="0" cy="0" r="1" gradientUnits="userSpaceOnUse" gradientTransform="translate(14.1799 8.49045) scale(26.5809 26.5809)">
<stop offset="0.13" stop-color="white"/>
<stop offset="0.34" stop-color="#FCFCFD"/>
<stop offset="0.52" stop-color="#F1F5F7"/>
<stop offset="0.69" stop-color="#DFE7EC"/>
<stop offset="0.85" stop-color="#C6D5DD"/>
<stop offset="1" stop-color="#A8BECB"/>
</radialGradient>
<radialGradient id="paint11_radial_11_2030" cx="0" cy="0" r="1" gradientUnits="userSpaceOnUse" gradientTransform="translate(14.2177 9.14665) scale(26.0385 26.0385)">
<stop offset="0.13" stop-color="white"/>
<stop offset="0.34" stop-color="#FCFCFD"/>
<stop offset="0.52" stop-color="#F1F5F7"/>
<stop offset="0.69" stop-color="#DFE7EC"/>
<stop offset="0.85" stop-color="#C6D5DD"/>
<stop offset="1" stop-color="#A8BECB"/>
</radialGradient>
<radialGradient id="paint12_radial_11_2030" cx="0" cy="0" r="1" gradientUnits="userSpaceOnUse" gradientTransform="translate(14.2556 9.77683) scale(25.496 25.496)">
<stop offset="0.13" stop-color="white"/>
<stop offset="0.34" stop-color="#FCFCFD"/>
<stop offset="0.52" stop-color="#F1F5F7"/>
<stop offset="0.69" stop-color="#DFE7EC"/>
<stop offset="0.85" stop-color="#C6D5DD"/>
<stop offset="1" stop-color="#A8BECB"/>
</radialGradient>
<radialGradient id="paint13_radial_11_2030" cx="0" cy="0" r="1" gradientUnits="userSpaceOnUse" gradientTransform="translate(14.2935 10.3949) scale(24.9535 24.9535)">
<stop offset="0.13" stop-color="white"/>
<stop offset="0.34" stop-color="#FCFCFD"/>
<stop offset="0.52" stop-color="#F1F5F7"/>
<stop offset="0.69" stop-color="#DFE7EC"/>
<stop offset="0.85" stop-color="#C6D5DD"/>
<stop offset="1" stop-color="#A8BECB"/>
</radialGradient>
<radialGradient id="paint14_radial_11_2030" cx="0" cy="0" r="1" gradientUnits="userSpaceOnUse" gradientTransform="translate(14.3187 11.0128) scale(24.4111)">
<stop offset="0.13" stop-color="white"/>
<stop offset="0.34" stop-color="#FCFCFD"/>
<stop offset="0.52" stop-color="#F1F5F7"/>
<stop offset="0.69" stop-color="#DFE7EC"/>
<stop offset="0.85" stop-color="#C6D5DD"/>
<stop offset="1" stop-color="#A8BECB"/>
</radialGradient>
<radialGradient id="paint15_radial_11_2030" cx="0" cy="0" r="1" gradientUnits="userSpaceOnUse" gradientTransform="translate(14.3565 11.6058) scale(23.8812)">
<stop offset="0.13" stop-color="white"/>
<stop offset="0.34" stop-color="#FCFCFD"/>
<stop offset="0.52" stop-color="#F1F5F7"/>
<stop offset="0.69" stop-color="#DFE7EC"/>
<stop offset="0.85" stop-color="#C6D5DD"/>
<stop offset="1" stop-color="#A8BECB"/>
</radialGradient>
<radialGradient id="paint16_radial_11_2030" cx="0" cy="0" r="1" gradientUnits="userSpaceOnUse" gradientTransform="translate(14.3944 12.1869) scale(23.364 23.364)">
<stop offset="0.13" stop-color="white"/>
<stop offset="0.34" stop-color="#FCFCFD"/>
<stop offset="0.52" stop-color="#F1F5F7"/>
<stop offset="0.69" stop-color="#DFE7EC"/>
<stop offset="0.85" stop-color="#C6D5DD"/>
<stop offset="1" stop-color="#A8BECB"/>
</radialGradient>
<radialGradient id="paint17_radial_11_2030" cx="0" cy="0" r="1" gradientUnits="userSpaceOnUse" gradientTransform="translate(14.4321 12.754) scale(22.8467 22.8467)">
<stop offset="0.13" stop-color="white"/>
<stop offset="0.34" stop-color="#FCFCFD"/>
<stop offset="0.52" stop-color="#F1F5F7"/>
<stop offset="0.69" stop-color="#DFE7EC"/>
<stop offset="0.85" stop-color="#C6D5DD"/>
<stop offset="1" stop-color="#A8BECB"/>
</radialGradient>
<radialGradient id="paint18_radial_11_2030" cx="0" cy="0" r="1" gradientUnits="userSpaceOnUse" gradientTransform="translate(14.47 13.3224) scale(22.3547 22.3547)">
<stop offset="0.13" stop-color="white"/>
<stop offset="0.34" stop-color="#FCFCFD"/>
<stop offset="0.52" stop-color="#F1F5F7"/>
<stop offset="0.69" stop-color="#DFE7EC"/>
<stop offset="0.85" stop-color="#C6D5DD"/>
<stop offset="1" stop-color="#A8BECB"/>
</radialGradient>
<radialGradient id="paint19_radial_11_2030" cx="0" cy="0" r="1" gradientUnits="userSpaceOnUse" gradientTransform="translate(14.5079 13.8767) scale(21.8753 21.8753)">
<stop offset="0.13" stop-color="white"/>
<stop offset="0.34" stop-color="#FCFCFD"/>
<stop offset="0.52" stop-color="#F1F5F7"/>
<stop offset="0.69" stop-color="#DFE7EC"/>
<stop offset="0.85" stop-color="#C6D5DD"/>
<stop offset="1" stop-color="#A8BECB"/>
</radialGradient>
<radialGradient id="paint20_radial_11_2030" cx="0" cy="0" r="1" gradientUnits="userSpaceOnUse" gradientTransform="translate(14.5583 14.4323) scale(21.4086 21.4086)">
<stop offset="0.13" stop-color="white"/>
<stop offset="0.34" stop-color="#FCFCFD"/>
<stop offset="0.52" stop-color="#F1F5F7"/>
<stop offset="0.69" stop-color="#DFE7EC"/>
<stop offset="0.85" stop-color="#C6D5DD"/>
<stop offset="1" stop-color="#A8BECB"/>
</radialGradient>
<radialGradient id="paint21_radial_11_2030" cx="0" cy="0" r="1" gradientUnits="userSpaceOnUse" gradientTransform="translate(14.5961 14.987) scale(20.9544)">
<stop offset="0.13" stop-color="white"/>
<stop offset="0.34" stop-color="#FCFCFD"/>
<stop offset="0.52" stop-color="#F1F5F7"/>
<stop offset="0.69" stop-color="#DFE7EC"/>
<stop offset="0.85" stop-color="#C6D5DD"/>
<stop offset="1" stop-color="#A8BECB"/>
</radialGradient>
<radialGradient id="paint22_radial_11_2030" cx="0" cy="0" r="1" gradientUnits="userSpaceOnUse" gradientTransform="translate(14.6468 15.5425) scale(20.5381 20.5381)">
<stop offset="0.13" stop-color="white"/>
<stop offset="0.34" stop-color="#FCFCFD"/>
<stop offset="0.52" stop-color="#F1F5F7"/>
<stop offset="0.69" stop-color="#DFE7EC"/>
<stop offset="0.85" stop-color="#C6D5DD"/>
<stop offset="1" stop-color="#A8BECB"/>
</radialGradient>
<radialGradient id="paint23_radial_11_2030" cx="0" cy="0" r="1" gradientUnits="userSpaceOnUse" gradientTransform="translate(14.6971 16.0975) scale(20.1344 20.1344)">
<stop offset="0.13" stop-color="white"/>
<stop offset="0.34" stop-color="#FCFCFD"/>
<stop offset="0.52" stop-color="#F1F5F7"/>
<stop offset="0.69" stop-color="#DFE7EC"/>
<stop offset="0.85" stop-color="#C6D5DD"/>
<stop offset="1" stop-color="#A8BECB"/>
</radialGradient>
<radialGradient id="paint24_radial_11_2030" cx="0" cy="0" r="1" gradientUnits="userSpaceOnUse" gradientTransform="translate(14.7475 16.6527) scale(19.7559 19.7559)">
<stop offset="0.13" stop-color="white"/>
<stop offset="0.34" stop-color="#FCFCFD"/>
<stop offset="0.52" stop-color="#F1F5F7"/>
<stop offset="0.69" stop-color="#DFE7EC"/>
<stop offset="0.85" stop-color="#C6D5DD"/>
<stop offset="1" stop-color="#A8BECB"/>
</radialGradient>
<radialGradient id="paint25_radial_11_2030" cx="0" cy="0" r="1" gradientUnits="userSpaceOnUse" gradientTransform="translate(14.798 17.2206) scale(19.4153)">
<stop offset="0.13" stop-color="white"/>
<stop offset="0.34" stop-color="#FCFCFD"/>
<stop offset="0.52" stop-color="#F1F5F7"/>
<stop offset="0.69" stop-color="#DFE7EC"/>
<stop offset="0.85" stop-color="#C6D5DD"/>
<stop offset="1" stop-color="#A8BECB"/>
</radialGradient>
<radialGradient id="paint26_radial_11_2030" cx="0" cy="0" r="1" gradientUnits="userSpaceOnUse" gradientTransform="translate(14.8484 17.7872) scale(19.1125)">
<stop offset="0.13" stop-color="white"/>
<stop offset="0.34" stop-color="#FCFCFD"/>
<stop offset="0.52" stop-color="#F1F5F7"/>
<stop offset="0.69" stop-color="#DFE7EC"/>
<stop offset="0.85" stop-color="#C6D5DD"/>
<stop offset="1" stop-color="#A8BECB"/>
</radialGradient>
</defs>
</svg>
