<svg width="415" height="104" viewBox="0 0 415 104" fill="none" xmlns="http://www.w3.org/2000/svg">
<path d="M271.006 86.9326C254.193 78.7902 255.204 79.2888 255.204 79.2888L247.46 99.3896L231.973 66.652L244.437 42.7223L271.006 86.9326ZM271.006 86.9326L285.688 63.3895M271.006 86.9326L279.681 100.001M67.7997 67.8652L28.1694 3.84988L2.20605 66.652L16.293 88.9294L28.1694 66.652L47.8657 100.001L58.0661 79.0492L83.81 88.9294M67.7997 67.8652L76.9996 56.7515M67.7997 67.8652L83.81 88.9294M76.9996 56.7515L106.599 18.6702L131.486 50.4378L127.358 76.0821L121.089 64.837L118.47 88.9294L102.851 60.9355L90.9798 79.0492L76.9996 56.7515ZM83.81 88.9294L96.9255 100.001M366.33 64.837L346.101 36.8982M366.33 64.837L399.039 11.4214L413.138 55.3594L409.738 83.2412L399.039 63.3895L386.423 83.2412L378.165 66.652L356.307 83.2412M366.33 64.837L356.307 83.2412M346.101 36.8982L325.413 3.84988L285.688 63.3895M346.101 36.8982L333.385 60.9355L325.413 45.6173L310.62 67.8652C310.62 67.8652 305.169 59.0674 302.199 55.3594L285.688 63.3895M356.307 83.2412L346.101 100.001" stroke="white" stroke-width="3.16192"/>
</svg>
