<svg width="724" height="635" fill="none" xmlns="http://www.w3.org/2000/svg">
<g clip-path="url(#clip0_369_51)">
<path d="M-15.0884 9.13069C-101.733 57.4163 -152.7 24.6699 -152.7 24.6699L-144.588 684.516C-144.588 684.516 63.911 530.987 248.668 610.02C433.424 689.053 456.36 535.524 601.617 610.02C746.874 684.516 875.176 561.284 945.646 610.02C1016.12 658.755 1106.2 629.077 1106.2 629.077L1106.2 -20.5965C1035.18 -17.709 1009.18 -82.1481 836.066 9.13066C462.731 205.987 523.891 -76.2974 269.563 24.6699C15.2347 125.637 71.5561 -39.1549 -15.0884 9.13069Z" fill="#C6D0E8"/>
<path d="M1136.75 78.7129L1143.11 624.984C1144.48 631.85 1143.25 636.764 1143.25 636.764L1143.11 624.984C1139.84 608.547 1121.73 580.93 1036.37 582.783C1014.62 583.256 992.865 623.088 960.998 624.786C894.275 628.341 845.272 561.457 795.98 556.724C760.011 553.271 724.239 591.796 687.924 586.512C636.877 579.084 610.972 526.937 521.216 556.724C494.977 554.557 468.299 582.783 413.445 582.783C369.914 582.783 345.037 541.508 310.544 541.923C310.544 541.923 280.083 541.923 248.324 554.772C224.792 564.292 186.104 567.621 186.104 567.621C149.698 570.73 131.378 529.075 80.9661 554.772C53.2653 568.893 42.679 581.46 14.3235 586.512C-13.0067 591.381 -40.8654 572.336 -67.7655 575.974C-107.987 581.415 -148.009 619.532 -175.672 618.872C-234.739 617.463 -266 657.909 -266 657.909L-266 -10.6565C-266 -10.6565 -261.167 10.1662 -188.975 23.6141C-154.089 30.1125 -142.697 88.6282 -67.7655 41.6919C11.581 12.4605 40.9805 54.6392 112.458 75.923C183.935 97.2067 204.996 44.0765 266.342 41.6919C327.687 39.3074 339.055 102.787 439.624 78.7129C540.194 54.6392 540.612 104.62 605.613 105.154C637.225 105.414 672.665 51.9103 707.394 54.6392C742.124 57.368 794.988 70.0684 864.925 78.7129C934.862 87.3573 944.35 16.7978 999.744 26.5744C1076.45 40.1128 1136.75 78.7129 1136.75 78.7129Z" fill="url(#paint0_linear_369_51)"/>
<path d="M-136.215 108.644C-193.928 110.211 -217.218 101.46 -221.649 96.889L-221.649 582.475C-179.435 577.109 -212.783 542.953 -178.165 532.909C-143.548 522.866 -108.562 556.536 -82.7597 552.688C-53.5466 548.331 -26.4131 509.253 25.7746 532.909C77.9623 556.566 86.4833 502.208 124.197 504.097C157.995 505.79 184.5 536.823 208.507 538.52C281.959 543.711 312.381 509.301 375.922 517.349C427.957 523.94 451.649 566.713 494.812 569.252C533.201 571.511 589.245 536.798 640.122 532.909C687.769 529.267 746.501 586.727 791.304 582.475C837.78 578.063 869.556 537.507 898.344 537.507C918.035 537.507 940.628 566.301 963.034 569.252C987.287 572.447 1011.08 549.931 1024.03 553.17L1024.03 53.7879C1025.84 53.7879 1030.55 27.03 977.712 42.4906C960.215 47.6102 919.314 103.054 892.581 108.644C864.826 114.448 839.229 74.5429 803.547 77.0828C759.157 80.2425 742.585 133.881 698.58 143.211C653.805 152.703 630.854 118.807 583.643 122.156C552.334 124.377 517.084 146.554 478.684 143.211C451.645 140.856 414.211 112.953 371.245 106.326C335.488 100.81 314.365 139.388 274.281 134.925C235.635 130.621 175.478 83.175 124.197 106.326C91.1211 121.258 79.1973 130.819 42.1924 134.925C13.4815 138.11 -18.6455 79.8993 -47.7342 83.175C-83.318 87.1821 -111.088 107.961 -136.215 108.644Z" fill="#3E4285"/>
</g>
<defs>
<linearGradient id="paint0_linear_369_51" x1="438.878" y1="-10.6565" x2="438.878" y2="657.909" gradientUnits="userSpaceOnUse">
<stop stop-color="#7AB6FF"/>
<stop offset="1" stop-color="#165DB5"/>
</linearGradient>
<clipPath id="clip0_369_51">
<rect width="724" height="635" fill="white"/>
</clipPath>
</defs>
</svg>
