<svg width="78" height="48" viewBox="0 0 78 48" fill="none" xmlns="http://www.w3.org/2000/svg">
<path d="M12.9509 30.1677C12.9509 31.443 11.8829 32.5204 10.5111 32.5204C9.1393 32.5204 8.07129 31.443 8.07129 30.1677C8.07129 28.8923 9.1393 27.8149 10.5111 27.8149C11.8829 27.8149 12.9509 28.8923 12.9509 30.1677Z" stroke="url(#paint0_linear_115_729)" stroke-width="2"/>
<path d="M19.5465 16.7963V24.2773M16.9062 29.5579L7.22499 35.8653M19.5465 12.8054C19.5465 12.8054 24.2721 12.0898 29.2092 16.3961C34.1463 20.7024 34.1463 24.9879 34.1463 24.9879M8.30664 38.0679C8.30664 38.0679 11.7266 41.6688 16.9062 42.4921C22.4489 43.3731 26.4521 40.9532 26.4521 40.9532M27.2216 44.2233C27.2216 44.2233 19.0788 46.4707 14.2063 44.9927C9.46161 43.5535 6.71519 41.5824 4.01071 37.4267C1.72382 33.9127 1.00692 31.296 1.06199 27.1037C1.1218 22.551 2.02041 19.6468 4.84442 16.0753C7.73194 12.4234 10.4829 10.8864 14.9749 9.66338C17.5913 8.95101 22.8463 8.88657 27.2216 10.8817C30.3248 12.2968 31.6832 13.2049 34.1463 16.3961C36.3567 19.2598 37.6089 24.9879 37.6089 24.9879M30.4274 10.3684L31.9022 8.50898L34.1463 10.3684L32.7357 12.0996M6.12657 12.0996L4.84442 10.1119L7.22499 8.50898L8.30664 10.3684M18.1167 7.35481V4.98243M18.1167 4.98243H15.6161V1.90479H22.9897V4.98243H20.7456M18.1167 4.98243H20.7456M20.7456 4.98243V7.35481M35.6851 4.02065H45.4953M48.5729 4.02065H52.9971M56.2671 4.02065H58.896M47.0982 9.66338H56.9083M60.3066 9.66338H64.4743M67.7443 9.66338H70.3091M58.896 20.2426H68.8343M72.0403 20.2426H76.3362M49.5988 33.451H59.6013M62.9354 33.451H67.2955M70.7579 33.451H72.9379M47.0982 43.8382H56.9083M60.3066 43.8382H64.4743M67.7443 43.8382H70.3091M41.5855 20.895L40.0284 19.9218L40.7583 17.5374H42.7047L43.6293 16.3961L43.1913 14.3258L45.2351 13.2066L46.6463 14.3258H48.3494L49.2253 12.8173L51.7557 13.2066V15.1044L52.9971 16.3961L54.5294 15.7856L55.9405 18.0727L54.8213 19.2406V20.895L56.6218 22.0142L55.9405 24.058H53.9454L52.9971 24.9879L53.4588 27.075L51.2691 28.5348L49.9552 27.3183H48.3494L47.6195 29.0701L44.8945 28.5348L45.2351 26.5397L43.6293 25.3719L41.8775 26.0531L40.369 24.058L41.5855 22.8415V20.895ZM45.2351 20.895C45.184 19.1758 46.6303 17.7253 48.3494 17.7807C50.0156 17.8345 51.3182 19.2287 51.2691 20.895C51.2233 22.4464 50.1161 23.6497 48.5729 23.8147C46.8509 23.9988 45.2865 22.6261 45.2351 20.895ZM36.711 32.7457C38.7634 32.9303 40.3439 34.8129 40.0284 36.8493C39.7429 38.6915 38.1903 39.8908 36.3263 39.8628C34.4959 39.8354 33.022 38.6574 32.7357 36.8493C32.3868 34.6455 34.4888 32.5458 36.711 32.7457ZM31.9022 29.5579L33.6975 28.5348L34.1463 26.5397H37.6089V28.2574L40.0284 29.0701L41.5855 27.8727L44.0846 29.9245L43.1913 31.4633L44.0846 34.0922H46.1364V37.4263H44.0846L43.6293 39.8628L44.8945 41.3375L42.7047 43.8382L40.7583 42.9405L38.8269 43.8382V46.0182H35.6851L34.7875 44.2233L33.1204 43.4535L31.1327 44.9927L28.8245 42.9405L29.9145 40.9532L29.2092 39.0934L27.2216 38.7087L26.4521 35.4387L28.8245 34.6692L29.2092 32.7457L27.9268 30.9504L29.9145 28.5348L31.9022 29.5579Z" stroke="url(#paint1_linear_115_729)" stroke-width="2" stroke-linecap="round"/>
<defs>
<linearGradient id="paint0_linear_115_729" x1="9.55607" y1="26.7311" x2="9.19106" y2="30.7536" gradientUnits="userSpaceOnUse">
<stop stop-color="#123A8D"/>
<stop offset="0.745655" stop-color="#09D0F2"/>
<stop offset="1" stop-color="#2C7ABC"/>
</linearGradient>
<linearGradient id="paint1_linear_115_729" x1="38.6976" y1="1.90479" x2="38.6976" y2="46.0182" gradientUnits="userSpaceOnUse">
<stop stop-color="#1773B9"/>
<stop offset="1" stop-color="#5CD9E6"/>
</linearGradient>
</defs>
</svg>
