<svg width="19" height="20" viewBox="0 0 19 20" fill="none" xmlns="http://www.w3.org/2000/svg">
<path d="M9.95335 19.4719C14.9289 19.4719 18.9624 15.2185 18.9624 9.97169C18.9624 4.72484 14.9289 0.471436 9.95335 0.471436C4.97781 0.471436 0.944336 4.72484 0.944336 9.97169C0.944336 15.2185 4.97781 19.4719 9.95335 19.4719Z" fill="url(#paint0_radial_1_941)"/>
<path d="M18.8035 9.81277C18.833 11.6604 18.3423 13.4757 17.3934 15.0291C16.4444 16.5826 15.0799 17.8043 13.4724 18.5399C11.8649 19.2754 10.0866 19.4917 8.36255 19.1613C6.63848 18.8309 5.04606 17.9688 3.78671 16.6839C2.52736 15.399 1.65767 13.7491 1.28764 11.9429C0.917622 10.1367 1.06389 8.25541 1.70795 6.5369C2.35201 4.81839 3.46493 3.33991 4.90592 2.2885C6.34691 1.23708 8.05124 0.659954 9.80331 0.630125C12.1513 0.590151 14.4182 1.53494 16.1059 3.25683C17.7936 4.97871 18.7639 7.33679 18.8035 9.81277Z" fill="url(#paint1_radial_1_941)"/>
<path d="M18.6608 9.56071C18.7379 11.3746 18.3032 13.1719 17.4118 14.7254C16.5203 16.2789 15.2122 17.5188 13.6526 18.2884C12.0931 19.0581 10.3522 19.3228 8.64997 19.0493C6.94776 18.7758 5.36066 17.9762 4.08927 16.7517C2.81789 15.5272 1.91931 13.9327 1.50711 12.1697C1.09491 10.4068 1.18759 8.55451 1.77345 6.84709C2.35931 5.13968 3.41204 3.65375 4.79857 2.57713C6.1851 1.50051 7.84319 0.881531 9.56324 0.798439C10.7063 0.743219 11.8485 0.926122 12.9245 1.33669C14.0006 1.74726 14.9893 2.37744 15.8342 3.19121C16.6791 4.00498 17.3636 4.98638 17.8486 6.07931C18.3337 7.17223 18.6097 8.35524 18.6608 9.56071Z" fill="url(#paint2_radial_1_941)"/>
<path d="M18.502 9.3551C18.6172 11.1374 18.2286 12.9156 17.3855 14.465C16.5423 16.0144 15.2825 17.2654 13.7652 18.0599C12.2479 18.8543 10.5413 19.1565 8.86118 18.9282C7.18105 18.7 5.60282 17.9515 4.32602 16.7775C3.04922 15.6034 2.1312 14.0566 1.688 12.3324C1.24481 10.6082 1.29635 8.78418 1.83611 7.09089C2.37587 5.39761 3.37961 3.91111 4.72043 2.81933C6.06125 1.72754 7.67895 1.07951 9.36899 0.957143C11.6357 0.795507 13.8707 1.58909 15.583 3.16364C17.2954 4.73819 18.3452 6.965 18.502 9.3551Z" fill="url(#paint3_radial_1_941)"/>
<path d="M18.3415 9.15885C18.4922 10.9083 18.1476 12.6657 17.3514 14.2087C16.5551 15.7517 15.343 17.0111 13.8681 17.8278C12.3932 18.6444 10.7218 18.9817 9.0652 18.7968C7.40861 18.612 5.84117 17.9133 4.56102 16.7892C3.28088 15.6652 2.3455 14.1661 1.87313 12.4815C1.40076 10.7969 1.4126 9.00247 1.90717 7.32499C2.40173 5.64751 3.3568 4.16231 4.65166 3.05712C5.94652 1.95194 7.52304 1.27639 9.18191 1.11587C10.2845 1.00795 11.3964 1.13053 12.4539 1.47661C13.5114 1.82268 14.4938 2.38543 15.3447 3.13261C16.1956 3.87979 16.8984 4.79671 17.4126 5.83081C17.9268 6.86491 18.2425 7.99586 18.3415 9.15885Z" fill="url(#paint4_radial_1_941)"/>
<path d="M18.192 8.95303C18.3822 10.6704 18.0853 12.4087 17.3389 13.9481C16.5924 15.4876 15.4299 16.7591 13.9983 17.6019C12.5666 18.4447 10.9302 18.821 9.29576 18.6832C7.66135 18.5455 6.10238 17.8998 4.81591 16.8278C3.52944 15.7558 2.57324 14.3057 2.06819 12.6607C1.56314 11.0158 1.53192 9.24983 1.97846 7.58616C2.42501 5.92249 3.32928 4.43579 4.57696 3.31398C5.82464 2.19218 7.3597 1.48565 8.98811 1.2837C11.1728 1.01527 13.3691 1.67218 15.0948 3.11016C16.8206 4.54814 17.9345 6.64961 18.192 8.95303Z" fill="url(#paint5_radial_1_941)"/>
<path d="M18.0407 8.74752C18.2624 10.4332 18.0056 12.1504 17.3027 13.6823C16.5998 15.2142 15.4823 16.4922 14.0912 17.3549C12.7001 18.2177 11.0978 18.6265 9.48663 18.5298C7.87542 18.4331 6.32747 17.8353 5.0382 16.8117C3.74892 15.7881 2.7761 14.3846 2.24252 12.7785C1.70895 11.1724 1.63855 9.43561 2.0402 7.78734C2.44186 6.13907 3.29756 4.65322 4.4993 3.51734C5.70105 2.38146 7.19496 1.64647 8.79247 1.40514C9.85707 1.24557 10.9411 1.309 11.9824 1.59181C13.0237 1.87462 14.0019 2.37126 14.8609 3.05328C15.72 3.7353 16.443 4.58931 16.9886 5.56641C17.5343 6.54352 17.8918 7.62452 18.0407 8.74752Z" fill="url(#paint6_radial_1_941)"/>
<path d="M17.8805 8.54239C18.1469 10.196 17.9423 11.8957 17.2928 13.4267C16.6432 14.9578 15.5778 16.2513 14.2311 17.1439C12.8845 18.0365 11.3172 18.4881 9.72725 18.4415C8.13732 18.3949 6.59618 17.8523 5.29864 16.8822C4.00111 15.9121 3.00543 14.5582 2.43749 12.9915C1.86954 11.4248 1.75482 9.71566 2.10783 8.08021C2.46084 6.44477 3.26573 4.9564 4.42075 3.80326C5.57577 2.65013 7.02906 1.88398 8.59692 1.60169C9.63883 1.41284 10.7058 1.44269 11.7368 1.68952C12.7678 1.93635 13.7424 2.39531 14.6048 3.04009C15.4673 3.68487 16.2006 4.5028 16.7627 5.44699C17.3248 6.39119 17.7047 7.44308 17.8805 8.54239Z" fill="url(#paint7_radial_1_941)"/>
<path d="M17.7755 8.34635C18.0982 9.97922 17.953 11.6764 17.3584 13.222C16.7639 14.7677 15.7467 16.0918 14.4365 17.0261C13.1262 17.9605 11.582 18.4627 10.0003 18.4689C8.4186 18.4751 6.87089 17.985 5.55406 17.061C4.23723 16.137 3.21079 14.8208 2.60531 13.2799C1.99983 11.739 1.84268 10.043 2.15385 8.40766C2.46502 6.7723 3.23044 5.2715 4.35275 4.09617C5.47506 2.92085 6.90353 2.12412 8.45645 1.80734C10.5142 1.37514 12.6504 1.82069 14.3972 3.04636C16.144 4.27204 17.3588 6.17789 17.7755 8.34635Z" fill="url(#paint8_radial_1_941)"/>
<path d="M17.5798 8.14093C17.9231 9.73162 17.8114 11.394 17.2589 12.9177C16.7063 14.4415 15.7377 15.7582 14.4755 16.7015C13.2132 17.6447 11.7141 18.1721 10.1677 18.2169C8.62126 18.2617 7.09695 17.822 5.78752 16.9532C4.47809 16.0845 3.44235 14.8258 2.81127 13.3363C2.1802 11.8469 1.98213 10.1935 2.24211 8.58535C2.50209 6.97717 3.20845 5.48641 4.27187 4.30157C5.33528 3.11672 6.70799 2.29102 8.21641 1.92886C10.2391 1.44578 12.3608 1.82853 14.1162 2.99312C15.8716 4.15772 17.1172 6.00905 17.5798 8.14093Z" fill="url(#paint9_radial_1_941)"/>
<path d="M17.4212 7.94453C17.8009 9.50328 17.7337 11.1458 17.2281 12.6642C16.7225 14.1827 15.8012 15.509 14.5808 16.4753C13.3604 17.4416 11.8956 18.0045 10.3718 18.0929C8.84797 18.1813 7.33351 17.7911 6.01996 16.9718C4.70641 16.1524 3.65279 14.9407 2.99234 13.4898C2.33189 12.039 2.09429 10.4142 2.30959 8.82093C2.52489 7.22767 3.18341 5.73753 4.20187 4.53896C5.22033 3.3404 6.55298 2.48726 8.03127 2.08744C9.01254 1.82078 10.034 1.7608 11.0373 1.91094C12.0406 2.06108 13.006 2.41839 13.8781 2.96242C14.7503 3.50645 15.5122 4.22652 16.1201 5.08141C16.7281 5.9363 17.1702 6.90924 17.4212 7.94453Z" fill="url(#paint10_radial_1_941)"/>
<path d="M17.2703 7.72983C17.6904 9.2556 17.672 10.8785 17.2176 12.3932C16.7631 13.908 15.8929 15.2467 14.717 16.24C13.5412 17.2332 12.1124 17.8366 10.6114 17.9736C9.11038 18.1107 7.60454 17.7753 6.28425 17.01C4.96397 16.2446 3.88853 15.0836 3.19392 13.6738C2.4993 12.2639 2.2167 10.6685 2.38185 9.08932C2.547 7.51012 3.15247 6.01801 4.12173 4.80166C5.09098 3.58531 6.38048 2.69933 7.82719 2.25575C8.78808 1.96113 9.7946 1.86902 10.7892 1.98469C11.7839 2.10036 12.7472 2.42154 13.6241 2.92988C14.501 3.43822 15.2744 4.12377 15.9 4.94736C16.5256 5.77095 16.9912 6.71644 17.2703 7.72983Z" fill="url(#paint11_radial_1_941)"/>
<path d="M17.1198 7.52398C17.5779 9.01794 17.6058 10.6216 17.1998 12.1322C16.7938 13.6429 15.9722 14.9927 14.8388 16.011C13.7055 17.0293 12.3113 17.6704 10.8325 17.8533C9.35364 18.0362 7.85661 17.7526 6.5306 17.0384C5.20459 16.3243 4.10913 15.2116 3.38271 13.841C2.65629 12.4704 2.33151 10.9034 2.44944 9.33823C2.56737 7.77302 3.1227 6.27983 4.04525 5.04739C4.96779 3.81496 6.21612 2.89862 7.63244 2.41421C9.53313 1.76674 11.5998 1.94118 13.3786 2.89923C15.1574 3.85728 16.503 5.52062 17.1198 7.52398Z" fill="url(#paint12_radial_1_941)"/>
<path d="M16.9597 7.32759C17.4561 8.79105 17.5297 10.3769 17.1712 11.8845C16.8127 13.3921 16.0382 14.7537 14.9457 15.797C13.8532 16.8403 12.4918 17.5184 11.0337 17.7455C9.57559 17.9726 8.08639 17.7385 6.75449 17.0729C5.42259 16.4073 4.30786 15.3399 3.55134 14.006C2.79482 12.6721 2.43051 11.1315 2.50452 9.57922C2.57852 8.0269 3.0875 6.53262 3.96707 5.28544C4.84664 4.03825 6.05725 3.09422 7.44574 2.5728C8.36638 2.22445 9.34317 2.07117 10.3201 2.12173C11.297 2.17229 12.2549 2.4257 13.1388 2.86743C14.0226 3.30916 14.8151 3.93053 15.4708 4.6959C16.1265 5.46127 16.6324 6.35559 16.9597 7.32759Z" fill="url(#paint13_radial_1_941)"/>
<path d="M16.809 7.122C17.3436 8.55214 17.464 10.1173 17.1549 11.6196C16.8459 13.1219 16.1214 14.4938 15.0729 15.5619C14.0245 16.6299 12.6992 17.3461 11.2648 17.6199C9.83035 17.8936 8.35114 17.7127 7.01423 17.0999C5.67732 16.4871 4.54275 15.47 3.75402 14.1772C2.96529 12.8844 2.55782 11.374 2.58314 9.83703C2.60846 8.30003 3.06544 6.80547 3.89628 5.54236C4.72712 4.27924 5.8945 3.30431 7.25079 2.74086C9.06923 1.98541 11.0978 2.02257 12.8902 2.84417C14.6827 3.66578 16.0923 5.20453 16.809 7.122Z" fill="url(#paint14_radial_1_941)"/>
<path d="M16.6594 6.91651C17.2333 8.31578 17.4008 9.86312 17.1406 11.3628C16.8805 12.8625 16.2044 14.2471 15.1979 15.3414C14.1913 16.4358 12.8996 17.1908 11.4861 17.5109C10.0726 17.831 8.60086 17.7018 7.25701 17.1396C5.91316 16.5775 4.75761 15.6077 3.93654 14.3528C3.11548 13.098 2.66578 11.6146 2.64436 10.0902C2.62293 8.56581 3.03073 7.06898 3.81617 5.78904C4.60161 4.50911 5.7294 3.50359 7.05686 2.89969C8.83546 2.09056 10.8459 2.05913 12.6465 2.81232C14.447 3.56551 15.8904 5.0417 16.6594 6.91651Z" fill="url(#paint15_radial_1_941)"/>
<path d="M16.4993 6.71152C17.1112 8.07859 17.3248 9.60634 17.1131 11.1015C16.9015 12.5966 16.274 13.9919 15.3102 15.1109C14.3463 16.2299 13.0894 17.0223 11.6984 17.3878C10.3073 17.7533 8.84479 17.6755 7.49573 17.1642C6.14667 16.653 4.97172 15.7312 4.11954 14.5156C3.26736 13.3 2.77625 11.8452 2.70833 10.3352C2.64042 8.82519 2.99876 7.32787 3.73801 6.03268C4.47726 4.73749 5.5642 3.70262 6.86133 3.05902C7.72129 2.6296 8.65318 2.38346 9.60356 2.33469C10.5539 2.28593 11.5041 2.43551 12.3995 2.77485C13.295 3.11419 14.118 3.63662 14.8216 4.31217C15.5251 4.98772 16.0952 5.80309 16.4993 6.71152Z" fill="url(#paint16_radial_1_941)"/>
<path d="M16.3494 6.50549C16.9996 7.84051 17.2596 9.34892 17.0965 10.8398C16.9335 12.3307 16.3547 13.7371 15.4334 14.881C14.5121 16.0249 13.2897 16.8549 11.921 17.266C10.5522 17.6771 9.09859 17.6507 7.74403 17.1903C6.38948 16.7298 5.1949 15.856 4.31145 14.6794C3.42801 13.5027 2.89542 12.0762 2.78107 10.5802C2.66673 9.0843 2.97577 7.58622 3.66909 6.27556C4.36241 4.9649 5.40885 3.90059 6.67598 3.2173C7.51582 2.76305 8.43231 2.48777 9.37307 2.40719C10.3138 2.32661 11.2604 2.44231 12.1588 2.74768C13.0571 3.05305 13.8896 3.54209 14.6087 4.18688C15.3277 4.83166 15.9192 5.61954 16.3494 6.50549Z" fill="url(#paint17_radial_1_941)"/>
<path d="M16.1983 6.30979C16.883 7.61271 17.1864 9.10035 17.0701 10.5849C16.9538 12.0695 16.4229 13.4845 15.5447 14.6512C14.6664 15.8179 13.48 16.684 12.1353 17.1403C10.7906 17.5966 9.34782 17.6225 7.98914 17.2148C6.63047 16.8072 5.41678 15.9841 4.50131 14.8497C3.58583 13.7152 3.0096 12.3201 2.84536 10.8406C2.68112 9.36107 2.93624 7.86339 3.5785 6.53662C4.22076 5.20986 5.22137 4.11349 6.45402 3.38592C7.2757 2.90234 8.17974 2.59436 9.11441 2.4796C10.0491 2.36484 10.996 2.44556 11.9011 2.71713C12.8061 2.9887 13.6515 3.4458 14.3889 4.06227C15.1263 4.67874 15.7411 5.44248 16.1983 6.30979Z" fill="url(#paint18_radial_1_941)"/>
<path d="M16.0036 6.07586C16.7268 7.34096 17.0783 8.8037 17.0136 10.2793C16.9488 11.7549 16.4709 13.1772 15.64 14.3665C14.8092 15.5559 13.6627 16.4588 12.3455 16.9614C11.0283 17.464 9.59931 17.5436 8.23917 17.1903C6.87903 16.8369 5.6487 16.0664 4.7036 14.9761C3.7585 13.8857 3.14103 12.5245 2.92917 11.0643C2.71732 9.6041 2.9206 8.11044 3.51332 6.77199C4.10604 5.43355 5.06162 4.31037 6.25936 3.54433C7.05646 3.03452 7.94111 2.69557 8.86263 2.5469C9.78415 2.39822 10.7244 2.44274 11.6296 2.6779C12.5348 2.91306 13.3871 3.33425 14.1377 3.91733C14.8882 4.50041 15.5223 5.23393 16.0036 6.07586Z" fill="url(#paint19_radial_1_941)"/>
<path d="M15.8879 5.89877C16.6523 7.13814 17.0509 8.58875 17.0333 10.0671C17.0156 11.5454 16.5826 12.985 15.789 14.2037C14.9953 15.4224 13.8767 16.3655 12.5746 16.9137C11.2726 17.4619 9.84557 17.5904 8.4742 17.2832C7.10283 16.9759 5.8487 16.2466 4.87048 15.1875C3.89226 14.1284 3.23391 12.7871 2.97873 11.3334C2.72355 9.87967 2.883 8.37878 3.43691 7.02063C3.99082 5.66247 4.91429 4.50809 6.0905 3.70353C7.6661 2.62577 9.58295 2.25161 11.42 2.66322C13.257 3.07483 14.864 4.23856 15.8879 5.89877Z" fill="url(#paint20_radial_1_941)"/>
<path d="M15.7378 5.69298C16.5471 6.90207 16.9977 8.33734 17.0326 9.81684C17.0675 11.2963 16.685 12.7534 15.9336 14.0034C15.1823 15.2534 14.0959 16.24 12.8122 16.8381C11.5285 17.4363 10.1052 17.619 8.72294 17.3631C7.34065 17.1073 6.06151 16.4244 5.04769 15.401C4.03387 14.3777 3.33101 13.0599 3.02823 11.6148C2.72544 10.1697 2.83636 8.66233 3.34692 7.28378C3.85748 5.90524 4.7447 4.71759 5.89609 3.8714C7.43205 2.74258 9.32919 2.30054 11.1732 2.64185C13.0172 2.98315 14.6582 4.08004 15.7378 5.69298Z" fill="url(#paint21_radial_1_941)"/>
<path d="M15.5786 5.49706C16.43 6.67567 16.93 8.09455 17.015 9.57345C17.1 11.0524 16.7662 12.5245 16.056 13.803C15.3459 15.0814 14.2914 16.1083 13.0265 16.7534C11.7616 17.3984 10.3435 17.6324 8.95224 17.4257C7.56098 17.2189 6.2594 16.5807 5.21286 15.5921C4.16632 14.6036 3.42205 13.3093 3.0746 11.8737C2.72715 10.4381 2.79221 8.92596 3.26152 7.52944C3.73082 6.13291 4.58318 4.91501 5.71032 4.03046C6.44938 3.44287 7.29103 3.01467 8.18713 2.77036C9.08324 2.52604 10.0162 2.4704 10.9327 2.60661C11.8493 2.74282 12.7313 3.06821 13.5285 3.56418C14.3257 4.06015 15.0223 4.71696 15.5786 5.49706Z" fill="url(#paint22_radial_1_941)"/>
<path d="M15.4288 5.29164C16.3207 6.43648 16.8697 7.83506 17.0062 9.30968C17.1426 10.7843 16.8603 12.2684 16.1951 13.5735C15.53 14.8785 14.5119 15.9456 13.2704 16.6392C12.0288 17.3328 10.6197 17.6215 9.22222 17.4688C7.8247 17.316 6.50177 16.7286 5.42152 15.7812C4.34127 14.8338 3.55244 13.5692 3.15526 12.148C2.75808 10.7268 2.77047 9.21319 3.19086 7.79944C3.61125 6.38568 4.42065 5.13561 5.51625 4.20803C6.97111 2.97629 8.82789 2.39924 10.6837 2.60211C12.5394 2.80498 14.2445 3.77139 15.4288 5.29164Z" fill="url(#paint23_radial_1_941)"/>
<path d="M15.2778 5.08618C16.2038 6.19913 16.7955 7.5771 16.9778 9.04525C17.16 10.5134 16.9246 12.0055 16.3013 13.3324C15.6781 14.6592 14.6951 15.7608 13.4771 16.4976C12.2592 17.2343 10.8611 17.5729 9.46039 17.4704C8.05965 17.3679 6.71935 16.8289 5.60957 15.9218C4.49979 15.0147 3.67054 13.7805 3.22704 12.3756C2.78355 10.9707 2.7458 9.45858 3.11859 8.03105C3.49138 6.60352 4.2579 5.32494 5.3209 4.35755C6.73615 3.06957 8.57667 2.42346 10.4416 2.55994C12.3065 2.69641 14.0448 3.60441 15.2778 5.08618Z" fill="url(#paint24_radial_1_941)"/>
<path d="M15.1178 4.88064C16.0775 5.95997 16.7117 7.31541 16.9402 8.77523C17.1687 10.235 16.9811 11.7335 16.4012 13.0808C15.8213 14.4281 14.8753 15.5636 13.6829 16.3433C12.4905 17.1231 11.1054 17.512 9.70319 17.4609C8.30097 17.4098 6.94469 16.9209 5.80621 16.0561C4.66772 15.1914 3.79828 13.9898 3.30802 12.6034C2.81777 11.2171 2.72878 9.70857 3.05233 8.26888C3.37588 6.82919 4.0974 5.52318 5.12548 4.51632C6.49839 3.17175 8.32038 2.45524 10.1929 2.52351C12.0655 2.59178 13.8362 3.43928 15.1178 4.88064Z" fill="url(#paint25_radial_1_941)"/>
<path d="M14.9668 4.67444C15.9571 5.71991 16.6313 7.05152 16.9041 8.50094C17.1769 9.95036 17.0361 11.4525 16.4995 12.8176C15.9629 14.1827 15.0545 15.3493 13.8893 16.1701C12.7241 16.9909 11.3542 17.429 9.95295 17.429C8.55166 17.429 7.18182 16.9909 6.01659 16.1701C4.85135 15.3493 3.94302 14.1827 3.40641 12.8176C2.8698 11.4525 2.729 9.95036 3.00181 8.50094C3.27461 7.05152 3.94877 5.71991 4.93908 4.67444C5.59725 3.97962 6.37884 3.4284 7.23915 3.05232C8.09947 2.67624 9.02164 2.48267 9.95295 2.48267C10.8843 2.48267 11.8064 2.67624 12.6667 3.05232C13.5271 3.4284 14.3086 3.97962 14.9668 4.67444Z" fill="url(#paint26_radial_1_941)"/>
<path d="M16.9212 11.0671C17.4967 7.01079 14.845 3.23043 10.9984 2.62348C7.15182 2.01653 3.56694 4.81283 2.99137 8.86918C2.41581 12.9255 5.06751 16.7059 8.91412 17.3128C12.7607 17.9198 16.3456 15.1235 16.9212 11.0671Z" stroke="#000D20" stroke-width="0.5" stroke-miterlimit="10"/>
<path d="M12.0436 13.2221C12.0402 13.2871 12.0247 13.3508 11.9979 13.4095C11.9711 13.4682 11.9336 13.5208 11.8875 13.5642C11.8414 13.6076 11.7877 13.6409 11.7293 13.6624C11.671 13.6838 11.6092 13.6929 11.5476 13.6891H8.4471C8.38632 13.6929 8.32543 13.6837 8.26811 13.6621C8.21078 13.6404 8.1582 13.6067 8.11351 13.5631C8.06883 13.5195 8.03298 13.4668 8.0081 13.4082C7.98322 13.3496 7.96984 13.2863 7.96875 13.2221V6.68305C7.97103 6.61924 7.98522 6.55654 8.0105 6.49852C8.03579 6.4405 8.07167 6.38831 8.1161 6.34493C8.16053 6.30155 8.21263 6.26783 8.26943 6.2457C8.32623 6.22358 8.3866 6.21347 8.4471 6.21597H11.5741C11.6981 6.21078 11.8192 6.25659 11.9117 6.34374C12.0043 6.43088 12.0611 6.55255 12.0702 6.68305L12.0436 13.2221Z" fill="#000D20"/>
<path d="M11.61 6.83252H8.41211V12.2973H11.61V6.83252Z" fill="#FAFCFB"/>
<path d="M10.0061 13.1387C10.1577 13.1387 10.2807 13.0091 10.2807 12.8492C10.2807 12.6892 10.1577 12.5596 10.0061 12.5596C9.85439 12.5596 9.73145 12.6892 9.73145 12.8492C9.73145 13.0091 9.85439 13.1387 10.0061 13.1387Z" fill="#FAFCFB"/>
<defs>
<radialGradient id="paint0_radial_1_941" cx="0" cy="0" r="1" gradientUnits="userSpaceOnUse" gradientTransform="translate(10.6266 0.95719) scale(22.1195 23.3256)">
<stop offset="0.13" stop-color="white"/>
<stop offset="0.34" stop-color="#FCFCFD"/>
<stop offset="0.52" stop-color="#F1F5F7"/>
<stop offset="0.69" stop-color="#DFE7EC"/>
<stop offset="0.85" stop-color="#C6D5DD"/>
<stop offset="1" stop-color="#A8BECB"/>
</radialGradient>
<radialGradient id="paint1_radial_1_941" cx="0" cy="0" r="1" gradientUnits="userSpaceOnUse" gradientTransform="translate(10.6626 1.62966) scale(21.836 23.0267)">
<stop offset="0.13" stop-color="white"/>
<stop offset="0.34" stop-color="#FCFCFD"/>
<stop offset="0.52" stop-color="#F1F5F7"/>
<stop offset="0.69" stop-color="#DFE7EC"/>
<stop offset="0.85" stop-color="#C6D5DD"/>
<stop offset="1" stop-color="#A8BECB"/>
</radialGradient>
<radialGradient id="paint2_radial_1_941" cx="0" cy="0" r="1" gradientUnits="userSpaceOnUse" gradientTransform="translate(10.6883 2.27439) scale(21.5348 22.7091)">
<stop offset="0.13" stop-color="white"/>
<stop offset="0.34" stop-color="#FCFCFD"/>
<stop offset="0.52" stop-color="#F1F5F7"/>
<stop offset="0.69" stop-color="#DFE7EC"/>
<stop offset="0.85" stop-color="#C6D5DD"/>
<stop offset="1" stop-color="#A8BECB"/>
</radialGradient>
<radialGradient id="paint3_radial_1_941" cx="0" cy="0" r="1" gradientUnits="userSpaceOnUse" gradientTransform="translate(10.7243 2.90016) scale(21.2159 22.3728)">
<stop offset="0.13" stop-color="white"/>
<stop offset="0.34" stop-color="#FCFCFD"/>
<stop offset="0.52" stop-color="#F1F5F7"/>
<stop offset="0.69" stop-color="#DFE7EC"/>
<stop offset="0.85" stop-color="#C6D5DD"/>
<stop offset="1" stop-color="#A8BECB"/>
</radialGradient>
<radialGradient id="paint4_radial_1_941" cx="0" cy="0" r="1" gradientUnits="userSpaceOnUse" gradientTransform="translate(10.7499 3.50728) scale(20.8793 22.0178)">
<stop offset="0.13" stop-color="white"/>
<stop offset="0.34" stop-color="#FCFCFD"/>
<stop offset="0.52" stop-color="#F1F5F7"/>
<stop offset="0.69" stop-color="#DFE7EC"/>
<stop offset="0.85" stop-color="#C6D5DD"/>
<stop offset="1" stop-color="#A8BECB"/>
</radialGradient>
<radialGradient id="paint5_radial_1_941" cx="0" cy="0" r="1" gradientUnits="userSpaceOnUse" gradientTransform="translate(10.7775 4.09548) scale(20.5338 21.6535)">
<stop offset="0.13" stop-color="white"/>
<stop offset="0.34" stop-color="#FCFCFD"/>
<stop offset="0.52" stop-color="#F1F5F7"/>
<stop offset="0.69" stop-color="#DFE7EC"/>
<stop offset="0.85" stop-color="#C6D5DD"/>
<stop offset="1" stop-color="#A8BECB"/>
</radialGradient>
<radialGradient id="paint6_radial_1_941" cx="0" cy="0" r="1" gradientUnits="userSpaceOnUse" gradientTransform="translate(10.8033 4.65597) scale(20.1706 21.2705)">
<stop offset="0.13" stop-color="white"/>
<stop offset="0.34" stop-color="#FCFCFD"/>
<stop offset="0.52" stop-color="#F1F5F7"/>
<stop offset="0.69" stop-color="#DFE7EC"/>
<stop offset="0.85" stop-color="#C6D5DD"/>
<stop offset="1" stop-color="#A8BECB"/>
</radialGradient>
<radialGradient id="paint7_radial_1_941" cx="0" cy="0" r="1" gradientUnits="userSpaceOnUse" gradientTransform="translate(10.8292 5.20749) scale(19.8074 20.8875)">
<stop offset="0.13" stop-color="white"/>
<stop offset="0.34" stop-color="#FCFCFD"/>
<stop offset="0.52" stop-color="#F1F5F7"/>
<stop offset="0.69" stop-color="#DFE7EC"/>
<stop offset="0.85" stop-color="#C6D5DD"/>
<stop offset="1" stop-color="#A8BECB"/>
</radialGradient>
<radialGradient id="paint8_radial_1_941" cx="0" cy="0" r="1" gradientUnits="userSpaceOnUse" gradientTransform="translate(10.8571 5.74009) scale(19.4354 20.4951)">
<stop offset="0.13" stop-color="white"/>
<stop offset="0.34" stop-color="#FCFCFD"/>
<stop offset="0.52" stop-color="#F1F5F7"/>
<stop offset="0.69" stop-color="#DFE7EC"/>
<stop offset="0.85" stop-color="#C6D5DD"/>
<stop offset="1" stop-color="#A8BECB"/>
</radialGradient>
<radialGradient id="paint9_radial_1_941" cx="0" cy="0" r="1" gradientUnits="userSpaceOnUse" gradientTransform="translate(10.8739 6.25395) scale(19.0545 20.0935)">
<stop offset="0.13" stop-color="white"/>
<stop offset="0.34" stop-color="#FCFCFD"/>
<stop offset="0.52" stop-color="#F1F5F7"/>
<stop offset="0.69" stop-color="#DFE7EC"/>
<stop offset="0.85" stop-color="#C6D5DD"/>
<stop offset="1" stop-color="#A8BECB"/>
</radialGradient>
<radialGradient id="paint10_radial_1_941" cx="0" cy="0" r="1" gradientUnits="userSpaceOnUse" gradientTransform="translate(10.9014 6.75816) scale(18.6647 19.6824)">
<stop offset="0.13" stop-color="white"/>
<stop offset="0.34" stop-color="#FCFCFD"/>
<stop offset="0.52" stop-color="#F1F5F7"/>
<stop offset="0.69" stop-color="#DFE7EC"/>
<stop offset="0.85" stop-color="#C6D5DD"/>
<stop offset="1" stop-color="#A8BECB"/>
</radialGradient>
<radialGradient id="paint11_radial_1_941" cx="0" cy="0" r="1" gradientUnits="userSpaceOnUse" gradientTransform="translate(10.9276 7.24408) scale(18.2838 19.2807)">
<stop offset="0.13" stop-color="white"/>
<stop offset="0.34" stop-color="#FCFCFD"/>
<stop offset="0.52" stop-color="#F1F5F7"/>
<stop offset="0.69" stop-color="#DFE7EC"/>
<stop offset="0.85" stop-color="#C6D5DD"/>
<stop offset="1" stop-color="#A8BECB"/>
</radialGradient>
<radialGradient id="paint12_radial_1_941" cx="0" cy="0" r="1" gradientUnits="userSpaceOnUse" gradientTransform="translate(10.9543 7.71081) scale(17.9029 18.8791)">
<stop offset="0.13" stop-color="white"/>
<stop offset="0.34" stop-color="#FCFCFD"/>
<stop offset="0.52" stop-color="#F1F5F7"/>
<stop offset="0.69" stop-color="#DFE7EC"/>
<stop offset="0.85" stop-color="#C6D5DD"/>
<stop offset="1" stop-color="#A8BECB"/>
</radialGradient>
<radialGradient id="paint13_radial_1_941" cx="0" cy="0" r="1" gradientUnits="userSpaceOnUse" gradientTransform="translate(10.9803 8.16832) scale(17.5219 18.4774)">
<stop offset="0.13" stop-color="white"/>
<stop offset="0.34" stop-color="#FCFCFD"/>
<stop offset="0.52" stop-color="#F1F5F7"/>
<stop offset="0.69" stop-color="#DFE7EC"/>
<stop offset="0.85" stop-color="#C6D5DD"/>
<stop offset="1" stop-color="#A8BECB"/>
</radialGradient>
<radialGradient id="paint14_radial_1_941" cx="0" cy="0" r="1" gradientUnits="userSpaceOnUse" gradientTransform="translate(10.9979 8.62597) scale(17.141 18.0757)">
<stop offset="0.13" stop-color="white"/>
<stop offset="0.34" stop-color="#FCFCFD"/>
<stop offset="0.52" stop-color="#F1F5F7"/>
<stop offset="0.69" stop-color="#DFE7EC"/>
<stop offset="0.85" stop-color="#C6D5DD"/>
<stop offset="1" stop-color="#A8BECB"/>
</radialGradient>
<radialGradient id="paint15_radial_1_941" cx="0" cy="0" r="1" gradientUnits="userSpaceOnUse" gradientTransform="translate(11.0254 9.06504) scale(16.769 17.6834)">
<stop offset="0.13" stop-color="white"/>
<stop offset="0.34" stop-color="#FCFCFD"/>
<stop offset="0.52" stop-color="#F1F5F7"/>
<stop offset="0.69" stop-color="#DFE7EC"/>
<stop offset="0.85" stop-color="#C6D5DD"/>
<stop offset="1" stop-color="#A8BECB"/>
</radialGradient>
<radialGradient id="paint16_radial_1_941" cx="0" cy="0" r="1" gradientUnits="userSpaceOnUse" gradientTransform="translate(11.0514 9.49527) scale(16.4058 17.3004)">
<stop offset="0.13" stop-color="white"/>
<stop offset="0.34" stop-color="#FCFCFD"/>
<stop offset="0.52" stop-color="#F1F5F7"/>
<stop offset="0.69" stop-color="#DFE7EC"/>
<stop offset="0.85" stop-color="#C6D5DD"/>
<stop offset="1" stop-color="#A8BECB"/>
</radialGradient>
<radialGradient id="paint17_radial_1_941" cx="0" cy="0" r="1" gradientUnits="userSpaceOnUse" gradientTransform="translate(11.0786 9.91512) scale(16.0426 16.9174)">
<stop offset="0.13" stop-color="white"/>
<stop offset="0.34" stop-color="#FCFCFD"/>
<stop offset="0.52" stop-color="#F1F5F7"/>
<stop offset="0.69" stop-color="#DFE7EC"/>
<stop offset="0.85" stop-color="#C6D5DD"/>
<stop offset="1" stop-color="#A8BECB"/>
</radialGradient>
<radialGradient id="paint18_radial_1_941" cx="0" cy="0" r="1" gradientUnits="userSpaceOnUse" gradientTransform="translate(11.1047 10.336) scale(15.6971 16.553)">
<stop offset="0.13" stop-color="white"/>
<stop offset="0.34" stop-color="#FCFCFD"/>
<stop offset="0.52" stop-color="#F1F5F7"/>
<stop offset="0.69" stop-color="#DFE7EC"/>
<stop offset="0.85" stop-color="#C6D5DD"/>
<stop offset="1" stop-color="#A8BECB"/>
</radialGradient>
<radialGradient id="paint19_radial_1_941" cx="0" cy="0" r="1" gradientUnits="userSpaceOnUse" gradientTransform="translate(11.1315 10.7466) scale(15.3605 16.1981)">
<stop offset="0.13" stop-color="white"/>
<stop offset="0.34" stop-color="#FCFCFD"/>
<stop offset="0.52" stop-color="#F1F5F7"/>
<stop offset="0.69" stop-color="#DFE7EC"/>
<stop offset="0.85" stop-color="#C6D5DD"/>
<stop offset="1" stop-color="#A8BECB"/>
</radialGradient>
<radialGradient id="paint20_radial_1_941" cx="0" cy="0" r="1" gradientUnits="userSpaceOnUse" gradientTransform="translate(11.1664 11.158) scale(15.0327 15.8524)">
<stop offset="0.13" stop-color="white"/>
<stop offset="0.34" stop-color="#FCFCFD"/>
<stop offset="0.52" stop-color="#F1F5F7"/>
<stop offset="0.69" stop-color="#DFE7EC"/>
<stop offset="0.85" stop-color="#C6D5DD"/>
<stop offset="1" stop-color="#A8BECB"/>
</radialGradient>
<radialGradient id="paint21_radial_1_941" cx="0" cy="0" r="1" gradientUnits="userSpaceOnUse" gradientTransform="translate(11.1934 11.5687) scale(14.7138 15.5161)">
<stop offset="0.13" stop-color="white"/>
<stop offset="0.34" stop-color="#FCFCFD"/>
<stop offset="0.52" stop-color="#F1F5F7"/>
<stop offset="0.69" stop-color="#DFE7EC"/>
<stop offset="0.85" stop-color="#C6D5DD"/>
<stop offset="1" stop-color="#A8BECB"/>
</radialGradient>
<radialGradient id="paint22_radial_1_941" cx="0" cy="0" r="1" gradientUnits="userSpaceOnUse" gradientTransform="translate(11.2291 11.98) scale(14.4215 15.2079)">
<stop offset="0.13" stop-color="white"/>
<stop offset="0.34" stop-color="#FCFCFD"/>
<stop offset="0.52" stop-color="#F1F5F7"/>
<stop offset="0.69" stop-color="#DFE7EC"/>
<stop offset="0.85" stop-color="#C6D5DD"/>
<stop offset="1" stop-color="#A8BECB"/>
</radialGradient>
<radialGradient id="paint23_radial_1_941" cx="0" cy="0" r="1" gradientUnits="userSpaceOnUse" gradientTransform="translate(11.2654 12.3911) scale(14.138 14.9089)">
<stop offset="0.13" stop-color="white"/>
<stop offset="0.34" stop-color="#FCFCFD"/>
<stop offset="0.52" stop-color="#F1F5F7"/>
<stop offset="0.69" stop-color="#DFE7EC"/>
<stop offset="0.85" stop-color="#C6D5DD"/>
<stop offset="1" stop-color="#A8BECB"/>
</radialGradient>
<radialGradient id="paint24_radial_1_941" cx="0" cy="0" r="1" gradientUnits="userSpaceOnUse" gradientTransform="translate(11.3003 12.8022) scale(13.8723 14.6287)">
<stop offset="0.13" stop-color="white"/>
<stop offset="0.34" stop-color="#FCFCFD"/>
<stop offset="0.52" stop-color="#F1F5F7"/>
<stop offset="0.69" stop-color="#DFE7EC"/>
<stop offset="0.85" stop-color="#C6D5DD"/>
<stop offset="1" stop-color="#A8BECB"/>
</radialGradient>
<radialGradient id="paint25_radial_1_941" cx="0" cy="0" r="1" gradientUnits="userSpaceOnUse" gradientTransform="translate(11.3352 13.2225) scale(13.6331 14.3765)">
<stop offset="0.13" stop-color="white"/>
<stop offset="0.34" stop-color="#FCFCFD"/>
<stop offset="0.52" stop-color="#F1F5F7"/>
<stop offset="0.69" stop-color="#DFE7EC"/>
<stop offset="0.85" stop-color="#C6D5DD"/>
<stop offset="1" stop-color="#A8BECB"/>
</radialGradient>
<radialGradient id="paint26_radial_1_941" cx="0" cy="0" r="1" gradientUnits="userSpaceOnUse" gradientTransform="translate(11.3703 13.6422) scale(13.4205 14.1523)">
<stop offset="0.13" stop-color="white"/>
<stop offset="0.34" stop-color="#FCFCFD"/>
<stop offset="0.52" stop-color="#F1F5F7"/>
<stop offset="0.69" stop-color="#DFE7EC"/>
<stop offset="0.85" stop-color="#C6D5DD"/>
<stop offset="1" stop-color="#A8BECB"/>
</radialGradient>
</defs>
</svg>
