<svg width="42" height="35" viewBox="0 0 42 35" fill="none" xmlns="http://www.w3.org/2000/svg">
<path fill-rule="evenodd" clip-rule="evenodd" d="M19.3077 25.1884C19.255 24.9245 19.2022 24.6605 19.1494 24.3966C17.9062 24.4558 16.8394 24.5138 16.4572 23.684C16.2123 23.2581 16.2989 22.3696 16.2989 21.7045C16.3001 19.0677 17.1303 19.7548 19.2286 19.2499C19.2772 18.7834 20.1787 16.8744 20.1787 16.8744C19.8311 16.2187 18.8704 15.9859 18.6743 15.1325C18.4018 13.9465 21.0934 11.8341 22.0791 11.8861L23.7419 13.3113L24.2961 13.0738C23.5672 10.4812 20.5034 10.4281 18.4368 9.11473C18.4104 8.98276 18.384 8.85079 18.3576 8.71883L18.5951 8.32292C21.0303 7.86565 24.7469 10.8497 25.4047 12.5195L26.1965 12.3611C26.1433 11.281 26.0764 10.1265 26.7507 9.74818C27.2292 9.34047 27.7983 9.72965 28.4927 9.43145L30.1555 7.6103L27.4634 4.83897H27.1466C26.4755 5.72607 25.6426 6.4783 24.692 7.05603C23.9952 6.82712 20.0054 5.21532 19.7828 4.75979C19.73 3.75683 19.6773 2.75388 19.6245 1.75092L19.4661 1.51338C18.3218 1.49184 16.4386 1.27702 15.5863 1.67174C15.4209 2.65469 15.6161 4.21099 15.3487 5.07651C13.8502 5.85565 12.0432 6.52029 10.5187 7.05603L7.9849 4.83897C7.18866 5.0819 5.31105 6.92293 5.1344 7.76866C5.90633 8.56632 6.7093 9.29265 7.35146 10.2233C7.1832 10.7735 5.50061 14.8909 5.21358 15.0533C4.49802 15.55 2.54281 15.0595 1.8088 15.4492L1.88799 19.1707L2.04635 19.4082L5.1344 19.4874C5.58731 19.8495 7.2897 24.0841 7.27228 24.6342L5.1344 26.9304V27.2471L7.90572 29.9393L10.0436 27.8014L10.8354 27.643C11.4997 27.9467 15.2042 29.4055 15.4279 29.8601C15.4807 30.9158 15.5335 31.9716 15.5863 33.0273L16.6948 33.344V34.1358L16.4572 34.215C14.2553 35.1859 14.2353 32.1795 14.3194 30.4143C13.5682 30.2356 10.8606 28.8639 10.5979 28.9099C9.54698 29.0941 9.29202 31.548 7.589 31.127C6.90709 30.9584 3.65427 27.7539 3.94668 26.6137C4.19698 25.6376 5.43117 24.9738 6.00538 24.2383C5.45904 23.0796 5.00905 21.9024 4.50095 20.5959C1.41939 20.6605 0.621094 20.6051 0.621094 17.5079L0.700274 14.9741C1.51314 13.1488 3.62996 14.7184 4.58013 14.0239L6.00538 10.3024C5.38247 9.85697 4.13426 8.82113 3.94668 8.0062C3.65158 6.72418 7.02016 3.33715 8.30163 3.65126C9.28458 3.89221 9.94629 5.13194 10.677 5.70996C11.885 5.29426 12.8372 4.48677 14.3194 4.2847C14.2143 0.945415 14.4997 0.325668 17.8033 0.325668C18.6537 0.325668 19.7401 0.211093 20.2579 0.56321C21.2284 1.2231 20.6518 2.95558 20.9705 4.2847C23.8527 4.76193 24.1858 6.77272 26.1965 4.04716C26.5755 3.87336 26.995 3.47065 27.7009 3.65126C28.4221 3.83575 31.4027 6.78745 31.3432 7.68948C31.2871 8.54091 30.5682 8.91385 30.1555 9.43145V9.51063C32.2134 9.92807 30.6192 11.601 31.264 12.3611L32.0558 12.5195C33.5855 13.1352 33.9415 13.4474 34.9855 12.0444C35.4204 11.919 35.6209 11.865 36.0941 11.8861C37.0486 12.3656 38.6895 13.7554 38.7862 15.0533C38.473 15.8317 37.9078 16.4157 37.2818 16.8744L38.3111 19.329C41.4212 19.205 41.7937 20.9498 41.0033 23.8423C40.3268 24.3537 39.6194 24.4277 38.3111 24.3966C37.7547 26.392 36.8893 26.9192 38.6278 28.1973C38.6806 28.4876 38.7334 28.7779 38.7862 29.0683C38.3591 30.1391 36.8885 31.971 35.4606 31.998L33.7186 30.4935L31.264 31.4437C31.2805 32.263 31.259 33.1398 31.1057 33.7399C30.2696 34.3952 26.9313 34.8223 26.3548 33.5816C26.1027 33.1342 26.1779 32.138 26.1965 31.4437L23.6627 30.4935C23.0961 31.317 22.0986 32.4275 20.8914 31.6812C20.9529 32.9323 20.8388 33.7669 20.0204 34.1358C19.3216 34.588 18.5779 34.2655 18.3576 33.6608C18.7392 33.1751 19.0956 33.219 19.7037 32.9481V30.4143C19.4633 29.8492 18.4199 29.6925 18.6743 28.5932C18.8705 27.746 19.9961 27.4635 20.0996 26.6929L19.7828 26.297C13.6202 26.8454 9.60296 24.1987 8.53917 19.0123C7.59098 14.3898 10.2636 11.1833 12.7357 9.58981C13.4563 9.12534 15.242 7.94594 16.3781 8.32292L16.774 8.56046C16.764 9.0346 16.6999 9.09145 16.5364 9.35227C6.46321 11.4968 7.53603 25.9189 19.3077 25.1884ZM17.4866 23.2089C18.2116 23.1931 19.4825 23.0497 19.9412 23.3673L21.4456 27.0888C19.8118 30.0284 19.3869 27.8719 21.6832 30.8103L23.2668 29.2266L23.5835 29.1475C24.5594 29.2764 26.7485 30.2391 27.3842 30.8894V33.1065H30.0763C30.1027 32.3147 30.1291 31.5229 30.1555 30.7311C31.0487 30.1531 32.8487 29.2772 33.9562 29.1475L35.6982 30.7311H35.8565L37.5985 28.9099C37.0694 28.2363 36.1099 27.8489 36.0149 26.772L37.5985 23.2881L39.9739 23.2089C39.9475 22.3115 39.9211 21.4141 39.8947 20.5168L37.5193 20.4376C37.312 20.3034 36.0246 16.7463 36.0941 16.5577L37.5985 14.8949L35.7773 13.0738H35.619C35.146 13.7095 34.5413 14.2056 33.877 14.6574C33.3738 14.4905 30.1809 13.2144 30.0763 12.9154C30.0499 12.15 30.0235 11.3846 29.9971 10.6192L27.3842 10.6983C27.4159 11.7106 27.4197 12.7224 27.0675 13.3113C25.7228 13.6264 24.7639 14.1995 23.5835 14.6574L21.7624 13.0738H21.604L19.862 14.8949L21.3664 16.3994L21.4456 16.5577C21.4121 17.6936 20.4899 19.5397 19.9412 20.4376L17.4866 20.5959V23.2089ZM27.7801 15.1325C37.3007 14.9336 37.8803 26.8655 30.0763 28.5932C25.1587 29.6819 20.7303 24.7801 22.1583 20.0417C23.073 17.0061 24.9702 16.3317 27.7801 15.1325ZM27.9384 16.3202L26.434 16.7953C26.503 17.112 26.4134 17.2219 26.2757 17.5079C25.7113 17.5453 25.5205 17.3445 25.2463 17.5871L24.217 18.6164C24.4271 18.9929 24.4144 19.0157 24.2961 19.4874C24.0885 19.5666 23.7318 19.6502 23.5835 19.8041C22.8503 21.028 23.7718 21.3337 23.5835 22.1004C23.4179 22.4171 23.3059 22.3451 23.1876 22.7338C23.3196 23.2089 23.4515 23.684 23.5835 24.1591C24.0317 24.1757 24.1151 24.2449 24.3753 24.3966C24.315 25.156 24.1597 25.2188 24.6129 25.5843L25.4047 26.3761C26.0042 26.1654 26.6264 26.2639 26.434 27.0096H26.5924L28.176 27.4847C28.2663 27.1661 28.2848 27.1816 28.4927 27.0096C29.1512 27.0288 29.119 27.1838 29.4429 27.4847L30.9473 27.0888C31.0344 26.7621 30.969 26.5179 31.3432 26.297C31.6641 26.1759 31.8129 26.297 32.135 26.3761L33.2436 25.1884C33.1006 24.9034 33.0882 24.6896 33.1644 24.3174C33.372 24.2383 33.7287 24.1546 33.877 24.0007C34.1383 23.5978 34.2536 23.0638 34.2729 22.4171C33.91 22.3047 33.7709 22.1028 33.877 21.7836C34.0259 21.3413 34.1828 21.4501 34.2729 20.9127C34.1409 20.5431 34.009 20.1736 33.877 19.8041L33.0852 19.329C33.1603 18.1 32.7644 18.0968 32.0558 17.3495L31.4224 17.5871C31.1369 17.2747 31.0453 16.9134 30.789 16.7161L29.2845 16.3202C29.1627 16.7355 29.0787 16.7723 28.5719 16.7953L27.9384 16.3202ZM28.5719 17.112C29.0348 17.1644 29.125 17.2399 29.2845 17.5871C29.3109 18.5108 29.3373 19.4346 29.3637 20.3584C29.9167 20.562 30.0288 20.9402 30.3931 21.3086C31.2713 21.2748 31.9806 21.3013 32.4518 21.6253V21.7045L32.2142 22.4171C31.642 22.4747 30.5998 22.4459 30.1555 22.6546C29.6059 24.3931 26.9633 23.5135 27.0675 21.5461C27.3539 20.923 27.6082 20.6175 28.176 20.2792C28.1491 19.2762 28.0382 17.8211 28.4135 17.1912L28.5719 17.112ZM28.5719 21.3877L28.3344 21.7045L28.2552 22.1004L28.7303 22.4171L29.2053 22.1004C29.1883 21.743 29.1493 21.6735 29.047 21.4669L28.5719 21.3877Z" fill="white"/>
</svg>
