<svg width="33" height="31" viewBox="0 0 33 31" fill="none" xmlns="http://www.w3.org/2000/svg">
<path d="M13.2141 12.2214C13.0646 12.0759 11.6562 10.8265 10.9707 10.22L7.97949 13.3131L9.4751 15.3146L8.91425 16.2243M8.91425 22.4106L9.4751 23.6842L7.97949 25.1398L10.9707 28.233L12.6533 26.5954L14.4244 27.0431L14.8303 29.8083H19.295L19.7009 27.0431L21.6269 26.5954L22.9356 28.233L26.3007 25.1398L24.4312 23.3203L24.992 22.4106M24.992 15.8604L24.4312 14.9507L25.9268 13.3131L22.9356 10.22L21.0661 12.2214" stroke="#4DB6FE" stroke-width="0.797722"/>
<path d="M3.87266 13.6265V15.4779M3.87266 15.4779L4.83022 16.9591L5.97928 15.4779M3.87266 15.4779H1.95755L1 16.2185V22.1431H2.7236M5.97928 15.4779V13.6265M5.97928 15.4779H7.89439L8.85194 16.4036V22.1431H7.12835M2.7236 22.1431V17.8848M2.7236 22.1431H4.83022H7.12835M7.12835 17.8848V22.1431" stroke="#4DB6FE" stroke-width="0.797722"/>
<path d="M27.4283 13.6265V15.4779M27.4283 15.4779L28.3859 16.9591L29.5349 15.4779M27.4283 15.4779H25.5132L24.5557 16.2185V22.1431H26.2793M29.5349 15.4779V13.6265M29.5349 15.4779H31.4501L32.4076 16.4036V22.1431H30.684M26.2793 22.1431V17.8848M26.2793 22.1431H28.3859H30.684M30.684 17.8848V22.1431" stroke="#4DB6FE" stroke-width="0.797722"/>
<path d="M16.0865 4.25854V6.10999M16.0865 6.10999L17.0441 7.59115L18.1931 6.10999M16.0865 6.10999H14.1714L13.2139 6.85057V12.7752H14.9375M18.1931 6.10999V4.25854M18.1931 6.10999H20.1083L21.0658 7.03572V12.7752H19.3422M14.9375 12.7752V8.51687M14.9375 12.7752H17.0441H19.3422M19.3422 8.51687V12.7752" stroke="#4DB6FE" stroke-width="0.797722"/>
<path d="M21.5398 20.014C21.5398 22.3717 19.5791 24.2993 17.1402 24.2993C14.7013 24.2993 12.7407 22.3717 12.7407 20.014C12.7407 17.6563 14.7013 15.7287 17.1402 15.7287C19.5791 15.7287 21.5398 17.6563 21.5398 20.014Z" stroke="#4DB6FE" stroke-width="0.797722"/>
<path d="M6.70747 11.9234C6.70747 13.1757 5.85268 14.0795 4.92524 14.0795C3.99779 14.0795 3.143 13.1757 3.143 11.9234C3.143 10.6711 3.99779 9.76727 4.92524 9.76727C5.85268 9.76727 6.70747 10.6711 6.70747 11.9234Z" stroke="#4DB6FE" stroke-width="0.797722"/>
<path d="M30.2641 11.9234C30.2641 13.1757 29.4093 14.0795 28.4819 14.0795C27.5544 14.0795 26.6996 13.1757 26.6996 11.9234C26.6996 10.6711 27.5544 9.76727 28.4819 9.76727C29.4093 9.76727 30.2641 10.6711 30.2641 11.9234Z" stroke="#4DB6FE" stroke-width="0.797722"/>
<path d="M18.9213 2.555C18.9213 3.80732 18.0665 4.71113 17.1391 4.71113C16.2117 4.71113 15.3569 3.80732 15.3569 2.555C15.3569 1.30267 16.2117 0.398861 17.1391 0.398861C18.0665 0.398861 18.9213 1.30267 18.9213 2.555Z" stroke="#4DB6FE" stroke-width="0.797722"/>
</svg>
