<svg width="40" height="34" viewBox="0 0 40 34" fill="none" xmlns="http://www.w3.org/2000/svg">
<path d="M3.1294 30.2451H37.0213M3.1294 30.2451C2.32598 30.4307 0.780944 30.3229 1.02605 28.4062C1.27115 26.4895 1.12817 18.0239 1.02605 14.0308C1.00486 13.3594 1.64289 12.0168 4.36447 12.0168H10.9439M3.1294 30.2451C3.1294 30.2451 1.5441 30.3332 1.5441 31.5736C1.5441 32.814 3.1294 32.814 3.1294 32.814H37.0213C37.0213 32.814 38.7302 32.814 38.7302 31.5333C38.7302 30.2223 37.0213 30.2451 37.0213 30.2451M37.0213 30.2451C38.6111 30.2451 39.0028 29.0192 39 28.4062C39 24.0444 39 14.9891 39 13.6622C39 12.3352 37.075 11.7376 36.1126 11.6047H31.1869" stroke="#D9D9D9" stroke-linecap="round"/>
<path d="M18.6242 26.674H20.592M26.4952 26.674C26.4952 26.674 26.4952 22.3129 26.4952 20.0453C26.4952 18.6497 28.9316 18.2256 29.8185 16.731C30.8749 14.9509 31.0429 11.6722 31.0429 11.6722C31.0429 11.6722 31.1905 8.02387 29.4687 5.39233C27.7653 2.78891 24.2076 1.20293 21.4228 1.03142C18.2308 0.834825 15.957 1.53667 13.7267 3.82245C11.299 6.31044 11.9776 9.05556 11.2779 12.37C10.6675 15.2619 7.60478 17.0798 8.12951 18.3008C8.64076 19.4905 10.558 18.9684 11.2779 20.0453C11.6277 20.5686 10.4034 24.7551 12.6772 24.7551C14.9511 24.7551 16.0005 24.7551 16.0005 26.3251V30.1628H26.4952V26.674ZM26.4952 26.674H22.5597M22.5597 26.674C22.5597 22.791 22.5597 16.731 22.5597 16.731L26.4952 14.8121M22.5597 26.674H20.592M20.592 26.674V14.8121M20.592 8.18343V14.8121M20.592 14.8121L24.2214 13.2422V11.6722M20.592 17.952L18.6242 17.6032V15.6843M20.592 20.7431L15.6507 19.6964V12.37" stroke="#D9D9D9"/>
<ellipse cx="20.4432" cy="6.30235" rx="1.76744" ry="1.76744" stroke="#D9D9D9"/>
<ellipse cx="24.4203" cy="10.2794" rx="1.32558" ry="1.32558" stroke="#D9D9D9"/>
<ellipse cx="27.5106" cy="14.2562" rx="1.76744" ry="1.76744" stroke="#D9D9D9"/>
<ellipse cx="18.2309" cy="14.2562" rx="1.32558" ry="1.76744" stroke="#D9D9D9"/>
<ellipse cx="15.5824" cy="10.2794" rx="1.32558" ry="1.32558" stroke="#D9D9D9"/>
</svg>
