<svg width="19" height="20" viewBox="0 0 19 20" fill="none" xmlns="http://www.w3.org/2000/svg">
<path d="M9.95311 19.5972C14.8395 19.5972 18.8007 15.42 18.8007 10.2671C18.8007 5.11423 14.8395 0.937012 9.95311 0.937012C5.06669 0.937012 1.10547 5.11423 1.10547 10.2671C1.10547 15.42 5.06669 19.5972 9.95311 19.5972Z" fill="white"/>
<path d="M18.6466 10.6036C18.821 5.54061 15.0702 1.2872 10.2691 1.10332C5.46791 0.919439 1.43444 4.87472 1.26007 9.93768C1.08569 15.0006 4.83645 19.254 9.63762 19.4379C14.4388 19.6218 18.4723 15.6665 18.6466 10.6036Z" fill="url(#paint0_radial_1_877)"/>
<path d="M18.5026 9.86985C18.577 11.6533 18.1483 13.42 17.2706 14.9465C16.3928 16.473 15.1056 17.6907 13.5715 18.4457C12.0375 19.2007 10.3256 19.459 8.65237 19.188C6.97911 18.917 5.41964 18.1289 4.17117 16.9232C2.9227 15.7176 2.04131 14.1486 1.63846 12.4147C1.23561 10.6808 1.32939 8.85985 1.90795 7.18215C2.4865 5.50446 3.52385 4.04536 4.88879 2.98938C6.25374 1.93341 7.88498 1.32798 9.57623 1.24966C11.8439 1.14466 14.0583 1.99383 15.7322 3.6104C17.4062 5.22697 18.4027 7.47854 18.5026 9.86985Z" fill="url(#paint1_radial_1_877)"/>
<path d="M18.3459 9.66778C18.4579 11.4178 18.0753 13.1635 17.2466 14.6843C16.4178 16.205 15.18 17.4325 13.6898 18.2115C12.1995 18.9905 10.5237 19.286 8.8742 19.0607C7.22469 18.8355 5.67555 18.0995 4.42266 16.9458C3.16977 15.7922 2.26939 14.2727 1.83535 12.5795C1.40131 10.8863 1.45312 9.09537 1.98421 7.4332C2.5153 5.77102 3.50182 4.31223 4.81906 3.24126C6.1363 2.17029 7.72509 1.53523 9.38456 1.41638C10.4868 1.33744 11.593 1.48827 12.6399 1.86026C13.6869 2.23225 14.6541 2.81811 15.4862 3.58437C16.3184 4.35063 16.9993 5.28227 17.4899 6.32608C17.9806 7.36989 18.2714 8.50541 18.3459 9.66778Z" fill="url(#paint2_radial_1_877)"/>
<path d="M18.1975 9.46442C18.348 11.1839 18.0115 12.9118 17.2307 14.4296C16.4498 15.9475 15.2597 17.1871 13.8109 17.9916C12.362 18.7962 10.7194 19.1297 9.09078 18.9498C7.46219 18.7699 5.92075 18.0848 4.66139 16.9811C3.40202 15.8774 2.4813 14.4047 2.01564 12.7492C1.54999 11.0937 1.56032 9.32981 2.04532 7.68051C2.53033 6.0312 3.46823 4.57059 4.74042 3.48339C6.01262 2.39619 7.56196 1.73122 9.19253 1.57257C10.2752 1.46723 11.3669 1.5878 12.4054 1.9274C13.4439 2.26699 14.4088 2.81896 15.245 3.55179C16.0812 4.28461 16.7723 5.18395 17.2789 6.19844C17.7855 7.21293 18.0977 8.32271 18.1975 9.46442Z" fill="url(#paint3_radial_1_877)"/>
<path d="M18.0478 9.23438C18.24 10.9211 17.9537 12.63 17.2251 14.1452C16.4965 15.6604 15.3584 16.9139 13.9545 17.7472C12.5506 18.5804 10.944 18.9562 9.33762 18.8269C7.73129 18.6976 6.19735 18.069 4.92965 17.0207C3.66195 15.9724 2.71739 14.5513 2.21534 12.937C1.71329 11.3228 1.67628 9.58781 2.10899 7.95138C2.54169 6.31496 3.42469 4.85052 4.6464 3.74312C5.86811 2.63573 7.3737 1.93509 8.97289 1.72975C10.0362 1.59322 11.1146 1.6791 12.1463 1.98249C13.1781 2.28588 14.1431 2.80082 14.9859 3.49784C15.8288 4.19487 16.5331 5.06031 17.0585 6.04464C17.5839 7.02898 17.9201 8.11289 18.0478 9.23438Z" fill="url(#paint4_radial_1_877)"/>
<path d="M17.9005 9.06833C18.1196 10.725 17.8682 12.413 17.1781 13.9191C16.488 15.4253 15.3902 16.682 14.0233 17.5306C12.6563 18.3792 11.0816 18.7816 9.49791 18.6871C7.91422 18.5925 6.39262 18.0052 5.12525 16.9993C3.85789 15.9934 2.9016 14.6141 2.37715 13.0354C1.8527 11.4568 1.78361 9.74964 2.1786 8.12961C2.57359 6.50959 3.41496 5.04932 4.59644 3.93322C5.77793 2.81711 7.24654 2.09522 8.81683 1.85872C9.86227 1.70249 10.9267 1.76509 11.9491 2.04295C12.9716 2.32081 13.9321 2.80847 14.7758 3.47805C15.6194 4.14763 16.3296 4.986 16.8658 5.94522C17.4019 6.90444 17.7536 7.9657 17.9005 9.06833Z" fill="url(#paint5_radial_1_877)"/>
<path d="M17.7157 8.86539C17.9714 10.4825 17.7671 12.1432 17.1286 13.6379C16.4901 15.1327 15.446 16.3945 14.1281 17.2641C12.8102 18.1337 11.2776 18.5721 9.72359 18.5241C8.16963 18.476 6.66399 17.9435 5.39671 16.9939C4.12943 16.0443 3.15731 14.7201 2.60303 13.1885C2.04875 11.6568 1.93716 9.98629 2.28234 8.3878C2.62752 6.78932 3.414 5.33448 4.54252 4.20691C5.67104 3.07933 7.09102 2.32956 8.62325 2.05222C9.64477 1.86731 10.6909 1.89705 11.7014 2.13973C12.712 2.3824 13.6672 2.83323 14.5121 3.46632C15.357 4.09941 16.0749 4.90228 16.6247 5.82881C17.1744 6.75535 17.5452 7.7873 17.7157 8.86539Z" fill="url(#paint6_radial_1_877)"/>
<path d="M17.5946 8.67154C17.8955 10.2653 17.7415 11.9173 17.1519 13.4187C16.5623 14.9201 15.5637 16.2033 14.2824 17.1061C13.0011 18.0089 11.4946 18.4906 9.95362 18.4904C8.41262 18.4901 6.90632 18.0079 5.62526 17.1047C4.34421 16.2015 3.34597 14.918 2.75682 13.4164C2.16767 11.9148 2.01409 10.2627 2.31551 8.66908C2.61693 7.07544 3.3598 5.61189 4.45015 4.46356C5.5405 3.31524 6.92933 2.53374 8.44094 2.21793C10.4662 1.7948 12.568 2.23686 14.2844 3.44697C16.0007 4.65707 17.1913 6.53623 17.5946 8.67154Z" fill="url(#paint7_radial_1_877)"/>
<path d="M17.4456 8.46914C17.783 10.032 17.6733 11.6653 17.1304 13.1625C16.5875 14.6596 15.6358 15.9534 14.3956 16.8801C13.1554 17.8068 11.6824 18.3249 10.163 18.3688C8.6436 18.4128 7.14596 17.9805 5.85949 17.1269C4.57301 16.2732 3.55551 15.0363 2.93564 13.5728C2.31578 12.1093 2.1214 10.4848 2.3771 8.90474C2.63279 7.32471 3.32707 5.86013 4.37213 4.69621C5.41719 3.53229 6.76609 2.72133 8.24823 2.36587C10.2354 1.88931 12.3206 2.26457 14.0454 3.40912C15.7702 4.55366 16.9932 6.37377 17.4456 8.46914Z" fill="url(#paint8_radial_1_877)"/>
<path d="M17.2966 8.31188C17.667 9.84702 17.597 11.4635 17.0955 12.9567C16.594 14.4498 15.6835 15.7525 14.4794 16.6996C13.2754 17.6466 11.8318 18.1956 10.3317 18.2769C8.83153 18.3582 7.34224 17.9682 6.05244 17.1562C4.76265 16.3443 3.73037 15.147 3.08635 13.7159C2.44234 12.2848 2.21556 10.6844 2.43474 9.1173C2.65392 7.55021 3.3092 6.08697 4.31759 4.9129C5.32597 3.73883 6.6421 2.90676 8.09926 2.52207C10.0468 2.00792 12.1081 2.32854 13.832 3.4137C15.5558 4.49887 16.8016 6.26015 17.2966 8.31188Z" fill="url(#paint9_radial_1_877)"/>
<path d="M17.1385 8.07259C17.5506 9.57193 17.5318 11.1665 17.0844 12.6545C16.6371 14.1426 15.7812 15.4573 14.6252 16.4324C13.4692 17.4075 12.065 17.9991 10.59 18.1325C9.11512 18.2659 7.63583 17.935 6.33926 17.1817C5.04269 16.4285 3.98709 15.2866 3.30599 13.9006C2.62489 12.5146 2.34887 10.9467 2.51286 9.39528C2.67685 7.84385 3.27348 6.37854 4.22728 5.18471C5.18107 3.99089 6.44919 3.12217 7.87123 2.68843C8.81497 2.39932 9.80351 2.30929 10.7803 2.4235C11.757 2.5377 12.7029 2.85389 13.5636 3.35398C14.4244 3.85408 15.1832 4.52825 15.7966 5.33792C16.41 6.14759 16.866 7.07687 17.1385 8.07259Z" fill="url(#paint10_radial_1_877)"/>
<path d="M16.9902 7.86927C17.4399 9.33723 17.4667 10.9129 17.0672 12.3969C16.6677 13.8809 15.8599 15.2067 14.7459 16.2066C13.6318 17.2064 12.2616 17.8355 10.8086 18.0141C9.35554 18.1928 7.88487 17.913 6.58259 17.2103C5.2803 16.5075 4.20489 15.4133 3.49234 14.066C2.7798 12.7187 2.46213 11.1788 2.57952 9.64111C2.6969 8.10341 3.24406 6.63696 4.1518 5.4272C5.05954 4.21744 6.28709 3.31871 7.67921 2.84467C9.54578 2.20907 11.5753 2.38135 13.3214 3.32363C15.0676 4.2659 16.3872 5.901 16.9902 7.86927Z" fill="url(#paint11_radial_1_877)"/>
<path d="M16.843 7.66735C17.3308 9.10433 17.4035 10.6616 17.052 12.1421C16.7004 13.6227 15.9405 14.9601 14.8681 15.9852C13.7958 17.0102 12.4593 17.677 11.0277 17.901C9.596 18.1251 8.13348 17.8964 6.82507 17.2439C5.51665 16.5914 4.42111 15.5444 3.67698 14.2354C2.93285 12.9263 2.57356 11.4139 2.64455 9.88946C2.71554 8.36503 3.21362 6.89704 4.0758 5.67114C4.93798 4.44523 6.12553 3.51647 7.48828 3.00231C9.31543 2.31294 11.3274 2.41713 13.0817 3.29197C14.8361 4.16682 16.189 5.74067 16.843 7.66735Z" fill="url(#paint12_radial_1_877)"/>
<path d="M16.6934 7.46391C17.2204 8.87041 17.3399 10.4102 17.0367 11.8883C16.7335 13.3664 16.0213 14.7165 14.9902 15.7676C13.9591 16.8187 12.6555 17.5236 11.2443 17.7931C9.83314 18.0626 8.37788 17.8846 7.06272 17.2815C5.74755 16.6785 4.6316 15.6775 3.85611 14.4054C3.08062 13.1332 2.68045 11.6471 2.70625 10.135C2.73205 8.62294 3.18267 7.15293 4.00106 5.91103C4.81945 4.66914 5.96883 3.71119 7.30372 3.15843C9.09064 2.4211 11.0818 2.46014 12.8414 3.26702C14.6011 4.0739 15.9861 5.58291 16.6934 7.46391Z" fill="url(#paint13_radial_1_877)"/>
<path d="M16.5368 7.27066C17.0984 8.64346 17.2614 10.161 17.0052 11.6315C16.7489 13.102 16.085 14.4594 15.0973 15.532C14.1095 16.6045 12.8424 17.3442 11.4561 17.6574C10.0697 17.9707 8.62647 17.8434 7.30874 17.2916C5.991 16.7399 4.85799 15.7886 4.05295 14.5579C3.2479 13.3272 2.80699 11.8724 2.78595 10.3774C2.7649 8.8825 3.16468 7.41455 3.93473 6.15919C4.70479 4.90383 5.81053 3.91744 7.11215 3.32473C7.9765 2.92982 8.90625 2.71864 9.84812 2.70329C10.79 2.68795 11.7255 2.86873 12.601 3.23529C13.4765 3.60184 14.2748 4.14697 14.9502 4.83943C15.6256 5.53189 16.1647 6.35808 16.5368 7.27066Z" fill="url(#paint14_radial_1_877)"/>
<path d="M16.3874 7.06753C16.9883 8.41005 17.198 9.91032 16.9901 11.3786C16.7822 12.8468 16.1661 14.217 15.2196 15.316C14.2731 16.4149 13.0389 17.1931 11.6729 17.5522C10.307 17.9112 8.87071 17.835 7.54584 17.3332C6.22096 16.8314 5.06698 15.9265 4.22987 14.7329C3.39277 13.5394 2.91014 12.1109 2.84305 10.628C2.77596 9.14522 3.12741 7.67472 3.85295 6.40256C4.57849 5.1304 5.64553 4.11374 6.91908 3.48117C7.76395 3.06018 8.67925 2.819 9.6126 2.77143C10.546 2.72387 11.479 2.87084 12.3585 3.20394C13.2379 3.53705 14.0464 4.04975 14.7378 4.71271C15.4291 5.37566 15.9897 6.17587 16.3874 7.06753Z" fill="url(#paint15_radial_1_877)"/>
<path d="M16.2393 6.86516C16.8779 8.17607 17.1334 9.65725 16.9735 11.1213C16.8135 12.5854 16.2454 13.9665 15.3409 15.09C14.4365 16.2135 13.2363 17.0288 11.8923 17.4328C10.5483 17.8368 9.12091 17.8114 7.79064 17.3597C6.46036 16.908 5.28703 16.0504 4.41909 14.8953C3.55115 13.7402 3.0276 12.3396 2.9147 10.8707C2.80179 9.4018 3.1046 7.93057 3.78481 6.64318C4.46501 5.35578 5.49205 4.31007 6.73598 3.63836C8.40219 2.73861 10.3389 2.57307 12.1208 3.1781C13.9027 3.78312 15.384 5.10924 16.2393 6.86516Z" fill="url(#paint16_radial_1_877)"/>
<path d="M16.0899 6.67118C16.756 7.94695 17.049 9.40211 16.932 10.8532C16.815 12.3043 16.2932 13.6864 15.4324 14.8253C14.5717 15.9642 13.4105 16.8088 12.0952 17.2528C10.7799 17.6968 9.36939 17.7202 8.04149 17.3201C6.71359 16.92 5.52773 16.1143 4.63339 15.0046C3.73906 13.8949 3.17629 12.5308 3.01601 11.0843C2.85574 9.6378 3.10514 8.17363 3.73278 6.87638C4.36042 5.57913 5.3382 4.50685 6.54286 3.79471C7.34798 3.31877 8.23448 3.01558 9.15124 2.90262C10.068 2.78966 10.9969 2.86917 11.8844 3.13657C12.7719 3.40396 13.6004 3.85395 14.3222 4.46059C15.044 5.06724 15.6448 5.81854 16.0899 6.67118Z" fill="url(#paint17_radial_1_877)"/>
<path d="M15.9685 6.46851C16.6809 7.71777 17.0263 9.16166 16.961 10.6178C16.8958 12.0739 16.4228 13.477 15.6018 14.6499C14.7808 15.8227 13.6486 16.7127 12.3483 17.2074C11.0479 17.7022 9.63772 17.7794 8.29575 17.4295C6.95378 17.0796 5.74023 16.3181 4.80838 15.2414C3.87653 14.1646 3.26817 12.8207 3.06013 11.3796C2.85209 9.9384 3.0537 8.46454 3.6395 7.14413C4.22531 5.82372 5.16902 4.71598 6.35147 3.96082C7.13868 3.45807 8.01224 3.1241 8.92208 2.97804C9.83192 2.83199 10.7601 2.87673 11.6536 3.10969C12.547 3.34265 13.388 3.75926 14.1284 4.33563C14.8689 4.91201 15.4942 5.63681 15.9685 6.46851Z" fill="url(#paint18_radial_1_877)"/>
<path d="M15.784 6.2653C16.5473 7.48646 16.9491 8.91938 16.9383 10.3819C16.9276 11.8445 16.5047 13.2707 15.7234 14.4791C14.9421 15.6876 13.8378 16.6239 12.5507 17.1689C11.2636 17.7139 9.85191 17.8431 8.49504 17.54C7.13817 17.2369 5.89739 16.5153 4.9304 15.4668C3.9634 14.4183 3.31386 13.0903 3.06433 11.6515C2.81479 10.2128 2.97653 8.72829 3.52899 7.38672C4.08146 6.04515 4.99969 4.90709 6.16699 4.11717C7.71565 3.06919 9.59356 2.70699 11.3937 3.10909C13.1939 3.51119 14.7713 4.64519 15.784 6.2653Z" fill="url(#paint19_radial_1_877)"/>
<path d="M15.6356 6.07164C16.4267 7.25564 16.8665 8.66075 16.8992 10.1087C16.9318 11.5567 16.5559 12.9823 15.8191 14.2046C15.0823 15.4269 14.0178 16.3909 12.7607 16.9743C11.5035 17.5577 10.1104 17.7342 8.75798 17.4814C7.40558 17.2286 6.15486 16.5578 5.16449 15.5543C4.17412 14.5508 3.48873 13.2596 3.19526 11.8447C2.9018 10.4298 3.01348 8.95481 3.51614 7.60691C4.01881 6.25902 4.88981 5.09894 6.01864 4.27384C7.52299 3.1772 9.37695 2.75088 11.1777 3.08751C12.9784 3.42413 14.5804 4.49651 15.6356 6.07164Z" fill="url(#paint20_radial_1_877)"/>
<path d="M15.4864 5.86916C16.3123 7.02379 16.7949 8.4108 16.8732 9.85474C16.9515 11.2987 16.6219 12.7347 15.9261 13.981C15.2303 15.2274 14.1996 16.2281 12.9643 16.8566C11.7291 17.4851 10.3448 17.7131 8.98665 17.5118C7.62849 17.3106 6.35746 16.689 5.33434 15.7258C4.31123 14.7626 3.58202 13.501 3.23895 12.1007C2.89589 10.7004 2.95438 9.22425 3.40704 7.859C3.85971 6.49375 4.68619 5.30075 5.78194 4.43093C7.25084 3.26794 9.09696 2.76629 10.9159 3.03587C12.7349 3.30544 14.3784 4.32427 15.4864 5.86916Z" fill="url(#paint21_radial_1_877)"/>
<path d="M15.3292 5.66613C16.1954 6.78501 16.7274 8.14965 16.858 9.58742C16.9885 11.0252 16.7118 12.4715 16.0628 13.7434C15.4139 15.0153 14.4217 16.0557 13.212 16.7329C12.0022 17.4102 10.6291 17.6939 9.26647 17.5481C7.9038 17.4023 6.61273 16.8337 5.55657 15.9141C4.50041 14.9944 3.72661 13.7652 3.33304 12.3817C2.93947 10.9983 2.94381 9.52286 3.34552 8.14203C3.74723 6.7612 4.52826 5.53702 5.58982 4.62433C6.29383 4.01749 7.1044 3.56301 7.97516 3.28691C8.84592 3.0108 9.75977 2.91849 10.6644 3.01526C11.569 3.11202 12.4467 3.39597 13.2471 3.85084C14.0476 4.30571 14.7551 4.92257 15.3292 5.66613Z" fill="url(#paint22_radial_1_877)"/>
<path d="M15.1803 5.47314C16.0781 6.56319 16.6493 7.90944 16.8217 9.34175C16.9941 10.774 16.7599 12.2281 16.1489 13.5201C15.5378 14.8121 14.5772 15.8841 13.3885 16.6005C12.1999 17.317 10.8365 17.6458 9.47064 17.5453C8.10483 17.4448 6.79792 16.9196 5.7151 16.036C4.63228 15.1524 3.82216 13.9502 3.38714 12.5812C2.95211 11.2122 2.91172 9.73798 3.27105 8.3448C3.63038 6.95162 4.37331 5.70205 5.40594 4.75402C6.09176 4.12277 6.88902 3.64053 7.75198 3.33494C8.61493 3.02935 9.52662 2.90644 10.4347 2.97325C11.3428 3.04006 12.2295 3.29528 13.0439 3.72427C13.8582 4.15326 14.5843 4.74758 15.1803 5.47314Z" fill="url(#paint23_radial_1_877)"/>
<path d="M15.0321 5.26966C15.9706 6.32937 16.59 7.65881 16.8118 9.08979C17.0337 10.5208 16.848 11.989 16.2784 13.3087C15.7088 14.6284 14.7808 15.7403 13.6118 16.5037C12.4428 17.2671 11.0854 17.6477 9.71119 17.5974C8.33702 17.5471 7.00787 17.0681 5.89192 16.221C4.77596 15.3739 3.92333 14.1968 3.44191 12.8386C2.96048 11.4804 2.87189 10.0021 3.18734 8.59083C3.50279 7.17953 4.2081 5.8986 5.21405 4.9101C6.56169 3.58584 8.35272 2.87987 10.1937 2.94729C12.0346 3.01471 13.7749 3.85 15.0321 5.26966Z" fill="url(#paint24_radial_1_877)"/>
<path d="M14.8841 5.06663C15.8664 6.09637 16.5366 7.41048 16.8099 8.8424C17.0831 10.2743 16.9471 11.7595 16.4189 13.1098C15.8908 14.4601 14.9943 15.6146 13.8432 16.4269C12.6922 17.2393 11.3383 17.673 9.95317 17.673C8.56808 17.673 7.21417 17.2393 6.06308 16.4269C4.912 15.6146 4.01556 14.4601 3.48741 13.1098C2.95927 11.7595 2.82319 10.2743 3.09644 8.8424C3.36969 7.41048 4.03995 6.09637 5.02227 5.06663C6.33272 3.69293 8.1054 2.92188 9.95317 2.92188C11.8009 2.92188 13.5736 3.69293 14.8841 5.06663Z" fill="url(#paint25_radial_1_877)"/>
<path d="M3.03716 10.2668C3.03197 8.82327 3.43314 7.41062 4.18986 6.20773C4.94658 5.00484 6.02481 4.06582 7.28798 3.50962C8.55116 2.95342 9.94245 2.80505 11.2857 3.08331C12.6288 3.36156 13.8635 4.05392 14.8333 5.0727C15.8031 6.09147 16.4643 7.39083 16.7333 8.8062C17.0023 10.2216 16.8668 11.6893 16.3442 13.0234C15.8216 14.3576 14.9352 15.4982 13.7974 16.3007C12.6596 17.1033 11.3215 17.5317 9.95265 17.5317C8.12309 17.5317 6.36807 16.7672 5.07191 15.4055C3.77576 14.0439 3.0441 12.1961 3.03716 10.2668V10.2668Z" stroke="#000D20" stroke-width="0.5" stroke-miterlimit="10"/>
<path d="M9.95291 11.3826L9.07864 10.5344L6.41211 12.9223C6.51184 13.0207 6.64271 13.0766 6.7793 13.079H13.1265C13.2631 13.0766 13.394 13.0207 13.4937 12.9223L10.8709 10.5529L9.95291 11.3826Z" fill="#030104"/>
<path d="M13.4928 7.62988C13.3931 7.53142 13.2622 7.47556 13.1256 7.47314H6.77837C6.6441 7.4742 6.51551 7.53042 6.41992 7.62988L9.91701 10.829L13.4928 7.62988Z" fill="#030104"/>
<path d="M6.24609 7.97095V12.5991L8.80771 10.3127L6.24609 7.97095Z" fill="#030104"/>
<path d="M11.0977 10.3131L13.6593 12.5995V7.96216L11.0977 10.3131Z" fill="#030104"/>
<defs>
<radialGradient id="paint0_radial_1_877" cx="0" cy="0" r="1" gradientUnits="userSpaceOnUse" gradientTransform="translate(11.6938 14.7753) scale(16.4538 17.351)">
<stop offset="0.13" stop-color="white"/>
<stop offset="1" stop-color="#FCFCFD"/>
</radialGradient>
<radialGradient id="paint1_radial_1_877" cx="0" cy="0" r="1" gradientUnits="userSpaceOnUse" gradientTransform="translate(11.6657 14.7008) scale(16.1828 17.0652)">
<stop offset="0.13" stop-color="white"/>
<stop offset="0.76" stop-color="#FCFDFD"/>
<stop offset="1" stop-color="#F8FAFB"/>
</radialGradient>
<radialGradient id="paint2_radial_1_877" cx="0" cy="0" r="1" gradientUnits="userSpaceOnUse" gradientTransform="translate(11.6402 14.6278) scale(15.9118 16.7794)">
<stop offset="0.13" stop-color="white"/>
<stop offset="0.67" stop-color="#FCFCFD"/>
<stop offset="1" stop-color="#F5F7F9"/>
</radialGradient>
<radialGradient id="paint3_radial_1_877" cx="0" cy="0" r="1" gradientUnits="userSpaceOnUse" gradientTransform="translate(11.6055 14.5536) scale(15.6582 16.512)">
<stop offset="0.13" stop-color="white"/>
<stop offset="0.61" stop-color="#FCFCFD"/>
<stop offset="1" stop-color="#F2F5F7"/>
</radialGradient>
<radialGradient id="paint4_radial_1_877" cx="0" cy="0" r="1" gradientUnits="userSpaceOnUse" gradientTransform="translate(11.5782 14.4895) scale(15.4134 16.2539)">
<stop offset="0.13" stop-color="white"/>
<stop offset="0.56" stop-color="#FCFCFD"/>
<stop offset="0.93" stop-color="#F1F4F7"/>
<stop offset="1" stop-color="#EEF2F5"/>
</radialGradient>
<radialGradient id="paint5_radial_1_877" cx="0" cy="0" r="1" gradientUnits="userSpaceOnUse" gradientTransform="translate(11.562 14.4248) scale(15.1774 16.005)">
<stop offset="0.13" stop-color="white"/>
<stop offset="0.53" stop-color="#FCFCFD"/>
<stop offset="0.87" stop-color="#F1F5F7"/>
<stop offset="1" stop-color="#EBF0F3"/>
</radialGradient>
<radialGradient id="paint6_radial_1_877" cx="0" cy="0" r="1" gradientUnits="userSpaceOnUse" gradientTransform="translate(11.5346 14.3602) scale(14.9501 15.7653)">
<stop offset="0.13" stop-color="white"/>
<stop offset="0.51" stop-color="#FCFCFD"/>
<stop offset="0.83" stop-color="#F1F4F7"/>
<stop offset="1" stop-color="#E8EDF1"/>
</radialGradient>
<radialGradient id="paint7_radial_1_877" cx="0" cy="0" r="1" gradientUnits="userSpaceOnUse" gradientTransform="translate(11.5096 14.3046) scale(14.7402 15.544)">
<stop offset="0.13" stop-color="white"/>
<stop offset="0.48" stop-color="#FCFCFD"/>
<stop offset="0.78" stop-color="#F1F5F7"/>
<stop offset="1" stop-color="#E4EBEF"/>
</radialGradient>
<radialGradient id="paint8_radial_1_877" cx="0" cy="0" r="1" gradientUnits="userSpaceOnUse" gradientTransform="translate(11.4918 14.2497) scale(14.5304 15.3227)">
<stop offset="0.13" stop-color="white"/>
<stop offset="0.47" stop-color="#FCFCFD"/>
<stop offset="0.75" stop-color="#F1F4F7"/>
<stop offset="1" stop-color="#E1E8ED"/>
</radialGradient>
<radialGradient id="paint9_radial_1_877" cx="0" cy="0" r="1" gradientUnits="userSpaceOnUse" gradientTransform="translate(11.4652 14.1939) scale(14.3381 15.1199)">
<stop offset="0.13" stop-color="white"/>
<stop offset="0.45" stop-color="#FCFCFD"/>
<stop offset="0.73" stop-color="#F1F4F7"/>
<stop offset="0.98" stop-color="#DFE7EC"/>
<stop offset="1" stop-color="#DEE6EB"/>
</radialGradient>
<radialGradient id="paint10_radial_1_877" cx="0" cy="0" r="1" gradientUnits="userSpaceOnUse" gradientTransform="translate(11.447 14.1482) scale(14.1632 14.9355)">
<stop offset="0.13" stop-color="white"/>
<stop offset="0.44" stop-color="#FCFCFD"/>
<stop offset="0.7" stop-color="#F1F4F7"/>
<stop offset="0.94" stop-color="#DFE7EC"/>
<stop offset="1" stop-color="#DAE3E9"/>
</radialGradient>
<radialGradient id="paint11_radial_1_877" cx="0" cy="0" r="1" gradientUnits="userSpaceOnUse" gradientTransform="translate(11.4298 14.1016) scale(13.9971 14.7603)">
<stop offset="0.13" stop-color="white"/>
<stop offset="0.43" stop-color="#FCFCFD"/>
<stop offset="0.68" stop-color="#F1F5F7"/>
<stop offset="0.92" stop-color="#DFE7EC"/>
<stop offset="1" stop-color="#D7E1E7"/>
</radialGradient>
<radialGradient id="paint12_radial_1_877" cx="0" cy="0" r="1" gradientUnits="userSpaceOnUse" gradientTransform="translate(11.4138 14.0564) scale(13.8397 14.5944)">
<stop offset="0.13" stop-color="white"/>
<stop offset="0.42" stop-color="#FCFCFD"/>
<stop offset="0.66" stop-color="#F1F5F7"/>
<stop offset="0.89" stop-color="#DFE7EC"/>
<stop offset="1" stop-color="#D4DFE5"/>
</radialGradient>
<radialGradient id="paint13_radial_1_877" cx="0" cy="0" r="1" gradientUnits="userSpaceOnUse" gradientTransform="translate(11.4041 14.0189) scale(13.6999 14.4469)">
<stop offset="0.13" stop-color="white"/>
<stop offset="0.41" stop-color="#FCFCFD"/>
<stop offset="0.64" stop-color="#F1F5F7"/>
<stop offset="0.86" stop-color="#DFE7EC"/>
<stop offset="1" stop-color="#D0DCE3"/>
</radialGradient>
<radialGradient id="paint14_radial_1_877" cx="0" cy="0" r="1" gradientUnits="userSpaceOnUse" gradientTransform="translate(11.3873 13.9824) scale(13.5687 14.3086)">
<stop offset="0.13" stop-color="white"/>
<stop offset="0.4" stop-color="#FCFCFD"/>
<stop offset="0.63" stop-color="#F1F5F7"/>
<stop offset="0.84" stop-color="#DFE8EC"/>
<stop offset="1" stop-color="#CDDAE1"/>
</radialGradient>
<radialGradient id="paint15_radial_1_877" cx="0" cy="0" r="1" gradientUnits="userSpaceOnUse" gradientTransform="translate(11.3779 13.9545) scale(13.4551 14.1887)">
<stop offset="0.13" stop-color="white"/>
<stop offset="0.39" stop-color="#FCFCFD"/>
<stop offset="0.61" stop-color="#F1F5F7"/>
<stop offset="0.82" stop-color="#DFE8EC"/>
<stop offset="1" stop-color="#C9D7DF"/>
</radialGradient>
<radialGradient id="paint16_radial_1_877" cx="0" cy="0" r="1" gradientUnits="userSpaceOnUse" gradientTransform="translate(11.3696 13.9273) scale(13.3589 14.0873)">
<stop offset="0.13" stop-color="white"/>
<stop offset="0.38" stop-color="#FCFCFD"/>
<stop offset="0.6" stop-color="#F1F5F7"/>
<stop offset="0.8" stop-color="#DFE8EC"/>
<stop offset="1" stop-color="#C6D5DD"/>
</radialGradient>
<radialGradient id="paint17_radial_1_877" cx="0" cy="0" r="1" gradientUnits="userSpaceOnUse" gradientTransform="translate(11.3601 13.9084) scale(13.2802 14.0043)">
<stop offset="0.13" stop-color="white"/>
<stop offset="0.38" stop-color="#FCFCFD"/>
<stop offset="0.59" stop-color="#F1F5F7"/>
<stop offset="0.79" stop-color="#DFE7EC"/>
<stop offset="0.98" stop-color="#C6D5DD"/>
<stop offset="1" stop-color="#C3D2DB"/>
</radialGradient>
<radialGradient id="paint18_radial_1_877" cx="0" cy="0" r="1" gradientUnits="userSpaceOnUse" gradientTransform="translate(11.3523 13.8902) scale(13.2103 13.9306)">
<stop offset="0.13" stop-color="white"/>
<stop offset="0.37" stop-color="#FCFCFD"/>
<stop offset="0.58" stop-color="#F1F5F7"/>
<stop offset="0.77" stop-color="#DFE8EC"/>
<stop offset="0.95" stop-color="#C6D5DD"/>
<stop offset="1" stop-color="#BFD0D9"/>
</radialGradient>
<radialGradient id="paint19_radial_1_877" cx="0" cy="0" r="1" gradientUnits="userSpaceOnUse" gradientTransform="translate(11.3427 13.8713) scale(13.1578 13.8753)">
<stop offset="0.13" stop-color="white"/>
<stop offset="0.37" stop-color="#FCFCFD"/>
<stop offset="0.57" stop-color="#F1F5F7"/>
<stop offset="0.76" stop-color="#DFE7EC"/>
<stop offset="0.94" stop-color="#C6D5DD"/>
<stop offset="1" stop-color="#BCCDD7"/>
</radialGradient>
<radialGradient id="paint20_radial_1_877" cx="0" cy="0" r="1" gradientUnits="userSpaceOnUse" gradientTransform="translate(11.343 13.8621) scale(13.1228 13.8384)">
<stop offset="0.13" stop-color="white"/>
<stop offset="0.36" stop-color="#FCFCFD"/>
<stop offset="0.56" stop-color="#F1F5F7"/>
<stop offset="0.75" stop-color="#DFE7EC"/>
<stop offset="0.92" stop-color="#C6D5DD"/>
<stop offset="1" stop-color="#B9CBD5"/>
</radialGradient>
<radialGradient id="paint21_radial_1_877" cx="0" cy="0" r="1" gradientUnits="userSpaceOnUse" gradientTransform="translate(11.3423 13.8532) scale(13.1053 13.8199)">
<stop offset="0.13" stop-color="white"/>
<stop offset="0.36" stop-color="#FCFCFD"/>
<stop offset="0.55" stop-color="#F1F5F7"/>
<stop offset="0.73" stop-color="#DFE7EC"/>
<stop offset="0.9" stop-color="#C6D5DD"/>
<stop offset="1" stop-color="#B5C8D3"/>
</radialGradient>
<radialGradient id="paint22_radial_1_877" cx="0" cy="0" r="1" gradientUnits="userSpaceOnUse" gradientTransform="translate(11.3338 13.853) scale(13.0966 13.8107)">
<stop offset="0.13" stop-color="white"/>
<stop offset="0.35" stop-color="#FCFCFD"/>
<stop offset="0.54" stop-color="#F1F5F7"/>
<stop offset="0.72" stop-color="#DFE7EC"/>
<stop offset="0.89" stop-color="#C6D5DD"/>
<stop offset="1" stop-color="#B2C6D1"/>
</radialGradient>
<radialGradient id="paint23_radial_1_877" cx="0" cy="0" r="1" gradientUnits="userSpaceOnUse" gradientTransform="translate(11.3423 13.8628) scale(13.1053 13.8199)">
<stop offset="0.13" stop-color="white"/>
<stop offset="0.35" stop-color="#FCFCFD"/>
<stop offset="0.54" stop-color="#F1F5F7"/>
<stop offset="0.71" stop-color="#DFE7EC"/>
<stop offset="0.88" stop-color="#C6D5DD"/>
<stop offset="1" stop-color="#AFC3CF"/>
</radialGradient>
<radialGradient id="paint24_radial_1_877" cx="0" cy="0" r="1" gradientUnits="userSpaceOnUse" gradientTransform="translate(11.3427 13.8622) scale(13.1403 13.8568)">
<stop offset="0.13" stop-color="white"/>
<stop offset="0.35" stop-color="#FCFCFD"/>
<stop offset="0.53" stop-color="#F1F5F7"/>
<stop offset="0.7" stop-color="#DFE8EC"/>
<stop offset="0.86" stop-color="#C6D5DD"/>
<stop offset="1" stop-color="#ABC1CD"/>
</radialGradient>
<radialGradient id="paint25_radial_1_877" cx="0" cy="0" r="1" gradientUnits="userSpaceOnUse" gradientTransform="translate(11.3433 13.8804) scale(13.184 13.9029)">
<stop offset="0.13" stop-color="white"/>
<stop offset="0.34" stop-color="#FCFCFD"/>
<stop offset="0.52" stop-color="#F1F5F7"/>
<stop offset="0.69" stop-color="#DFE7EC"/>
<stop offset="0.85" stop-color="#C6D5DD"/>
<stop offset="1" stop-color="#A8BECB"/>
</radialGradient>
</defs>
</svg>
