<svg width="19" height="20" viewBox="0 0 19 20" fill="none" xmlns="http://www.w3.org/2000/svg">
<path d="M9.95335 19.5657C14.9289 19.5657 18.9624 15.3123 18.9624 10.0654C18.9624 4.81859 14.9289 0.565186 9.95335 0.565186C4.97781 0.565186 0.944336 4.81859 0.944336 10.0654C0.944336 15.3123 4.97781 19.5657 9.95335 19.5657Z" fill="url(#paint0_radial_1_910)"/>
<path d="M18.8093 9.86607C18.8464 11.7125 18.3634 13.5291 17.4214 15.0861C16.4795 16.643 15.1209 17.8706 13.5175 18.6134C11.9141 19.3563 10.1378 19.5811 8.41319 19.2594C6.6886 18.9378 5.09317 18.0842 3.82861 16.8064C2.56405 15.5287 1.68714 13.8843 1.30877 12.081C0.930388 10.2778 1.06753 8.39675 1.70284 6.67571C2.33816 4.95466 3.44312 3.4709 4.87803 2.41202C6.31294 1.35315 8.01336 0.766701 9.7643 0.726834C12.1125 0.675886 14.3839 1.60969 16.0798 3.32322C17.7756 5.03675 18.7573 7.38993 18.8093 9.86607Z" fill="url(#paint1_radial_1_910)"/>
<path d="M18.656 9.65672C18.7327 11.4719 18.2972 13.2703 17.4047 14.8245C16.5121 16.3788 15.2025 17.6189 13.6415 18.3883C12.0806 19.1576 10.3383 19.4215 8.63509 19.1467C6.93187 18.8718 5.3442 18.0705 4.07284 16.8441C2.80149 15.6177 1.90356 14.0213 1.49261 12.2567C1.08166 10.4921 1.17615 8.6387 1.76413 6.93076C2.3521 5.22282 3.40716 3.73711 4.79587 2.6615C6.18458 1.58589 7.84456 0.968705 9.56591 0.887985C11.874 0.779752 14.1283 1.64277 15.833 3.2872C17.5377 4.93164 18.5532 7.2228 18.656 9.65672Z" fill="url(#paint2_radial_1_910)"/>
<path d="M18.5025 9.45797C18.6163 11.2407 18.2262 13.019 17.3816 14.568C16.537 16.1169 15.2758 17.367 13.7575 18.1602C12.2392 18.9534 10.532 19.254 8.85168 19.024C7.17139 18.7941 5.59348 18.0439 4.31747 16.8683C3.04145 15.6928 2.12464 14.1446 1.68294 12.4196C1.24125 10.6946 1.29451 8.87023 1.83599 7.17715C2.37747 5.48407 3.38286 3.99831 4.72503 2.90775C6.0672 1.81718 7.68588 1.17077 9.37641 1.05025C11.6434 0.891159 13.8776 1.68714 15.5887 3.26347C17.2997 4.83979 18.3476 7.06764 18.5025 9.45797Z" fill="url(#paint3_radial_1_910)"/>
<path d="M18.3497 9.2488C18.503 11.0001 18.1604 12.76 17.3652 14.306C16.57 15.852 15.3579 17.1145 13.8822 17.9341C12.4066 18.7536 10.7336 19.0933 9.07483 18.9101C7.41608 18.727 5.8461 18.0292 4.56341 16.9051C3.28072 15.7811 2.34293 14.2811 1.86865 12.595C1.39437 10.9088 1.4049 9.11223 1.89889 7.4324C2.39289 5.75257 3.34817 4.26494 4.64393 3.15764C5.9397 2.05034 7.51774 1.37311 9.1785 1.21158C11.4048 0.997576 13.6208 1.72359 15.3401 3.23035C17.0594 4.73711 18.1418 6.90155 18.3497 9.2488Z" fill="url(#paint4_radial_1_910)"/>
<path d="M18.1969 9.04888C18.3871 10.7676 18.0897 12.5071 17.3424 14.0476C16.5952 15.5881 15.4316 16.8604 13.9987 17.7036C12.5658 18.5467 10.928 18.923 9.29241 18.7847C7.65678 18.6464 6.09677 17.9998 4.80959 16.9267C3.52241 15.8535 2.56586 14.402 2.06089 12.7556C1.55591 11.1093 1.52519 9.34198 1.97259 7.6772C2.42 6.01242 3.32544 4.52491 4.57446 3.40273C5.82347 2.28055 7.35996 1.5741 8.98968 1.37268C11.1756 1.10506 13.3729 1.76309 15.0991 3.20229C16.8253 4.64149 17.9395 6.74424 18.1969 9.04888Z" fill="url(#paint5_radial_1_910)"/>
<path d="M18.0623 8.83985C18.2875 10.5257 18.034 12.244 17.334 13.7781C16.6339 15.3122 15.5187 16.5932 14.1289 17.4595C12.7391 18.3258 11.1371 18.7385 9.52511 18.6456C7.9131 18.5527 6.36331 17.9583 5.07132 16.9375C3.77934 15.9167 2.80307 14.5151 2.26572 12.9098C1.72836 11.3044 1.65402 9.56713 2.05206 7.91724C2.4501 6.26735 3.30268 4.77877 4.50222 3.63937C5.70176 2.49996 7.19448 1.7608 8.792 1.51516C9.85697 1.35268 10.9419 1.41337 11.9846 1.69375C13.0272 1.97413 14.0072 2.46869 14.8684 3.1491C15.7295 3.82951 16.4549 4.68241 17.003 5.65893C17.551 6.63544 17.911 7.71639 18.0623 8.83985Z" fill="url(#paint6_radial_1_910)"/>
<path d="M17.8908 8.64014C18.1588 10.2963 17.955 11.999 17.3051 13.5329C16.6553 15.0669 15.5887 16.3632 14.2401 17.2577C12.8916 18.1523 11.3217 18.6051 9.72913 18.5587C8.13655 18.5123 6.59279 17.9689 5.29313 16.9971C3.99347 16.0254 2.9963 14.669 2.42776 13.0996C1.85921 11.5301 1.74484 9.81814 2.0991 8.18014C2.45336 6.54214 3.26035 5.05173 4.41797 3.89744C5.5756 2.74316 7.03185 1.97685 8.60254 1.69545C10.7074 1.31835 12.8682 1.83803 14.6099 3.14027C16.3516 4.4425 17.5317 6.42073 17.8908 8.64014Z" fill="url(#paint7_radial_1_910)"/>
<path d="M17.7371 8.44082C18.0423 10.0648 17.884 11.7478 17.2821 13.2768C16.6802 14.8059 15.6618 16.1124 14.3557 17.031C13.0496 17.9497 11.5145 18.4392 9.94453 18.4378C8.37457 18.4363 6.84028 17.9439 5.53574 17.0228C4.2312 16.1017 3.21501 14.7933 2.6157 13.2631C2.01639 11.7329 1.86089 10.0496 2.16886 8.42622C2.47683 6.80281 3.23444 5.31219 4.34586 4.14289C5.45728 2.97359 6.87258 2.17813 8.41275 1.85715C10.4768 1.42954 12.6175 1.88245 14.3654 3.1166C16.1133 4.35075 17.3258 6.26541 17.7371 8.44082Z" fill="url(#paint8_radial_1_910)"/>
<path d="M17.5835 8.23174C17.9281 9.82387 17.8171 11.488 17.2647 13.0136C16.7122 14.5392 15.7431 15.8578 14.48 16.8026C13.2168 17.7473 11.7163 18.2758 10.1683 18.3211C8.62027 18.3665 7.09427 17.9266 5.78332 17.0573C4.47236 16.188 3.43535 14.9282 2.80346 13.4372C2.17156 11.9463 1.97317 10.2912 2.23338 8.6814C2.49359 7.07156 3.20071 5.57926 4.26529 4.39326C5.32988 3.20727 6.7041 2.38086 8.21413 2.01858C10.2377 1.53567 12.3602 1.91851 14.1165 3.08317C15.8728 4.24784 17.1196 6.09931 17.5835 8.23174Z" fill="url(#paint9_radial_1_910)"/>
<path d="M17.4307 8.03285C17.8116 9.59208 17.7456 11.2354 17.241 12.7551C16.7363 14.2748 15.8157 15.6026 14.5955 16.5705C13.3753 17.5385 11.9103 18.1032 10.3858 18.1932C8.86131 18.2832 7.34571 17.8946 6.03066 17.0763C4.71561 16.2581 3.66016 15.047 2.99776 13.5963C2.33536 12.1455 2.09575 10.5202 2.30924 8.92586C2.52274 7.33151 3.17973 5.83972 4.19717 4.6391C5.2146 3.43848 6.54678 2.58296 8.02526 2.18069C10.0083 1.64374 12.1124 1.95837 13.8757 3.05553C15.639 4.15268 16.9175 5.94274 17.4307 8.03285Z" fill="url(#paint10_radial_1_910)"/>
<path d="M17.278 7.82373C17.6995 9.35224 17.6817 10.9783 17.2268 12.4961C16.7718 14.0139 15.9002 15.3554 14.7221 16.3507C13.5441 17.346 12.1126 17.9505 10.6086 18.0877C9.10473 18.2249 7.59601 17.8887 6.27336 17.1215C4.95071 16.3543 3.87356 15.1906 3.17818 13.7778C2.4828 12.3649 2.20043 10.7662 2.36681 9.18408C2.53318 7.60194 3.14082 6.10738 4.11284 4.88947C5.08487 3.67157 6.37761 2.78506 7.82752 2.34208C8.78936 2.04693 9.79694 1.95461 10.7926 2.07042C11.7883 2.18622 12.7526 2.50788 13.6303 3.01699C14.5081 3.52611 15.282 4.21269 15.9079 5.03747C16.5338 5.86225 16.9993 6.80905 17.278 7.82373Z" fill="url(#paint11_radial_1_910)"/>
<path d="M17.1611 7.62379C17.6085 9.11848 17.6264 10.7193 17.2127 12.2248C16.7991 13.7302 15.9722 15.0729 14.8364 16.0838C13.7005 17.0947 12.3064 17.7285 10.8296 17.9056C9.35281 18.0827 7.85934 17.795 6.53728 17.0788C5.21521 16.3626 4.12366 15.2499 3.40006 13.8808C2.67647 12.5117 2.35319 10.9475 2.47094 9.38504C2.58869 7.82261 3.14219 6.33185 4.06176 5.10047C4.98133 3.8691 6.22584 2.95217 7.63858 2.46516C8.58484 2.13895 9.58304 2.01382 10.5755 2.09698C11.5679 2.18015 12.5348 2.46997 13.4203 2.94969C14.3059 3.42941 15.0924 4.0895 15.7345 4.89179C16.3766 5.69408 16.8615 6.62265 17.1611 7.62379Z" fill="url(#paint12_radial_1_910)"/>
<path d="M16.9622 7.41483C17.4571 8.87633 17.5299 10.4598 17.1715 11.9649C16.8131 13.4701 16.0395 14.8294 14.9486 15.8709C13.8576 16.9125 12.4983 17.5896 11.0425 17.8166C9.58669 18.0435 8.09974 17.8102 6.76965 17.1461C5.43957 16.482 4.32609 15.4169 3.56998 14.0855C2.81388 12.7541 2.4491 11.2162 2.52178 9.66621C2.59446 8.11622 3.10132 6.62375 3.97829 5.37751C4.85526 4.13126 6.06295 3.18721 7.44867 2.6647C8.36909 2.31764 9.34534 2.16521 10.3216 2.21612C11.2979 2.26702 12.2552 2.52027 13.1386 2.96139C14.0221 3.4025 14.8145 4.02285 15.4705 4.78698C16.1266 5.55112 16.6335 6.44407 16.9622 7.41483Z" fill="url(#paint13_radial_1_910)"/>
<path d="M16.8094 7.21561C17.3423 8.64594 17.4611 10.2108 17.1508 11.7123C16.8405 13.2138 16.1149 14.5846 15.0659 15.6514C14.0169 16.7181 12.6915 17.433 11.2573 17.7055C9.82311 17.978 8.34447 17.796 7.00834 17.1825C5.67221 16.569 4.53857 15.5515 3.75074 14.2586C2.96292 12.9658 2.55627 11.4556 2.58222 9.9191C2.60817 8.38257 3.06555 6.88865 3.89654 5.6262C4.72752 4.36375 5.8948 3.38946 7.2508 2.82649C8.15156 2.45119 9.1137 2.26703 10.0821 2.28459C11.0504 2.30216 12.006 2.52109 12.894 2.92883C13.782 3.33658 14.5849 3.92513 15.2568 4.66074C15.9287 5.39635 16.4563 6.26456 16.8094 7.21561Z" fill="url(#paint14_radial_1_910)"/>
<path d="M16.6558 7.01558C17.227 8.41303 17.3925 9.95768 17.1313 11.4543C16.8701 12.9509 16.194 14.3322 15.1885 15.4237C14.1829 16.5151 12.8931 17.2677 11.482 17.5862C10.0709 17.9047 8.60198 17.7749 7.26085 17.2132C5.91972 16.6515 4.76663 15.6831 3.94735 14.4304C3.12807 13.1777 2.67939 11.697 2.65803 10.1754C2.63666 8.65384 3.04358 7.15976 3.82733 5.88204C4.61108 4.60431 5.73647 3.60032 7.06125 2.99697C7.94125 2.59483 8.88786 2.37979 9.84682 2.3642C10.8058 2.3486 11.7582 2.53274 12.6496 2.90607C13.5409 3.2794 14.3536 3.83458 15.0411 4.53977C15.7286 5.24497 16.2773 6.08631 16.6558 7.01558Z" fill="url(#paint15_radial_1_910)"/>
<path d="M16.5028 6.8067C17.1036 8.16642 17.3093 9.6832 17.0942 11.166C16.879 12.6488 16.2526 14.0313 15.2938 15.1394C14.335 16.2474 13.0866 17.0315 11.706 17.3929C10.3254 17.7542 8.8743 17.6766 7.53542 17.1699C6.19654 16.6633 5.02979 15.7501 4.18212 14.5455C3.33445 13.3408 2.84378 11.8986 2.7719 10.4005C2.70003 8.90235 3.05016 7.41528 3.77821 6.12659C4.50625 4.8379 5.57965 3.80521 6.8632 3.15861C7.7225 2.72572 8.65463 2.47671 9.60574 2.42597C10.5568 2.37523 11.508 2.52376 12.4044 2.86297C13.3007 3.20219 14.1244 3.72538 14.8279 4.40229C15.5314 5.0792 16.1006 5.89641 16.5028 6.8067Z" fill="url(#paint16_radial_1_910)"/>
<path d="M16.3502 6.60734C17.0046 7.94468 17.2678 9.45678 17.1065 10.952C16.9451 12.4473 16.3664 13.8583 15.4438 15.0064C14.5211 16.1545 13.296 16.9879 11.9237 17.4009C10.5515 17.814 9.09381 17.7882 7.73547 17.3267C6.37714 16.8652 5.17929 15.9889 4.29374 14.8088C3.40819 13.6287 2.8748 12.1979 2.76117 10.6978C2.64754 9.19768 2.95878 7.69575 3.65546 6.38236C4.35214 5.06897 5.40288 4.00325 6.67453 3.32026C8.37188 2.40862 10.3424 2.24263 12.1555 2.85858C13.9686 3.47452 15.4767 4.82231 16.3502 6.60734Z" fill="url(#paint17_radial_1_910)"/>
<path d="M16.1971 6.39839C16.8842 7.70016 17.1898 9.18753 17.0754 10.6725C16.9609 12.1574 16.4316 13.5732 15.5542 14.7409C14.6768 15.9086 13.4908 16.7758 12.1461 17.2328C10.8015 17.6898 9.35847 17.7161 7.99962 17.3084C6.64076 16.9007 5.42705 16.0772 4.51192 14.9422C3.59678 13.8072 3.02132 12.4115 2.85828 10.9317C2.69525 9.45179 2.95195 7.95417 3.59595 6.62813C4.23995 5.3021 5.24232 4.20718 6.47635 3.48182C7.29615 2.99993 8.19796 2.69311 9.13025 2.5789C10.0625 2.46468 11.007 2.5453 11.9098 2.81616C12.8125 3.08701 13.6558 3.54278 14.3914 4.15744C15.127 4.7721 15.7406 5.53358 16.1971 6.39839Z" fill="url(#paint18_radial_1_910)"/>
<path d="M16.0437 6.19893C16.7687 7.46903 17.1203 8.93731 17.054 10.4181C16.9877 11.8989 16.5065 13.3258 15.6713 14.5182C14.8361 15.7106 13.6843 16.6151 12.3616 17.1172C11.0389 17.6194 9.60468 17.6967 8.24034 17.3393C6.876 16.982 5.64278 16.206 4.69662 15.1096C3.75046 14.0131 3.13385 12.6455 2.92477 11.1795C2.71568 9.71354 2.92351 8.21511 3.52197 6.8737C4.12043 5.53228 5.08265 4.40812 6.28695 3.64337C7.08636 3.13426 7.97318 2.79649 8.89659 2.6494C9.81999 2.50231 10.7618 2.5488 11.6682 2.7862C12.5745 3.02359 13.4276 3.44723 14.1784 4.03285C14.9292 4.61847 15.5631 5.35455 16.0437 6.19893Z" fill="url(#paint19_radial_1_910)"/>
<path d="M15.8904 5.98977C16.655 7.22752 17.0542 8.67657 17.0376 10.1536C17.0211 11.6307 16.5895 13.0694 15.7974 14.2877C15.0053 15.506 13.8883 16.4493 12.5878 16.9981C11.2873 17.5469 9.86166 17.6766 8.49122 17.3708C7.12078 17.065 5.86714 16.3375 4.88887 15.2802C3.91061 14.2229 3.25168 12.8835 2.99545 11.4312C2.73922 9.97899 2.8972 8.47924 3.4494 7.12169C4.0016 5.76415 4.92321 4.60982 6.09764 3.80472C6.87647 3.26933 7.74775 2.90113 8.66165 2.72118C9.57555 2.54123 10.5141 2.55307 11.4237 2.75602C12.3332 2.95897 13.1959 3.34904 13.9624 3.90393C14.7288 4.45881 15.384 5.16761 15.8904 5.98977Z" fill="url(#paint20_radial_1_910)"/>
<path d="M15.7375 5.79066C16.5393 6.99696 16.9838 8.42689 17.015 9.89963C17.0461 11.3724 16.6625 12.8218 15.9125 14.0646C15.1625 15.3074 14.0798 16.2877 12.8015 16.8817C11.5231 17.4756 10.1064 17.6565 8.73059 17.4014C7.35476 17.1463 6.08156 16.4667 5.07199 15.4485C4.06242 14.4304 3.36182 13.1194 3.0588 11.6814C2.75578 10.2433 2.86394 8.74283 3.3696 7.36962C3.87526 5.9964 4.75572 4.81215 5.89962 3.96661C6.65875 3.40397 7.51569 3.00478 8.42134 2.79192C9.327 2.57906 10.2636 2.55671 11.1774 2.72615C12.0913 2.89559 12.9645 3.25349 13.747 3.77935C14.5294 4.30521 15.2059 4.9887 15.7375 5.79066Z" fill="url(#paint21_radial_1_910)"/>
<path d="M15.5842 5.59082C16.4199 6.76649 16.9067 8.17681 16.9832 9.64388C17.0597 11.1109 16.7225 12.5691 16.0142 13.8343C15.3058 15.0995 14.258 16.1152 13.0029 16.7532C11.7478 17.3912 10.3416 17.623 8.96177 17.4193C7.58191 17.2156 6.29017 16.5855 5.24947 15.6085C4.20878 14.6316 3.46574 13.3515 3.1141 11.9298C2.76245 10.5081 2.81794 9.00838 3.27357 7.61987C3.7292 6.23136 4.56456 5.01624 5.67428 4.12778C6.41454 3.53353 7.25908 3.09978 8.15915 2.85157C9.05922 2.60336 9.997 2.54559 10.9184 2.68162C11.8397 2.81764 12.7264 3.14475 13.5272 3.64408C14.328 4.1434 15.0272 4.80505 15.5842 5.59082Z" fill="url(#paint22_radial_1_910)"/>
<path d="M15.4306 5.3825C16.311 6.52483 16.8502 7.91691 16.9799 9.38254C17.1097 10.8482 16.8241 12.3214 16.1595 13.6159C15.4949 14.9103 14.481 15.9677 13.2462 16.6542C12.0114 17.3407 10.6112 17.6254 9.22293 17.4723C7.83461 17.3193 6.52056 16.7353 5.44713 15.7944C4.37369 14.8534 3.58912 13.5977 3.19273 12.1863C2.79635 10.7749 2.80596 9.27124 3.22037 7.8656C3.63477 6.45997 4.43533 5.21559 5.52071 4.28997C6.97311 3.05136 8.83209 2.47079 10.6899 2.6756C12.5477 2.88041 14.2526 3.85389 15.4306 5.3825Z" fill="url(#paint23_radial_1_910)"/>
<path d="M15.2777 5.18269C16.199 6.29106 16.7873 7.66306 16.9679 9.12458C17.1485 10.5861 16.9134 12.0713 16.2923 13.3916C15.6711 14.712 14.6921 15.808 13.4793 16.5406C12.2665 17.2732 10.8747 17.6094 9.48042 17.5065C8.08616 17.4035 6.75232 16.8662 5.64815 15.9625C4.54399 15.0589 3.71927 13.8297 3.27865 12.431C2.83803 11.0323 2.80137 9.52704 3.17332 8.10631C3.54528 6.68558 4.30908 5.41339 5.3678 4.45117C6.77722 3.17023 8.60948 2.52838 10.4656 2.66539C12.3217 2.8024 14.0513 3.70718 15.2777 5.18269Z" fill="url(#paint24_radial_1_910)"/>
<path d="M15.1249 4.974C16.0789 6.05229 16.7083 7.40464 16.9336 8.86009C17.1589 10.3155 16.9699 11.8088 16.3906 13.151C15.8112 14.4932 14.8675 15.6241 13.6788 16.4009C12.49 17.1776 11.1096 17.5652 9.71194 17.5148C8.31431 17.4643 6.96223 16.978 5.82663 16.1174C4.69103 15.2568 3.82289 14.0604 3.33195 12.6795C2.84101 11.2987 2.74931 9.79534 3.06845 8.35954C3.38759 6.92375 4.10324 5.61996 5.12493 4.61299C5.80382 3.94388 6.6011 3.42242 7.47121 3.07841C8.34131 2.73441 9.26717 2.5746 10.1959 2.60813C11.1246 2.64165 12.0379 2.86786 12.8837 3.27381C13.7294 3.67976 14.491 4.2575 15.1249 4.974Z" fill="url(#paint25_radial_1_910)"/>
<path d="M14.9716 4.77428C15.965 5.82103 16.6416 7.15494 16.9159 8.60726C17.1902 10.0596 17.05 11.5651 16.5128 12.9333C15.9756 14.3016 15.0657 15.4711 13.8982 16.2939C12.7306 17.1167 11.3579 17.5559 9.95359 17.5559C8.54931 17.5559 7.17657 17.1167 6.00902 16.2939C4.84147 15.4711 3.93156 14.3016 3.39439 12.9333C2.85723 11.5651 2.71694 10.0596 2.99128 8.60726C3.26561 7.15494 3.94224 5.82103 4.93558 4.77428C5.59412 4.07856 6.3763 3.52662 7.23735 3.15002C8.0984 2.77343 9.02142 2.57959 9.95359 2.57959C10.8858 2.57959 11.8088 2.77343 12.6698 3.15002C13.5309 3.52662 14.3131 4.07856 14.9716 4.77428Z" fill="url(#paint26_radial_1_910)"/>
<path d="M2.917 10.0662C2.917 8.59871 3.32965 7.16418 4.10278 5.94402C4.87591 4.72386 5.97479 3.77286 7.26046 3.21128C8.54613 2.6497 9.96084 2.50276 11.3257 2.78906C12.6906 3.07535 13.9443 3.782 14.9283 4.81967C15.9123 5.85733 16.5824 7.17939 16.8539 8.61867C17.1254 10.058 16.986 11.5498 16.4535 12.9056C15.9209 14.2613 15.0191 15.4201 13.862 16.2354C12.705 17.0507 11.3446 17.4859 9.95303 17.4859C9.02872 17.4871 8.11324 17.2961 7.25906 16.9236C6.40487 16.5512 5.62875 16.0047 4.97516 15.3155C4.32157 14.6263 3.80334 13.8078 3.45017 12.9071C3.097 12.0063 2.91581 11.0409 2.917 10.0662V10.0662Z" stroke="#000D20" stroke-width="0.5" stroke-miterlimit="10"/>
<path d="M9.95359 6.26559C9.6254 6.25088 9.29809 6.31145 8.99426 6.44311C8.69043 6.57478 8.41731 6.7744 8.19376 7.02821C7.9702 7.28201 7.80155 7.58395 7.69942 7.91319C7.5973 8.24242 7.56414 8.5911 7.60224 8.93516C7.60224 11.5667 9.98962 14.0273 9.98962 14.0273C9.98962 14.0273 12.368 11.5667 12.368 8.93516C12.3906 8.58891 12.3445 8.24149 12.2328 7.91505C12.121 7.58861 11.946 7.2903 11.7188 7.03915C11.4917 6.78799 11.2174 6.5895 10.9135 6.45631C10.6095 6.32312 10.2826 6.25817 9.95359 6.26559Z" fill="black"/>
<path d="M11.059 8.74017C11.0665 8.11584 10.5927 7.60328 10.0007 7.59533C9.40863 7.58737 8.92257 8.08704 8.91503 8.71136C8.90748 9.33568 9.38131 9.84825 9.97335 9.8562C10.5654 9.86416 11.0515 9.36449 11.059 8.74017Z" fill="#FAFCFB"/>
<defs>
<radialGradient id="paint0_radial_1_910" cx="0" cy="0" r="1" gradientUnits="userSpaceOnUse" gradientTransform="translate(10.8618 1.99288) scale(21.6822 22.8644)">
<stop offset="0.13" stop-color="white"/>
<stop offset="0.34" stop-color="#FCFCFD"/>
<stop offset="0.52" stop-color="#F1F5F7"/>
<stop offset="0.69" stop-color="#DFE7EC"/>
<stop offset="0.85" stop-color="#C6D5DD"/>
<stop offset="1" stop-color="#A8BECB"/>
</radialGradient>
<radialGradient id="paint1_radial_1_910" cx="0" cy="0" r="1" gradientUnits="userSpaceOnUse" gradientTransform="translate(10.8922 2.64854) scale(21.4054 22.5726)">
<stop offset="0.13" stop-color="white"/>
<stop offset="0.34" stop-color="#FCFCFD"/>
<stop offset="0.52" stop-color="#F1F5F7"/>
<stop offset="0.69" stop-color="#DFE7EC"/>
<stop offset="0.85" stop-color="#C6D5DD"/>
<stop offset="1" stop-color="#A8BECB"/>
</radialGradient>
<radialGradient id="paint2_radial_1_910" cx="0" cy="0" r="1" gradientUnits="userSpaceOnUse" gradientTransform="translate(10.9212 3.28205) scale(21.1092 22.2602)">
<stop offset="0.13" stop-color="white"/>
<stop offset="0.34" stop-color="#FCFCFD"/>
<stop offset="0.52" stop-color="#F1F5F7"/>
<stop offset="0.69" stop-color="#DFE7EC"/>
<stop offset="0.85" stop-color="#C6D5DD"/>
<stop offset="1" stop-color="#A8BECB"/>
</radialGradient>
<radialGradient id="paint3_radial_1_910" cx="0" cy="0" r="1" gradientUnits="userSpaceOnUse" gradientTransform="translate(10.949 3.89615) scale(20.7957 21.9296)">
<stop offset="0.13" stop-color="white"/>
<stop offset="0.34" stop-color="#FCFCFD"/>
<stop offset="0.52" stop-color="#F1F5F7"/>
<stop offset="0.69" stop-color="#DFE7EC"/>
<stop offset="0.85" stop-color="#C6D5DD"/>
<stop offset="1" stop-color="#A8BECB"/>
</radialGradient>
<radialGradient id="paint4_radial_1_910" cx="0" cy="0" r="1" gradientUnits="userSpaceOnUse" gradientTransform="translate(10.9774 4.48993) scale(20.4681 21.5842)">
<stop offset="0.13" stop-color="white"/>
<stop offset="0.34" stop-color="#FCFCFD"/>
<stop offset="0.52" stop-color="#F1F5F7"/>
<stop offset="0.69" stop-color="#DFE7EC"/>
<stop offset="0.85" stop-color="#C6D5DD"/>
<stop offset="1" stop-color="#A8BECB"/>
</radialGradient>
<radialGradient id="paint5_radial_1_910" cx="0" cy="0" r="1" gradientUnits="userSpaceOnUse" gradientTransform="translate(11.0048 5.0641) scale(20.1265 21.2239)">
<stop offset="0.13" stop-color="white"/>
<stop offset="0.34" stop-color="#FCFCFD"/>
<stop offset="0.52" stop-color="#F1F5F7"/>
<stop offset="0.69" stop-color="#DFE7EC"/>
<stop offset="0.85" stop-color="#C6D5DD"/>
<stop offset="1" stop-color="#A8BECB"/>
</radialGradient>
<radialGradient id="paint6_radial_1_910" cx="0" cy="0" r="1" gradientUnits="userSpaceOnUse" gradientTransform="translate(11.0313 5.61927) scale(19.7741 20.8523)">
<stop offset="0.13" stop-color="white"/>
<stop offset="0.34" stop-color="#FCFCFD"/>
<stop offset="0.52" stop-color="#F1F5F7"/>
<stop offset="0.69" stop-color="#DFE7EC"/>
<stop offset="0.85" stop-color="#C6D5DD"/>
<stop offset="1" stop-color="#A8BECB"/>
</radialGradient>
<radialGradient id="paint7_radial_1_910" cx="0" cy="0" r="1" gradientUnits="userSpaceOnUse" gradientTransform="translate(11.0559 6.15715) scale(19.4141 20.4727)">
<stop offset="0.13" stop-color="white"/>
<stop offset="0.34" stop-color="#FCFCFD"/>
<stop offset="0.52" stop-color="#F1F5F7"/>
<stop offset="0.69" stop-color="#DFE7EC"/>
<stop offset="0.85" stop-color="#C6D5DD"/>
<stop offset="1" stop-color="#A8BECB"/>
</radialGradient>
<radialGradient id="paint8_radial_1_910" cx="0" cy="0" r="1" gradientUnits="userSpaceOnUse" gradientTransform="translate(11.0801 6.67834) scale(19.0465 20.0851)">
<stop offset="0.13" stop-color="white"/>
<stop offset="0.34" stop-color="#FCFCFD"/>
<stop offset="0.52" stop-color="#F1F5F7"/>
<stop offset="0.69" stop-color="#DFE7EC"/>
<stop offset="0.85" stop-color="#C6D5DD"/>
<stop offset="1" stop-color="#A8BECB"/>
</radialGradient>
<radialGradient id="paint9_radial_1_910" cx="0" cy="0" r="1" gradientUnits="userSpaceOnUse" gradientTransform="translate(11.1046 7.18443) scale(18.6735 19.6917)">
<stop offset="0.13" stop-color="white"/>
<stop offset="0.34" stop-color="#FCFCFD"/>
<stop offset="0.52" stop-color="#F1F5F7"/>
<stop offset="0.69" stop-color="#DFE7EC"/>
<stop offset="0.85" stop-color="#C6D5DD"/>
<stop offset="1" stop-color="#A8BECB"/>
</radialGradient>
<radialGradient id="paint10_radial_1_910" cx="0" cy="0" r="1" gradientUnits="userSpaceOnUse" gradientTransform="translate(11.1287 7.67412) scale(18.2984 19.2961)">
<stop offset="0.13" stop-color="white"/>
<stop offset="0.34" stop-color="#FCFCFD"/>
<stop offset="0.52" stop-color="#F1F5F7"/>
<stop offset="0.69" stop-color="#DFE7EC"/>
<stop offset="0.85" stop-color="#C6D5DD"/>
<stop offset="1" stop-color="#A8BECB"/>
</radialGradient>
<radialGradient id="paint11_radial_1_910" cx="0" cy="0" r="1" gradientUnits="userSpaceOnUse" gradientTransform="translate(11.154 8.15054) scale(17.9222 18.8994)">
<stop offset="0.13" stop-color="white"/>
<stop offset="0.34" stop-color="#FCFCFD"/>
<stop offset="0.52" stop-color="#F1F5F7"/>
<stop offset="0.69" stop-color="#DFE7EC"/>
<stop offset="0.85" stop-color="#C6D5DD"/>
<stop offset="1" stop-color="#A8BECB"/>
</radialGradient>
<radialGradient id="paint12_radial_1_910" cx="0" cy="0" r="1" gradientUnits="userSpaceOnUse" gradientTransform="translate(11.178 8.61296) scale(17.5459 18.5027)">
<stop offset="0.13" stop-color="white"/>
<stop offset="0.34" stop-color="#FCFCFD"/>
<stop offset="0.52" stop-color="#F1F5F7"/>
<stop offset="0.69" stop-color="#DFE7EC"/>
<stop offset="0.85" stop-color="#C6D5DD"/>
<stop offset="1" stop-color="#A8BECB"/>
</radialGradient>
<radialGradient id="paint13_radial_1_910" cx="0" cy="0" r="1" gradientUnits="userSpaceOnUse" gradientTransform="translate(11.2011 9.06331) scale(17.1719 18.1082)">
<stop offset="0.13" stop-color="white"/>
<stop offset="0.34" stop-color="#FCFCFD"/>
<stop offset="0.52" stop-color="#F1F5F7"/>
<stop offset="0.69" stop-color="#DFE7EC"/>
<stop offset="0.85" stop-color="#C6D5DD"/>
<stop offset="1" stop-color="#A8BECB"/>
</radialGradient>
<radialGradient id="paint14_radial_1_910" cx="0" cy="0" r="1" gradientUnits="userSpaceOnUse" gradientTransform="translate(11.2263 9.50365) scale(16.8022 17.7183)">
<stop offset="0.13" stop-color="white"/>
<stop offset="0.34" stop-color="#FCFCFD"/>
<stop offset="0.52" stop-color="#F1F5F7"/>
<stop offset="0.69" stop-color="#DFE7EC"/>
<stop offset="0.85" stop-color="#C6D5DD"/>
<stop offset="1" stop-color="#A8BECB"/>
</radialGradient>
<radialGradient id="paint15_radial_1_910" cx="0" cy="0" r="1" gradientUnits="userSpaceOnUse" gradientTransform="translate(11.2508 9.93405) scale(16.4368 17.333)">
<stop offset="0.13" stop-color="white"/>
<stop offset="0.34" stop-color="#FCFCFD"/>
<stop offset="0.52" stop-color="#F1F5F7"/>
<stop offset="0.69" stop-color="#DFE7EC"/>
<stop offset="0.85" stop-color="#C6D5DD"/>
<stop offset="1" stop-color="#A8BECB"/>
</radialGradient>
<radialGradient id="paint16_radial_1_910" cx="0" cy="0" r="1" gradientUnits="userSpaceOnUse" gradientTransform="translate(11.2758 10.356) scale(16.0778 16.9545)">
<stop offset="0.13" stop-color="white"/>
<stop offset="0.34" stop-color="#FCFCFD"/>
<stop offset="0.52" stop-color="#F1F5F7"/>
<stop offset="0.69" stop-color="#DFE7EC"/>
<stop offset="0.85" stop-color="#C6D5DD"/>
<stop offset="1" stop-color="#A8BECB"/>
</radialGradient>
<radialGradient id="paint17_radial_1_910" cx="0" cy="0" r="1" gradientUnits="userSpaceOnUse" gradientTransform="translate(11.3023 10.7711) scale(15.7265 16.584)">
<stop offset="0.13" stop-color="white"/>
<stop offset="0.34" stop-color="#FCFCFD"/>
<stop offset="0.52" stop-color="#F1F5F7"/>
<stop offset="0.69" stop-color="#DFE7EC"/>
<stop offset="0.85" stop-color="#C6D5DD"/>
<stop offset="1" stop-color="#A8BECB"/>
</radialGradient>
<radialGradient id="paint18_radial_1_910" cx="0" cy="0" r="1" gradientUnits="userSpaceOnUse" gradientTransform="translate(11.3293 11.1804) scale(15.3838 16.2226)">
<stop offset="0.13" stop-color="white"/>
<stop offset="0.34" stop-color="#FCFCFD"/>
<stop offset="0.52" stop-color="#F1F5F7"/>
<stop offset="0.69" stop-color="#DFE7EC"/>
<stop offset="0.85" stop-color="#C6D5DD"/>
<stop offset="1" stop-color="#A8BECB"/>
</radialGradient>
<radialGradient id="paint19_radial_1_910" cx="0" cy="0" r="1" gradientUnits="userSpaceOnUse" gradientTransform="translate(11.3561 11.5863) scale(15.0519 15.8726)">
<stop offset="0.13" stop-color="white"/>
<stop offset="0.34" stop-color="#FCFCFD"/>
<stop offset="0.52" stop-color="#F1F5F7"/>
<stop offset="0.69" stop-color="#DFE7EC"/>
<stop offset="0.85" stop-color="#C6D5DD"/>
<stop offset="1" stop-color="#A8BECB"/>
</radialGradient>
<radialGradient id="paint20_radial_1_910" cx="0" cy="0" r="1" gradientUnits="userSpaceOnUse" gradientTransform="translate(11.3852 11.9886) scale(14.7319 15.5352)">
<stop offset="0.13" stop-color="white"/>
<stop offset="0.34" stop-color="#FCFCFD"/>
<stop offset="0.52" stop-color="#F1F5F7"/>
<stop offset="0.69" stop-color="#DFE7EC"/>
<stop offset="0.85" stop-color="#C6D5DD"/>
<stop offset="1" stop-color="#A8BECB"/>
</radialGradient>
<radialGradient id="paint21_radial_1_910" cx="0" cy="0" r="1" gradientUnits="userSpaceOnUse" gradientTransform="translate(11.4157 12.3903) scale(14.4249 15.2114)">
<stop offset="0.13" stop-color="white"/>
<stop offset="0.34" stop-color="#FCFCFD"/>
<stop offset="0.52" stop-color="#F1F5F7"/>
<stop offset="0.69" stop-color="#DFE7EC"/>
<stop offset="0.85" stop-color="#C6D5DD"/>
<stop offset="1" stop-color="#A8BECB"/>
</radialGradient>
<radialGradient id="paint22_radial_1_910" cx="0" cy="0" r="1" gradientUnits="userSpaceOnUse" gradientTransform="translate(11.4469 12.7912) scale(14.133 14.9036)">
<stop offset="0.13" stop-color="white"/>
<stop offset="0.34" stop-color="#FCFCFD"/>
<stop offset="0.52" stop-color="#F1F5F7"/>
<stop offset="0.69" stop-color="#DFE7EC"/>
<stop offset="0.85" stop-color="#C6D5DD"/>
<stop offset="1" stop-color="#A8BECB"/>
</radialGradient>
<radialGradient id="paint23_radial_1_910" cx="0" cy="0" r="1" gradientUnits="userSpaceOnUse" gradientTransform="translate(11.4789 13.1944) scale(13.8584 14.614)">
<stop offset="0.13" stop-color="white"/>
<stop offset="0.34" stop-color="#FCFCFD"/>
<stop offset="0.52" stop-color="#F1F5F7"/>
<stop offset="0.69" stop-color="#DFE7EC"/>
<stop offset="0.85" stop-color="#C6D5DD"/>
<stop offset="1" stop-color="#A8BECB"/>
</radialGradient>
<radialGradient id="paint24_radial_1_910" cx="0" cy="0" r="1" gradientUnits="userSpaceOnUse" gradientTransform="translate(11.5137 13.5999) scale(13.6011 14.3427)">
<stop offset="0.13" stop-color="white"/>
<stop offset="0.34" stop-color="#FCFCFD"/>
<stop offset="0.52" stop-color="#F1F5F7"/>
<stop offset="0.69" stop-color="#DFE7EC"/>
<stop offset="0.85" stop-color="#C6D5DD"/>
<stop offset="1" stop-color="#A8BECB"/>
</radialGradient>
<radialGradient id="paint25_radial_1_910" cx="0" cy="0" r="1" gradientUnits="userSpaceOnUse" gradientTransform="translate(11.5498 14.0106) scale(13.3654 14.0942)">
<stop offset="0.13" stop-color="white"/>
<stop offset="0.34" stop-color="#FCFCFD"/>
<stop offset="0.52" stop-color="#F1F5F7"/>
<stop offset="0.69" stop-color="#DFE7EC"/>
<stop offset="0.85" stop-color="#C6D5DD"/>
<stop offset="1" stop-color="#A8BECB"/>
</radialGradient>
<radialGradient id="paint26_radial_1_910" cx="0" cy="0" r="1" gradientUnits="userSpaceOnUse" gradientTransform="translate(11.5875 14.4277) scale(13.1524 13.8696)">
<stop offset="0.13" stop-color="white"/>
<stop offset="0.34" stop-color="#FCFCFD"/>
<stop offset="0.52" stop-color="#F1F5F7"/>
<stop offset="0.69" stop-color="#DFE7EC"/>
<stop offset="0.85" stop-color="#C6D5DD"/>
<stop offset="1" stop-color="#A8BECB"/>
</radialGradient>
</defs>
</svg>
