<svg width="64" height="54" viewBox="0 0 64 54" fill="none" xmlns="http://www.w3.org/2000/svg">
<path d="M4.39182 32.7369C3.43897 29.6566 6.72411 22.802 12.629 22.3563M4.39182 32.7369C1.69591 32.7369 1.0639 34.059 1.08488 34.7201C1.18605 38.6523 1.32767 46.9884 1.08488 48.8759C0.842092 50.7633 2.37256 50.8695 3.1684 50.6866M4.39182 32.7369L35.8405 32.3312M14.8312 22.4839C15.3105 25.1214 22.2255 28.3032 24.1783 22.4839M14.8312 22.4839V18.4006M14.8312 22.4839C14.0623 22.3405 13.3273 22.3036 12.629 22.3563M24.1783 22.4839V18.4006M24.1783 22.4839C24.9556 22.4355 25.9286 22.4835 26.6953 22.608M35.8405 32.3312C36.0798 26.2133 33.4586 23.4265 26.6953 22.608M35.8405 32.3312C36.7939 32.462 38.7007 33.0505 38.7007 34.3572C38.7007 35.6638 38.7007 44.5808 38.7007 48.8759C38.7035 49.4795 38.3155 50.6866 36.7407 50.6866M26.6953 22.608C26.6953 29.0414 14.0065 30.7081 12.629 22.3563M27.5404 9.04168C26.6594 9.04168 27.9419 19.5544 19.7236 19.6826C13.9338 19.7729 11.8941 15.0976 11.4571 11.9079M27.5404 9.04168C28.7562 9.04168 30.4431 6.79815 30.1572 5.19561C29.897 3.73646 28.0963 -0.645589 23.1908 1.87227M27.5404 9.04168C27.8977 10.3238 23.1908 10.1955 21.6531 9.04168C20.1154 7.88785 15.5787 7.37504 13.4348 7.82375C11.7197 8.18272 11.3386 9.8964 11.3624 10.7084C11.3681 11.0705 11.3979 11.4756 11.4571 11.9079M21.6531 2.82382C22.1966 2.43378 22.7087 2.11971 23.1908 1.87227M23.1908 1.87227C22.6771 2.15486 15.3643 -1.40698 11.7197 3.59302C8.80402 7.59302 9.59964 10.6015 10.3619 11.6058L11.4571 11.9079M18.9375 2.82382C17.7625 2.46058 15.017 2.20844 13.4348 4.10585M12.22 5.9007C12.0532 6.15711 11.7197 6.7853 11.7197 7.24684M25.1548 2.82382C26.2268 2.73837 28.3564 3.0931 28.2992 5.19561M45.8854 8.42321C44.4485 8.43255 41.2406 9.8381 41.5433 12.4861C41.9182 15.7644 45.8854 16.0484 47.4785 15.5403C48.8842 15.092 52.2579 11.0571 47.4785 8.84351M52.163 28.826C46.2359 29.1214 50.2696 22.4388 53.3978 27.0908M3.1684 50.6866H36.7407M3.1684 50.6866C3.1684 50.6866 1.59805 50.7734 1.59805 51.9949C1.59805 53.2164 3.1684 53.2164 3.1684 53.2164H36.7407C36.7407 53.2164 38.4335 53.2164 38.4335 51.9552C38.4335 50.6642 36.7407 50.6866 36.7407 50.6866M33.2302 4.74687V20.1313C33.3016 21.1569 34.1163 23.2594 36.8033 23.4646C39.4904 23.6697 49.7858 23.55 54.5977 23.4646C55.5505 23.3577 57.6134 22.6312 58.2423 20.58C58.8712 18.5287 58.5043 9.16989 58.2423 4.74687C58.0279 3.94157 57.1132 2.23922 55.1694 1.87227C53.2256 1.50532 42.1154 1.49905 36.8033 1.54178C35.8505 1.77682 33.8019 2.7469 33.2302 4.74687ZM44.3784 4.74687H46.9511C47.237 5.90071 48.4518 7.74685 51.0245 5.9007L52.954 7.24684C51.9597 8.40068 50.8249 10.7084 54.2404 10.7084V13.1306C52.7986 13.3641 50.4711 14.4251 52.6953 16.8012L51.0245 18.3703C51.0245 18.3703 47.1349 16.0883 47.1349 19.9394C47.1349 20.0795 44.3784 19.9394 44.3784 19.9394C44.3784 19.9394 44.1048 15.9606 40.5437 18.3703C40.2692 18.5561 38.7007 16.8012 38.7007 16.8012C38.7007 16.8012 41.3546 13.3547 37.17 13.3547C36.8033 13.3547 37.17 10.7084 37.17 10.7084C37.17 10.7084 41.3247 10.1885 38.7007 7.24684C38.5907 7.12354 40.4241 5.43927 40.7624 5.67725C43.9487 7.91885 44.3784 4.74687 44.3784 4.74687ZM44.3784 30.5982C44.2943 29.6414 45.2073 28.8034 46.277 28.826C47.3234 28.8482 48.1704 29.6623 48.0881 30.5982C48.0121 31.4627 47.2435 32.0916 46.277 32.112C45.2853 32.1329 44.4564 31.4853 44.3784 30.5982ZM41.5024 31.189C42.2175 31.1683 42.8047 31.6895 42.8195 32.3312C42.8325 32.8883 42.2155 33.4874 41.5024 33.4668C40.8121 33.4468 40.2696 32.9507 40.2676 32.3312C40.2656 31.7098 40.8101 31.209 41.5024 31.189ZM17.3404 41.7288C17.1753 40.378 18.2089 39.9821 19.7236 40.0072C21.1911 40.0314 22.0149 40.4205 21.8509 41.7288C21.6962 42.963 21.108 43.0178 19.7236 43.0373C18.2892 43.0575 17.4968 43.0079 17.3404 41.7288Z" stroke="url(#paint0_linear_1_849)" stroke-width="1.5" stroke-linecap="round"/>
<path d="M57.3725 35.6094C56.3632 35.6167 54.1099 36.7173 54.3226 38.791C54.5859 41.3582 57.3725 41.5805 58.4916 41.1826C59.479 40.8316 61.8487 37.6719 58.4916 35.9385M56.314 32.7305H58.1211C58.3219 33.634 59.1753 35.0797 60.9824 33.634L62.3377 34.6882C61.6393 35.5917 60.8422 37.3988 63.2412 37.3988V39.2956C62.2285 39.4785 60.5936 40.3093 62.1559 42.17L60.9824 43.3988C60.9824 43.3988 58.2502 41.6118 58.2502 44.6275C58.2502 44.7373 56.314 44.6275 56.314 44.6275C56.314 44.6275 56.1218 41.5118 53.6205 43.3988C53.4276 43.5443 52.3259 42.17 52.3259 42.17C52.3259 42.17 54.19 39.4712 51.2507 39.4712C50.9931 39.4712 51.2507 37.3988 51.2507 37.3988C51.2507 37.3988 54.169 36.9917 52.3259 34.6882C52.2486 34.5916 53.5364 33.2727 53.774 33.459C56.0121 35.2144 56.314 32.7305 56.314 32.7305Z" stroke="url(#paint1_linear_1_849)" stroke-width="1.5" stroke-linecap="round"/>
<defs>
<linearGradient id="paint0_linear_1_849" x1="29.8243" y1="0.904785" x2="29.8243" y2="53.2164" gradientUnits="userSpaceOnUse">
<stop stop-color="#1773B9"/>
<stop offset="1" stop-color="#5CD9E6"/>
</linearGradient>
<linearGradient id="paint1_linear_1_849" x1="57.1887" y1="32.7305" x2="57.1887" y2="44.6763" gradientUnits="userSpaceOnUse">
<stop stop-color="#5CD9E6"/>
<stop offset="1" stop-color="#5CD9E6"/>
</linearGradient>
</defs>
</svg>
