<svg width="768" height="725" viewBox="0 0 768 725" fill="none" xmlns="http://www.w3.org/2000/svg">
<g clip-path="url(#clip0_551_13)">
<path d="M-15.0884 49.1307C-101.733 97.4163 -152.7 64.6699 -152.7 64.6699L-144.588 724.515C-144.588 724.515 63.911 570.987 248.668 650.02C433.424 729.053 456.36 575.524 601.617 650.02C746.874 724.516 875.176 601.284 945.646 650.02C1016.12 698.755 1106.2 669.077 1106.2 669.077L1106.2 19.4035C1035.18 22.2909 1009.18 -42.1481 836.066 49.1306C462.731 245.987 523.891 -36.2975 269.563 64.6699C15.2347 165.637 71.5561 0.84504 -15.0884 49.1307Z" fill="#C6D0E8"/>
<path d="M1136.75 116.713L1143.11 662.983C1144.48 669.849 1143.25 674.764 1143.25 674.764L1143.11 662.983C1139.84 646.547 1121.73 618.93 1036.37 620.783C1014.62 621.256 992.865 661.088 960.998 662.786C894.275 666.341 845.272 599.457 795.98 594.724C760.011 591.271 724.239 629.796 687.924 624.512C636.877 617.084 610.972 564.937 521.216 594.724C494.977 592.557 468.299 620.783 413.445 620.783C369.914 620.783 345.037 579.508 310.544 579.923C310.544 579.923 280.083 579.923 248.324 592.772C224.792 602.292 186.104 605.621 186.104 605.621C149.698 608.73 131.378 567.074 80.9661 592.772C53.2653 606.893 42.679 619.46 14.3235 624.512C-13.0067 629.381 -40.8654 610.336 -67.7655 613.974C-107.987 619.414 -148.009 657.532 -175.672 656.872C-234.739 655.463 -266 695.909 -266 695.909L-266 27.3434C-266 27.3434 -261.167 48.166 -188.975 61.614C-154.089 68.1124 -142.697 126.628 -67.7655 79.6918C11.581 50.4604 40.9805 92.639 112.458 113.923C183.935 135.207 204.996 82.0763 266.342 79.6918C327.687 77.3072 339.055 140.786 439.624 116.713C540.194 92.639 540.612 142.62 605.613 143.154C637.225 143.414 672.665 89.9102 707.394 92.639C742.124 95.3679 794.988 108.068 864.925 116.713C934.862 125.357 944.35 54.7977 999.744 64.5743C1076.45 78.1127 1136.75 116.713 1136.75 116.713Z" fill="url(#paint0_linear_551_13)"/>
<path d="M-136.215 146.644C-193.928 148.211 -217.218 139.46 -221.649 134.889L-221.649 620.475C-179.435 615.109 -212.783 580.953 -178.165 570.909C-143.548 560.866 -108.562 594.536 -82.7597 590.688C-53.5466 586.331 -26.4131 547.253 25.7746 570.909C77.9623 594.566 86.4833 540.208 124.197 542.097C157.995 543.79 184.5 574.823 208.507 576.52C281.959 581.711 312.381 547.301 375.922 555.349C427.957 561.94 451.649 604.713 494.812 607.252C533.201 609.511 589.245 574.798 640.122 570.909C687.769 567.267 746.501 624.727 791.304 620.475C837.78 616.063 869.556 575.507 898.344 575.507C918.035 575.507 940.628 604.301 963.034 607.252C987.287 610.447 1011.08 587.931 1024.03 591.17L1024.03 91.788C1025.84 91.788 1030.55 65.0301 977.712 80.4907C960.215 85.6103 919.314 141.054 892.581 146.644C864.826 152.448 839.229 112.543 803.547 115.083C759.157 118.243 742.585 171.881 698.58 181.211C653.805 190.703 630.854 156.807 583.643 160.156C552.334 162.377 517.084 184.554 478.684 181.211C451.645 178.857 414.211 150.953 371.245 144.326C335.488 138.81 314.365 177.388 274.281 172.925C235.635 168.621 175.478 121.175 124.197 144.326C91.1211 159.258 79.1973 168.82 42.1924 172.925C13.4815 176.11 -18.6455 117.899 -47.7342 121.175C-83.318 125.182 -111.088 145.962 -136.215 146.644Z" fill="#3E4285"/>
</g>
<defs>
<linearGradient id="paint0_linear_551_13" x1="438.878" y1="27.3434" x2="438.878" y2="695.909" gradientUnits="userSpaceOnUse">
<stop stop-color="#7AB6FF"/>
<stop offset="1" stop-color="#165DB5"/>
</linearGradient>
<clipPath id="clip0_551_13">
<rect width="768" height="725" fill="white"/>
</clipPath>
</defs>
</svg>
