<svg width="42" height="36" viewBox="0 0 42 36" fill="none" xmlns="http://www.w3.org/2000/svg">
<path fill-rule="evenodd" clip-rule="evenodd" d="M20.6366 0C21.5163 0.0379097 25.696 1.74839 25.9885 2.27458V2.94853L25.7524 3.03277C24.0656 3.63242 22.3852 1.06796 20.7153 1.3479L3.08545 8.6771H3.24286L10.0902 11.4571L20.9514 15.9221L25.6737 13.9002L29.2941 12.3838C27.8538 11.9289 20.8589 8.60785 20.2431 7.66618C20.2956 7.49769 20.348 7.3292 20.4005 7.16072L20.7153 6.99223C21.9588 7.13679 23.004 8.03011 24.0209 8.50862L30.8682 11.7941L38.66 8.6771L36.0627 7.58193C34.133 6.7625 28.2885 4.88925 27.0904 3.62248V3.20126L27.4839 2.78004C28.6465 2.86892 29.6097 3.5614 30.5534 3.95946L37.7942 6.90799L40.9424 8.25589C41.2224 8.73557 41.1696 11.7205 40.8637 12.0469L34.5673 14.5742C34.5411 18.0559 34.5149 21.538 34.4886 25.0204C34.112 25.81 32.3012 26.8732 31.4979 27.2107C31.5241 28.334 31.5503 29.4572 31.5766 30.5805C34.0296 31.0948 33.4282 36.0752 30.4747 35.2981C29.2353 34.972 27.9554 33.1116 28.9793 31.5072L30.3173 30.412C30.2911 29.5976 30.2648 28.7833 30.2386 27.9689C24.1111 31.0367 15.9432 30.8692 10.405 27.295C9.5183 26.7227 7.71644 25.9976 7.2568 25.0204C6.87902 24.2172 7.14661 19.7636 7.33551 18.9548L7.96514 18.7864L8.20126 18.8706C8.75408 20.2871 7.95885 23.356 8.67349 24.6834L11.1133 26.3683L15.6782 28.3059C21.5147 30.1828 26.0273 28.0426 30.3173 26.5368V16.3433L21.1875 20.1343C20.1199 20.4261 18.515 19.206 17.7245 18.8706L8.43737 15.1639C8.55039 16.6244 8.38543 18.0017 7.2568 17.1857L7.1781 14.5742C6.38357 14.413 0.883055 12.1784 0.724308 11.7941C0.406105 11.0239 0.684956 8.24957 1.03913 8.00315L20.6366 0ZM1.90488 9.60378V11.1202L20.2431 18.5336V17.0172L1.90488 9.60378ZM39.6044 9.60378C38.1578 10.494 30.6357 12.146 31.5766 14.4899L39.8406 11.1202V9.60378H39.6044ZM30.0812 13.479L21.5024 17.0172V18.5336L30.3173 14.9954V13.479H30.0812ZM33.1507 15.1639L31.4979 15.8378C31.5241 19.123 31.5503 22.4085 31.5766 25.6943L33.3081 24.4307C33.326 23.0296 33.6129 15.7253 33.1507 15.1639ZM30.8682 31.6756L30.0025 32.1811C29.95 32.49 29.8975 32.7989 29.8451 33.1078C30.0949 33.6817 30.3426 33.9958 31.1043 34.0345C31.5124 33.8192 31.6874 33.6085 31.9701 33.2763C31.9438 32.9674 31.9176 32.6585 31.8914 32.3496C31.608 31.9412 31.3847 31.8542 30.8682 31.6756Z" fill="white"/>
</svg>
