<svg width="319" height="743" viewBox="0 0 319 743" fill="none" xmlns="http://www.w3.org/2000/svg">
<path d="M84.9337 742C41.9337 574.659 308.556 740.485 300.328 613.421C295.399 537.302 173.813 564.673 84.9337 564.673C22.9762 564.673 -2.81486 523.853 18.5015 483.505C41.0986 440.732 157.328 479.958 238.452 469.841C288.441 463.606 326.872 431.444 314.415 372.355C301.202 309.685 247.462 311.821 218.835 312.096C170.39 315.4 62.8354 333.71 28.9656 310.22C-22.2322 274.712 7.45187 219.314 43.7941 206.868C104.075 186.224 178.567 215.734 218.835 215.734C270.708 215.734 308.556 191.216 308.556 151.579C308.556 111.942 250.669 77.8371 156.716 102.221C85.7801 120.631 52.6581 106.177 41.9337 89.8342C15.5709 49.6588 75.9995 37.5 92.9995 37.5" stroke="#C3C7D2" stroke-width="3" stroke-dasharray="15 15"/>
<path d="M151.88 30.9057L90.3984 13.0623L99.7302 38.02L97.2229 62.1558L151.88 30.9057Z" fill="url(#paint0_linear_755_6)" stroke="#1A59A1" stroke-width="0.2"/>
<path d="M151.784 30.955L96.7773 29.5938L99.9331 38.186L99.2207 44.7047L151.784 30.955Z" fill="url(#paint1_linear_755_6)" stroke="#1A59A1" stroke-width="0.2"/>
<defs>
<linearGradient id="paint0_linear_755_6" x1="90.921" y1="35.698" x2="153.721" y2="32.416" gradientUnits="userSpaceOnUse">
<stop offset="0.343596" stop-color="#5C89C5"/>
<stop offset="1" stop-color="#A6C2E8"/>
</linearGradient>
<linearGradient id="paint1_linear_755_6" x1="118.071" y1="31.8337" x2="119.034" y2="39.3977" gradientUnits="userSpaceOnUse">
<stop offset="0.377232" stop-color="#305A8C"/>
<stop offset="1" stop-color="#305A8C" stop-opacity="0"/>
</linearGradient>
</defs>
</svg>
