<svg width="428" height="379" viewBox="0 0 428 379" fill="none" xmlns="http://www.w3.org/2000/svg">
<path d="M311.089 27.6096C282.689 15.5944 233.694 26.251 188.207 42.6286C110.42 70.6356 96.7176 87.0499 29.8142 170.337C-44.5465 262.908 38.9268 343.919 77.6122 358.027C132.227 378.053 261.936 400.627 343.858 330.72C446.26 243.337 427.529 208.709 422.616 170.337C413.584 99.78 346.588 42.6286 311.089 27.6096Z" fill="#4ECBE7"/>
<path d="M304.045 11.4131C276.19 -0.371504 228.135 10.0806 183.521 26.1438C107.228 53.6133 95.137 83.7276 29.5177 165.416C-43.4158 256.21 37.1065 321.651 75.0494 335.489C128.616 355.13 271.777 361.722 318.561 321.955C390.957 260.419 418.463 220.695 412.517 153.364C406.38 83.8666 338.863 26.1438 304.045 11.4131Z" fill="url(#paint0_linear_603_424)"/>
<path d="M82.4139 0.869495C74.3599 -2.68385 58.9218 5.50861 52.2094 10.049C14.01 34.3303 27.0404 60.3883 34.1471 69.2717C41.2538 78.1551 67.0157 89.7035 86.8553 73.1212C106.695 56.5388 96.9231 42.3254 98.4037 29.0003C99.8843 15.6752 92.4814 5.31117 82.4139 0.869495Z" fill="#7FDBF1"/>
<path d="M90.8639 29.7549L90.864 49.649C69.5768 49.649 66.1218 64.1207 67.0552 71.3566H90.864V112.671H46.0476C46.0472 105.552 46.0477 62.1804 46.0477 62.1804C46.0477 62.1804 51.4365 29.7549 90.8639 29.7549Z" fill="white" fill-opacity="0.3"/>
<path d="M149.319 29.7549L149.319 49.649C128.032 49.649 124.577 64.1207 125.51 71.3566H149.319V112.671H104.503C104.502 105.552 104.503 62.1804 104.503 62.1804C104.503 62.1804 109.892 29.7549 149.319 29.7549Z" fill="white" fill-opacity="0.3"/>
<defs>
<linearGradient id="paint0_linear_603_424" x1="207.371" y1="6.36182" x2="207.371" y2="346.45" gradientUnits="userSpaceOnUse">
<stop stop-color="#78D8EF"/>
<stop offset="1" stop-color="#9DECFF"/>
</linearGradient>
</defs>
</svg>
