<svg width="58" height="61" viewBox="0 0 58 61" fill="none" xmlns="http://www.w3.org/2000/svg">
<path d="M10.2485 33.0658V7.30232C11.2128 3.95307 14.6682 2.32854 16.2753 1.93493C25.2352 1.86337 43.9745 1.87387 47.2531 2.48838C50.5317 3.10289 52.0745 5.95372 52.4361 7.30232V32.7445C52.4361 36.3397 47.896 38.469 46.2888 38.6479C38.1727 38.791 20.8075 38.9914 16.2753 38.6479C11.7432 38.3044 10.3691 34.7833 10.2485 33.0658Z" stroke="url(#paint0_linear_1_852)" stroke-width="2" stroke-linecap="round"/>
<path d="M27.2918 29.2063V25.6562C25.4951 24.3075 24.7149 22.0996 24.4819 20.3988L23.5699 20.1472C22.9351 19.3109 22.2725 16.8054 24.7006 13.4743C27.728 9.32108 33.7945 12.2615 34.2501 12.043C34.2513 12.0425 34.2524 12.0419 34.2535 12.0413C38.3387 9.94447 39.8383 13.5938 40.0551 14.8089C40.2931 16.1435 38.8883 18.0119 37.8758 18.0119C37.9315 18.2117 37.8395 18.3703 37.6448 18.49C37.3869 19.8052 37.2906 23.5133 35.0759 25.5292V29.1C35.7232 29.0598 36.7952 29.2063 37.172 29.3097C42.8044 29.9913 43.7024 33.0463 44.8807 35.4031L40.0551 38.8376L24.7006 34.5288L18.2072 36.3672C17.4137 33.8019 20.5404 29.4712 25.4578 29.1C26.0394 29.0562 26.6514 29.0869 27.2918 29.2063Z" fill="white"/>
<path d="M27.2918 29.2063C27.691 31.4028 33.4497 33.9463 35.0759 29.1M27.2918 29.2063V25.6562M27.2918 29.2063C26.6514 29.0869 26.0394 29.0562 25.4578 29.1C20.5404 29.4712 17.4137 33.8019 18.2072 36.3672L24.7006 34.5288L40.0551 38.8376L44.8807 35.4031C43.7024 33.0463 42.8044 29.9913 37.172 29.3097C36.7952 29.2063 35.7232 29.0598 35.0759 29.1M35.0759 29.1V25.5292M37.8758 18.0119C37.1421 18.0119 38.2102 26.7667 31.3661 26.8735C26.5445 26.9487 24.8458 23.0551 24.4819 20.3988M37.8758 18.0119C38.8883 18.0119 40.2931 16.1435 40.0551 14.8089C39.8383 13.5938 38.3387 9.94447 34.2535 12.0413M37.8758 18.0119C38.1734 19.0796 34.2535 18.9728 32.973 18.0119C31.6924 17.051 27.9143 16.6239 26.1289 16.9976C24.7006 17.2965 24.3832 18.7237 24.403 19.3999C24.4078 19.7015 24.4326 20.0388 24.4819 20.3988M32.973 12.8337C33.4256 12.5089 33.8521 12.2474 34.2535 12.0413M34.2535 12.0413C33.8258 12.2766 27.7358 9.31039 24.7006 13.4743C22.2725 16.8054 22.935 19.3109 23.5699 20.1472L24.4819 20.3988" stroke="url(#paint1_linear_1_852)" stroke-width="2" stroke-linecap="round"/>
<path d="M38.9314 38.7947L55.5978 30.1772L56.2144 41.8028L40.8827 49.3636C40.9368 50.2037 40.6224 51.8676 38.9314 51.8025C39.3078 52.9809 39.3663 55.227 36.5894 54.7843C36.8324 55.8963 36.6278 59.6115 31.7517 56.4322C34.366 58.901 31.8361 61.6326 28.079 58.3484L27.1822 59.2615C24.365 60.0664 24.2644 57.9871 24.5662 56.8468C24.5662 56.722 20.9736 57.0865 21.9412 53.7974C20.7025 53.9348 18.4361 53.5902 19.2805 51.1119C18.1077 51.3474 15.9205 51.2158 16.5538 48.8057L13.0035 46.5119C12.532 48.3659 10.9218 48.0605 11.0076 48.0734C11.2202 48.1053 9.37253 47.521 8.68758 47.1454L2.05908 44.8917L5.17437 27.9888L12.532 32.2311C13.6564 32.7172 15.288 33.3988 15.9052 34.2486C16.5759 35.1721 15.9971 36.1657 15.9052 36.8436C18.3126 36.0449 23.4152 34.5239 24.5662 34.8293C25.7173 35.1347 29.5822 36.2994 31.3708 36.8436L38.9314 38.7947Z" fill="white"/>
<path d="M31.3708 36.8436L38.9314 38.7947L55.5978 30.1772L56.2144 41.8028L40.8827 49.3636M31.3708 36.8436L23.8912 40.4208C22.8072 41.4505 21.7124 43.6727 26.005 44.3231L30.2325 41.3963C30.639 41.2066 31.6309 41.0224 32.3463 41.8028C33.0617 42.5833 38.3353 47.1685 40.8827 49.3636M31.3708 36.8436C29.5822 36.2994 25.7173 35.1347 24.5662 34.8293C23.4152 34.5239 18.3126 36.0449 15.9052 36.8436M40.8827 49.3636C40.9368 50.2037 40.6224 51.8676 38.9314 51.8025M38.9314 51.8025L33.1183 47.5402M38.9314 51.8025C39.3078 52.9809 39.3663 55.227 36.5894 54.7843M36.5894 54.7843L30.2325 50.5083M36.5894 54.7843C36.8533 55.9916 36.5894 60.2676 30.3921 55.4566C35.0305 58.048 32.3463 62.0787 28.079 58.3484M27.1822 54.0297C28.5404 52.4702 31.6091 54.0297 29.949 56.4444L27.1822 59.2615C24.365 60.0664 24.2644 57.9871 24.5662 56.8468M27.1822 54.0297L24.5662 56.8468M27.1822 54.0297C29.1219 51.8025 26.0553 49.8543 24.8681 51.1119M24.5662 56.8468C24.5662 56.722 20.9736 57.0865 21.9412 53.7974M24.8681 51.1119C25.0359 49.962 24.6855 47.8602 21.9412 48.6518M24.8681 51.1119L21.9412 53.7974M21.9412 48.6518C22.2271 47.3324 22.0292 44.9443 18.9506 45.9471L16.5538 48.8057M21.9412 48.6518L19.2805 51.1119M21.9412 53.7974C20.7025 53.9348 18.4361 53.5902 19.2805 51.1119M19.2805 51.1119C18.1077 51.3474 15.9205 51.2158 16.5538 48.8057M16.5538 48.8057L13.0035 46.5119M13.0035 46.5119L15.9052 36.8436M13.0035 46.5119C12.532 48.3659 10.9218 48.0605 11.0076 48.0734C11.2202 48.1053 9.37253 47.521 8.68758 47.1454M15.9052 36.8436C15.9971 36.1657 16.5759 35.1721 15.9052 34.2486C15.288 33.3988 13.6564 32.7172 12.532 32.2311M12.532 32.2311L5.17437 27.9888L2.05908 44.8917L8.68758 47.1454M12.532 32.2311L8.68758 47.1454" stroke="url(#paint2_linear_1_852)" stroke-width="2" stroke-linecap="round"/>
<defs>
<linearGradient id="paint0_linear_1_852" x1="4.50284" y1="0.86817" x2="4.50284" y2="88.4716" gradientUnits="userSpaceOnUse">
<stop stop-color="#1773B9"/>
<stop offset="1" stop-color="#5CD9E6"/>
</linearGradient>
<linearGradient id="paint1_linear_1_852" x1="39.7776" y1="11.2356" x2="39.7776" y2="54.7998" gradientUnits="userSpaceOnUse">
<stop stop-color="#1773B9"/>
<stop offset="1" stop-color="#5CD9E6"/>
</linearGradient>
<linearGradient id="paint2_linear_1_852" x1="29.1367" y1="27.9888" x2="29.1367" y2="59.86" gradientUnits="userSpaceOnUse">
<stop stop-color="#3D59F9"/>
<stop offset="1" stop-color="#84EAF7"/>
</linearGradient>
</defs>
</svg>
