<svg width="51" height="42" viewBox="0 0 51 42" fill="none" xmlns="http://www.w3.org/2000/svg">
<path fill-rule="evenodd" clip-rule="evenodd" d="M3.88151 17.7944C17.1792 12.0008 26.0465 8.18129 30.4832 6.33589C43.151 1.06692 45.7833 0.151639 47.499 0.121416C47.8763 0.114769 48.72 0.208286 49.2666 0.651753C49.728 1.02621 49.855 1.53204 49.9158 1.88707C49.9765 2.24209 50.0522 3.05085 49.992 3.68278C49.3056 10.8956 46.3352 28.3992 44.8241 36.4777C44.1846 39.896 42.9256 41.0422 41.7067 41.1544C39.0577 41.3981 37.0462 39.4037 34.4806 37.7219C30.4659 35.0902 28.1978 33.452 24.3008 30.8839C19.7972 27.9161 22.7167 26.2849 25.2833 23.6191C25.955 22.9215 37.6264 12.3055 37.8523 11.3424C37.8805 11.222 37.9067 10.773 37.64 10.536C37.3733 10.2989 36.9796 10.38 36.6956 10.4445C36.2929 10.5358 29.8793 14.775 17.4548 23.1619C15.6344 24.4119 13.9855 25.021 12.5081 24.9891C10.8794 24.9539 7.74642 24.0682 5.41739 23.3111C2.56074 22.3825 0.290328 21.8916 0.488029 20.3146C0.591005 19.4932 1.72216 18.6531 3.88151 17.7944Z" fill="url(#paint0_linear_514_264)"/>
<defs>
<linearGradient id="paint0_linear_514_264" x1="49.193" y1="0.394786" x2="22.1888" y2="29.7709" gradientUnits="userSpaceOnUse">
<stop stop-color="#2AABEE"/>
<stop offset="1" stop-color="#229ED9"/>
</linearGradient>
</defs>
</svg>
