<svg width="54" height="54" viewBox="0 0 54 54" fill="none" xmlns="http://www.w3.org/2000/svg">
<g clip-path="url(#clip0_591_403)">
<rect width="54" height="54" fill="#0077FF"/>
<path fill-rule="evenodd" clip-rule="evenodd" d="M42.7562 19.2247C42.9844 18.5109 42.7562 17.9863 41.6701 17.9863H38.0787C37.1656 17.9863 36.7446 18.4395 36.5162 18.9391C36.5162 18.9391 34.6899 23.1151 32.1026 25.8277C31.2655 26.6129 30.885 26.8627 30.4284 26.8627C30.2002 26.8627 29.8697 26.6129 29.8697 25.8991V19.2247C29.8697 18.3681 29.6047 17.9863 28.8436 17.9863H23.2C22.6293 17.9863 22.2861 18.3839 22.2861 18.7607C22.2861 19.5728 23.5797 19.76 23.713 22.0444V27.0056C23.713 28.0933 23.5036 28.2905 23.047 28.2905C21.8295 28.2905 18.8679 24.0959 17.1114 19.2961C16.7672 18.3632 16.4219 17.9863 15.5041 17.9863H11.9127C10.8865 17.9863 10.6813 18.4395 10.6813 18.9391C10.6813 19.8315 11.8989 24.2573 16.3505 30.1108C19.3183 34.1082 23.4996 36.2751 27.3045 36.2751C29.5873 36.2751 29.8698 35.7938 29.8698 34.9648V31.9436C29.8698 30.981 30.086 30.7889 30.809 30.7889C31.3416 30.7889 32.2548 31.0387 34.3855 32.9661C36.8206 35.2504 37.2221 36.2751 38.5918 36.2751H42.1832C43.2093 36.2751 43.7224 35.7938 43.4264 34.8441C43.1025 33.8974 41.9399 32.524 40.3972 30.896C39.5601 29.968 38.3045 28.9686 37.924 28.4689C37.3913 27.8265 37.5435 27.5409 37.924 26.9699C37.924 26.9699 42.2996 21.1877 42.7562 19.2247Z" fill="white"/>
</g>
<defs>
<clipPath id="clip0_591_403">
<rect width="54" height="54" rx="13" fill="white"/>
</clipPath>
</defs>
</svg>
