<svg width="155" height="87" viewBox="0 0 155 87" fill="none" xmlns="http://www.w3.org/2000/svg">
<path d="M46.4829 29.9312V43.9628M41.5305 53.8674L23.372 65.6979M46.4829 22.4458C46.4829 22.4458 55.3464 21.1035 64.6066 29.1806C73.8669 37.2576 73.8669 45.2958 73.8669 45.2958M25.4008 69.8291C25.4008 69.8291 31.8155 76.583 41.5305 78.1273C51.9266 79.7798 59.4353 75.2409 59.4353 75.2409M60.8785 81.3744C60.8785 81.3744 45.6055 85.5897 36.4666 82.8176C27.5671 80.1182 22.4159 76.421 17.3432 68.6265C13.0538 62.0354 11.7092 57.1274 11.8125 49.2642C11.9246 40.7249 13.6101 35.2778 18.9069 28.5788C24.3229 21.7292 29.4828 18.8464 37.9081 16.5524C42.8155 15.2162 52.6721 15.0953 60.8785 18.8375C66.6991 21.4918 69.247 23.195 73.8669 29.1806C78.0128 34.5519 80.3614 45.2958 80.3614 45.2958M66.8916 17.8747L69.6576 14.3871L73.8669 17.8747L71.221 21.1218M21.3118 21.1218L18.9069 17.3936L23.372 14.3871L25.4008 17.8747M43.801 12.2223V7.77256M43.801 7.77256H39.1108V2H52.941V7.77256H48.7318M43.801 7.77256H48.7318M48.7318 7.77256V12.2223M76.7531 5.96861H95.1534M100.926 5.96861H109.224M115.358 5.96861H120.288M98.16 16.5524H116.56M122.934 16.5524H130.751M136.885 16.5524H141.695M120.288 36.3952H138.929M144.942 36.3952H153M102.85 61.1694H121.611M127.865 61.1694H136.043M142.537 61.1694H146.626M98.16 80.6521H116.56M122.934 80.6521H130.751M136.885 80.6521H141.695M87.8201 37.6189L84.8995 35.7935L86.2685 31.3212H89.9194L91.6535 29.1806L90.8321 25.2974L94.6654 23.1981L97.3123 25.2974H100.507L102.15 22.468L106.896 23.1981V26.7577L109.224 29.1806L112.098 28.0355L114.745 32.3252L112.646 34.5157V37.6189L116.023 39.7182L114.745 43.5515H111.003L109.224 45.2958L110.09 49.2103L105.983 51.9485L103.519 49.6667H100.507L99.1377 52.9524L94.0265 51.9485L94.6654 48.2064L91.6535 46.0159L88.3677 47.2937L85.5384 43.5515L87.8201 41.2698V37.6189ZM94.6654 37.6189C94.5696 34.3943 97.2824 31.6736 100.507 31.7776C103.632 31.8784 106.075 34.4934 105.983 37.6189C105.897 40.5287 103.821 42.7857 100.926 43.0952C97.6962 43.4405 94.7619 40.8658 94.6654 37.6189ZM78.6773 59.8465C82.5269 60.1927 85.4913 63.7238 84.8995 67.5434C84.3641 70.9987 81.4519 73.2482 77.9558 73.1957C74.5225 73.1442 71.758 70.9348 71.221 67.5434C70.5666 63.4099 74.5092 59.4717 78.6773 59.8465ZM69.6576 53.8674L73.025 51.9485L73.8669 48.2064H80.3614V51.4281L84.8995 52.9524L87.8201 50.7065L92.5076 54.555L90.8321 57.4413L92.5076 62.3721H96.356V68.6257H92.5076L91.6535 73.1957L94.0265 75.9618L89.9194 80.6521L86.2685 78.9684L82.646 80.6521V84.741H76.7531L75.0695 81.3744L71.9426 79.9305L68.2144 82.8176L63.885 78.9684L65.9295 75.2409L64.6066 71.7526L60.8785 71.031L59.4353 64.8976L63.885 63.4544L64.6066 59.8465L62.2013 56.4792L65.9295 51.9485L69.6576 53.8674Z" stroke="url(#paint0_linear_2_554)" stroke-width="2.55779" stroke-linecap="round"/>
<path d="M11.6248 50.0969C11.6248 52.8329 9.3399 55.1065 6.45185 55.1065C3.5638 55.1065 1.2789 52.8329 1.2789 50.0969C1.2789 47.3608 3.5638 45.0872 6.45185 45.0872C9.3399 45.0872 11.6248 47.3608 11.6248 50.0969Z" stroke="url(#paint1_linear_2_554)" stroke-width="2.55779"/>
<defs>
<linearGradient id="paint0_linear_2_554" x1="82.4035" y1="2" x2="82.4035" y2="84.741" gradientUnits="userSpaceOnUse">
<stop stop-color="#1773B9"/>
<stop offset="1" stop-color="#5CD9E6"/>
</linearGradient>
<linearGradient id="paint1_linear_2_554" x1="4.66057" y1="43.651" x2="3.97594" y2="51.1958" gradientUnits="userSpaceOnUse">
<stop stop-color="#123A8D"/>
<stop offset="0.745655" stop-color="#09D0F2"/>
<stop offset="1" stop-color="#2C7ABC"/>
</linearGradient>
</defs>
</svg>
