<svg width="100" height="107" viewBox="0 0 100 107" fill="none" xmlns="http://www.w3.org/2000/svg">
<path d="M16.5984 57.5472V11.6216C18.3173 5.65125 24.4768 2.75538 27.3417 2.05374C43.3134 1.92617 76.7179 1.94488 82.5623 3.04031C88.4066 4.13573 91.1569 9.21758 91.8015 11.6216V56.9745C91.8015 63.3832 83.7082 67.1788 80.8433 67.4977C66.3757 67.7529 35.4207 68.1101 27.3417 67.4977C19.2628 66.8854 16.8133 60.6089 16.5984 57.5472Z" stroke="url(#paint0_linear_2_549)" stroke-width="2.23112" stroke-linecap="round"/>
<path d="M46.9797 50.667V44.3386C43.7769 41.9344 42.3862 37.9985 41.9708 34.9669L40.345 34.5183C39.2134 33.0274 38.0323 28.5613 42.3607 22.6233C47.7573 15.2198 58.5714 20.4613 59.3835 20.0719C59.3855 20.0709 59.3876 20.0698 59.3896 20.0688C66.6718 16.331 69.345 22.8362 69.7314 25.0023C70.1557 27.3813 67.6516 30.7119 65.8466 30.7119C65.9459 31.068 65.7819 31.3508 65.4348 31.5641C64.975 33.9087 64.8035 40.5187 60.8556 44.1121V50.4775C62.0095 50.4057 63.9203 50.667 64.592 50.8512C74.6323 52.0662 76.233 57.5121 78.3335 61.7132L69.7314 67.8356L42.3607 60.1548L30.7857 63.4318C29.3712 58.859 34.9447 51.1392 43.7105 50.4775C44.7471 50.3993 45.8382 50.4541 46.9797 50.667Z" fill="white"/>
<path d="M46.9797 50.667C47.6913 54.5824 57.9566 59.1164 60.8556 50.4775M46.9797 50.667V44.3386M46.9797 50.667C45.8382 50.4541 44.7471 50.3993 43.7105 50.4775C34.9447 51.1392 29.3712 58.859 30.7857 63.4318L42.3607 60.1548L69.7314 67.8356L78.3335 61.7132C76.233 57.5121 74.6323 52.0662 64.592 50.8512C63.9203 50.667 62.0095 50.4057 60.8556 50.4775M60.8556 50.4775V44.1121M65.8466 30.7119C64.5388 30.7119 66.4426 46.3181 54.2425 46.5084C45.6475 46.6425 42.6195 39.7019 41.9708 34.9669M65.8466 30.7119C67.6516 30.7119 70.1557 27.3813 69.7314 25.0023C69.345 22.8362 66.6718 16.331 59.3896 20.0688M65.8466 30.7119C66.377 32.6151 59.3896 32.4247 57.1069 30.7119C54.8242 28.999 48.0894 28.2377 44.9068 28.9038C42.3607 29.4367 41.7949 31.9807 41.8302 33.1861C41.8387 33.7237 41.8829 34.325 41.9708 34.9669M57.1069 21.4814C57.9138 20.9024 58.6739 20.4361 59.3896 20.0688M59.3896 20.0688C58.6271 20.4883 47.7712 15.2007 42.3607 22.6233C38.0323 28.5613 39.2134 33.0274 40.345 34.5183L41.9708 34.9669" stroke="url(#paint1_linear_2_549)" stroke-width="2.23112" stroke-linecap="round"/>
<path d="M67.7282 67.7597L97.4374 52.3981L98.5365 73.1218L71.2064 86.5996C71.303 88.0971 70.7425 91.0631 67.7282 90.9472C68.3991 93.0477 68.5033 97.0515 63.5533 96.2624C63.9865 98.2447 63.6217 104.867 54.9298 99.1999C59.5898 103.601 55.08 108.47 48.3827 102.616L46.7841 104.243C41.7623 105.678 41.5829 101.972 42.121 99.9391C42.121 99.7166 35.7168 100.366 37.4416 94.5032C35.2335 94.7482 31.1935 94.1338 32.6987 89.7161C30.6081 90.1359 26.7092 89.9013 27.8381 85.6051L21.5094 81.5162C20.6689 84.8212 17.7985 84.2767 17.9515 84.2996C18.3304 84.3565 15.0369 83.315 13.8159 82.6454L2 78.628L7.55326 48.4971L20.6689 56.0593C22.6732 56.9258 25.5817 58.1409 26.6818 59.6557C27.8775 61.3021 26.8457 63.0732 26.6818 64.2816C30.9733 62.8579 40.0692 60.1465 42.121 60.6909C44.1728 61.2354 51.0624 63.3116 54.2507 64.2816L67.7282 67.7597Z" fill="white"/>
<path d="M54.2507 64.2816L67.7282 67.7597L97.4374 52.3981L98.5365 73.1218L71.2064 86.5996M54.2507 64.2816L40.9177 70.6582C38.9854 72.4938 37.0338 76.455 44.6857 77.6144L52.2217 72.3972C52.9463 72.0591 54.7143 71.7306 55.9896 73.1218C57.2649 74.5131 66.6655 82.6867 71.2064 86.5996M54.2507 64.2816C51.0624 63.3116 44.1728 61.2354 42.121 60.6909C40.0692 60.1465 30.9733 62.8579 26.6818 64.2816M71.2064 86.5996C71.303 88.0971 70.7425 91.0631 67.7282 90.9472M67.7282 90.9472L57.3657 83.3492M67.7282 90.9472C68.3991 93.0477 68.5033 97.0515 63.5533 96.2624M63.5533 96.2624L52.2217 88.64M63.5533 96.2624C64.0237 98.4146 63.5533 106.037 52.5062 97.4608C60.7745 102.08 55.9896 109.265 48.3827 102.616M46.7841 94.9173C49.2053 92.1374 54.6755 94.9173 51.7162 99.2217L46.7841 104.243C41.7623 105.678 41.5829 101.972 42.121 99.9391M46.7841 94.9173L42.121 99.9391M46.7841 94.9173C50.2419 90.9472 44.7754 87.4743 42.659 89.7161M42.121 99.9391C42.121 99.7166 35.7168 100.366 37.4416 94.5032M42.659 89.7161C42.9582 87.6664 42.3336 83.9196 37.4416 85.3307M42.659 89.7161L37.4416 94.5032M37.4416 85.3307C37.9512 82.9788 37.5984 78.7219 32.1106 80.5093L27.8381 85.6051M37.4416 85.3307L32.6987 89.7161M37.4416 94.5032C35.2335 94.7482 31.1935 94.1338 32.6987 89.7161M32.6987 89.7161C30.6081 90.1359 26.7092 89.9013 27.8381 85.6051M27.8381 85.6051L21.5094 81.5162M21.5094 81.5162L26.6818 64.2816M21.5094 81.5162C20.6689 84.8212 17.7985 84.2767 17.9515 84.2996C18.3304 84.3565 15.0369 83.315 13.8159 82.6454M26.6818 64.2816C26.8457 63.0732 27.8775 61.3021 26.6818 59.6557C25.5817 58.1409 22.6732 56.9258 20.6689 56.0593M20.6689 56.0593L7.55326 48.4971L2 78.628L13.8159 82.6454M20.6689 56.0593L13.8159 82.6454" stroke="url(#paint2_linear_2_549)" stroke-width="2.23112" stroke-linecap="round"/>
<defs>
<linearGradient id="paint0_linear_2_549" x1="6.35621" y1="0.152142" x2="6.35621" y2="156.313" gradientUnits="userSpaceOnUse">
<stop stop-color="#1773B9"/>
<stop offset="1" stop-color="#5CD9E6"/>
</linearGradient>
<linearGradient id="paint1_linear_2_549" x1="69.2367" y1="18.6326" x2="69.2367" y2="96.2896" gradientUnits="userSpaceOnUse">
<stop stop-color="#1773B9"/>
<stop offset="1" stop-color="#5CD9E6"/>
</linearGradient>
<linearGradient id="paint2_linear_2_549" x1="50.2682" y1="48.4971" x2="50.2682" y2="105.31" gradientUnits="userSpaceOnUse">
<stop stop-color="#3D59F9"/>
<stop offset="1" stop-color="#84EAF7"/>
</linearGradient>
</defs>
</svg>
