<svg width="111" height="93" viewBox="0 0 111 93" fill="none" xmlns="http://www.w3.org/2000/svg">
<path d="M6.80377 56.4338C5.14444 51.0696 10.8653 39.1328 21.1483 38.3565M6.80377 56.4338C2.109 56.4338 1.00839 58.7362 1.04493 59.8874C1.2211 66.7351 1.46774 81.252 1.04493 84.5389C0.622125 87.8257 3.28734 88.0106 4.67325 87.6922M6.80377 56.4338L61.5699 55.7272M24.9833 38.5788C25.8181 43.1718 37.8601 48.7128 41.2608 38.5788M24.9833 38.5788V31.4679M24.9833 38.5788C23.6443 38.329 22.3644 38.2647 21.1483 38.3565M41.2608 38.5788V31.4679M41.2608 38.5788C42.6144 38.4946 44.3087 38.5781 45.6439 38.7949M61.5699 55.7272C61.9866 45.0734 57.4219 40.2202 45.6439 38.7949M61.5699 55.7272C63.2301 55.9551 66.5507 56.9798 66.5507 59.2554C66.5507 61.5309 66.5507 77.0592 66.5507 84.5389C66.5556 85.59 65.8798 87.6922 63.1375 87.6922M45.6439 38.7949C45.6439 49.9984 23.5473 52.9007 21.1483 38.3565M47.1156 15.1699C45.5815 15.1699 47.8148 33.4772 33.5032 33.7005C23.4205 33.8578 19.8685 25.7159 19.1076 20.1614M47.1156 15.1699C49.233 15.1699 52.1706 11.263 51.6728 8.47222C51.2195 5.9312 48.0837 -1.69989 39.5411 2.68482M47.1156 15.1699C47.7379 17.4026 39.5411 17.1793 36.8633 15.1699C34.1855 13.1606 26.2851 12.2676 22.5517 13.049C19.5649 13.6741 18.9012 16.6584 18.9426 18.0724C18.9525 18.7031 19.0044 19.4085 19.1076 20.1614M36.8633 4.34189C37.8098 3.66266 38.7016 3.11572 39.5411 2.68482M39.5411 2.68482C38.6466 3.17693 25.9118 -3.02581 19.5649 5.6814C14.4874 12.6472 15.8729 17.8863 17.2003 19.6351L19.1076 20.1614M32.1342 4.34189C30.0881 3.70932 25.3069 3.27025 22.5517 6.57447M20.436 9.7001C20.1456 10.1466 19.5649 11.2406 19.5649 12.0443M42.9613 4.34189C44.828 4.19308 48.5366 4.81082 48.4371 8.47222M79.0624 14.0929C76.5601 14.1092 70.9737 16.5568 71.501 21.1682C72.1538 26.8772 79.0624 27.3717 81.8368 26.4869C84.2847 25.7062 90.1598 18.6796 81.8368 14.8248M89.9945 49.6233C79.6728 50.1376 86.6973 38.5002 92.1449 46.6014M4.67325 87.6922H63.1375M4.67325 87.6922C4.67325 87.6922 1.93858 87.8433 1.93858 89.9704C1.93858 92.0976 4.67325 92.0976 4.67325 92.0976H63.1375C63.1375 92.0976 66.0853 92.0976 66.0853 89.9014C66.0853 87.6531 63.1375 87.6922 63.1375 87.6922M57.0241 7.69077V34.4818C57.1485 36.2679 58.5672 39.9293 63.2465 40.2865C67.9258 40.6438 85.8548 40.4354 94.2344 40.2865C95.8937 40.1005 99.4861 38.8354 100.581 35.2632C101.676 31.6911 101.038 15.3932 100.581 7.69077C100.208 6.28838 98.615 3.32384 95.23 2.68482C91.8449 2.0458 72.4973 2.03488 63.2465 2.1093C61.5872 2.51861 58.0197 4.20793 57.0241 7.69077ZM76.4381 7.69077H80.9183C81.4161 9.70011 83.5317 12.9151 88.0119 9.7001L91.372 12.0443C89.6405 14.0537 87.6643 18.0724 93.6121 18.0724V22.2905C91.1014 22.6971 87.0482 24.5448 90.9214 28.6827L88.0119 31.4152C88.0119 31.4152 81.2384 27.4413 81.2384 34.1477C81.2384 34.3917 76.4381 34.1477 76.4381 34.1477C76.4381 34.1477 75.9617 27.2188 69.7602 31.4152C69.2821 31.7387 66.5507 28.6827 66.5507 28.6827C66.5507 28.6827 71.1724 22.6809 63.8851 22.6809C63.2465 22.6809 63.8851 18.0724 63.8851 18.0724C63.8851 18.0724 71.1202 17.167 66.5507 12.0443C66.3592 11.8296 69.5519 8.89654 70.141 9.31097C75.6897 13.2146 76.4381 7.69077 76.4381 7.69077ZM76.4381 52.7094C76.2917 51.0431 77.8815 49.5839 79.7444 49.6233C81.5667 49.6617 83.0417 51.0795 82.8983 52.7094C82.7659 54.2148 81.4275 55.31 79.7444 55.3455C78.0174 55.3819 76.5739 54.2542 76.4381 52.7094ZM71.4297 53.7381C72.675 53.7021 73.6975 54.6099 73.7234 55.7272C73.7459 56.6975 72.6715 57.7408 71.4297 57.7049C70.2276 57.6701 69.2828 56.806 69.2793 55.7272C69.2759 54.6452 70.224 53.773 71.4297 53.7381ZM29.353 72.0927C29.0655 69.7403 30.8653 69.0509 33.5032 69.0945C36.0588 69.1367 37.4933 69.8143 37.2077 72.0927C36.9384 74.2419 35.914 74.3374 33.5032 74.3713C31.0053 74.4064 29.6253 74.3202 29.353 72.0927Z" stroke="url(#paint0_linear_2_551)" stroke-width="1.68694" stroke-linecap="round"/>
<path d="M99.067 61.436C97.3093 61.4488 93.3853 63.3655 93.7557 66.9766C94.2142 71.4473 99.067 71.8345 101.016 71.1416C102.735 70.5302 106.862 65.0278 101.016 62.0092M97.2236 56.4226H100.371C100.72 57.9961 102.206 60.5137 105.353 57.9961L107.713 59.8318C106.497 61.4053 105.109 64.5523 109.287 64.5523V67.8554C107.523 68.1739 104.676 69.6208 107.397 72.8611L105.353 75.0009C105.353 75.0009 100.595 71.8889 100.595 77.1407C100.595 77.3317 97.2236 77.1407 97.2236 77.1407C97.2236 77.1407 96.889 71.7147 92.5329 75.0009C92.1971 75.2542 90.2785 72.8611 90.2785 72.8611C90.2785 72.8611 93.5249 68.1611 88.4062 68.1611C87.9576 68.1611 88.4062 64.5523 88.4062 64.5523C88.4062 64.5523 93.4882 63.8433 90.2785 59.8318C90.144 59.6637 92.3866 57.3668 92.8004 57.6914C96.6979 60.7482 97.2236 56.4226 97.2236 56.4226Z" stroke="url(#paint1_linear_2_551)" stroke-width="1.68694" stroke-linecap="round"/>
<defs>
<linearGradient id="paint0_linear_2_551" x1="51.093" y1="1" x2="51.093" y2="92.0976" gradientUnits="userSpaceOnUse">
<stop stop-color="#1773B9"/>
<stop offset="1" stop-color="#5CD9E6"/>
</linearGradient>
<linearGradient id="paint1_linear_2_551" x1="98.7469" y1="56.4226" x2="98.7469" y2="77.2256" gradientUnits="userSpaceOnUse">
<stop stop-color="#5CD9E6"/>
<stop offset="1" stop-color="#5CD9E6"/>
</linearGradient>
</defs>
</svg>
